<?xml version="1.0" encoding="UTF-8"?>
<svg id="Layer_1" xmlns="http://www.w3.org/2000/svg" version="1.1" viewBox="0 0 1495.27 386">
  <!-- Generator: Adobe Illustrator 29.3.1, SVG Export Plug-In . SVG Version: 2.1.0 Build 151)  -->
  <defs>
    <style>
      .st0 {
        fill: #fff;
      }
    </style>
  </defs>
  <path d="M653.61,199.7l-27.04,19.51c-35.64-8.11-59.22-35.7-57.99-73.05,1.09-33.01,28.03-68.88,61.8-73.2,16.57-2.12,24.42,6.99,39.66,5.66,3.67-.32,7.25-4.15,10.5.74.47,1.63-1.02,3.59-1.74,5.02-2.25,4.45-21.89,32.26-24.89,33.15-2.24.66-5.42.06-6.14-2.54-1.21-4.41,5.45-6.68,1.9-12.84-4.46-7.75-18.21-10.87-26.42-10.31-7.21.49-13.73.93-17.82,7.17-15.09,23.04-13.54,63.14,6.15,83.24,2.34,2.39,17.08,12.66,19.77,13.22,7.53,1.57,18.88-6.52,19.35-14.28.22-3.58-.56-14.31-1.19-17.87-3.02-17.13-15.6-5.43-23.36-6.57-2.98-.44-4.18-4.43-3.02-7,.57-1.26,10.84-14.79,12.07-15.97,4.2-4.03,9.96-.34,14.95-.09,4.95.24,32.73-.9,34.06.95,3.35,4.64-7.54,8.82-8.49,15.66-2.48,17.96,1.03,38.74-1.07,55.93-.97,7.91-13.08,19.79-20.47,22.46-3.5-1.02.35-16.01.49-19.45.13-3.3,0-6.4-1.05-9.54Z"/>
  <path d="M1344.52,83.79c2.21,3.19-7.24,9.04-9.42,11.88-4.77,6.21-5.79,12.9-6.46,20.54-1.54,17.39-1.54,44.95.89,61.99.66,4.65,4.12,12.7,2.15,16.05-1.83,3.12-12.48,11.18-16.01,12.04l-1.56-.5-52.47-84.1-1.09,36.48c1.49,11.83.73,22.04,11.14,29.95,1.64,1.25,5.69,2.3,6.45,3.55,1.26,2.07.6,8.21-1.52,9.5-3.37,2.05-24.29,0-29.66-.1-3.94-.07-14.76,3.12-15.35-2.92-.54-5.52,7.05-6.77,10.04-10.23,9.53-11.03,6.67-51.37,6.94-66.78.07-3.94,1.42-7.44,1.08-12-.43-5.7-3.65-12.36-8.68-15.31-3.79-2.22-14.55-2.63-8.93-9.23,3.65-4.28,14.05-.86,19.06-.83,3.66.02,15.23-2.27,17.28.16.64.75.96,4.15,1.73,5.76,10.34,21.57,29,51.34,42.67,71.33.48.7,2.34,3.16,2.82,2.66.39-3.61,1.74-6.88,2.06-10.53.8-9.24.6-24.62,0-34.01-.29-4.58-1.79-16.37-4.02-19.98-3.06-4.97-13.99-4.42-12.81-10.73,1.9-10.23,24.31-6.07,31.29-5.66,4.2.25,7.78-2.04,12.4,1Z"/>
  <path d="M851.28,132.35c-2.38,2.19-12.72,6.55-12.53,8.66,8.37,11.25,14.48,29.42,23.45,39.61,7.37,8.37,15.82,5.78,1.95,18.1-3.21,2.85-12.66,10.4-16.51,6.46l-28.52-56.6c-2.17-.3-7.13,2.33-8,4.11-2.68,5.46-.99,26.93,1.72,32.28,2.68,5.3,18.32,10.18,6.77,15.22-4.43,1.93-29.38,1.26-35.55.56-9.11-1.04,2.68-11.2,3.9-15.21,3.3-10.85,1.8-35.15,1.7-47.31-.07-9.92,2.02-32.11-3.61-39.48-3.43-4.49-9.74-3.44-12.06-9.04-.59-1.14-.15-1.67.52-2.56,4-5.28,23.01-1.2,29.53-1.44,16.39-.6,27.61-7.33,44.27,1.77,17.46,9.54,16.55,32.33,2.95,44.86ZM810.63,138.69c5.59-.64,12.65-1.98,17.33-5.17,11.83-8.05,12.24-32.91-2.36-38.3-4.26-1.57-11.71-3.21-13.53,2.41-1.93,5.95-.12,23.96-.4,31.6-.11,3.16-1.58,6.21-1.04,9.46Z"/>
  <path d="M905.97,101.03c-7.88,7.92-10.66,29.36-10.39,40.21.38,15.38,8.09,32.58,22.15,39.93,11.06,5.78,17.8-7.52,17.93-17.03.02-1.65-.88-10.5-1.23-11.76-1.98-6.99-15.83,2.09-20.38-1.62-2.27-3.12,7.53-14.51,10.28-17.08,7.37-.01,15.62,2.15,22.8,2.09,2.94-.02,12.14-3.17,13.39.55,1.42,4.23-2.67,5.61-3.66,9.09-1.78,6.22-1.23,28.89-.17,35.72.59,3.8,3.97,4.56,3.84,7.86-.23.88-8.29,8.57-9.69,9.69-17.02,13.65-9.5.66-15.22-11.99-1.05-.78-14.71,16.18-19.71,16.79-8.55,1.04-24.71-9.96-30.25-16.32-23.95-27.54-15.49-71.09,12.05-92.89,9.48-7.5,18.46-15,31.19-12.35,4.04.84,9.42,4.53,13.3,4.7,3.26.15,8.29-1.78,11.8-1.85,5.21,1.47-4.36,16.65-5.86,19.93-1.65,3.61-3.04,15.32-9.54,13.58-4.23-1.13-2.17-5.52-4.53-8.54-2-2.57-15.97-10.26-19.22-10.86-2.39-.44-7.11.36-8.89,2.14Z"/>
  <path d="M1182.38,80.9c3.52-.57,12.97.96,16.52,2.02,40.13,12,40.45,74.99,14.22,100.77-3.57,3.51-22.08,19.64-25.46,20.53-18.17,4.79-40.74-17.54-46.51-33.55-6.32-17.54-3.05-50.72,7.65-66.31,3.36-4.9,28.11-22.57,33.58-23.46ZM1201.35,180.42c1.51-1.52,5.78-13.18,6.55-15.95,6.94-24.78.89-60.77-29.22-65.32-7.4-1.12-8.83.39-12.23,6.87-10.32,19.69-10.08,50.03,5.2,67.14,5.88,6.59,22.31,14.72,29.7,7.26Z"/>
  <path d="M746.12,84.69c5.11,5.26-2.12,11.09-1.49,17.41.21,2.09,2.28,5.43,2.91,8.17,4.74,20.49,9.38,43.71,15.36,63.64,2.95,9.82,6.24,13.43,13.51,20.42-1.61,10.4-8.63,6.46-15.25,6.33-9.45-.18-18.95.35-28.39-.1-4.58-7.68,5.13-8.81,6.61-14.6,1.01-3.98.28-18.94-3.18-21.34-3.52-2.45-22.96-2.66-26.57-.41-3.28,6.09-7.78,16.78-2.88,22.86,3.37,4.18,10.44,2.06,9.82,10.04-.54,6.98-11.24,3.6-16.4,3.56-3.81-.03-19.83,1.38-21.39-1.13-1.39-5.17,4.14-8.41,6.66-12.52,12.69-20.73,16.74-56.91,25.94-80.09,1.36-13.01-12.2-9.81-14.12-14.48-1.52-3.69,1.78-7.74,4.86-7.74h44ZM723.61,111.69c-2.56-.4-1.55.23-2.09,1.41-2.24,4.94-4.93,15.22-6.23,20.77-.64,2.75-4.26,16.07-1.01,16.86,2.88-.23,17.36.11,18.26-2.67l-8.93-36.36Z"/>
  <path d="M1015.64,151.69c1.42-.12,1.57-1.47,2.03-2.46,3.65-7.91,13.72-37.32,13.99-45.09.35-9.89-6.67-9.69-8.54-13.44-5.4-10.82,19.54-6.19,24.91-6.1,1.6.03,7.07-1.99,8.47.22,2.18,3.44-3.3,8.01-4.69,10.55-12.43,22.68-17.51,49.6-30.01,72.99-2.35,4.4-8.11,8.94-5.65,14.32,3.23,7.05,20.45,3.31,21.43,6.62,1.43,4.83-11.62,14.01-16.47,14.44-4.85.44-13.95-1.99-19.09-1.95-2.92.02-20.7,3.95-21.39.37,4.79-12.53,21.45-15.78,19.89-31.85-1.12-11.54-15.2-38.62-20.38-50.63-3.01-6.96-5.07-17.28-9.98-23.02-2.39-2.79-10.47-6.03-9.47-9.34,4.65-6.07,12.08-2.5,18.44-2.62,11.73-.22,25.89-6.47,17.9,11.98,3.4,18.89,12.9,36.62,18.61,55.01Z"/>
  <path d="M856.03,318.68c-3.11,3.77-16.85,11.33-21.25,8.38-6.9-4.64-14.71-32.17-20.6-40.42-1.74-2.44-4.14-3.9-6.6-1.41-1.87,1.89-1.55,17.64-1.13,21.14.85,7.2,4.1,10.57,10.42,13.58l.02,4.08c-5.75,3.95-13.19,1.05-19.05,1.15-3.46.06-17.21,2-19.36.67-3.51-6.56,5.44-8.01,7.73-12.49,1.05-2.06,1.79-6.61,1.99-9,1.12-13.29,1.29-36.76.17-49.91-.22-2.59-.85-6.66-2.16-8.84-2.64-4.4-11.73-4.63-11.49-8.12.48-6.89,15.3-3.8,19.73-4.1,15.33-1.07,31.36-7,45.57,2.41,13.77,9.13,11.31,28.32-.79,37.6-3.26,2.5-7.05,3.15-9.67,6.08,8.14,11.66,13.53,28.69,27.33,34.48.97,1.38.07,3.58-.89,4.74ZM807.35,275.98c14.5-.71,26.92-10.66,20.73-26.23-2.48-6.24-13.54-12.41-19.33-7.85-2.42,1.9-1.33,13.73-1.41,17.58-.03,1.69-1.03,3.42-1.03,5.06,0,3.59,1.86,7.54,1.04,11.45Z"/>
  <path d="M1139.29,285.02c-1.9-.07-6.22.76-6.81,2.6-.78,2.41-1.3,12.95-1.17,15.91.33,7.28,1.69,15.09,9.9,16.57.45,10.07-13.99,5.89-20.32,5.84-6.54-.05-12.21,1.53-18.5,0-1.7-6.76,4.46-5.74,7.41-10,1.51-2.18,2.59-6.26,3.1-8.9,1.72-8.95.52-22.28.4-31.52-.18-13.71,5.2-33.12-12.51-36.48-.84-1.22-.82-3.69.51-4.61,1.92-1.32,19.27-.1,23.53-.47,4.89-.43,10.15-2.55,15.03-2.97,39.29-3.33,48.33,32.5,14.51,48.55-.45,1.99,14.48,24.12,17,26.91,2.72,3,10.3,7.16,10.02,9.98-.38,3.77-16.29,14.14-21.07,11.06l-21.04-42.48ZM1132.35,246.48c-1.31,8.56.97,20.08,0,29,0,2.06,6.78.65,8.24.23,19.56-5.61,17.9-34.94-2.11-35.19-4.17-.05-5.51,1.91-6.13,5.95Z"/>
  <path d="M1187.51,239.83c-1.46-2.35.52-6.51,3.56-6.63,18.94.25,38.15-3.86,56.26,3.29,30.02,11.86,30.33,53.67,9.57,74.53-18.35,18.44-35.45,14.99-59.06,14.88-2.21-.01-17.97,2.67-12.56-4.49,3.19-4.22,9.84-2,11.83-12.17,2.14-10.94,2.72-46.42.8-57.25-.39-2.21-1.26-5.75-2.54-7.55-1.91-2.69-7.61-4.21-7.87-4.62ZM1220.1,241.15c-1.08.2-2.5.92-3.17,1.8-1.69,4.98.4,9.91.46,14.48.12,8.63-1.55,52.43,1.93,56.07,4.25,4.45,16.88-.44,20.97-4.09,11.23-10.04,12.12-39.63,5.27-52.14-4.03-7.36-16.57-17.75-25.45-16.12Z"/>
  <path d="M1059.77,201.54c-2.21-6.97,3.92-9.52,6.7-14.51,3.07-5.51,3.56-11.79,3.78-18.01.61-16.82.93-43.4-.64-59.82-.28-2.88-.96-8.61-1.91-11.09-1.91-4.96-8.31-4.87-7.13-10.76.27-1.11,5.15-2.54,6.53-2.69,7.61-.81,15.58-.1,23.02-.17,3.57-.04,16.54-3.59,14.1,4.23-1.49,4.77-10.37,6.01-11.63,16.45-1.79,14.89-.05,32.07.07,46.99.08,10.3-.27,20.61.1,30.9.85,2.61,11.41,1.95,13.91,1.19,3.49-1.06,7.15-7.91,8.83-11.17,1.95-3.8,6.1-18.38,8.82-19.22,3.29-1.01,5.65.63,6.78,3.71-.53,7.34-1.18,15.32-.52,22.67.47,5.19,4.92,16.44.61,19.53-2.86,2.05-38.2.69-45.11.88-4.03.11-24.92,3.11-26.31.89Z"/>
  <path d="M1052.81,230.55c35.75-5.13,49.57,39.21,37.71,67.11-4.6,10.83-18.81,24.54-29.23,29.77-12.54,6.29-32.18-4.64-40.46-14.44-23.69-28.04-3.1-77.41,31.98-82.44ZM1042.06,245.19c-8.96,2.04-12.19,27.01-11.2,34.8,1.97,15.42,14.97,38.27,33.55,32.53,12.47-3.85,12.98-36.39,9.67-46.78-3.86-12.08-19.06-23.51-32.01-20.56Z"/>
  <path d="M1299.65,249.27c-1.25,1.56-1.69,4.09-1.14,5.99,2.03,7.1,22.21,11.77,28.51,14.54,36.16,15.93,7.49,61.41-24.07,58.07-4.55-.48-12.39-3.99-16.12-3.94-2.7.03-12.62,5.49-11.29-3.21.44-2.89,12.89-27.13,14.46-27.64,5.38-1.76,6.47,7.05,8.5,10.24,5.35,8.37,19.36,14.36,26.27,4.59,12.24-17.3-22.51-21.09-32.36-28.5-20.19-15.2-.51-52.78,23.33-50.32,4.55.47,11.28,3.93,15.1,3.92,3.66-.01,6.54-3.47,10.44-.47,4.7,3.62-1.81,9.61-3.44,13.44-1.9,4.5-2.12,11.26-6.46,13.6-1.61.38-8.87-9.74-11.53-11.61-5.8-4.07-15.51-4.57-20.2,1.3Z"/>
  <path d="M890.35,243.98v24.5c0,3.08.14,4.32,3.5,4.59,1.67.14,10.88-1.19,12.28-1.82,2.07-.95,10.23-13.89,11.28-1.82.31,3.58-.55,17.32-1.12,20.98-.53,3.46-3.11,6.48-6.53,3.66-2.32-1.91-.58-6.66-5.68-9.31-4.64-2.41-8.83-.52-13.72-.79v27.5c0,.42,1.14,3.17,1.71,3.52,7.48,2.54,17.59-.38,23.23-5.58,3.56-3.28,7.89-15.07,13.11-6.91-2.22,5.52-.18,22.61-6.78,24.33-2.03.53-5.1-1.04-7.77-.94-14.61.55-32.39,1.63-47.02,1.16-1.67-.05-4.57-.26-5.55-1.75-3.53-5.33,3.22-6.06,5.59-8.29s4-10.16,4.35-13.65c1.18-11.84,1.26-38.08.16-49.92-.93-10-6.39-8.68-11.96-15.1-.3-1.74,3.45-4.73,5.37-4.41,18.91,1.31,37.88,1.75,56.59-1.52,6.39,1.66.98,18.55,1.76,23.87-5.54,7.99-11.04-5.27-14.76-8.84-5.68-5.45-10.8-3.03-18.04-3.46Z"/>
  <path d="M949.75,318.54c-18.02-15.12-16.9-50.75-4.24-68.89,3.34-4.78,20.13-17.04,25.77-18.22,8.98-1.88,11.95,2.18,18.7,2.5,3.76.18,15.87-4.7,14.19,3.32-.43,2.04-5.69,13.87-6.95,16.12-1.11,1.98-5.89,9.53-8.39,5.63-.77-1.19-.27-3.53-1.43-5.57-3.15-5.54-17.75-11.12-23-6.89-2.15,1.73-5.42,8.83-6.33,11.66-8.11,25.19,3.18,62.31,35.66,48.66,3.57-1.5,7.83-6.81,11.55-2.26.36,1.22.09,2.25-.43,3.37-.48,1.03-13.27,13.63-15.02,14.99-12.02,9.34-29.2,4.71-40.07-4.41Z"/>
  <path class="st0" d="M810.63,138.69c-.54-3.25.92-6.3,1.04-9.46.28-7.64-1.53-25.65.4-31.6,1.82-5.63,9.27-3.99,13.53-2.41,14.6,5.39,14.18,30.25,2.36,38.3-4.68,3.18-11.73,4.53-17.33,5.17Z"/>
  <path class="st0" d="M1201.35,180.42c-7.39,7.46-23.81-.67-29.7-7.26-15.28-17.11-15.53-47.46-5.2-67.14,3.4-6.49,4.83-7.99,12.23-6.87,30.11,4.55,36.17,40.54,29.22,65.32-.78,2.77-5.04,14.42-6.55,15.95Z"/>
  <path class="st0" d="M723.61,111.69l8.93,36.36c-.89,2.78-15.38,2.44-18.26,2.67-3.25-.79.37-14.11,1.01-16.86,1.3-5.55,3.99-15.83,6.23-20.77.53-1.18-.48-1.81,2.09-1.41Z"/>
  <path class="st0" d="M807.35,275.98c.82-3.91-1.05-7.86-1.04-11.45,0-1.64,1-3.37,1.03-5.06.08-3.85-1.01-15.68,1.41-17.58,5.79-4.56,16.85,1.62,19.33,7.85,6.19,15.57-6.23,25.52-20.73,26.23Z"/>
  <path class="st0" d="M1132.35,246.48c.62-4.04,1.97-6,6.13-5.95,20.01.24,21.67,29.58,2.11,35.19-1.46.42-8.24,1.82-8.24-.23.97-8.92-1.31-20.44,0-29Z"/>
  <path class="st0" d="M1220.1,241.15c8.88-1.63,21.42,8.76,25.45,16.12,6.86,12.52,5.96,42.11-5.27,52.14-4.09,3.65-16.72,8.54-20.97,4.09-3.48-3.64-1.81-47.45-1.93-56.07-.06-4.57-2.15-9.5-.46-14.48.67-.88,2.1-1.6,3.17-1.8Z"/>
  <path class="st0" d="M1042.06,245.19c12.95-2.95,28.16,8.48,32.01,20.56,3.32,10.39,2.8,42.92-9.67,46.78-18.57,5.74-31.58-17.12-33.55-32.53-.99-7.8,2.24-32.77,11.2-34.8Z"/>
  <g>
    <path d="M301.98,117.22l-.55-1.05c1.83-4.06,5.47-6.93,9.65-8.36,2.03-.7,11.97-2.39,12.66-3.52,1.64-2.65-6.86-8.08-4.03-10.47,3.15-2.66,17.26,5.14,19.02,3.86-1.49-4.38-2.53-9-4.54-13.19-2.58-5.39-8.89-14.42-12.72-19.14-5.91-7.29-13.43-11.03-19.74-17.77.65-.78,1.15-1.35,2.26-1.29.59.03,6.44,2.26,7.63,2.7,23.05,8.45,32.03,22.58,49.15,37.71.56.49.77,1.26,1.34,1.75,2.96-.86.16-8.57,3.56-8.23,2.9.29,10.22,9.81,13.91,10.79,1.1-.69.43-.88.41-1.41-.27-7.66-8.85-26.98-13.4-33.39-1.39-1.96-9.73-8.87-8.32-10.9,3.38-1.34,7.67.18,10.74,1.8,8.04,4.24,20.38,22.58,24.63,30.88,3.02,5.9,3.73,8.19,7.7,13.89.75,1.08,3.18,7.1,4.7,5.83.98-.82,1.56-11,3.35-12.33,1.34-.32,3.61,6.02,3.99,7.31.94,3.19,1.81,12.37,4.49,14.02,1.81,1.12,3.68-1.18,5.63-.75.15,6.63,1.37,12.89-.96,19.32-.05.78.12,1.49.62,2.1.62.76,5.94,5.02,6.97,5.61,1.98,1.14,3.59,2.38,5.91,1.15,3.72-1.97,6.29-9.16,9.67-1.32,2.89,6.72.71,10.05,1.22,15.85.18,2.03,1.46,4.27,1.71,6.4.76,6.4-2.72,16-6.4,21.24-7.74,11.05-7.47,1.34-11.3-4.57-1.02-1.57-3.24-3.37-5.16-3.61-1.52-.07-.96,3.05-1.73,4.39-.59,1.03-5.42,5.06-6.44,4.85-3.21-4.52.45-11.21-5.68-13.87-.52.04-2.82,5.91-2.82,6.92,0,.87,1.5,8.5,1.82,8.98,1.82,2.7,4.49-.97,5.39-.25,1.82,1.67,1.07,7.37,2.55,8.25,2.18,1.3,7.56-2.09,8.24-4.37,3.82,1.16,1.15,7.95,1.01,11.06-.19,4.24,3.8,7.08,5.67,10.76,5.02,9.87,2.84,20.02,6.65,29.33,1.6,3.9,4.49,6.7,8.75,7.44-.98,4.53-8.96.42-11.05-1.55-7.61-7.18-5.89-19.95-9.49-29.06-.98-2.47-2.67-4.46-3.63-6.92-4.21.25-.41,8.76-2.05,10.28-2.43.4-1.48-6.19-2.82-6.16-1.69,1.94-7.89,9.81-10.29,9.61-.59-.05-2.04-2.29-3.29-1.88.18,3.63-11.54,9.18-12.83,7.1-.5-3.4,2.12-5.99,2.51-9.44.4-3.54.27-8.34-2.59-10.81-2.27-1.66-8.05,5.1-9.51,2.86-.4-1.22-.32-2.61-.23-3.87.27-3.65,1.95-7.31,1.55-11.29-.4-3.99-2.95-8.52-5.24-11.76-1.86-2.63-10.86-13.9-14.58-10.12-2.83,2.87-.93,17.66-2.13,22.53-1.04,4.23-6.58,8.5-7.33,12.72-.59,3.34.48,7.1.5,10.23.02,2.17-.77,9.22-.23,10.64.67,1.75,2.14,1.42,3.81,1.46v-8.48c0-.14.8-1.41,1.03-1.55,1.29-.8,11.96,2.36,12.89,3.56,1.27,1.63-1.35,10.58.46,12.4.86.87,4,1.35,4.57-.08,1.05-3.18-2.22-7.93.94-10.41,1.32-.41,10.13,3.21,11.65,4.13,5.04,3.06-2.14,13.47,5.68,13.71,2.44-.58-.9-9.12,2.2-10.64,1.32-.43,10.27,2.44,11.2,3.55,1.94,2.32.24,10.91.24,14.12,0,3.41,1.11,7.23.52,10.77-.42,2.53-4,5.48-4.77,8.08-1.28,4.35.88,16.34,1.85,21.1,1.19,5.83,4.49,13.23,5.29,18.36.13.81-.47,2.36-.28,2.57.08.09,1.15-.05,1.78.53.5.47,1.02,2.21,1.59,3.05,7.78,11.48,14.02,16.28,27.33,20.98,4.5,1.59,9.57,2.18,13.69,3.79,2.11.83,5.67,2.24,3.84,5.01l-349.07.48-1.32-1.28c-.61-2.49,6.32-6.82,8.17-8.62,12.12-11.77,18.81-31.87,22.97-47.96,6.43-24.85,3.42-47.52,3.72-72.86.04-3.69,1.54-16.82.07-19.04-.5-.75-1.67-.96-2.12-1.61-.55-.8-4.25-7.51-4.47-8.25-.88-2.98-.11-4.51-.11-7.04-.02-5.89-.95-17.37.09-22.52,1.26-6.2,11.63-4.24,16.36-5.23,4.7,3.29,3.45,7.48,3.64,12.49l3.53.59v-9.51c0-.17.68-3.18.76-3.35,1.04-2.17,10.31-1.5,12.83-2.58,3.29-.33,5.42,2.97,5.42,5.93v7.45h4.62c.6-.58-1.14-10.31.49-12.63,1.2-1.71,7.2-1.78,9.29-1.76l.47-39.79c-1.35-5.44-4.73-10.09-8.58-14.03-1.19-10.55-.53-21.31-.29-31.89.84-2.8,2.59-4.42,5.57-4.75s9.6-.85,12.29-.47c1.44.2,4.42,1.81,4.42,3.29v11.05h4.63v-12.08c0-.39.87-2.47,1.25-2.86,1.98-2.03,13.97-2.2,17.14-1.68l.67.52c1.13,3.04,2.35,5.53,2.74,8.83.12,1.01-.38,4.12.02,4.7.66.95,5.51-.57,6.97,0v-14.65c0-2.77,7.04-2.14,8.97-2.34,3.23-.34,6.98-1.55,10.19-.89.98.2,6.05,2.97,6.58,3.7,1.5,2.09-.35,11.68.58,14.84.45,1.52,2.19,1.49,3.49,1.39v-13.62c0-.32.77-.71,1.24-.75,1.29-.09,9.47,4.02,10.32,5.13,2.02,2.66.61,6.72.76,10.03.16,3.62.05,7.03,4.59,5.83,1.84-2.74-1.7-10.82,1.57-11.99,2.01-.72,3.95,1.57,5.48,2.23,1.66.72,6.61,1.9,7.29,3.5,1.04,2.45.1,6.44.09,9.12-.02,7.02.36,14.04-.59,20.99-3.62,3.77-8.4,7.39-9.09,13.01-1.25,10.13,1.26,21.78.46,32.07,2.74-2.83,4.78-6.36,7.44-9.26,4.2-4.58,9.59-8.42,14.65-11.82l-.31-1.05c-.62-.48-6.92-2.54-7.65-2.54h-8.22ZM192.76,58.63v27.24c6.96-.59,13.88-1.8,20.82-2.57,8.7-.96,17.51-1.29,26.2-2.07,7.46-.67,14.87-1.79,22.36-2.06-.23-1.21-.5-2.59-.52-3.83-.12-5.21.11-10.29-.01-15.42-.04-1.58.55-8.67-.73-8.89l-10.95,1.53c-1.89,4.89.7,10.18-.61,15.03-1.24,1.06-10.44,2.21-12.62,2.32-2.36.11-4.75-.08-6.99-.8-.88-2.4,1.16-13.07-.45-14.39l-9.26.81c.43,2.53,1.21,13.76.05,15.21-2.01,1.14-15.17,3.45-15.99,1.37l.3-14.04c-.41-.55-.9-.49-1.51-.46-3.22.16-6.85.73-10.1,1ZM325.23,60.33c-.47-.25-.92-.16-1.41-.15.29,2.59,1.4,4.14,4.11,3.09-1.74,1.84-.77,2.64.51,4.37l2.05-1.8c0,2.03-1.96,3.9.51,5.14-.47-1.08,1.59-4.31,2.06-2.3.3,1.27-1.48,3.48-.51,4.36s2.01-2.7,3.07-2.57l-1.54,4.36c1.03,1.63,2.29-1.22,3.6-1.27l-1.8,4.11c1.14,1.82,2.94-2.5,4.37-2.06.62,1.21-3.89,4.72-2.57,5.4,1.9.98,4.76-4.25,5.66-3.34-.21,2.01-3,3.68-3.52,4.96-1.35,3.31,4.35-1.83,5.06-1.36.71.69-4.42,4.5-3.59,6.17l5.55-4.06,2.15.21c-2.01.58-5.37,4.26-6.16,6.17-1.09,2.64,3.51-1.83,3.73-1.95.87-.49,1.92-.95,2.95-.88l-4.62,5.92c.06,2.08,1.88-.55,2.59-1.01,1.12-.72,2.39-1.2,3.56-1.83.76.81-7.09,6.75-3.85,6.67.2,0,2.57-2.07,3.19-2.48.54-.35,2.7-2.1,3.24-1.62l-5.14,7.19c.39.39,4.95-3.71,5.81-4.21,1.61-.95,3.62-2.03,5.5-1.96-11.25-10.84-20.38-24.39-34.06-32.4-.34-.2-.42-.8-.51-.85ZM382.42,67.36c-1.14-2.34-3.93-2.52-6.16-3.08l1.51,3.35,4.65-.28ZM382.93,68.92c-.83.08-4.47-1.47-4.12.26,2.82,6.49,5,13.33,5.67,20.29,1.39-.1,1.84-1.27,3.37-1.51,1.68-.27,3.65.12,5.37-.03.2-1.17-.1-1.01-1.01-1.28-2.17-.65-4.94-.8-7.21-.78,1.61-2.22,5.03-.28,7.19-1.28l-1.28-1.31-5.91-.49c-.25-1.55.38-.82,1.25-1.04.53-.13,5.11-.38,3.89-1.52l-6.68-1.04c.73-2.33,5.17.65,5.14-2.04l-5.65-1.04,3.6-1.79-4.63-1.3c-.55-1.98,2.69.13,3.6-1.03-.8-2-2.83-1.56-4.62-1.54l2.05-1.53ZM278.08,84.33c1.25-1.15-5.8-3.82-6.68-3.59-.53.45,1.48,2.14,1.66,2.21,1.54.6,3.48.61,5.02,1.38ZM292.98,89.99l-11.3-5.15c-.31,1.22.79,1.27,1.61,1.71,3,1.6,6.63,2.29,9.45,4.45l.25-1.01ZM260.08,90.49l.03-4.39c-4.02-1.04-6.32.02-6.19,4.39h6.16ZM246.13,86.47l-6.11.15-.26,4.4c.63.88,5.62.67,6.63.03,1.32-.84.47-4.13-.25-4.58ZM231.71,92.44c.2-.27.69-3.22.63-3.72-.37-3.06-5.4-1.38-6.97-.29-.47,2.39.05,5.37,3.04,5.13.5-.04,3.12-.89,3.3-1.13ZM217.87,89.55c-2.29-1.44-3.43.28-5.49,1.03-.82,5.16,2.06,3.4,5.57,3.52l-.08-4.55ZM384.47,98.21c-5.41-1.78-9.73-5.65-14.38-8.75l-1.03,3.6c.89-.37,1.89-2.96,3.07-1.28l-3.07,4.36c.31.29,3.17-1.88,3.44-2.16.08-.08-.45-1.66.92-1.43s.24,1.17.05,1.58c-.65,1.44-2.47,4.03-.32,5.38,1.62,1.02,2.85-2.1,4.64-1.82.73.71-3.43,3.31-1.27,3.6.81.11,3.04-1.68,4.22-1.94,1.35-.3,4.15.62,3.74-1.14ZM203.98,94.53c1.48-5.42-6.35-5.67-5.49-1.33.62,3.14,3.32,2.66,5.49,1.33ZM412.68,109.95l-1.76-.42c-2.82-3.35-6.23-6.1-9.23-9.27-3.64-3.84-5.87-9.6-12.5-9.19l-3.16,6.1,5.13-3.59-3.08,4.62,3.08-1.02-1.03,2.05,3.59-1.03-1.02,3.08,3.09.52c-1.73,3.06,1.46,3.14,3.35,5.13.85.9,5.3,6.7,5.39,7.46.36,2.85-2.88-1.35-3.11-1.53-2.57-2.03-4.66-1.77-7.69-1.3,1.74,2.66,3.8,4.77,7.19,3.59.62,1.46-.94,1.51-1.02,1.88-.38,1.85.06,4.95-.79,6.84-.51,1.15-3.2,3.26-3.84,4.63l7.16,1.09.29,1.48,7.96-4.11-3.59,3.35c-.14.76,0,.92.77.77.29-.05,3.09-1.69,3.96-2.11.39-.19.4-.88.77-.97.99-.22,2.2.09,3.23-.02-1.33-1.99-7.2-5.31-9.24-4.37-.51.23-6.03,6.62-7.21,3.6,2.13-.74,2.93-2.99,4.36-4.38,1.56-1.52,1.48-1.05,2.99-2.97.26-.33,1.12-.39,1.62-1.15,1.33-1.99.84-5.49.28-7.69,1.39,1.27,2.77,2.66,3.55,4.42.55,1.25,1.41,5.54,2.23,6.25.11.1,2.57,1.01,2.71,1,1.61-.1,3.06-5.02,2.81-6.53-3.29,1.31-1.07-1.51-1.78-3.06-.17-.37-3.83-4.57-4.14-4.64l-1.34,1.46ZM259.06,199.97l-.23-104.36c-.43-.62-.97-.39-1.52-.45-4.4-.48-14.57.68-19.57,1-8.54.54-16.9,1.41-25.34,2.93-1.34.24-9.01.86-9.34,1.2-.03,5.72-1.38,11.58-.49,17.2l-.33,24.94c3.8.59,7.53.68,10.99,2.64.68,2.92-.93,12.62.83,14.34.66.65,1.91.82,2.6,1.51,1.75-1.91-.06-12.74.83-13.29,2.5-.89,12.06,2.8,12.67,4.92l.11,50c1.03-.22.87-.95.96-1.73.25-2.11-.42-5.4-.37-7.74.1-5.14.1-13.16.97-18,.21-1.19,1.46-2.5,2.3-3.36,1.96-.16.56,3.39.77,3.59l4.11.26c-.31,2.63-3.81.91-4.12,3.08v23.39s2.03-.03,2.03-.03c1.63-4.8-1.51-17.59,1.02-21.21.96-1.38,1.93-.84,2.12.91.56,5.15.09,13.1-.08,18.48-.02.49-.58,1.23-.46,1.33h3.08c-.19-1.44-1.04-8.3.78-8.73,3.09,1.23.71,5.7,2.57,7.7.06-7.68,3.03-6.14,2.32.52,3.58-1.95,6.89-.84,10.79-1.03ZM360.83,155.26c-.37.41-2.44,1.72-1.83,2.58,3.69,2.19,7.99,2.52,11.84,3.59,1.57-.74-1.05-3.39,1.29-3.08l1.04,4.62,2.05-1.03-1.02-1.02h1.54s-.51,3.59-.51,3.59l2.04-1.53,1.03,1.78-1.53-.25c-.39,1.49,2.02,3.8,3.59,2.57.53.57-1.52,3.7.51,4.11-.42-1.54,1.16-2.62,2.05-1.26l-.52,2.8-1.01.25,3.08,5.92c2.57-1.38-1.91-2.55.25-4.1,2.17,1.17,1.22,4.95,3.79,4.66l.06,4.07-1.53-.26,2.83,4.37.26-1.54,1.53,1.29-1.54.78c1.78,5.03-.18,7.84-2.05,12.32,2.7-.85,2.93-2.95,3.86-5.14l.77,3.08,1.54-2.57c.6-.15,1.31.27,1.53.78.46,1.08-1.66.69-1.02,1.27.06.05.79.1,1.23.56,5.62,5.82,6.05,10.49,3.38,18.2,5.74,1.06,7.13-7.31,6.18-11.55,3.38.19,4.35,4.49,4.88,7.19,2.19-1.07,2.89-4.26,4.01-5.5.53-.58,1.68-.77,2.43-1.57.51-.55,2.49-3.71,2.04-4.23-6.82-1.36-11.27-.78-17.07-5.17-7.77-5.89-9.39-13.23-13.68-21.39-2.13-4.03-4.68-7.85-6.94-11.59-1.83-3.03-5.81-12.61-9.85-12.23l-.29,1.5-3.05.05c5.05-4.03.74-2.71-2.19-3.71-2.28-.79-3.48-3.44-6.27.14-1.58,2.04-.6,5.25-3.87,4.6.14-3.15,2.9-5.13,5.13-6.94l-1.02-1.06c-.69-.42-2.74,1.04-3.11,1.54-.71.98-.22,3.03-2.02,2.85-2.18-4.58,2.92-2.9,2.56-6.68-2.64-.17-3.21,3.06-5.4,4.1-1.82-1.36.14-1.67.54-2.59s-.67-2.9,1.27-2.79l-.26,1.28h1.8c.24-1.5-.84-2.07-.88-2.19-.23-.67.58-1.36-.41-1.92l-.57,1.57-3.27-.28c.31-1.9,2.82-2.15,3.33-2.8.42-.54-.87-3.3,2.82-3.11.78,4.06,4.89,7.27,8.83,8.4,8.69,2.49,16.65,1.08,26.25,4.59,5.26,1.92,11.17,4.81,15.29,7.83,1.32.97,4.03,1.62,5.48,2.78,1.25-.79.61-1.03,2.74-.46l-1.54,1.02,18.96,5.94,1.07,1.01-1.02.51c2.3,2.26,4.23,4.96,5.39,7.97,2.39-.81,1.77-3.51,2.35-5.27.17-.51.93-.43,1.15-1.02,2.82-7.48-.13-11.94-.17-18.62-.03-5.08.7-10.61,1.04-15.7-2.41,2.61-3.58,5.83-7.71,6.17l.52,2.05-2.11-.75.06-1.82c-3.25.83-5.19-2.67-7.72-2.06l.52-1.02c-2.48.48-5.62-.31-7.97.11-1.08.19-3.14,1.29-5.63,1.46-2.88.19-4.31-.81-7.34.87-2.21,1.22-.71,5.66-4.24,4.75,1.36-2.87,2.64-5.63,5.14-7.7-2.79-.64-3.26,2.71-5.65,3.08-.35-1.52,1.21-.98,1.8-2.07.12-.23.56-2.37-.49-2.02-2.64.87-4.8,3.35-6.2,5.63-1.4-1.8,4.69-5.87,3.85-6.68l-6.16,3.59c-1.08-1.01,5.67-3.91,5.65-5.13-4.96.2-6.92,3.23-9.76,6.68l.48-2.34,5.17-5.37c-5.14,2.45-8.34,5.13-14.46,4.32-.43-.06-4.32-.88-4.54-.98-.28-.12-4.29-4.1-4.41-4.38-.3-.75.49-4.17-.78-5.62-2.64-.38-2.56,2.5-5.11,2.03,1.01-2.46,3.54-2.17,5.14-3.85-2.07-1.81-3.46.4-5.66.26.94,2.41-1.71,4.5-.51,7.19l-4.62-2.83c.51-1.02,2.43-.2,2.53-.28.15-.12.18-1.2.54-1.67,1.05-1.36,1.07-2.05,1.76-2.93.92-1.17,1.83-1.73,3.38-1.55-.22-1.08-2.38-.97-2.95-1.67-.42-.52-.48-2.21-1.16-2.94,2.93.27,5.41,1.76,8.48,1.76,5.23,0,6.95-3.23,11.83.79,2.06,1.7,5.43,6.77,7.7,6.71,4.92-.11,3.54-5.48,2.35-8.54-.68-1.73-2.5-2.67-2.86-3.32-.33-.59.36-1.4-.23-1.78s-8.46-3.84-9.03-3.88c-1.16-.1-3.88.26-5.01.58-.48.14-.25,1.03-1.14,1.05-.99.03-1.88-.54-2.67-.56-.86-.02-2.48,1.38-3.26.5-.7-.79.45-1.13,1-1.28,2.04-.57,4.12.11,5.83-.28.38-.09.4-.83.76-.97.83-.33,2.55-.16,2.69-1.06-2.87-.13-3.6-2.13-5.15-3.33-.48-.37-6-3.61-6.8-4.01-1.77-.9-5.31-1.59-7.27-1.36-3.05.36-10.57,5.63-8.28,9.21l2.04-2.6,4.39-3.56c.39.39-3.88,5.09-4.24,5.78-.23.44-.91,2.02.12,1.92l.75-1.56,6.45-4.08c.46.41-1.32,2.02-1.58,2.26-.57.52-1.33.55-1.86.98-1.06.86-1.92,3.2-4.26,2.93,1,1.33,2.92,1.7,4.35,2.6.75.47,2.11.94,1.82,2.02-3.9-.5-7.04-1.9-10.53-3.61-.59-.29-1.16-.69-1.29.28-.1.76,3.31,5.33,3.87,6.91.25.69.78,1.75-.52,1.55-6.75-6.78-13.4-16.02-23.39-17.47,4.35,3.39,8.33,5.55,12.09,9.75,2.62,2.93,6.01,9.11,9.03,10.99.81.51,4.59,1.55,4.57,2.12-1.7.88-4.54,4.23-6.13,4.67-1.48.4-5.55-.99-7.93-.76-4.1.39-7.25,2.63-11.1,3.55-.03-1.82,1.36-1.71,2.56-1.02-.13-2.79,5.39-3.36,7.71-4.13l-7.85-4.23-2.06-.4-.36-1.53c3.6,1.7,8.38,3.65,12.33,3.34-.97-1.07-2.45-1.3-3.59-2.07-6.32-4.29-8.74-4.68-16.07-6.53-.62-.16-2.7-.78-2.95-1.41,4.17-.5,9.35.07,13.48,1.16,2.89.76,5.85,2.88,8.62,2.69-1.71-2.12-4.06-4.42-6.21-6.13-1.77-1.41-4.66-1.57-4.59-4.41-3.74,5.71-10.51,4.61-16.44,5.66-.24,1.44.25.77.78,1.02,2.94,1.34,9.15,5.31,10.96,8.06,1.9,2.89,2.58,6.54,1.22,9.79-1.23,2.93-3.67,4.68-5.26,7.07-.34.52-1.91,3-1.53,3.35,1.91.09,3.48-1.44,4.88-2.56,1.44,2.93,6.57,1.22,9.27,3.05,3.65,2.47.45,8.89.75,9.27,2.69-2.27,9.93-8.35,13.53-7.12,1.78.61,2.38,4.79,3.02,6.24.9,2.03,4.87,6.74,6.84,7.56.23.1.84.13.76-.25-2.94-1.91,3.15-8.05,4.63-6.94-.89,1.51-2.37,3.35-2.57,5.13,1.24-1.39,2.46-3.3,4.62-3.08.34.3-2.75,4.2-3.06,4.38-.51.29-1,.28-1.56.24.03-.5-.06-1.04,0-1.54ZM390.32,103.75c-.15-.27.24-.79-.16-1.16-2.43-2.21-9.81-3.92-10.81.5.85,1.19,2.3.72,3.58.78l-.52,1.53,1.3.52c.65-1.44,1.15-1.78,2.82-1.54l-2.05,1.55c-.38,2.01,3.54,2.01,4.11.76l-1.54-1.28,4.11-.52c.58-1.2-.71-.91-.83-1.13ZM397.84,109.51c-2.29-3.65-5.33-3.98-8.73-1.53l.31,1.02c2.91.96,5.44.71,8.42.51ZM281.16,133.16v-19.27c0-.23-1.42-1.9-1.03-2.83-2.9.21-2.22,5.59-2.25,7.93-.05,4.23.38,8.56.27,12.81l3.02,1.35ZM378.3,121.34c-2.97-.13-4.93,1.05-4.52,4.23.3,2.33,3.11,4.84,5.38,5.34,1.04.23,3.4.28,4.44.09,1.34-.24,1.18-1.02,1.51-1.24.28-.19,2.52-.12,1.69-2.23-.1-.26-3.04-4.1-3.35-4.4-.76-.72-1.85-1.58-2.06,0-.24,1.82.02,3.98-.55,5.89h-1.99s-.55-7.68-.55-7.68ZM424.05,134.7c-4.61-4.86-7.85-7.33-14.39-3.59l2.05,1.53c-1.12-.47-3.57.11-4.32,0-.37-.06-.24-2.19-1.84-.25,0,.39,6.46,3.22,6.95,3.32,3.53.67,7.79-1.98,11.54-1.01ZM312,132.13l-1.19,1.09-3.94,8.15,4.75-6.3.39-2.95ZM312.66,138.24l-4.08,9.16.82.37,4.08-9.16-.82-.37ZM176.31,162.71v-12.59l-7.11.6-1.19,13.46c-.33.95-3.23,1.26-4.3,1.36-1.73.16-8.69.38-9.55-.71-1.64-2.05,1.03-11.59-.54-12.57l-8.68.69-.5,25.46c6.96-.92,13.95-2.12,20.94-2.88,8.02-.86,16.43-1.38,24.54-2.27,3.89-.43,7.94-1.74,11.84-.63,1.5-.12.18-8.4.19-9.92s.56-2.73.58-4.08c.04-3.35-.38-6.87-.02-10.04l-10.25.53-.67,13.73c-.68.56-13.1,1.43-14.26.89-.24-.11-.99-.85-1.03-1.02ZM390.63,151.67c-2.78.21.09,1.26.39,1.63.18.23.45,4.86,1.42,5.56l1.29-5.64c-1.12-.46-3.26-.02-3.09-1.54ZM284.25,168.88c-.13-3.33.1-6.7,0-10.02l-9.77.51v22.62c4.86-.16,9.78.21,14.65,0,8.25-.38,16.45-2.02,24.68-2.56,1.96-.13,9.63.39,10.56-.23,1.1-.74.01-2.54-.02-3.63-.24-7.14,1.13-14.23-.05-21.27-.9-.75-9.67-.19-10.88.46-2.08,1.12.02,11.02-1.15,13.37-.98,1.97-10.83,2.23-11.08,1.2-.49-2.19,1.95-12,.51-13.01l-7.35.57-.71.67.15,13.15c-.75,1.13-7.47,1.36-8.69.94-1.44-.5-.81-2.01-.84-2.76ZM339.24,169.13c-1.25-2.01.85-12.86-1.79-13.23-.29-.04-1.14.41-1.34.72-.78,1.24.1,12.11.63,12.44l2.5.07ZM400.4,156.29h-2.57s.51,5.65.51,5.65c1.55.25.83-.38,1.04-1.25.35-1.46.36-3.02,1.01-4.4ZM392.17,160.41l-1.01.75c1.41,2.61,4.3,6.54,5.24,9.17.28.79.58.62-.36,1.37l-6.92-8.49c-.61-.53-1.3-.39-1.04.52.32,1.13,3.57,4.74,4.52,6.28,1.38,2.25,2.51,4.94,3.76,7.29l5.08-1.48c-1.73-3.27-3.23-7.39-5.23-10.44-1.14-1.74-3.09-3.16-4.03-4.96ZM406.05,167.08l2.53-5.29c-.77-1.69-2.47-1.45-4.06-1.39-.02,1.25-.08,2.49.12,3.74.07.42.84,2.79,1.41,2.94ZM350.55,172.73v-8.99c0-.28-1.64-2.55-2.57-1.8-.15,3.53-1.2,6.82.25,10.29l2.32.51ZM401.95,170.16c1.16-1.76-1.13-7.46-2.48-3.43,1.97,5.25,4.98,10.67,3.23,16.3,3.39,7.01,9.24,13.13,17.53,12.81,3.9-.15,4.11-1.21,4.34-5.11-1.23-.05-1.72,1.15-2.93,1.43-2.15.49-6.94-.47-8.4-2.19-.36-.42-.11-1.12-.47-1.55-1.15-1.39-2.85-2.9-3.81-4.43-3.09-4.87-2.95-10.13-4.95-15.36l-2.05,1.54ZM419.94,172.22c.94.71,2.8-2.79,2.52-3.77-.31-1.08-2.54-1.51-3.55-1.36l1.03,5.14ZM213.31,176.85c.56-2.73-2.42-3.61-4.62-3.59.55,2.18,3.06,2.38,4.62,3.59ZM215.38,175.82c-.56,1.64,2.66,3.82,3.74,3.54l1.38-1.23c-1.23-1.49-3.22-2.22-5.13-2.31ZM189.16,183.52c1.36.54,7.12.67,7.64-.83,1.63-4.68-6.06-4.73-7.01-2.39-.34.83-.28,2.26-.63,3.22ZM329.48,180.44c.88-.13,8.78,3.46,8.73,1.29-.04-1.7-10.77-4.03-8.73-1.29ZM175.85,185.52c3.53.51,6.64-1.65,5.14-5.35-4.7-.88-6.93.49-5.14,5.35ZM400.4,179.93h-4.1c-.01,1.98-.41,4.2,1.28,5.64.83,0,3.05-5.38,2.82-5.64ZM160.89,187.13c7.32,1.37,9.26-7.49.99-5.95l-.99,5.95ZM150.45,182.12c-.59.01-2.2.58-2.36,1.19.47,2.05.98,4.02,3.43,4.23,4.81.41,1.9-5.49-1.07-5.42ZM353.12,187.13l-10.79-4.11c-1.75,1.63,9.07,5,10.06,5.11s.75-.1.73-.99ZM205.61,183.53c-1.11,2.05,2.72,3.89,3.08,2.3.38-1.67-1.8-2.43-3.08-2.3ZM309.95,189.7c.54-4.27-.66-6.36-5.07-4.55l.41,4.33,4.66.23ZM322.28,184.55l-4.66.23-.48,4.4,4.66-.23.48-4.4ZM291.95,190.73l5.44-.48c.85-4.29-1.41-5.79-5.36-4.07l-.07,4.56ZM283.58,187.79c-2.14-2.65-6.23-.09-3.71,2.94,1.18,1.08,3.03.38,4.33-.06.17-.95-.01-2.13-.62-2.89ZM226.68,204.08c.11-1.87,1.36-17-.25-16.96-.34,4.49-.53,9.13-.48,13.62,0,.67-.04,3.19.73,3.34ZM150.61,289.41c-.91,4.73-3.32,10.82-4.59,15.72-1.12,4.32-2.05,8.74-3.12,13.07l10.08-.97,6.37.45c.21-3.02.18-6.54.52-9.5.1-.88.59-5.41,1.28-5.39l1.29,1.8-.78,12.11c.54,1.02,11.31-1.63,12.59,1.24-.02,1.08-8.29,2.04-9.24,1.28l-.51-1.02-.28,1.58-21.8,1.27c-1.22.74-2.1,4.23-1.59,5.65.82.48,6.17.31,7.41.06,1.11-.22,3.89-1.99,5.14-1.91.66.04,2.65,3.13.2,4.27-2.95,1.37-4.79.22-7.33.34-2.04.1-4,.6-6.06.54l-1.38,3.09,19.2-1.1c2-.66-.01-4.06.37-5.25.63-1.98,7.38-.4,5.87,2.24l-2.78.04-.02,3.53,5.56-.05c.97-1.41.02-6.17,2.4-5.99.94.07,1.36,3.33,1.74,4.33.28.74-.49,1.49,1.07,1.21.41-1.75.06-9.87,1.81-10.28l1.26,1.3,1.55,8.97.52-7.71h2.05v8.23h7.71v-2.06s1.03.26,1.03.26c-1.68-3.49.04-4.29.51-7.45h2.56s.01,1.55.01,1.55c.93-.7,1.72,0,2.31,0h8.99c-2.95-16-4.25-32.28-4.13-48.59.11-14.63.53-29.52.56-44.16.02-14.48-.08-29-.02-43.45-5.33.74-10.82.12-16.18.52-4.83.36-9.6,1.52-14.4,2.05-2.31.25-14.79.35-15.6,1.62-.27,2.27.12,4.59-.07,6.86-2,23.47-.56,46.94-1.02,70.42-.12,6.36.21,12.84-1.03,19.27,2.12-1.48,3.73-.41,5.38-.57,1.27-.12,7.36-1.62,7.46-.2.14,2.05-8.42,2.94-10.06,2.79-.68-.06-3.67-1.04-2.77-2.01ZM322.28,194.32c-13.27-1.66-26.35,1.37-39.53,2.1-1.03,9.28-.37,18.65-.54,27.99-.5,27.01,1.39,55.43-4.26,82.09-1.18,5.58-2.71,11.46-4.5,16.83,3.43,1.79,8.86-.72,11.59-.3,1.32.21,2.15,3-.02,3.38-3.5.62-8.45.18-12.07.52.47,1.37-1.63,4.87.23,5.14,4.53.66,9.44.06,13.87.53l18.97-.09c2.69-.93-.83-9.04,2.63-10.21,1.38,2.77,2.06,6.59,2.32,9.77,5.78-.96,11.72.86,17.47,0l-3.08-17.99c-8.91,1.95-18.11.42-27.13,1.37l-.62.57-.5,6.97-1.55.86-1.06-8.74c-1.56.13-14.92.34-14.87-1.29.59-.68,1.42-1.2,2.33-1.26,3.88-.26,8.53.58,12.3.53,2.33-.03,4.59-1.63,6.67-.04,1.51-.24.32-5.91,1.01-7.24.26-.36,5.25-1.43,6.18-1.53.54-.05,2.87-.35,2.84.53-2.75-.06-4.22,1.66-6.64,1.58l-.03,6.65c2.5-.66,4.71.74,6.93-1.05l1.02,1.04c1.27-3.15,12.01.08,12.6-.51l-1.03-8.22c-1.28-.02-1.45,1.48-1.55,1.54-.17.11-.93-.81-1.77-.95-2.25-.38-5.66,1.72-7.47.18-.47-2.23,9.21-2.35,10.79-1.28l-1.77-14.13.24-86.87-.75-1.15-11.24,1.43c-2.21-1.79,1.3-2.32,3.04-2.54,1.07-.13,7.57-.57,7.93-.33.51.35.19,1.46,1.01,1.3v-7.2ZM246.73,218.74c-.38-1.36,0-6.33,0-8.22,0-.28-.79-1.14-.51-1.8h-10.54c-.1,0-1.8.92-1.8,1.03v10.02c0,1.77-9.65,2.84-10.81,2.07-1.77-1.17-.45-9.79-1.76-12.12-.72-1.02-4.35-.1-5.67,0s-4.42-1.25-4.89,1.32l.53,20.27c11.09.37,22.2-.28,33.15-2.05l3.06.54,28.98-2.11.34-9.74-5.91-.52-.03-11.79-10.77,1.06-.5,12.58c-2.4.08-12.15,2.11-12.89-.53ZM340.17,209.85c-.43-.25-.98-.06-1.44-.11-.44,9.02-.82,18.24.27,27.26,4.06.73,2.28-5.6,2.36-7.98.11-3.27,1.49-17.63-1.18-19.16ZM221.54,233.9h-2.05s.76,2.08.76,2.08c.67,1.97-3.42.3-4.12.26-1.44-.08-2.92.19-4.36.23l.54,5.63,6.14.29v1.79c-1.46.29-6.09-.75-6.61.85l-.07,5.33c1.12.08,2.08-.4,3.21-.38.46.01,2.27.2,1.94,1.15-.31,2.4-3.46,1.77-5.15,1.79,1.01,1.89-.33,3.94-.34,4.88-.01.78,1.16,1.49,1.2,2.06.03.45-.77,1.28-.83,2.08-.16,2.12.06,4.28-.03,6.4,3.45.2,8.93-1.44,4.81,3.54l-4.21-.37-1.62,6.59,5.61-.04c.52-.8-.04-1.95.19-2.63,1.42-4.37,7.35-13.38,10.64-16.61,1.78-1.74,9.87-7.46,12.07-8.49,2.93-1.38,6.13-2.04,9.3-1.05s13.63,8.55,15.98,11.01c3.1,3.24,5.22,8.05,7.37,11.93l5.14-.29-.22-6.2c-.75-1.08-4.63.18-4.91-1.26-.41-2.11,4.82-.96,5.14-1.27l-.51-14.91c-1.47-.3-6.69.94-6.69-1.28,0-2.57,5.99-.35,6.98-1.76l-.34-5.12-9.2.45c1.67-3.05,6.22-2.76,9.23-2.57l.54-3.59c-3.73-.22-11.62-1.07-14.88.79-2.26,1.29.22,5.03-2.33,6.27l-1.32-.72.05-5.48c-.2-.82-8.13-.93-9.53-.9-2.46.06-5.67.85-8.22.96-1.17.05-6.29-1.14-6.95.47-.62,1.52-.18,4.1.11,5.7,1.01,1.45,7.91-.7,6.08,2.44l-18.29.78-1.54-.51-.23-1.57,10.79-.51-.57-6.11-9.2.45.51-2.56ZM363.4,243.66c.15-3.56-4.44-2.16-6.68-2.05.07.57,2.02,1.27,2.46,1.39,1.32.36,2.88.14,4.21.66ZM376.25,245.21c-2.66-.02-5.02-2.07-7.71-1.02l5.95,2.53,1.76.03v-1.54ZM391.15,249.84l-9.76-2.57c.84,2.36,3.42,1.84,4.51,2.21.08.03.07.74,1.19,1.05,1.27.35,3.43.9,4.06-.7ZM395.27,252.91c2.59.67,5.19,1.74,7.83,2.2.88.15,1.13.78,1.92-.4-.04-.61-4.68-2.3-5.58-2.51-.53-.12-5.75-.86-4.17.7ZM252.05,258.23c.24-.33,1.17-.47,1.33-.98.19-.73.02-1.02-.49-1.51-.96-.9-7.1-3.37-8.43-3.32-1.75.07-11.29,5.02-11.59,6.45.68,1.47,4.01,5.52,5.35,5.37,1.49-.16,4.32-3.6,5.67-4.48l5.86,2.35c.59-1.38,1.43-2.69,2.31-3.9ZM261.43,262.38c-.79-.75-5.64-4.75-6.23-4.71l-4.35,5.27c2.51,2.59,5.98,4.92,8.2,7.72,1.73,2.18,2.37,4.62,3.67,6.61,1.12,1.72,5.36-1.27,6.46-2.5-1.61-4.64-4.21-9.01-7.74-12.4ZM342.7,260.25c-1.42-1.13-7.03-.41-9.11-1.16-.39,1.1,1.84,1.69,2.48,1.88.95.29,7.01,1.45,7.28,1.2.06-.55-.25-1.59-.65-1.92ZM232.54,268.56c.68-.69,2.38-1.32,2.28-2.45l-4.29-6c-2.2,1.01-7.8,9.99-9.09,12.5-1.14,2.24-2.69,4.41-1.74,7.06l5.42,1.51c1.36-4.8,3.98-9.16,7.41-12.63ZM376.76,289.41c-.07-3.53.65-7.61.55-11.07-.06-1.99-.27-6.45-.57-8.19-.1-.61-.3-1.22-1-1.31-2.22,3.03-1.18,4.53-1.1,7.52.06,2.37-.34,11.54.54,12.74l1.59.31ZM385.62,290.31c2.93,3.19,1.71-4.65,1.71-5.27.03-3.58.84-9.56.21-12.83-.17-.87-.65-1.27-1.28-1.81-.78,1.54-1.18,3.65-1.3,5.37-.18,2.59-.25,9.95.02,12.36.08.7.16,1.66.63,2.18ZM238.5,276.81c-.6,2.83.44,7.47,0,10.54l-5.68-.78c-2.54,2.79,2.01,3.16,4.26,3.22,4.22.13,8.44-.89,12.51-1.37,2.16-.26,8.54.65,8.96-2.35.13-1.67-2.54.03-3.05-1.62-.29-.93.52-2.06.48-3.01-.06-1.39-.84-2.84-.52-4.37-1.19-.07-.92-.18-1.03.76-.58,4.91,1.15,10.09-6.09,7.39-.45-4.65,1.11-9.48-1.36-13.8l-.83,14.33-6.1.03c.69-3.67.54-7.08-.02-10.77-.57.09-1.45,1.39-1.54,1.8ZM342.33,291.46v-17.73c0-.97-2.57-.97-2.57,0v15.93c0,.76,1.58,2.3,2.57,1.8ZM277.05,273.99c-.96.04-3.21-.39-3.56.84-.26.9,1.41,7.33,3.31,4.83l.24-5.67ZM264.21,318.19c1.99-1.74,3.51-.35,5.68-.73,1.6-2.88.71-6.21,1-9.29.36-3.81,1.37-8.04,1.51-11.84.08-2.28-1.29-18.01-2.03-18.74-1.54,1.15-4.55.26-5.7,1.75-1.51,1.96.83,9.32.05,12.12,2.02-.08,4.71-1.46,5.66,1.28l-5.1.82-1.07,24.63ZM215.37,280.67c-1.48.93-2.58.32-4.1,0l.47,1.31-.98.99,4.1,1.81.51-4.11ZM224.56,282.79l-5.34-2.11c-.55.35-.64.68-.75,1.28-1.34,6.98-1.31,16.96-1.06,24.16.07,1.98.47,4.36.54,6.4l.78-1.57c1.67.34,5.98-.64,4.54,2.09h-5.32c-.33,5.75.19,11.29.51,16.96,2.51-.97,3.17-.9,5.65,0l.45-47.22ZM253.92,329.5c.98-.18.88-1.08,1.07-1.81,1.62-6.46,1.69-25.94.98-32.88-.13-1.26-.34-4.02-2.05-3.86v38.55ZM237.99,292.49v35.72c0,.47,1.97,1.73,2.57,1.28-.39-.78-.53-1.42-.56-2.31-.31-10.14,1.46-20.75.59-30.87-.14-1.57-.57-4.4-2.6-3.83ZM365.97,331.55l-10.27-39.05c1.21,13.27,5.4,26.05,8.29,38.99l1.98.07ZM247.75,293.52c-1.37-.11-.84-.04-1,.78-.4,2.04,0,3.44-.1,5.09-.3,5.09-1.34,23.07.21,26.64.26.6.73,1.27,1.4,1.42-.48-11.32,1.64-22.72-.51-33.92ZM404.64,307.82c-.3-.42-.8-8.03-1.54-10.06-.09-.24-.85-1.6-1.16-.9l1.21,8.12c1.56,2.84,4.66,23.43,5.97,24.27.63.4,1.39.22,2.07.23-1.06-3.63-2.3-7.21-3.26-10.87-1.13-4.34-.69-7.15-3.3-10.8ZM348.49,310.49c-2.59-.08-4.64-2.62-7.19-.77-.25.63,5.14,1.41,5.76,1.47.75.07,1.12.44,1.43-.69ZM395.27,315.11l-10.79-1.54c.19.86,1.29,1.14,2.03,1.31,1.19.27,6.1,1.22,7.04,1.24.81.02,1.52-.1,1.73-1.01ZM333.59,317.67l-.26-1.02c-1.17.78-.5,1.45-.25,2.56l.77-1.05,4.87,1.05-.88-2.06-3.02-.46c-.39.82,0,1.21-1.24.98ZM354.66,318.71c-1.94-.33-3.93-.79-5.92-.52-.7.09-1.6.35-.76,1.02,2.05-.08,5.28,1.71,6.68-.51ZM269.85,319.73l-4.62.52c2.41,2.49.75,5.85,0,8.73,1.86.07,1.83-2.28,2.46-3.45,1-1.86,2.55-3.14,2.16-5.8ZM351.06,327.96c-1.88-.5-3.63-1.34-5.65-1.03-.19,1.13.47,1.22,1.31,1.51.47.16,6,1.17,4.34-.48ZM203,328.51c-4.39-1.02-8.87.1-13.34.23l.53,2.82,12.85-1.03-.04-2.02Z"/>
    <path class="st0" d="M150.61,289.41c1.24-6.44.9-12.91,1.03-19.27.46-23.48-.98-46.96,1.02-70.42.19-2.27-.2-4.6.07-6.86.81-1.27,13.3-1.36,15.6-1.62,4.8-.53,9.57-1.69,14.4-2.05,5.36-.4,10.86.22,16.18-.52-.06,14.45.05,28.97.02,43.45-.02,14.64-.45,29.53-.56,44.16-.12,16.31,1.19,32.6,4.13,48.59h-8.99c-.59,0-1.38-.69-2.31,0v-1.54s-2.57,0-2.57,0c-.47,3.17-2.19,3.96-.51,7.45l-1.03-.26v2.06h-7.71v-8.22h-2.05s-.52,7.71-.52,7.71l-1.55-8.97-1.26-1.3c-1.74.4-1.4,8.53-1.81,10.28-1.56.28-.79-.47-1.07-1.21-.38-1-.81-4.27-1.74-4.33-2.38-.17-1.43,4.59-2.4,5.99l-5.56.05.02-3.53,2.78-.04c1.51-2.64-5.24-4.23-5.87-2.24-.38,1.19,1.63,4.59-.37,5.25l-19.2,1.1,1.38-3.09c2.06.05,4.02-.44,6.06-.54,2.54-.12,4.38,1.03,7.33-.34,2.45-1.14.46-4.23-.2-4.27-1.25-.08-4.03,1.69-5.14,1.91-1.24.24-6.59.41-7.41-.06-.51-1.42.37-4.9,1.59-5.65l21.8-1.27.28-1.58.51,1.02c.95.76,9.23-.2,9.24-1.28-1.28-2.86-12.05-.22-12.59-1.24l.78-12.11-1.29-1.8c-.69-.02-1.18,4.51-1.28,5.39-.34,2.96-.31,6.49-.52,9.5l-6.37-.45-10.08.97c1.07-4.33,2-8.75,3.12-13.07,1.27-4.9,3.67-10.98,4.59-15.72-.9.98,2.09,1.95,2.77,2.01,1.64.15,10.21-.73,10.06-2.79-.1-1.41-6.19.08-7.46.2-1.65.16-3.26-.91-5.38.57ZM196.12,192.47c-1.19-.18-9.69,1.04-11.2,1.46-.67.19-2.14.71-1.93,1.66.47.75,1,.71,1.77.8,1.86.22,9.96-.58,11.75-1.15,1.57-.5.76-2.6-.39-2.78ZM165.01,197.41c-1.2-.04-9.59-.32-9.25,1.79l7.41.21,1.54-.41.3-1.59ZM161.41,206.14c1.41,1.43,8.11-4.45.03-2.54l-.03,2.54ZM170.18,232.83c1.48.28,9.3-.07,9.56-1.73-1.97-7.43,1.83-17.11-1.87-24.21-2.8-5.38-7.59-1.47-7.39,3.44l-.3,22.5ZM190.7,207.68c-1.25-.16-.82,0-1.08.72-.66,1.78-1.32,7.03,1.6,5.7l-.52-6.42ZM163.46,211.29c-1.65.2-3.87-.66-5.13.77,1.34,2.01,4.9,1.89,5.13-.77ZM192.24,224.13l-.87-1.45c-8.96-.72-6.61,4.53.87,1.45ZM163.37,226.63l1.02-1.73c-2.08-2.87-6.14-.11-9.15-.76-.83,4.34,5.47,1.41,8.13,2.5ZM186.59,237.49c1.28.22,9.1-.4,8.74-2.3-.34-1.8-7.48.66-8.73.77v1.53ZM164.93,238.59c-1.33-.26-8.66,1.03-8.66,2.24,0,2.06,7.68.12,9.24-.26l-.59-1.98ZM192.22,241.61l-6.18.73-.48,2.34c2.29.02,8.13.24,6.66-3.08ZM176.82,245.72c-2.52.36-9.2-1.93-9.25,2.05.82.15,11.22-.41,9.25-2.05ZM155.24,248.27c8.32,1.8,11.67-3.65.29-1.57l-.29,1.57ZM191.26,257.5c2.19,1.53,3.66-2.99,1.75-3.55s-2.68,2.9-1.75,3.55ZM162.43,254.97c-.38-.51-2.44,1.73-2.49,1.87-.53,1.47.58,3.29.44,4.81l1.57-.23.4-.62.08-5.83ZM177.22,280.55c.46-.64.55-1.42.63-2.19.41-3.86.54-12.86.28-16.73-.43-6.21-5.75-7.46-6.45-1.26-.71,6.36.48,13.57,0,20.04l.49,1.07,5.05-.93ZM184.53,266.28l.24,1.55.99.48c1.09-.81,9.65.12,9.04-2.28-.59-2.32-8.29.67-10.28.25ZM160.37,269.36c1.19-2.54-4.21-2.27-4.62-1.28-.91,2.25,3.58.98,4.62,1.28ZM165.97,273.92c2.32-8.94-2.79-8.44-1.99.07l1.99-.07ZM192.24,275.01l-1.73-.02c-.56.13-2.08,6.65-.52,7.15l1.73.07.51-7.2ZM166.03,281.18c1.31-4.46-4.57-.64-7.2-1.54v1.54h7.2ZM185.05,288.89c.45.62,6.85.2,7.97,0,.68-.12,1.45-.49,1.28-1.28-.26-1.26-9.25-1.45-9.25,1.27ZM176.82,288.38c-.82.07-6.69-1.09-6.67.25.01.57,1.52,1.29,2.28,1.31.83.03,3.9-.63,4.39-1.56ZM173.23,299.69h11.05c1.6,1.85.41,5.06.8,7.41l-3.11.82c-.12.68.07,1.13.77,1.34.49.14,9.17-.23,10.22-.37,1.94-.26,3.51-1.41,5.45-1.22l.26-1.3c-.76-1.08-5.64.4-7.2.51-1.45.11-2.92-.05-4.37,0l-.53-6.43.86-1.21,10.16-1.05.3-2.11c-.53-.56-9.97,1.41-11.6,1.55-3.68.33-7.85-.2-11.78.51-.9.16-1.44.53-1.29,1.53ZM168.86,297.12h-10.28c-.18,0-.79.66-1.28.52l.22,1.56c1.83.31,5.28.75,7.22.72s6.39-.36,4.12-2.8ZM156.26,305.86l-5.13,1.28c1.42,1.6,3.31.77,5.13.76v-2.04ZM164.49,308.42c3.26-.01,6.77.56,10.02,0,1.72-.3,2.08-2.31-.13-2.24-2.42.08-6.4.51-8.71,1.14-.88.24-1.43-.37-1.18,1.1ZM197.38,314.6c-1.33-.1-1.48,1.27-2.83,1.52-2.48.47-8.42.09-11.21.21-3.94.17-6.93,1.67-1.39,2.91.47,2.12-.83,5.9.27,7.7.49.8,1.01.3,1.2-.36.54-1.8.14-5.93,1.66-7.08,1.57-1.19,9.72-1.23,12.02-.83,1.84-1.16-.9-2.43.28-4.08Z"/>
    <path class="st0" d="M322.28,194.32v7.2c-.82.16-.5-.95-1.01-1.3-.36-.24-6.86.2-7.93.33-1.75.21-5.25.74-3.04,2.54l11.24-1.43.75,1.15-.24,86.87,1.77,14.13c-1.57-1.07-11.26-.95-10.79,1.28,1.81,1.54,5.23-.56,7.47-.18.83.14,1.59,1.06,1.77.95.1-.06.26-1.56,1.55-1.54l1.03,8.22c-.59.59-11.33-2.64-12.6.51l-1.02-1.04c-2.23,1.79-4.43.39-6.93,1.05l.03-6.65c2.42.07,3.9-1.64,6.64-1.58.02-.88-2.3-.58-2.84-.53-.93.09-5.92,1.17-6.18,1.53-.69,1.32.5,6.99-1.01,7.24-2.08-1.59-4.34,0-6.67.04-3.77.05-8.43-.8-12.3-.53-.91.06-1.74.58-2.33,1.26-.04,1.62,13.32,1.41,14.87,1.29l1.06,8.74,1.55-.86.5-6.97.62-.57c9.02-.95,18.22.58,27.13-1.37l3.08,17.99c-5.75.87-11.69-.95-17.47,0-.27-3.18-.95-6.99-2.32-9.77-3.46,1.17.06,9.28-2.63,10.21l-18.97.09c-4.44-.47-9.34.12-13.87-.53-1.87-.27.24-3.77-.23-5.14,3.62-.34,8.58.1,12.07-.52,2.18-.39,1.35-3.18.02-3.38-2.72-.42-8.16,2.08-11.59.3,1.79-5.36,3.31-11.24,4.5-16.83,5.65-26.66,3.76-55.07,4.26-82.09.17-9.34-.49-18.71.54-27.99,13.17-.73,26.26-3.76,39.53-2.1ZM291.44,202.03c-6.24-1.43-8.66,4.61-.6,2.49l.6-2.49ZM303.78,202.55l-3.26-.46-.62.43-.23,1.57c1.83-.05,3.91,1.15,4.11-1.53ZM306.82,235.92c-1.6-6.61.83-14.9,0-21.25-1.12-8.39-7.14-8.41-8.92-.38,1.21,6.23-.88,14.98.24,20.88.67,3.52,6.28.94,8.68.75ZM318.68,215.4c-2.08-.84-4.15-.5-5.65,1.28,1.16,1.37,3.23.62,4.78.79l.86-2.07ZM291.9,218.01l-4.23-.07c-3.31,3.99,4.75,2.21,4.78,1.31l-.56-1.24ZM312.52,226.7c2.16-.18,4.73.79,6.16-1.28.02-1.09-4.41-.85-5.31-.69l-.62.4-.23,1.57ZM284.25,231.32c.24.37,8.63,1.5,7.7-1.27-.37-1.18-6.9-1.08-7.48-.29l-.23,1.56ZM311.99,239.55c.61-.57.72-3.89-.25-4.62-1.72.61-1.22,5.99.25,4.62ZM290.79,241.74c-1.09-.01-2.83.68-4.15.47-3.64,3.7,6.49,3.51,5.76.77-.17-.65-.88-1.23-1.61-1.24ZM319.71,244.69c.14-.7-.19-1.24-.86-1.46-1.22-.39-12.25,1.66-14.05,2.25-.88.29-1.23.03-1.02,1.26l15.93-2.05ZM319.71,250.35c-1.02-.35-4.95-.9-4.1,1.28.6,1.55,4.95-.14,4.1-1.28ZM312.97,250.91c-6.38.27-13.42-.02-19.73.48-1.33.1-8,1.08-7.96,2.3.06,2.2,5.79-.06,6.94-.02,2.72.09,6,.68,9.05.48,3.8-.24,7.59-1.29,11.43-1.3l.27-1.94ZM293.42,259.67c-1.84-1.14-2.58,1.43-4.2.96-1.78,2.66,4.33,2.46,4.73.7-.04-.4-.34-1.54-.53-1.66ZM310.98,263.18c1.25,1.31,8.74.44,8.72-.76-1.21-1.97-2.28-.68-3.84-.72-1.85-.05-4.51-1.33-4.88,1.48ZM302.62,264.36c-2.98-2.14-4.67,1.8-4.84,4.3-.06.86.4,1.93.37,2.99-.07,3.5-.66,10.58-.21,13.57.62,4.09,5.36,3.96,5.83,1.36-.75-4.18,1.55-19.65-1.16-22.22ZM286.35,285.75c1.33.83,2.07-.19,3.32-.43,1.89-.36,3.39.77,4.33-1.83-.06-1.34-6.45-.58-7.7-.77l.05,3.03ZM321.26,295.57l-.76-3c-1.74,1.44-8.06.16-8.5,2.24-.51,2.43,8.05.22,9.25.76ZM306.86,294.55c-5.98-.42-12.32-1.23-18.2.46l-.31,1.58,17.87-.89.64-1.16ZM281.42,305.34h7.71l.52-1.03c-.69-.97-7.38-.78-9-.51-.17.55.34,1.42.77,1.54ZM304.29,323.84c0-3.66-6.45-3.41-6.16.51l6.16-.51ZM325.36,321.79h-8.48c-2.28,0-3.47,1.5-.8,2.34,1.24.39,8.5.55,9.05-.25l.22-2.09ZM301.66,327.49c-6.93-.99-3.47,4.51.56,1.24l-.56-1.24ZM320.74,328.48l-6.86-.44-.62.4-.23,1.57c1.58-.4,3.4.53,4.79.41.57-.05,2.26-1.53,2.92-1.95Z"/>
    <path class="st0" d="M259.06,199.97c-3.9.19-7.21-.92-10.79,1.03.71-6.65-2.26-8.2-2.32-.52-1.85-2.01.52-6.48-2.57-7.7-1.81.43-.97,7.29-.78,8.73h-3.08c-.12-.1.44-.84.46-1.33.17-5.39.64-13.33.08-18.48-.19-1.75-1.16-2.28-2.12-.91-2.53,3.63.62,16.41-1.02,21.21l-2.03.03v-23.39c.3-2.17,3.8-.45,4.11-3.08l-4.11-.26c-.2-.2,1.19-3.75-.77-3.59-.84.86-2.08,2.16-2.3,3.36-.86,4.84-.86,12.86-.97,18-.05,2.35.63,5.64.37,7.74-.09.77.07,1.5-.96,1.73l-.11-50c-.62-2.12-10.17-5.81-12.67-4.92-.89.55.92,11.38-.83,13.29-.69-.69-1.94-.86-2.6-1.51-1.76-1.72-.15-11.41-.83-14.34-3.46-1.96-7.19-2.05-10.99-2.64l.33-24.94c-.88-5.62.46-11.48.49-17.2.33-.34,8-.95,9.34-1.2,8.44-1.52,16.8-2.39,25.34-2.93,5-.32,15.17-1.48,19.57-1,.55.06,1.09-.17,1.52.45l.23,104.36ZM253.92,100.27c-.89-1.28-6.43,1.05-6.16,2.3.39,1.82,7.53-.33,6.16-2.3ZM221.02,100.27c-1.51-.14-11.19.56-11.29,1.79,1.82,3.89,7.4-.25,10.79.01l.5-1.81ZM236.44,104.9c-3.42-1.01-7.14-.66-10.49.46l-.3,1.59,10.79-2.05ZM248.27,109.51c-.23,1.24-1.36,4.71,1.2,4.04,1.92-.5,1.52-4.7-1.2-4.04ZM215.25,110.13c-1.24-.03-9,.93-8.61,2.72.37,1.71,9.48-.17,9.76-1.54.14-.69-.45-1.16-1.15-1.18ZM232.67,111.23c-3.43-3.33-6.57,1.7-7.41,4.83s-.03,7.41-.1,10.7c-.09,3.81-.26,7.6-.43,11.41l.73,1.13,8.56-.47c.36-.08,1.19-1.61,1.27-1.97.6-2.69.37-20.07-.53-22.32-.23-.58-1.68-2.89-2.1-3.3ZM250.32,118.76c1.74-2.61-4.47-1.7-5.39-1.53-1.58.28-1.66,1.98-1.03,2.05,1.1,0,5.98.13,6.42-.52ZM213.82,129.56c.98-3.93,1.6-8.36,1.03-12.33-1.53-1.26-4.37,11.16-1.03,12.33ZM248.78,130.08h-5.14s0,1.53,0,1.53c1.92-.04,4.25.62,5.14-1.53ZM214.34,130.59c-2.72.69-7.01-.4-8.73,2.05,2.31-.07,9.18,1.3,8.73-2.05ZM246.72,136.24c-3.83.73-1.66,3.92-2.05,6.68-.69-.47-9.27,1.21-7.71,2.57l10.79-1.03v-1.54s-1.58-.28-1.58-.28l.54-6.4ZM244.16,154.74c1.6-.51,10.29.09,9.76-2.3-.34-1.52-7.37-.05-8.58.66-.71.42-1.38.63-1.18,1.64ZM245.7,165.54c1.43.35,4.67-.14,4.11-2.3-.47-1.82-4.69.39-4.11,2.3ZM237.94,164.55l-5.12.7-.49,2.34c2.18,0,7.46.45,5.6-3.04ZM244.99,168.66c-.83.28-1.02,1.65-1.2,2.42-.57,2.29-1.12,7.92-.94,10.16.16,1.99,2.49,3.03,4.17,1.81s.85-7.72.74-10.03c-.1-2.08,1.02-4.44-2.77-4.36ZM253.87,188.11c.39-.56.05-2.22-.8-2.48-.29-.09-5.33.42-6.04.53-2.25.36-4.33.68-3.91,3.54,1.94.32,3.82-1.06,5.48-1.34,1.25-.21,4.72.54,5.26-.25ZM248.36,195.22c.27.1,5.46-.38,5.73-.47.67-.23,1.41-1.51,1.28-2.16-.51-2.45-2.26-.17-3.36.08-1.28.29-2.8-.15-3.92.19-1.65.51-.17,2.2.26,2.36Z"/>
    <path class="st0" d="M360.83,155.26c.2-1.78,1.68-3.63,2.57-5.13-1.48-1.11-7.57,5.02-4.63,6.94.08.38-.53.34-.76.25-1.97-.82-5.94-5.52-6.84-7.56-.64-1.45-1.24-5.63-3.02-6.24-3.6-1.23-10.84,4.85-13.53,7.12-.31-.39,2.9-6.8-.75-9.27-2.71-1.83-7.83-.12-9.27-3.05-1.41,1.12-2.97,2.65-4.88,2.56-.38-.35,1.18-2.83,1.53-3.35,1.59-2.4,4.03-4.14,5.26-7.07,1.36-3.25.68-6.9-1.22-9.79s-8.02-6.72-10.96-8.06c-.53-.24-1.02.42-.78-1.02,5.93-1.04,12.71.05,16.44-5.66-.07,2.84,2.82,3,4.59,4.41,2.15,1.71,4.5,4.01,6.21,6.13-2.77.19-5.73-1.93-8.62-2.69-4.13-1.09-9.31-1.66-13.48-1.16.25.63,2.33,1.25,2.95,1.41,7.33,1.86,9.75,2.25,16.07,6.53,1.14.78,2.62,1.01,3.59,2.07-3.95.31-8.73-1.65-12.33-3.34l.36,1.53,2.06.4,7.85,4.23c-2.32.76-7.84,1.34-7.71,4.13-1.2-.69-2.59-.8-2.56,1.02,3.86-.92,7-3.16,11.1-3.55,2.38-.23,6.45,1.17,7.93.76,1.6-.43,4.43-3.79,6.13-4.67.02-.57-3.76-1.61-4.57-2.12-3.02-1.88-6.41-8.06-9.03-10.99-3.76-4.2-7.73-6.37-12.09-9.75,10,1.44,16.64,10.69,23.39,17.47,1.3.19.77-.86.52-1.55-.57-1.58-3.98-6.15-3.87-6.91.13-.97.7-.57,1.29-.28,3.49,1.71,6.63,3.11,10.53,3.61.29-1.07-1.07-1.55-1.82-2.02-1.43-.9-3.34-1.27-4.35-2.6,2.35.27,3.2-2.08,4.26-2.93.54-.43,1.29-.46,1.86-.98.26-.23,2.04-1.85,1.58-2.26l-6.45,4.08-.75,1.56c-1.03.1-.35-1.48-.12-1.92.36-.69,4.63-5.39,4.24-5.78l-4.39,3.56-2.04,2.6c-2.29-3.58,5.22-8.85,8.28-9.21,1.96-.23,5.5.46,7.27,1.36.79.4,6.32,3.65,6.8,4.01,1.55,1.2,2.29,3.2,5.15,3.33-.14.9-1.85.73-2.69,1.06-.35.14-.38.89-.76.97-1.71.39-3.78-.3-5.83.28-.55.15-1.7.49-1,1.28.78.88,2.4-.52,3.26-.5.79.02,1.68.59,2.67.56.88-.02.66-.92,1.14-1.05,1.13-.32,3.85-.67,5.01-.58.57.05,8.42,3.49,9.03,3.88s-.1,1.19.23,1.78c.36.65,2.19,1.59,2.86,3.32,1.19,3.06,2.57,8.42-2.35,8.54-2.27.05-5.64-5.02-7.7-6.71-4.88-4.02-6.6-.79-11.83-.79-3.07,0-5.55-1.49-8.48-1.76.68.73.75,2.43,1.16,2.94.56.7,2.73.59,2.95,1.67-1.55-.18-2.46.38-3.38,1.55-.69.88-.71,1.57-1.76,2.93-.36.47-.39,1.54-.54,1.67-.1.08-2.03-.73-2.53.28l4.62,2.83c-1.2-2.69,1.45-4.78.51-7.19,2.2.14,3.58-2.07,5.66-.26-1.6,1.68-4.12,1.39-5.14,3.85,2.55.47,2.47-2.41,5.11-2.03,1.27,1.45.48,4.87.78,5.62.12.29,4.12,4.26,4.41,4.38.22.09,4.11.92,4.54.98,6.12.81,9.32-1.87,14.46-4.32l-5.17,5.37-.48,2.34c2.84-3.44,4.8-6.47,9.76-6.68.02,1.22-6.74,4.12-5.65,5.13l6.16-3.59c.84.8-5.26,4.88-3.85,6.68,1.4-2.28,3.56-4.76,6.2-5.63,1.05-.35.61,1.79.49,2.02-.58,1.09-2.15.55-1.8,2.07,2.39-.37,2.86-3.72,5.65-3.08-2.5,2.07-3.78,4.83-5.14,7.7,3.53.91,2.03-3.53,4.24-4.75,3.04-1.68,4.46-.68,7.34-.87,2.5-.17,4.55-1.26,5.63-1.46,2.35-.42,5.49.37,7.97-.11l-.52,1.02c2.53-.61,4.46,2.89,7.72,2.06l-.06,1.82,2.11.75-.52-2.05c4.13-.35,5.3-3.56,7.71-6.17-.34,5.09-1.08,10.62-1.04,15.7.05,6.68,2.99,11.14.17,18.62-.22.59-.98.51-1.15,1.02-.58,1.75.04,4.45-2.35,5.27-1.16-3.01-3.09-5.71-5.39-7.97l1.02-.51-1.07-1.01-18.96-5.94,1.54-1.02c-2.13-.58-1.49-.34-2.74.46-1.45-1.16-4.16-1.81-5.48-2.78-4.12-3.02-10.02-5.91-15.29-7.83-9.6-3.5-17.57-2.09-26.25-4.59-3.94-1.13-8.05-4.34-8.83-8.4-3.7-.19-2.4,2.57-2.82,3.11-.51.65-3.02.9-3.33,2.8l3.27.28.57-1.57c.99.56.17,1.25.41,1.92.04.12,1.12.69.88,2.18h-1.8s.26-1.27.26-1.27c-1.95-.11-.88,1.88-1.27,2.79s-2.36,1.23-.54,2.59c2.19-1.04,2.75-4.26,5.4-4.1.35,3.78-4.74,2.09-2.56,6.68,1.8.17,1.31-1.87,2.02-2.85.36-.5,2.41-1.96,3.11-1.54l1.02,1.06c-2.23,1.81-4.99,3.78-5.13,6.94,3.27.65,2.29-2.56,3.87-4.6,2.79-3.59,3.98-.93,6.27-.14,2.93,1.01,7.25-.31,2.19,3.71l3.05-.05.29-1.5c4.04-.39,8.02,9.2,9.85,12.23,2.26,3.74,4.81,7.56,6.94,11.59,4.3,8.16,5.91,15.5,13.68,21.39,5.8,4.39,10.24,3.82,17.07,5.17.45.52-1.54,3.68-2.04,4.23-.74.8-1.9.99-2.43,1.57-1.12,1.24-1.82,4.43-4.01,5.5-.53-2.7-1.5-7-4.88-7.19.95,4.25-.43,12.62-6.18,11.55,2.67-7.71,2.24-12.38-3.38-18.2-.44-.46-1.18-.51-1.23-.56-.64-.58,1.48-.19,1.02-1.27-.22-.51-.93-.92-1.53-.78l-1.54,2.57-.77-3.08c-.93,2.19-1.15,4.29-3.86,5.14,1.87-4.48,3.83-7.29,2.05-12.32l1.54-.78-1.53-1.29-.26,1.54-2.83-4.37,1.53.26-.06-4.07c-2.57.29-1.62-3.49-3.79-4.66-2.16,1.55,2.32,2.72-.25,4.1l-3.08-5.92,1.01-.25.52-2.8c-.89-1.36-2.47-.28-2.05,1.26-2.03-.41.01-3.54-.51-4.11-1.57,1.23-3.98-1.08-3.59-2.57l1.53.25-1.03-1.78-2.04,1.53.51-3.6h-1.54s1.02,1.02,1.02,1.02l-2.05,1.03-1.04-4.62c-2.34-.31.28,2.35-1.29,3.08-3.85-1.07-8.15-1.4-11.84-3.59-.61-.86,1.46-2.17,1.83-2.58-.06.5.03,1.04,0,1.54.56.04,1.05.06,1.56-.24.31-.18,3.4-4.08,3.06-4.38-2.17-.22-3.39,1.69-4.62,3.08ZM364.43,103.87c-2.2-.96-1.76.52-2.75,1.36-1.27,1.08-3.73,1.75-3.41,3.78l6.16-5.13ZM365.31,108.38c.21-.14,2.63-3.98,1.94-4.52l-6.49,5.9.06,1.81.76-1.04h1.02s1.28,1.56,1.28,1.56c1.03-1.94.75-1.7,0-3.59.42-.01,1.07.12,1.4-.11ZM346.3,132.27c-1.12-1.15-6.47-1.74-8.2-1.57-3.56.36-8.9,2.63-12.05,4.43-.6.34-2.49,1.08-2.22,1.87.42,1.28,1.21.28,1.69.17,3.78-.93,12.92-4.1,16.3-2.22,1.54.85-.9.63-.52,1.29,3.87-.17,2.95,2.87-.77,1.54-1.02,1.43.75,2.32,1.99,2.54l.31,1.05-5.65,3.87c1.44,1.13,2.38-.96,2.96-1.26.73-.38,1.77-.31,2.65-.84.3-.18,4.38-3.68,4.53-3.94.89-1.55.19-5.67-1.04-6.93ZM421.48,147.55c.65.18,1.68-1.07,2.82-1.08,2.11-.02,5.2,3.56,6.01,5.35s.26,3.79,2.23,4.47l1.3-1.37c-.95-5.23-3.22-9.03-7.22-12.5,3.01-.46,5.44.77,8.22,1.54l-1.54,1.53c1.72.97,4.05,1,3.3,3.08l1.87,1.8-1.06,1.8,3.08,1.55c-.51-1.16.01-3.48-.16-4.28-.27-1.23-2.13-2.94-2.63-3.98-.52-1.11-.6-3.8-.82-5.1h-1.53s.28,2.06.28,2.06c-1.75,1.56-1.74-.27-2.17-.52-2.85-1.66-5.6.33-7.11.34-.32,0-4.47-2.84-5.9-2.4l3.08-.51-1.29-1.54h-3.86s.52,1.02.52,1.02c-7.81-1.82-12,7.02-5.66,11.83-.71-3.41-1.68-9.49,3.54-8.66l.84,1.97c1.04.38.59-.91,1.1-1.03,1.7-.41,3.72.53,5.07,1.55.32.84-1.73,1.24-2.29,1.83-.46.48-.51,1.12-.02,1.25-.16-.11-3.43-1.38-3.6-1.31-.37.16-1.3,1.23-1.43,1.67-1.25,4.07,4.16,4.5,6.07,6.56,1.04,1.12.27.48-.53,1.03l1.01,1.57,3.59-.83c1.22-1.75-3.44-6.58-4.76-7.72-.31-.27-.26-.92-.34-.97ZM366.48,158.34l2.06-5.14c-.97.8-5.7,3.44-3.6,4.89.37.26,1.33.42,1.54.25ZM371.11,155.78c-1.74-.08-3.9,1.04-3.59,3.07,2.38,1.22,1.87-.64,3.59-1.03l-1.03-1.27,1.03-.77Z"/>
    <path class="st0" d="M221.54,233.9l-.51,2.56,9.2-.45.57,6.11-10.79.51.23,1.57,1.54.51,18.29-.78c1.82-3.14-5.07-.99-6.08-2.44-.29-1.6-.73-4.17-.11-5.7.65-1.61,5.78-.42,6.95-.47,2.55-.11,5.76-.9,8.22-.96,1.4-.04,9.34.07,9.53.9l-.05,5.48,1.32.72c2.55-1.23.07-4.97,2.33-6.27,3.26-1.87,11.15-1.01,14.88-.79l-.54,3.59c-3.01-.19-7.56-.48-9.23,2.57l9.2-.45.34,5.12c-.99,1.42-6.98-.81-6.98,1.76,0,2.22,5.22.99,6.69,1.28l.51,14.91c-.32.32-5.55-.84-5.14,1.27.28,1.44,4.16.18,4.91,1.26l.22,6.2-5.14.29c-2.15-3.88-4.28-8.7-7.37-11.93-2.35-2.45-12.95-10.05-15.98-11.01s-6.37-.33-9.3,1.05c-2.2,1.03-10.29,6.75-12.07,8.49-3.3,3.22-9.22,12.23-10.64,16.61-.22.69.33,1.83-.19,2.63l-5.61.04,1.62-6.59,4.21.37c4.13-4.98-1.35-3.34-4.81-3.54.08-2.12-.13-4.28.03-6.4.06-.8.86-1.63.83-2.08-.03-.57-1.21-1.28-1.2-2.06.01-.94,1.35-3,.34-4.88,1.7-.03,4.84.6,5.15-1.79.33-.96-1.48-1.14-1.94-1.15-1.13-.02-2.09.46-3.21.38l.07-5.33c.52-1.6,5.16-.56,6.61-.85v-1.79s-6.14-.29-6.14-.29l-.54-5.63c1.44-.04,2.92-.32,4.36-.23.7.04,4.79,1.71,4.12-.26l-.76-2.08h2.05ZM266.77,248.8l-.23-1.56-6.44-.47.82,2.52,5.85-.49ZM229.77,254.45c2.59.65,2.26-3.59,2.34-5.66.09-2.39-1.79-1.63-2.24-.14-.49,1.62.11,4.05-.1,5.8ZM271.4,252.92c-.37-.48-7.84-.13-6.69,2.56,2.34.58,3.83-.36,6.09-.59l.59-1.97ZM213.32,261.14c1.24-.23,7.63.83,7.19-1.27-.27-1.27-7.44-1.46-7.19,1.27Z"/>
    <path class="st0" d="M192.76,58.63c3.25-.27,6.88-.84,10.1-1,.61-.03,1.09-.08,1.51.46l-.3,14.04c.82,2.08,13.97-.23,15.99-1.37,1.15-1.45.38-12.68-.05-15.21l9.26-.81c1.6,1.32-.44,11.98.45,14.39,2.24.73,4.64.92,6.99.8,2.18-.1,11.37-1.26,12.62-2.32,1.32-4.85-1.27-10.14.61-15.03l10.95-1.53c1.28.22.69,7.31.73,8.89.12,5.13-.11,10.21.01,15.42.03,1.23.3,2.62.52,3.83-7.5.26-14.9,1.39-22.36,2.06-8.7.78-17.5,1.1-26.2,2.07-6.94.77-13.86,1.97-20.82,2.57v-27.24ZM254.96,71.48c-.36,2.9-5.49.64-6.18,3.85.69,1.1,1.05.42,1.85.35,2.89-.26,8.82-.41,4.32-4.2ZM232.33,76.63c-2.58-.77-5.48-.79-8.06-.08-.87.24-1.43-.37-1.19,1.09l2.05.28,7.19-1.29ZM208.18,78.67c-.2-.95-1.01-.94-1.78-1.04-2.28-.28-8.78-.78-8.5,2.58l10.28-1.55Z"/>
    <path class="st0" d="M246.73,218.74c.74,2.64,10.49.61,12.89.53l.5-12.58,10.77-1.06.03,11.79,5.91.52-.34,9.74-28.98,2.11-3.06-.54c-10.95,1.77-22.06,2.42-33.15,2.05l-.53-20.27c.47-2.56,3.53-1.22,4.89-1.32s4.95-1.01,5.67,0c1.3,2.32-.02,10.95,1.76,12.12,1.16.76,10.81-.31,10.81-2.07v-10.02c0-.1,1.7-1.03,1.8-1.03h10.54c-.28.66.51,1.52.51,1.8,0,1.89-.38,6.86,0,8.22ZM265.23,224.64c2.04-.1,4.32.68,5.64-1.28-1.65-1.72-4.72-.62-5.64,1.28Z"/>
    <path class="st0" d="M176.31,162.71c.05.17.8.91,1.03,1.02,1.16.54,13.58-.33,14.26-.89l.67-13.73,10.25-.53c-.36,3.17.06,6.69.02,10.04-.02,1.35-.56,2.63-.58,4.08s1.3,9.79-.19,9.92c-3.91-1.11-7.95.2-11.84.63-8.12.89-16.53,1.4-24.54,2.27-6.98.75-13.98,1.95-20.94,2.88l.5-25.46,8.68-.69c1.57.98-1.11,10.52.54,12.57.86,1.1,7.82.87,9.55.71,1.07-.1,3.97-.41,4.3-1.36l1.19-13.46,7.11-.6v12.59ZM195.32,156.8c-1.27-1.32-2.23,4.65-.77,4.62,1.99-1.31,1.03-2.72.77-4.62ZM151.64,164.51c-2.95-.43-2.46,7.34-1.28,7.7,3.38,1.03,1.31-6.28,1.28-7.7ZM186.59,169.64c2.57-.22,5.73.83,7.7-1.28-1.82-1.87-4.57.27-6.84-.28l-.86,1.56ZM173.74,168.62c-1.61.15-4.62-.81-4.63,1.54h4.63s0-1.54,0-1.54Z"/>
    <path class="st0" d="M284.25,168.88c.03.74-.59,2.26.84,2.76,1.22.42,7.94.19,8.69-.94l-.15-13.15.71-.67,7.35-.57c1.44,1.01-1,10.82-.51,13.01.25,1.03,10.1.78,11.08-1.2,1.16-2.35-.94-12.25,1.15-13.37,1.2-.65,9.97-1.21,10.88-.46,1.18,7.05-.18,14.13.05,21.27.04,1.09,1.12,2.89.02,3.63-.93.63-8.6.11-10.56.23-8.23.54-16.43,2.18-24.68,2.56-4.86.22-9.78-.15-14.65,0v-22.62s9.77-.51,9.77-.51c.1,3.33-.13,6.69,0,10.02ZM280.13,167.08l-1.25.97c.63,1.11-1.09,6.18.48,6.21,2.64.06.08-5.61.77-7.18ZM304.8,175.3c-.55-2.49-8.18-.21-6.68,1.03l6.68-1.03Z"/>
    <path class="st0" d="M412.68,109.95l1.34-1.46c.3.07,3.97,4.27,4.14,4.64.71,1.56-1.51,4.38,1.78,3.06.24,1.51-1.21,6.43-2.81,6.53-.14,0-2.6-.9-2.71-1-.81-.72-1.68-5.01-2.23-6.25-.78-1.76-2.15-3.15-3.55-4.42.56,2.21,1.04,5.7-.28,7.69-.51.76-1.36.82-1.62,1.15-1.52,1.92-1.43,1.45-2.99,2.97-1.43,1.39-2.23,3.63-4.36,4.38,1.18,3.01,6.7-3.37,7.21-3.6,2.04-.93,7.91,2.38,9.24,4.37-1.03.12-2.25-.2-3.23.02-.37.08-.38.78-.77.97-.87.42-3.67,2.06-3.96,2.11-.77.14-.91-.01-.77-.77l3.59-3.35-7.96,4.11-.29-1.48-7.16-1.09c.64-1.38,3.33-3.49,3.84-4.63.85-1.89.41-4.99.79-6.84.08-.38,1.63-.42,1.02-1.88-3.4,1.18-5.45-.93-7.19-3.59,3.04-.47,5.12-.73,7.69,1.3.23.18,3.47,4.37,3.11,1.53-.1-.77-4.54-6.56-5.39-7.46-1.88-1.99-5.08-2.07-3.35-5.13l-3.09-.52,1.02-3.08-3.59,1.03,1.03-2.05-3.08,1.02,3.08-4.62-5.13,3.59,3.16-6.1c6.63-.4,8.86,5.35,12.5,9.19,3,3.17,6.41,5.92,9.23,9.27l1.76.42Z"/>
    <path class="st0" d="M224.56,282.79l-.45,47.22c-2.48-.89-3.14-.97-5.65,0-.33-5.67-.84-11.21-.51-16.96h5.32c1.44-2.72-2.86-1.75-4.54-2.09l-.78,1.57c-.07-2.04-.48-4.42-.54-6.4-.25-7.21-.27-17.18,1.06-24.16.12-.6.2-.93.75-1.28l5.34,2.11Z"/>
    <path class="st0" d="M264.21,318.19l1.07-24.63,5.1-.82c-.94-2.74-3.64-1.36-5.66-1.28.78-2.8-1.56-10.17-.05-12.12,1.15-1.49,4.16-.61,5.7-1.75.74.74,2.12,16.46,2.03,18.74-.14,3.8-1.15,8.04-1.51,11.84-.29,3.08.59,6.41-1,9.29-2.17.38-3.69-1.01-5.68.73ZM267.68,304.97c-.47-.24-.92-.15-1.41-.14l-.52,2.57h3.59c.33-.29-1.53-2.36-1.66-2.42Z"/>
    <path class="st0" d="M325.23,60.33c.09.05.17.65.51.85,13.68,8.01,22.81,21.56,34.06,32.4-1.88-.07-3.88,1.01-5.5,1.96-.86.5-5.42,4.6-5.81,4.21l5.14-7.19c-.54-.48-2.69,1.27-3.24,1.62-.62.4-2.99,2.47-3.19,2.48-3.24.08,4.61-5.86,3.85-6.67-1.17.63-2.44,1.11-3.56,1.83-.71.45-2.54,3.09-2.59,1.01l4.62-5.92c-1.02-.07-2.08.38-2.95.88-.22.13-4.82,4.59-3.73,1.95.79-1.91,4.15-5.6,6.16-6.17l-2.15-.21-5.55,4.06c-.83-1.67,4.3-5.48,3.59-6.17-.71-.47-6.41,4.67-5.06,1.36.52-1.27,3.31-2.95,3.52-4.96-.9-.91-3.76,4.32-5.66,3.34-1.32-.68,3.19-4.19,2.57-5.4-1.43-.44-3.23,3.88-4.37,2.06l1.8-4.11c-1.3.05-2.56,2.91-3.6,1.27l1.54-4.36c-1.06-.13-2.14,3.41-3.07,2.57s.81-3.09.51-4.36c-.47-2.01-2.53,1.22-2.06,2.3-2.48-1.24-.52-3.11-.51-5.14l-2.05,1.8c-1.29-1.73-2.25-2.53-.51-4.37-2.71,1.06-3.82-.5-4.11-3.09.49,0,.94-.09,1.41.15Z"/>
    <path class="st0" d="M401.95,170.16l2.05-1.54c2,5.22,1.86,10.49,4.95,15.36.97,1.52,2.66,3.04,3.81,4.43.36.43.11,1.13.47,1.55,1.46,1.72,6.26,2.69,8.4,2.19,1.21-.28,1.7-1.49,2.93-1.43-.23,3.9-.44,4.95-4.34,5.11-8.28.33-14.13-5.8-17.53-12.81,1.76-5.63-1.26-11.05-3.23-16.3,1.35-4.03,3.64,1.67,2.48,3.43Z"/>
    <path class="st0" d="M261.43,262.38c3.53,3.38,6.13,7.76,7.74,12.4-1.1,1.23-5.34,4.22-6.46,2.5-1.3-1.99-1.94-4.43-3.67-6.61-2.22-2.8-5.69-5.13-8.2-7.72l4.35-5.27c.59-.04,5.45,3.95,6.23,4.71Z"/>
    <path class="st0" d="M232.54,268.56c-3.44,3.46-6.06,7.83-7.41,12.63l-5.42-1.51c-.95-2.65.6-4.83,1.74-7.06,1.28-2.51,6.88-11.5,9.09-12.5l4.29,6c.1,1.13-1.6,1.76-2.28,2.45Z"/>
    <path class="st0" d="M252.05,258.23c-.88,1.2-1.72,2.52-2.31,3.9l-5.86-2.35c-1.35.87-4.18,4.31-5.67,4.48-1.34.15-4.68-3.9-5.35-5.37.29-1.43,9.84-6.38,11.59-6.45,1.33-.06,7.48,2.41,8.43,3.32.51.49.68.78.49,1.51-.16.51-1.09.64-1.33.98Z"/>
    <path class="st0" d="M238.5,276.81c.09-.4.96-1.71,1.54-1.8.56,3.69.71,7.1.02,10.77l6.1-.03.83-14.33c2.47,4.32.91,9.16,1.36,13.8,7.24,2.7,5.52-2.48,6.09-7.39.11-.94-.16-.83,1.03-.76-.32,1.52.46,2.98.52,4.37.04.95-.77,2.09-.48,3.01.52,1.64,3.18-.05,3.05,1.62-.42,3-6.8,2.09-8.96,2.35-4.07.48-8.29,1.5-12.51,1.37-2.25-.07-6.8-.43-4.26-3.22l5.68.78c.44-3.06-.6-7.7,0-10.54Z"/>
    <path class="st0" d="M382.93,68.92l-2.05,1.53c1.79-.02,3.82-.46,4.62,1.54-.9,1.16-4.15-.96-3.6,1.03l4.63,1.3-3.6,1.79,5.65,1.04c.03,2.69-4.41-.28-5.14,2.04l6.68,1.04c1.22,1.15-3.36,1.39-3.89,1.52-.86.22-1.5-.51-1.25,1.04l5.91.49,1.28,1.31c-2.17.99-5.59-.94-7.19,1.28,2.27-.02,5.04.14,7.21.78.91.27,1.21.1,1.01,1.28-1.72.16-3.69-.24-5.37.03-1.53.24-1.98,1.41-3.37,1.51-.66-6.97-2.85-13.81-5.67-20.29-.35-1.73,3.28-.17,4.12-.26Z"/>
    <path class="st0" d="M237.99,292.49c2.03-.57,2.46,2.26,2.6,3.83.87,10.12-.9,20.73-.59,30.87.03.88.17,1.53.56,2.31-.6.45-2.57-.81-2.57-1.28v-35.72Z"/>
    <path class="st0" d="M340.17,209.85c2.67,1.53,1.29,15.9,1.18,19.16-.08,2.38,1.7,8.72-2.36,7.98-1.09-9.02-.72-18.24-.27-27.26.47.05,1.01-.14,1.44.11Z"/>
    <path class="st0" d="M378.3,121.34l.55,7.68h1.99c.57-1.9.3-4.07.55-5.89.21-1.58,1.3-.72,2.06,0,.31.3,3.25,4.14,3.35,4.4.83,2.11-1.4,2.04-1.69,2.23-.33.22-.17,1-1.51,1.24-1.04.19-3.4.14-4.44-.09-2.28-.5-5.08-3.01-5.38-5.34-.41-3.18,1.55-4.37,4.52-4.23Z"/>
    <path class="st0" d="M253.92,329.5v-38.55c1.71-.16,1.92,2.6,2.05,3.86.71,6.94.64,26.41-.98,32.88-.18.73-.08,1.62-1.07,1.81Z"/>
    <path class="st0" d="M247.75,293.52c2.15,11.21.04,22.61.51,33.92-.67-.15-1.14-.83-1.4-1.42-1.55-3.56-.52-21.55-.21-26.64.1-1.65-.3-3.04.1-5.09.16-.82-.37-.89,1-.78Z"/>
    <path class="st0" d="M392.17,160.41c.94,1.8,2.89,3.22,4.03,4.96,2,3.05,3.51,7.17,5.23,10.44l-5.08,1.48c-1.24-2.35-2.38-5.04-3.76-7.29-.94-1.54-4.2-5.15-4.52-6.28-.26-.91.42-1.05,1.04-.52l6.92,8.49c.95-.75.64-.58.36-1.37-.94-2.63-3.82-6.56-5.24-9.17l1.01-.75Z"/>
    <path class="st0" d="M424.05,134.7c-3.75-.98-8.02,1.68-11.54,1.01-.49-.09-6.94-2.93-6.95-3.32,1.59-1.94,1.46.19,1.84.25.75.12,3.2-.47,4.32,0l-2.05-1.53c6.54-3.75,9.78-1.27,14.39,3.59Z"/>
    <path class="st0" d="M281.16,133.16l-3.02-1.35c.12-4.25-.32-8.59-.27-12.81.03-2.35-.65-7.73,2.25-7.93-.39.93,1.03,2.59,1.03,2.83v19.27Z"/>
    <path class="st0" d="M365.97,331.55l-1.98-.07c-2.89-12.93-7.08-25.71-8.29-38.99l10.27,39.05Z"/>
    <path class="st0" d="M384.47,98.21c.41,1.75-2.39.84-3.74,1.14-1.18.26-3.41,2.05-4.22,1.94-2.16-.29,2-2.89,1.27-3.6-1.79-.27-3.02,2.84-4.64,1.82-2.15-1.36-.34-3.94.32-5.38.19-.41,1.28-1.36-.05-1.58s-.84,1.34-.92,1.43c-.28.29-3.13,2.45-3.44,2.16l3.07-4.36c-1.18-1.68-2.17.91-3.07,1.28l1.03-3.6c4.65,3.09,8.97,6.97,14.38,8.75Z"/>
    <path class="st0" d="M404.64,307.82c2.61,3.65,2.17,6.46,3.3,10.8.96,3.66,2.2,7.25,3.26,10.87-.68-.02-1.45.17-2.07-.23-1.31-.84-4.41-21.43-5.97-24.27l-1.21-8.12c.31-.7,1.07.66,1.16.9.74,2.03,1.24,9.64,1.54,10.06Z"/>
    <path class="st0" d="M385.62,290.31c-.48-.52-.56-1.48-.63-2.18-.27-2.41-.2-9.78-.02-12.36.12-1.73.51-3.83,1.3-5.37.63.53,1.11.94,1.28,1.81.63,3.27-.18,9.26-.21,12.83,0,.62,1.22,8.46-1.71,5.27Z"/>
    <path class="st0" d="M390.32,103.75c.12.21,1.41-.07.83,1.13l-4.11.52,1.54,1.28c-.57,1.26-4.48,1.25-4.11-.76l2.05-1.55c-1.67-.24-2.17.1-2.82,1.54l-1.3-.52.52-1.53c-1.28-.05-2.73.41-3.58-.78,1-4.42,8.38-2.71,10.81-.5.41.37.01.89.16,1.16Z"/>
    <path class="st0" d="M376.76,289.41l-1.59-.31c-.88-1.2-.47-10.37-.54-12.74-.08-2.99-1.12-4.49,1.1-7.52.7.09.9.7,1,1.31.29,1.74.5,6.19.57,8.19.11,3.47-.62,7.54-.55,11.07Z"/>
    <path class="st0" d="M342.33,291.46c-.99.5-2.57-1.04-2.57-1.8v-15.93c0-.97,2.57-.97,2.57,0v17.73Z"/>
    <path class="st0" d="M231.71,92.44c-.18.24-2.8,1.09-3.3,1.13-2.99.24-3.51-2.74-3.04-5.13,1.57-1.09,6.6-2.78,6.97.29.06.5-.43,3.44-.63,3.72Z"/>
    <path class="st0" d="M339.24,169.13l-2.5-.07c-.54-.33-1.41-11.19-.63-12.44.2-.32,1.04-.76,1.34-.72,2.65.37.54,11.21,1.79,13.23Z"/>
    <path class="st0" d="M246.13,86.47c.72.45,1.57,3.73.25,4.58-1.01.65-6,.85-6.63-.03l.26-4.4,6.11-.15Z"/>
    <path class="st0" d="M189.16,183.52c.35-.95.29-2.39.63-3.22.96-2.35,8.64-2.29,7.01,2.39-.52,1.5-6.29,1.37-7.64.83Z"/>
    <path class="st0" d="M160.89,187.13l.99-5.95c8.27-1.55,6.32,7.31-.99,5.95Z"/>
    <path class="st0" d="M203,328.51l.04,2.02-12.85,1.03-.53-2.82c4.46-.13,8.95-1.25,13.34-.23Z"/>
    <path class="st0" d="M350.55,172.73l-2.32-.51c-1.45-3.47-.39-6.76-.25-10.29.93-.75,2.57,1.52,2.57,1.8v8.99Z"/>
    <path class="st0" d="M175.85,185.52c-1.8-4.86.44-6.23,5.14-5.35,1.5,3.7-1.61,5.86-5.14,5.35Z"/>
    <path class="st0" d="M260.08,90.49h-6.16c-.13-4.37,2.18-5.43,6.19-4.39l-.03,4.39Z"/>
    <path class="st0" d="M291.95,190.73l.07-4.56c3.95-1.71,6.21-.22,5.36,4.07l-5.44.48Z"/>
    <path class="st0" d="M217.87,89.55l.08,4.55c-3.51-.12-6.39,1.64-5.57-3.52,2.06-.75,3.2-2.47,5.49-1.03Z"/>
    <path class="st0" d="M309.95,189.7l-4.66-.23-.41-4.33c4.41-1.81,5.61.29,5.07,4.55Z"/>
    <path class="st0" d="M203.98,94.53c-2.17,1.33-4.87,1.81-5.49-1.33-.86-4.34,6.97-4.09,5.49,1.33Z"/>
    <path class="st0" d="M150.45,182.12c2.96-.07,5.87,5.82,1.07,5.42-2.45-.21-2.96-2.18-3.43-4.23.16-.62,1.77-1.18,2.36-1.19Z"/>
    <polygon class="st0" points="322.28 184.55 321.8 188.96 317.14 189.18 317.62 184.78 322.28 184.55"/>
    <path class="st0" d="M269.85,319.73c.38,2.66-1.17,3.94-2.16,5.8-.63,1.17-.6,3.52-2.46,3.45.75-2.88,2.4-6.24,0-8.73l4.62-.52Z"/>
    <path class="st0" d="M397.84,109.51c-2.99.2-5.51.45-8.42-.51l-.31-1.02c3.4-2.46,6.45-2.12,8.73,1.53Z"/>
    <path class="st0" d="M283.58,187.79c.61.76.8,1.94.62,2.89-1.3.44-3.16,1.13-4.33.06-2.52-3.03,1.58-5.6,3.71-2.94Z"/>
    <path class="st0" d="M406.05,167.08c-.57-.15-1.35-2.53-1.41-2.94-.2-1.25-.15-2.48-.12-3.74,1.59-.06,3.3-.3,4.06,1.39l-2.53,5.29Z"/>
    <path class="st0" d="M277.05,273.99l-.24,5.67c-1.9,2.5-3.57-3.93-3.31-4.83.35-1.23,2.6-.8,3.56-.84Z"/>
    <path class="st0" d="M342.7,260.25c.4.32.71,1.37.65,1.92-.27.25-6.33-.91-7.28-1.2-.64-.19-2.87-.78-2.48-1.88,2.08.75,7.69.03,9.11,1.16Z"/>
    <path class="st0" d="M329.48,180.44c-2.04-2.74,8.68-.41,8.73,1.29.05,2.17-7.85-1.42-8.73-1.29Z"/>
    <path class="st0" d="M353.12,187.13c.02.89.29,1.1-.73.99s-11.81-3.48-10.06-5.11l10.79,4.11Z"/>
    <path class="st0" d="M400.4,179.93c.23.27-2,5.65-2.82,5.64-1.69-1.44-1.29-3.66-1.28-5.65h4.1Z"/>
    <path class="st0" d="M395.27,252.91c-1.57-1.56,3.65-.83,4.17-.7.9.21,5.54,1.9,5.58,2.51-.79,1.17-1.04.55-1.92.4-2.65-.46-5.24-1.53-7.83-2.2Z"/>
    <path class="st0" d="M226.68,204.08c-.78-.15-.73-2.67-.73-3.34-.05-4.5.14-9.14.48-13.62,1.61-.04.36,15.09.25,16.96Z"/>
    <path class="st0" d="M391.15,249.84c-.63,1.6-2.79,1.05-4.06.7-1.12-.31-1.11-1.03-1.19-1.05-1.09-.38-3.68.14-4.51-2.21l9.76,2.57Z"/>
    <path class="st0" d="M215.37,280.67l-.51,4.11-4.1-1.81.98-.99-.47-1.31c1.53.32,2.62.93,4.1,0Z"/>
    <path class="st0" d="M419.94,172.22l-1.03-5.14c1.02-.15,3.24.28,3.55,1.36.28.99-1.58,4.48-2.52,3.77Z"/>
    <path class="st0" d="M292.98,89.99l-.25,1.01c-2.81-2.16-6.45-2.85-9.45-4.45-.82-.44-1.92-.49-1.61-1.71l11.3,5.15Z"/>
    <path class="st0" d="M382.42,67.36l-4.65.28-1.51-3.35c2.23.55,5.02.73,6.16,3.08Z"/>
    <path class="st0" d="M376.25,245.21v1.54s-1.76-.03-1.76-.03l-5.95-2.53c2.69-1.05,5.05,1,7.71,1.02Z"/>
    <path class="st0" d="M395.27,315.11c-.21.9-.92,1.02-1.73,1.01-.94-.02-5.85-.97-7.04-1.24-.73-.17-1.84-.45-2.03-1.31l10.79,1.54Z"/>
    <path class="st0" d="M390.63,151.67c-.17,1.52,1.98,1.08,3.09,1.54l-1.29,5.64c-.97-.7-1.24-5.33-1.42-5.56-.29-.37-3.16-1.42-.39-1.63Z"/>
    <path class="st0" d="M215.38,175.82c1.91.09,3.89.82,5.13,2.31l-1.38,1.23c-1.09.28-4.3-1.9-3.74-3.54Z"/>
    <path class="st0" d="M333.59,317.67c1.25.24.85-.15,1.24-.98l3.02.46.88,2.06-4.87-1.05-.77,1.05c-.25-1.12-.91-1.78.25-2.56l.26,1.02Z"/>
    <path class="st0" d="M363.4,243.66c-1.34-.52-2.89-.31-4.21-.66-.44-.12-2.39-.82-2.46-1.39,2.23-.11,6.83-1.51,6.68,2.05Z"/>
    <polygon class="st0" points="312 132.13 311.61 135.08 306.87 141.38 310.8 133.23 312 132.13"/>
    <path class="st0" d="M278.08,84.33c-1.54-.77-3.48-.78-5.02-1.38-.18-.07-2.18-1.76-1.66-2.21.87-.22,7.92,2.45,6.68,3.59Z"/>
    <path class="st0" d="M400.4,156.29c-.65,1.38-.66,2.94-1.01,4.4-.21.87.51,1.49-1.04,1.25l-.51-5.65h2.57Z"/>
    <path class="st0" d="M354.66,318.71c-1.4,2.22-4.63.43-6.68.51-.84-.68.06-.93.76-1.02,1.99-.27,3.99.19,5.92.52Z"/>
    <path class="st0" d="M348.49,310.49c-.31,1.13-.68.76-1.43.69-.63-.06-6.01-.84-5.76-1.47,2.56-1.85,4.61.69,7.19.77Z"/>
    <path class="st0" d="M351.06,327.96c1.66,1.65-3.87.64-4.34.48-.84-.29-1.5-.38-1.31-1.51,2.02-.31,3.77.54,5.65,1.03Z"/>
    <path class="st0" d="M213.31,176.85c-1.56-1.22-4.07-1.41-4.62-3.59,2.2-.02,5.18.86,4.62,3.59Z"/>
    <rect class="st0" x="306.02" y="142.55" width="10.02" height=".9" transform="translate(53.87 368.96) rotate(-66)"/>
    <path class="st0" d="M205.61,183.53c1.28-.13,3.46.63,3.08,2.3-.36,1.58-4.18-.26-3.08-2.3Z"/>
    <path d="M170.18,232.83l.3-22.5c-.2-4.91,4.6-8.83,7.39-3.44,3.69,7.1-.1,16.78,1.87,24.21-.27,1.66-8.08,2.01-9.56,1.73Z"/>
    <path d="M177.22,280.55l-5.05.93-.49-1.07c.48-6.47-.71-13.68,0-20.04.69-6.2,6.02-4.95,6.45,1.26.27,3.88.14,12.87-.28,16.73-.08.77-.17,1.54-.63,2.19Z"/>
    <path d="M173.23,299.69c-.15-1,.39-1.37,1.29-1.53,3.93-.71,8.1-.18,11.78-.51,1.63-.15,11.07-2.11,11.6-1.55l-.3,2.11-10.16,1.05-.86,1.21.53,6.43c1.45-.06,2.92.1,4.37,0,1.57-.11,6.44-1.6,7.2-.51l-.26,1.3c-1.95-.19-3.51.95-5.45,1.22-1.05.14-9.73.52-10.22.37-.7-.21-.9-.66-.77-1.34l3.11-.82c-.39-2.36.8-5.56-.8-7.41h-11.05Z"/>
    <path d="M197.38,314.6c-1.19,1.65,1.55,2.92-.28,4.08-2.3-.41-10.45-.36-12.02.83-1.52,1.15-1.13,5.27-1.66,7.08-.19.66-.71,1.16-1.2.36-1.1-1.8.2-5.58-.27-7.7-5.54-1.25-2.54-2.74,1.39-2.91,2.8-.12,8.73.26,11.21-.21,1.35-.26,1.5-1.62,2.83-1.52Z"/>
    <path d="M196.12,192.47c1.16.17,1.97,2.28.39,2.78-1.79.57-9.89,1.36-11.75,1.15-.77-.09-1.3-.05-1.77-.8-.21-.95,1.25-1.47,1.93-1.66,1.51-.43,10.01-1.64,11.2-1.46Z"/>
    <path d="M168.86,297.12c2.28,2.45-2.15,2.77-4.12,2.8s-5.39-.41-7.22-.72l-.22-1.56c.5.13,1.1-.52,1.28-.52h10.28Z"/>
    <path d="M163.37,226.63c-2.66-1.09-8.96,1.84-8.13-2.5,3.01.65,7.07-2.1,9.15.76l-1.02,1.73Z"/>
    <path d="M184.53,266.28c1.99.42,9.69-2.58,10.28-.25.61,2.4-7.95,1.47-9.04,2.28l-.99-.48-.24-1.55Z"/>
    <path d="M164.49,308.42c-.24-1.47.31-.86,1.18-1.1,2.3-.63,6.29-1.07,8.71-1.14,2.21-.07,1.85,1.94.13,2.24-3.25.56-6.75-.01-10.02,0Z"/>
    <path d="M164.93,238.59l.59,1.98c-1.56.38-9.24,2.32-9.24.26,0-1.22,7.33-2.5,8.66-2.24Z"/>
    <path d="M185.05,288.89c0-2.72,8.98-2.53,9.25-1.27.16.78-.6,1.16-1.28,1.28-1.11.19-7.52.61-7.97,0Z"/>
    <path d="M192.24,275.01l-.51,7.2-1.73-.07c-1.57-.51-.04-7.03.52-7.15l1.73.02Z"/>
    <path d="M186.59,237.49v-1.53c1.25-.11,8.4-2.58,8.74-.77.36,1.9-7.46,2.52-8.74,2.3Z"/>
    <path d="M165.01,197.41l-.3,1.59-1.54.41-7.41-.21c-.34-2.11,8.05-1.83,9.25-1.79Z"/>
    <path d="M176.82,245.72c1.97,1.64-8.42,2.2-9.25,2.05.05-3.98,6.72-1.69,9.25-2.05Z"/>
    <path d="M192.22,241.61c1.47,3.31-4.37,3.09-6.66,3.08l.48-2.34,6.18-.73Z"/>
    <path d="M155.24,248.27l.29-1.57c11.38-2.08,8.03,3.37-.29,1.57Z"/>
    <path d="M165.97,273.92l-1.99.07c-.8-8.51,4.31-9.01,1.99-.07Z"/>
    <path d="M162.43,254.97l-.08,5.83-.4.62-1.57.23c.14-1.52-.97-3.34-.44-4.81.05-.15,2.11-2.38,2.49-1.87Z"/>
    <path d="M192.24,224.13c-7.48,3.08-9.83-2.16-.87-1.45l.87,1.45Z"/>
    <path d="M166.03,281.18h-7.2v-1.54c2.62.9,8.5-2.92,7.2,1.54Z"/>
    <path d="M190.7,207.68l.52,6.42c-2.92,1.32-2.27-3.92-1.6-5.7.27-.71-.17-.88,1.08-.72Z"/>
    <path d="M161.41,206.14l.03-2.54c8.09-1.91,1.39,3.98-.03,2.54Z"/>
    <path d="M191.26,257.5c-.93-.65-.24-4.14,1.75-3.55s.44,5.08-1.75,3.55Z"/>
    <path d="M176.82,288.38c-.49.93-3.56,1.59-4.39,1.56-.76-.02-2.27-.74-2.28-1.31-.03-1.34,5.85-.18,6.67-.25Z"/>
    <path d="M163.46,211.29c-.22,2.66-3.78,2.78-5.13.77,1.26-1.43,3.48-.57,5.13-.77Z"/>
    <path d="M160.37,269.36c-1.04-.3-5.53.97-4.62-1.28.41-1,5.81-1.27,4.62,1.28Z"/>
    <path d="M156.26,305.86v2.04c-1.82,0-3.72.84-5.13-.76l5.13-1.28Z"/>
    <path d="M306.82,235.92c-2.4.19-8.02,2.77-8.68-.75-1.12-5.9.97-14.65-.24-20.88,1.77-8.03,7.8-8.02,8.92.38.84,6.35-1.59,14.64,0,21.25Z"/>
    <path d="M302.62,264.36c2.71,2.57.41,18.04,1.16,22.22-.47,2.59-5.21,2.73-5.83-1.36-.45-2.99.13-10.07.21-13.57.02-1.06-.43-2.13-.37-2.99.17-2.5,1.86-6.43,4.84-4.3Z"/>
    <path d="M312.97,250.91l-.27,1.94c-3.84.01-7.63,1.05-11.43,1.3-3.05.2-6.33-.4-9.05-.48-1.15-.04-6.88,2.23-6.94.02-.03-1.23,6.63-2.2,7.96-2.3,6.31-.49,13.35-.21,19.73-.48Z"/>
    <path d="M306.86,294.55l-.64,1.16-17.87.89.31-1.58c5.88-1.69,12.22-.89,18.2-.46Z"/>
    <path d="M319.71,244.69l-15.93,2.05c-.21-1.24.14-.97,1.02-1.26,1.8-.6,12.83-2.65,14.05-2.25.67.22,1,.76.86,1.46Z"/>
    <path d="M325.36,321.79l-.22,2.09c-.55.8-7.81.64-9.05.25-2.67-.84-1.48-2.34.8-2.34h8.48Z"/>
    <path d="M321.26,295.57c-1.21-.54-9.76,1.67-9.25-.76.44-2.08,6.76-.8,8.5-2.24l.76,3Z"/>
    <path d="M286.35,285.75l-.05-3.03c1.25.19,7.64-.57,7.7.77-.94,2.6-2.44,1.46-4.33,1.83-1.24.24-1.98,1.26-3.32.43Z"/>
    <path d="M284.25,231.32l.23-1.56c.58-.79,7.11-.89,7.48.29.92,2.77-7.47,1.65-7.7,1.27Z"/>
    <path d="M290.79,241.74c.73,0,1.44.59,1.61,1.24.73,2.74-9.4,2.93-5.76-.77,1.32.21,3.06-.48,4.15-.47Z"/>
    <path d="M310.98,263.18c.37-2.81,3.03-1.54,4.88-1.48,1.57.04,2.64-1.25,3.84.72.01,1.2-7.48,2.07-8.72.76Z"/>
    <path d="M320.74,328.48c-.66.41-2.35,1.9-2.92,1.95-1.39.12-3.21-.81-4.79-.41l.23-1.57.62-.4,6.86.44Z"/>
    <path d="M291.44,202.03l-.6,2.49c-8.06,2.12-5.65-3.91.6-2.49Z"/>
    <path d="M281.42,305.34c-.43-.12-.94-.99-.77-1.54,1.61-.27,8.31-.46,9,.51l-.52,1.03h-7.71Z"/>
    <path d="M304.29,323.84l-6.16.51c-.29-3.92,6.17-4.17,6.16-.51Z"/>
    <path d="M293.42,259.67c.19.12.49,1.26.53,1.66-.4,1.76-6.51,1.96-4.73-.7,1.62.48,2.36-2.09,4.2-.96Z"/>
    <path d="M312.52,226.7l.23-1.57.62-.4c.89-.16,5.32-.4,5.31.69-1.43,2.07-3.99,1.11-6.16,1.28Z"/>
    <path d="M291.9,218.01l.56,1.24c-.03.91-8.09,2.68-4.78-1.31l4.23.07Z"/>
    <path d="M318.68,215.4l-.86,2.07c-1.56-.17-3.62.58-4.78-.79,1.49-1.78,3.56-2.12,5.65-1.28Z"/>
    <path d="M301.66,327.49l.56,1.24c-4.04,3.27-7.49-2.23-.56-1.24Z"/>
    <path d="M303.78,202.55c-.21,2.68-2.28,1.49-4.11,1.53l.23-1.57.62-.43,3.26.46Z"/>
    <path d="M319.71,250.35c.85,1.14-3.5,2.83-4.1,1.28-.85-2.17,3.08-1.63,4.1-1.28Z"/>
    <path d="M311.99,239.55c-1.46,1.37-1.96-4.01-.25-4.62.97.73.86,4.05.25,4.62Z"/>
    <path d="M232.67,111.23c.42.41,1.87,2.72,2.1,3.3.89,2.26,1.13,19.63.53,22.32-.08.36-.91,1.89-1.27,1.97l-8.56.47-.73-1.13c.17-3.8.35-7.6.43-11.41.07-3.28-.71-7.69.1-10.7s3.98-8.15,7.41-4.83Z"/>
    <path d="M244.99,168.66c3.79-.08,2.67,2.27,2.77,4.36.11,2.31,1,8.77-.74,10.03s-4.01.18-4.17-1.81c-.19-2.24.37-7.87.94-10.16.19-.76.37-2.14,1.2-2.42Z"/>
    <path d="M246.72,136.24l-.54,6.4,1.57.28v1.54s-10.79,1.03-10.79,1.03c-1.56-1.36,7.02-3.03,7.71-2.57.39-2.76-1.78-5.95,2.05-6.68Z"/>
    <path d="M253.87,188.11c-.54.79-4.02.04-5.26.25-1.66.28-3.54,1.65-5.48,1.34-.42-2.86,1.66-3.18,3.91-3.54.71-.11,5.75-.62,6.04-.53.85.27,1.18,1.92.8,2.48Z"/>
    <path d="M221.02,100.27l-.5,1.81c-3.39-.26-8.97,3.88-10.79-.01.1-1.23,9.78-1.94,11.29-1.79Z"/>
    <path d="M213.82,129.56c-3.34-1.17-.51-13.59,1.03-12.33.57,3.98-.05,8.4-1.03,12.33Z"/>
    <path d="M215.25,110.13c.7.01,1.29.48,1.15,1.18-.28,1.37-9.39,3.25-9.76,1.54-.39-1.79,7.37-2.74,8.61-2.72Z"/>
    <path d="M244.16,154.74c-.2-1.01.47-1.23,1.18-1.64,1.21-.71,8.24-2.19,8.58-.66.53,2.39-8.16,1.79-9.76,2.3Z"/>
    <path d="M248.36,195.22c-.43-.16-1.91-1.85-.26-2.36,1.12-.34,2.64.1,3.92-.19,1.1-.24,2.85-2.53,3.36-.08.13.65-.61,1.93-1.28,2.16-.27.09-5.46.57-5.73.47Z"/>
    <path d="M236.44,104.9l-10.79,2.05.3-1.59c3.35-1.12,7.07-1.47,10.49-.46Z"/>
    <path d="M237.94,164.55c1.85,3.49-3.42,3.05-5.6,3.04l.49-2.34,5.12-.7Z"/>
    <path d="M214.34,130.59c.44,3.35-6.42,1.98-8.73,2.05,1.72-2.45,6.01-1.36,8.73-2.05Z"/>
    <path d="M250.32,118.76c-.43.65-5.32.53-6.42.52-.63-.08-.55-1.77,1.03-2.05.92-.17,7.13-1.08,5.39,1.53Z"/>
    <path d="M253.92,100.27c1.37,1.96-5.78,4.11-6.16,2.3-.27-1.25,5.27-3.57,6.16-2.3Z"/>
    <path d="M248.27,109.51c2.71-.65,3.12,3.54,1.2,4.04-2.56.66-1.43-2.81-1.2-4.04Z"/>
    <path d="M245.7,165.54c-.58-1.91,3.63-4.12,4.11-2.3.56,2.16-2.68,2.65-4.11,2.3Z"/>
    <path d="M248.78,130.08c-.9,2.16-3.22,1.49-5.14,1.53v-1.54s5.14,0,5.14,0Z"/>
    <path d="M421.48,147.55c-.49-.13-.43-.77.02-1.25.57-.6,2.61-1,2.29-1.83-1.35-1.02-3.37-1.96-5.07-1.55-.51.12-.06,1.41-1.1,1.03l-.84-1.97c-5.21-.83-4.25,5.25-3.54,8.66-6.33-4.81-2.15-13.65,5.66-11.83l-.52-1.02h3.86s1.29,1.54,1.29,1.54l-3.08.51c1.43-.43,5.58,2.41,5.9,2.4,1.51-.02,4.26-2.01,7.11-.34.44.26.43,2.08,2.17.52l-.28-2.06h1.53c.22,1.29.29,3.98.82,5.09.49,1.05,2.36,2.75,2.63,3.98.18.81-.35,3.13.16,4.28l-3.08-1.55,1.06-1.8-1.87-1.8c.75-2.08-1.58-2.12-3.3-3.08l1.54-1.53c-2.78-.77-5.21-2-8.22-1.54,4,3.48,6.27,7.28,7.22,12.5l-1.3,1.37c-1.97-.68-1.44-2.74-2.23-4.47s-3.9-5.37-6.01-5.35c-1.14,0-2.17,1.26-2.82,1.08.08.06.03.71.34.97,1.32,1.14,5.98,5.97,4.76,7.72l-3.59.83-1.01-1.57c.8-.55,1.57.09.53-1.03-1.92-2.06-7.33-2.49-6.07-6.56.13-.44,1.06-1.51,1.43-1.67.18-.08,3.45,1.19,3.6,1.31Z"/>
    <path d="M346.3,132.27c1.24,1.26,1.94,5.38,1.04,6.93-.15.26-4.23,3.76-4.53,3.94-.89.53-1.92.46-2.65.84-.58.3-1.53,2.39-2.96,1.26l5.65-3.87-.31-1.05c-1.24-.23-3.01-1.12-1.99-2.54,3.71,1.33,4.64-1.71.77-1.54-.38-.66,2.05-.43.52-1.29-3.38-1.88-12.52,1.29-16.3,2.22-.47.12-1.27,1.11-1.69-.17-.26-.79,1.62-1.53,2.22-1.87,3.15-1.8,8.49-4.06,12.05-4.43,1.73-.18,7.07.42,8.2,1.57Z"/>
    <path d="M365.31,108.38c-.33.23-.98.09-1.4.11.75,1.9,1.02,1.66,0,3.59l-1.28-1.56h-1.02s-.76,1.04-.76,1.04l-.06-1.81,6.49-5.9c.68.54-1.73,4.38-1.94,4.52Z"/>
    <path d="M364.43,103.87l-6.16,5.13c-.32-2.02,2.14-2.7,3.41-3.78.99-.84.55-2.32,2.75-1.36Z"/>
    <path d="M366.48,158.34c-.21.17-1.17,0-1.54-.25-2.09-1.45,2.63-4.09,3.6-4.89l-2.06,5.14Z"/>
    <path d="M371.11,155.78l-1.03.77,1.03,1.27c-1.72.39-1.21,2.25-3.59,1.03-.3-2.03,1.85-3.15,3.59-3.07Z"/>
    <polygon points="266.77 248.8 260.92 249.28 260.1 246.76 266.54 247.23 266.77 248.8"/>
    <path d="M229.77,254.45c.22-1.75-.38-4.18.1-5.8.45-1.49,2.33-2.24,2.24.14-.08,2.07.25,6.31-2.34,5.66Z"/>
    <path d="M271.4,252.92l-.59,1.97c-2.26.23-3.75,1.17-6.09.59-1.15-2.7,6.32-3.04,6.69-2.56Z"/>
    <path d="M213.32,261.14c-.25-2.73,6.92-2.55,7.19-1.27.44,2.1-5.95,1.04-7.19,1.27Z"/>
    <path d="M208.18,78.67l-10.28,1.55c-.28-3.36,6.22-2.87,8.5-2.58.77.1,1.58.09,1.78,1.04Z"/>
    <path d="M254.96,71.48c4.49,3.78-1.44,3.94-4.32,4.2-.81.07-1.16.75-1.85-.35.68-3.2,5.82-.95,6.18-3.85Z"/>
    <path d="M232.33,76.63l-7.19,1.29-2.05-.28c-.24-1.47.32-.85,1.19-1.09,2.58-.72,5.47-.69,8.06.08Z"/>
    <path d="M265.23,224.64c.92-1.9,3.99-3,5.64-1.28-1.33,1.96-3.61,1.18-5.64,1.28Z"/>
    <path d="M151.64,164.51c.04,1.42,2.1,8.74-1.28,7.7-1.19-.36-1.68-8.14,1.28-7.7Z"/>
    <path d="M186.59,169.64l.86-1.56c2.27.54,5.02-1.59,6.84.28-1.97,2.1-5.13,1.06-7.7,1.28Z"/>
    <path d="M173.74,168.62v1.54s-4.63,0-4.63,0c0-2.35,3.02-1.39,4.63-1.54Z"/>
    <path d="M195.32,156.8c.27,1.89,1.22,3.31-.77,4.62-1.47.03-.51-5.93.77-4.62Z"/>
    <path d="M280.13,167.08c-.69,1.57,1.87,7.24-.77,7.18-1.57-.04.15-5.11-.48-6.21l1.25-.97Z"/>
    <path d="M304.8,175.3l-6.68,1.03c-1.5-1.24,6.13-3.52,6.68-1.03Z"/>
    <path d="M267.68,304.97c.13.07,1.99,2.14,1.66,2.42h-3.59s.52-2.57.52-2.57c.49,0,.94-.09,1.41.14Z"/>
  </g>
</svg>