<?xml version="1.0" encoding="UTF-8"?>
<svg id="Layer_1" xmlns="http://www.w3.org/2000/svg" version="1.1" viewBox="0 0 1495.27 386">
  <!-- Generator: Adobe Illustrator 29.3.1, SVG Export Plug-In . SVG Version: 2.1.0 Build 151)  -->
  <defs>
    <style>
      .st0 {
        fill: #fff;
      }
    </style>
  </defs>
  <path class="st0" d="M653.61,199.7l-27.04,19.51c-35.64-8.11-59.22-35.7-57.99-73.05,1.09-33.01,28.03-68.88,61.8-73.2,16.57-2.12,24.42,6.99,39.66,5.66,3.67-.32,7.25-4.15,10.5.74.47,1.63-1.02,3.59-1.74,5.02-2.25,4.45-21.89,32.26-24.89,33.15-2.24.66-5.42.06-6.14-2.54-1.21-4.41,5.45-6.68,1.9-12.84-4.46-7.75-18.21-10.87-26.42-10.31-7.21.49-13.73.93-17.82,7.17-15.09,23.04-13.54,63.14,6.15,83.24,2.34,2.39,17.08,12.66,19.77,13.22,7.53,1.57,18.88-6.52,19.35-14.28.22-3.58-.56-14.31-1.19-17.87-3.02-17.13-15.6-5.43-23.36-6.57-2.98-.44-4.18-4.43-3.02-7,.57-1.26,10.84-14.79,12.07-15.97,4.2-4.03,9.96-.34,14.95-.09,4.95.24,32.73-.9,34.06.95,3.35,4.64-7.54,8.82-8.49,15.66-2.48,17.96,1.03,38.74-1.07,55.93-.97,7.91-13.08,19.79-20.47,22.46-3.5-1.02.35-16.01.49-19.45.13-3.3,0-6.4-1.05-9.54Z"/>
  <path class="st0" d="M1344.52,83.79c2.21,3.19-7.24,9.04-9.42,11.88-4.77,6.21-5.79,12.9-6.46,20.54-1.54,17.39-1.54,44.95.89,61.99.66,4.65,4.12,12.7,2.15,16.05-1.83,3.12-12.48,11.18-16.01,12.04l-1.56-.5-52.47-84.1-1.09,36.48c1.49,11.83.73,22.04,11.14,29.95,1.64,1.25,5.69,2.3,6.45,3.55,1.26,2.07.6,8.21-1.52,9.5-3.37,2.05-24.29,0-29.66-.1-3.94-.07-14.76,3.12-15.35-2.92-.54-5.52,7.05-6.77,10.04-10.23,9.53-11.03,6.67-51.37,6.94-66.78.07-3.94,1.42-7.44,1.08-12-.43-5.7-3.65-12.36-8.68-15.31-3.79-2.22-14.55-2.63-8.93-9.23,3.65-4.28,14.05-.86,19.06-.83,3.66.02,15.23-2.27,17.28.16.64.75.96,4.15,1.73,5.76,10.34,21.57,29,51.34,42.67,71.33.48.7,2.34,3.16,2.82,2.66.39-3.61,1.74-6.88,2.06-10.53.8-9.24.6-24.62,0-34.01-.29-4.58-1.79-16.37-4.02-19.98-3.06-4.97-13.99-4.42-12.81-10.73,1.9-10.23,24.31-6.07,31.29-5.66,4.2.25,7.78-2.04,12.4,1Z"/>
  <path class="st0" d="M851.28,132.35c-2.38,2.19-12.72,6.55-12.53,8.66,8.37,11.25,14.48,29.42,23.45,39.61,7.37,8.37,15.82,5.78,1.95,18.1-3.21,2.85-12.66,10.4-16.51,6.46l-28.52-56.6c-2.17-.3-7.13,2.33-8,4.11-2.68,5.46-.99,26.93,1.72,32.28,2.68,5.3,18.32,10.18,6.77,15.22-4.43,1.93-29.38,1.26-35.55.56-9.11-1.04,2.68-11.2,3.9-15.21,3.3-10.85,1.8-35.15,1.7-47.31-.07-9.92,2.02-32.11-3.61-39.48-3.43-4.49-9.74-3.44-12.06-9.04-.59-1.14-.15-1.67.52-2.56,4-5.28,23.01-1.2,29.53-1.44,16.39-.6,27.61-7.33,44.27,1.77,17.46,9.54,16.55,32.33,2.95,44.86ZM810.63,138.69c5.59-.64,12.65-1.98,17.33-5.17,11.83-8.05,12.24-32.91-2.36-38.3-4.26-1.57-11.71-3.21-13.53,2.41-1.93,5.95-.12,23.96-.4,31.6-.11,3.16-1.58,6.21-1.04,9.46Z"/>
  <path class="st0" d="M905.97,101.03c-7.88,7.92-10.66,29.36-10.39,40.21.38,15.38,8.09,32.58,22.15,39.93,11.06,5.78,17.8-7.52,17.93-17.03.02-1.65-.88-10.5-1.23-11.76-1.98-6.99-15.83,2.09-20.38-1.62-2.27-3.12,7.53-14.51,10.28-17.08,7.37-.01,15.62,2.15,22.8,2.09,2.94-.02,12.14-3.17,13.39.55,1.42,4.23-2.67,5.61-3.66,9.09-1.78,6.22-1.23,28.89-.17,35.72.59,3.8,3.97,4.56,3.84,7.86-.23.88-8.29,8.57-9.69,9.69-17.02,13.65-9.5.66-15.22-11.99-1.05-.78-14.71,16.18-19.71,16.79-8.55,1.04-24.71-9.96-30.25-16.32-23.95-27.54-15.49-71.09,12.05-92.89,9.48-7.5,18.46-15,31.19-12.35,4.04.84,9.42,4.53,13.3,4.7,3.26.15,8.29-1.78,11.8-1.85,5.21,1.47-4.36,16.65-5.86,19.93-1.65,3.61-3.04,15.32-9.54,13.58-4.23-1.13-2.17-5.52-4.53-8.54-2-2.57-15.97-10.26-19.22-10.86-2.39-.44-7.11.36-8.89,2.14Z"/>
  <path class="st0" d="M1182.38,80.9c3.52-.57,12.97.96,16.52,2.02,40.13,12,40.45,74.99,14.22,100.77-3.57,3.51-22.08,19.64-25.46,20.53-18.17,4.79-40.74-17.54-46.51-33.55-6.32-17.54-3.05-50.72,7.65-66.31,3.36-4.9,28.11-22.57,33.58-23.46ZM1201.35,180.42c1.51-1.52,5.78-13.18,6.55-15.95,6.94-24.78.89-60.77-29.22-65.32-7.4-1.12-8.83.39-12.23,6.87-10.32,19.69-10.08,50.03,5.2,67.14,5.88,6.59,22.31,14.72,29.7,7.26Z"/>
  <path class="st0" d="M746.12,84.69c5.11,5.26-2.12,11.09-1.49,17.41.21,2.09,2.28,5.43,2.91,8.17,4.74,20.49,9.38,43.71,15.36,63.64,2.95,9.82,6.24,13.43,13.51,20.42-1.61,10.4-8.63,6.46-15.25,6.33-9.45-.18-18.95.35-28.39-.1-4.58-7.68,5.13-8.81,6.61-14.6,1.01-3.98.28-18.94-3.18-21.34-3.52-2.45-22.96-2.66-26.57-.41-3.28,6.09-7.78,16.78-2.88,22.86,3.37,4.18,10.44,2.06,9.82,10.04-.54,6.98-11.24,3.6-16.4,3.56-3.81-.03-19.83,1.38-21.39-1.13-1.39-5.17,4.14-8.41,6.66-12.52,12.69-20.73,16.74-56.91,25.94-80.09,1.36-13.01-12.2-9.81-14.12-14.48-1.52-3.69,1.78-7.74,4.86-7.74h44ZM723.61,111.69c-2.56-.4-1.55.23-2.09,1.41-2.24,4.94-4.93,15.22-6.23,20.77-.64,2.75-4.26,16.07-1.01,16.86,2.88-.23,17.36.11,18.26-2.67l-8.93-36.36Z"/>
  <path class="st0" d="M1015.64,151.69c1.42-.12,1.57-1.47,2.03-2.46,3.65-7.91,13.72-37.32,13.99-45.09.35-9.89-6.67-9.69-8.54-13.44-5.4-10.82,19.54-6.19,24.91-6.1,1.6.03,7.07-1.99,8.47.22,2.18,3.44-3.3,8.01-4.69,10.55-12.43,22.68-17.51,49.6-30.01,72.99-2.35,4.4-8.11,8.94-5.65,14.32,3.23,7.05,20.45,3.31,21.43,6.62,1.43,4.83-11.62,14.01-16.47,14.44-4.85.44-13.95-1.99-19.09-1.95-2.92.02-20.7,3.95-21.39.37,4.79-12.53,21.45-15.78,19.89-31.85-1.12-11.54-15.2-38.62-20.38-50.63-3.01-6.96-5.07-17.28-9.98-23.02-2.39-2.79-10.47-6.03-9.47-9.34,4.65-6.07,12.08-2.5,18.44-2.62,11.73-.22,25.89-6.47,17.9,11.98,3.4,18.89,12.9,36.62,18.61,55.01Z"/>
  <path class="st0" d="M856.03,318.68c-3.11,3.77-16.85,11.33-21.25,8.38-6.9-4.64-14.71-32.17-20.6-40.42-1.74-2.44-4.14-3.9-6.6-1.41-1.87,1.89-1.55,17.64-1.13,21.14.85,7.2,4.1,10.57,10.42,13.58l.02,4.08c-5.75,3.95-13.19,1.05-19.05,1.15-3.46.06-17.21,2-19.36.67-3.51-6.56,5.44-8.01,7.73-12.49,1.05-2.06,1.79-6.61,1.99-9,1.12-13.29,1.29-36.76.17-49.91-.22-2.59-.85-6.66-2.16-8.84-2.64-4.4-11.73-4.63-11.49-8.12.48-6.89,15.3-3.8,19.73-4.1,15.33-1.07,31.36-7,45.57,2.41,13.77,9.13,11.31,28.32-.79,37.6-3.26,2.5-7.05,3.15-9.67,6.08,8.14,11.66,13.53,28.69,27.33,34.48.97,1.38.07,3.58-.89,4.74ZM807.35,275.98c14.5-.71,26.92-10.66,20.73-26.23-2.48-6.24-13.54-12.41-19.33-7.85-2.42,1.9-1.33,13.73-1.41,17.58-.03,1.69-1.03,3.42-1.03,5.06,0,3.59,1.86,7.54,1.04,11.45Z"/>
  <path class="st0" d="M1139.29,285.02c-1.9-.07-6.22.76-6.81,2.6-.78,2.41-1.3,12.95-1.17,15.91.33,7.28,1.69,15.09,9.9,16.57.45,10.07-13.99,5.89-20.32,5.84-6.54-.05-12.21,1.53-18.5,0-1.7-6.76,4.46-5.74,7.41-10,1.51-2.18,2.59-6.26,3.1-8.9,1.72-8.95.52-22.28.4-31.52-.18-13.71,5.2-33.12-12.51-36.48-.84-1.22-.82-3.69.51-4.61,1.92-1.32,19.27-.1,23.53-.47,4.89-.43,10.15-2.55,15.03-2.97,39.29-3.33,48.33,32.5,14.51,48.55-.45,1.99,14.48,24.12,17,26.91,2.72,3,10.3,7.16,10.02,9.98-.38,3.77-16.29,14.14-21.07,11.06l-21.04-42.48ZM1132.35,246.48c-1.31,8.56.97,20.08,0,29,0,2.06,6.78.65,8.24.23,19.56-5.61,17.9-34.94-2.11-35.19-4.17-.05-5.51,1.91-6.13,5.95Z"/>
  <path class="st0" d="M1187.51,239.83c-1.46-2.35.52-6.51,3.56-6.63,18.94.25,38.15-3.86,56.26,3.29,30.02,11.86,30.33,53.67,9.57,74.53-18.35,18.44-35.45,14.99-59.06,14.88-2.21-.01-17.97,2.67-12.56-4.49,3.19-4.22,9.84-2,11.83-12.17,2.14-10.94,2.72-46.42.8-57.25-.39-2.21-1.26-5.75-2.54-7.55-1.91-2.69-7.61-4.21-7.87-4.62ZM1220.1,241.15c-1.08.2-2.5.92-3.17,1.8-1.69,4.98.4,9.91.46,14.48.12,8.63-1.55,52.43,1.93,56.07,4.25,4.45,16.88-.44,20.97-4.09,11.23-10.04,12.12-39.63,5.27-52.14-4.03-7.36-16.57-17.75-25.45-16.12Z"/>
  <path class="st0" d="M1059.77,201.54c-2.21-6.97,3.92-9.52,6.7-14.51,3.07-5.51,3.56-11.79,3.78-18.01.61-16.82.93-43.4-.64-59.82-.28-2.88-.96-8.61-1.91-11.09-1.91-4.96-8.31-4.87-7.13-10.76.27-1.11,5.15-2.54,6.53-2.69,7.61-.81,15.58-.1,23.02-.17,3.57-.04,16.54-3.59,14.1,4.23-1.49,4.77-10.37,6.01-11.63,16.45-1.79,14.89-.05,32.07.07,46.99.08,10.3-.27,20.61.1,30.9.85,2.61,11.41,1.95,13.91,1.19,3.49-1.06,7.15-7.91,8.83-11.17,1.95-3.8,6.1-18.38,8.82-19.22,3.29-1.01,5.65.63,6.78,3.71-.53,7.34-1.18,15.32-.52,22.67.47,5.19,4.92,16.44.61,19.53-2.86,2.05-38.2.69-45.11.88-4.03.11-24.92,3.11-26.31.89Z"/>
  <path class="st0" d="M1052.81,230.55c35.75-5.13,49.57,39.21,37.71,67.11-4.6,10.83-18.81,24.54-29.23,29.77-12.54,6.29-32.18-4.64-40.46-14.44-23.69-28.04-3.1-77.41,31.98-82.44ZM1042.06,245.19c-8.96,2.04-12.19,27.01-11.2,34.8,1.97,15.42,14.97,38.27,33.55,32.53,12.47-3.85,12.98-36.39,9.67-46.78-3.86-12.08-19.06-23.51-32.01-20.56Z"/>
  <path class="st0" d="M1299.65,249.27c-1.25,1.56-1.69,4.09-1.14,5.99,2.03,7.1,22.21,11.77,28.51,14.54,36.16,15.93,7.49,61.41-24.07,58.07-4.55-.48-12.39-3.99-16.12-3.94-2.7.03-12.62,5.49-11.29-3.21.44-2.89,12.89-27.13,14.46-27.64,5.38-1.76,6.47,7.05,8.5,10.24,5.35,8.37,19.36,14.36,26.27,4.59,12.24-17.3-22.51-21.09-32.36-28.5-20.19-15.2-.51-52.78,23.33-50.32,4.55.47,11.28,3.93,15.1,3.92,3.66-.01,6.54-3.47,10.44-.47,4.7,3.62-1.81,9.61-3.44,13.44-1.9,4.5-2.12,11.26-6.46,13.6-1.61.38-8.87-9.74-11.53-11.61-5.8-4.07-15.51-4.57-20.2,1.3Z"/>
  <path class="st0" d="M890.35,243.98v24.5c0,3.08.14,4.32,3.5,4.59,1.67.14,10.88-1.19,12.28-1.82,2.07-.95,10.23-13.89,11.28-1.82.31,3.58-.55,17.32-1.12,20.98-.53,3.46-3.11,6.48-6.53,3.66-2.32-1.91-.58-6.66-5.68-9.31-4.64-2.41-8.83-.52-13.72-.79v27.5c0,.42,1.14,3.17,1.71,3.52,7.48,2.54,17.59-.38,23.23-5.58,3.56-3.28,7.89-15.07,13.11-6.91-2.22,5.52-.18,22.61-6.78,24.33-2.03.53-5.1-1.04-7.77-.94-14.61.55-32.39,1.63-47.02,1.16-1.67-.05-4.57-.26-5.55-1.75-3.53-5.33,3.22-6.06,5.59-8.29s4-10.16,4.35-13.65c1.18-11.84,1.26-38.08.16-49.92-.93-10-6.39-8.68-11.96-15.1-.3-1.74,3.45-4.73,5.37-4.41,18.91,1.31,37.88,1.75,56.59-1.52,6.39,1.66.98,18.55,1.76,23.87-5.54,7.99-11.04-5.27-14.76-8.84-5.68-5.45-10.8-3.03-18.04-3.46Z"/>
  <path class="st0" d="M949.75,318.54c-18.02-15.12-16.9-50.75-4.24-68.89,3.34-4.78,20.13-17.04,25.77-18.22,8.98-1.88,11.95,2.18,18.7,2.5,3.76.18,15.87-4.7,14.19,3.32-.43,2.04-5.69,13.87-6.95,16.12-1.11,1.98-5.89,9.53-8.39,5.63-.77-1.19-.27-3.53-1.43-5.57-3.15-5.54-17.75-11.12-23-6.89-2.15,1.73-5.42,8.83-6.33,11.66-8.11,25.19,3.18,62.31,35.66,48.66,3.57-1.5,7.83-6.81,11.55-2.26.36,1.22.09,2.25-.43,3.37-.48,1.03-13.27,13.63-15.02,14.99-12.02,9.34-29.2,4.71-40.07-4.41Z"/>
  <g>
    <path d="M286.2,109.19l-.63-1.2c2.1-4.65,6.26-7.93,11.04-9.57,2.33-.8,13.69-2.73,14.49-4.03,1.87-3.03-7.85-9.24-4.61-11.98,3.61-3.05,19.76,5.88,21.76,4.42-1.7-5.01-2.89-10.3-5.19-15.1-2.96-6.17-10.18-16.5-14.56-21.91-6.76-8.34-15.37-12.63-22.59-20.34.75-.9,1.32-1.55,2.58-1.48.68.04,7.37,2.59,8.74,3.09,26.38,9.67,36.65,25.84,56.25,43.15.64.56.88,1.44,1.54,2,3.38-.98.18-9.81,4.07-9.42,3.31.33,11.69,11.23,15.92,12.35,1.26-.79.49-1.01.47-1.62-.31-8.76-10.12-30.87-15.34-38.21-1.59-2.24-11.13-10.15-9.53-12.48,3.86-1.53,8.78.21,12.29,2.06,9.2,4.85,23.33,25.84,28.18,35.34,3.45,6.75,4.27,9.37,8.81,15.89.86,1.24,3.64,8.13,5.38,6.67,1.12-.94,1.78-12.58,3.84-14.11,1.53-.36,4.13,6.89,4.57,8.36,1.08,3.65,2.08,14.15,5.13,16.04,2.07,1.28,4.21-1.35,6.44-.86.17,7.59,1.57,14.75-1.1,22.11-.06.89.14,1.7.71,2.4.72.87,6.8,5.75,7.98,6.42,2.27,1.3,4.11,2.72,6.76,1.32,4.26-2.26,7.2-10.48,11.07-1.51,3.31,7.69.82,11.5,1.39,18.14.2,2.32,1.67,4.88,1.96,7.33.87,7.33-3.12,18.31-7.32,24.31-8.86,12.64-8.54,1.54-12.93-5.23-1.17-1.8-3.71-3.86-5.9-4.13-1.74-.08-1.1,3.49-1.98,5.02-.67,1.17-6.2,5.79-7.36,5.55-3.68-5.17.52-12.83-6.5-15.87-.6.04-3.22,6.76-3.23,7.92,0,.99,1.72,9.73,2.09,10.27,2.08,3.09,5.14-1.11,6.17-.29,2.08,1.91,1.22,8.44,2.91,9.44,2.5,1.48,8.65-2.39,9.43-5,4.37,1.32,1.32,9.1,1.16,12.66-.22,4.85,4.34,8.1,6.49,12.32,5.75,11.29,3.25,22.9,7.61,33.56,1.83,4.46,5.13,7.67,10.02,8.52-1.12,5.19-10.25.48-12.64-1.77-8.71-8.21-6.74-22.83-10.86-33.25-1.12-2.83-3.06-5.1-4.15-7.91-4.82.28-.47,10.02-2.35,11.76-2.78.45-1.7-7.09-3.23-7.04-1.93,2.22-9.03,11.23-11.77,10.99-.67-.06-2.34-2.62-3.76-2.15.2,4.16-13.21,10.51-14.68,8.12-.57-3.9,2.42-6.85,2.87-10.8.46-4.05.31-9.54-2.96-12.37-2.6-1.9-9.21,5.84-10.89,3.27-.46-1.39-.36-2.98-.26-4.43.3-4.17,2.23-8.37,1.77-12.91-.46-4.56-3.38-9.75-6-13.46-2.13-3.01-12.43-15.9-16.68-11.58-3.23,3.28-1.07,20.21-2.44,25.79-1.19,4.84-7.53,9.73-8.39,14.55-.68,3.83.54,8.13.58,11.7.02,2.49-.88,10.55-.26,12.17.77,2.01,2.45,1.62,4.36,1.67v-9.7c0-.16.92-1.61,1.18-1.77,1.48-.91,13.69,2.7,14.75,4.07,1.45,1.86-1.54,12.1.52,14.19.98,1,4.58,1.54,5.22-.1,1.2-3.64-2.54-9.08,1.07-11.91,1.51-.47,11.59,3.67,13.34,4.73,5.77,3.51-2.45,15.41,6.5,15.69,2.79-.66-1.03-10.44,2.51-12.18,1.51-.49,11.75,2.8,12.81,4.06,2.22,2.65.28,12.48.28,16.15,0,3.9,1.27,8.27.59,12.32-.48,2.9-4.58,6.27-5.45,9.25-1.46,4.98,1,18.69,2.12,24.15,1.36,6.67,5.14,15.14,6.05,21.01.14.93-.54,2.71-.32,2.94.09.1,1.32-.06,2.03.6.58.53,1.16,2.53,1.82,3.49,8.91,13.14,16.04,18.63,31.27,24.01,5.15,1.82,10.95,2.49,15.66,4.34,2.42.95,6.49,2.56,4.39,5.73l-399.44.55-1.51-1.47c-.7-2.85,7.23-7.81,9.35-9.87,13.87-13.46,21.52-36.47,26.29-54.88,7.36-28.44,3.91-54.38,4.25-83.38.05-4.22,1.76-19.25.08-21.78-.57-.86-1.91-1.1-2.42-1.84-.63-.92-4.86-8.6-5.11-9.44-1.01-3.41-.12-5.16-.13-8.05-.02-6.74-1.09-19.87.11-25.77,1.44-7.1,13.31-4.85,18.72-5.99,5.38,3.77,3.95,8.56,4.17,14.3l4.04.67v-10.88c0-.2.78-3.64.88-3.83,1.2-2.48,11.8-1.72,14.68-2.95,3.76-.37,6.2,3.4,6.2,6.78v8.53h5.28c.69-.66-1.3-11.8.56-14.45,1.37-1.96,8.24-2.04,10.63-2.01l.54-45.54c-1.54-6.23-5.41-11.54-9.82-16.06-1.36-12.07-.61-24.38-.33-36.49.96-3.21,2.97-5.05,6.38-5.44s10.98-.97,14.06-.54c1.65.23,5.05,2.07,5.05,3.77v12.65h5.29v-13.82c0-.44,1-2.83,1.43-3.28,2.27-2.32,15.99-2.52,19.61-1.92l.76.6c1.29,3.48,2.69,6.33,3.14,10.1.14,1.15-.44,4.72.02,5.38.75,1.09,6.31-.65,7.97,0v-16.76c0-3.17,8.06-2.44,10.26-2.68,3.69-.39,7.99-1.78,11.66-1.01,1.13.23,6.92,3.4,7.52,4.24,1.72,2.39-.4,13.36.67,16.98.51,1.74,2.51,1.71,4,1.59v-15.59c0-.37.88-.82,1.41-.86,1.47-.11,10.84,4.6,11.81,5.87,2.31,3.04.7,7.69.87,11.48.19,4.14.05,8.04,5.25,6.67,2.1-3.14-1.94-12.38,1.8-13.72,2.31-.83,4.52,1.79,6.27,2.55,1.9.83,7.56,2.17,8.34,4.01,1.19,2.81.11,7.37.1,10.43-.03,8.03.41,16.07-.68,24.02-4.15,4.31-9.61,8.45-10.4,14.89-1.43,11.59,1.44,24.93.53,36.69,3.13-3.24,5.47-7.28,8.51-10.59,4.81-5.24,10.97-9.63,16.77-13.53l-.36-1.2c-.7-.55-7.92-2.9-8.76-2.9h-9.41ZM161.22,42.14v31.17c7.97-.68,15.88-2.06,23.82-2.94,9.96-1.1,20.03-1.47,29.99-2.36,8.54-.76,17.01-2.05,25.59-2.35-.26-1.38-.57-2.97-.6-4.38-.14-5.96.13-11.78-.01-17.65-.04-1.81.63-9.92-.83-10.17l-12.53,1.75c-2.16,5.6.8,11.64-.7,17.2-1.42,1.21-11.94,2.53-14.44,2.65-2.7.13-5.43-.09-8-.92-1.01-2.75,1.32-14.96-.51-16.46l-10.6.93c.5,2.9,1.38,15.75.06,17.41-2.3,1.3-17.36,3.95-18.29,1.57l.34-16.06c-.47-.63-1.03-.57-1.72-.53-3.68.19-7.84.84-11.55,1.15ZM312.81,44.09c-.54-.28-1.05-.19-1.61-.18.34,2.96,1.6,4.74,4.7,3.53-1.99,2.1-.89,3.02.59,5l2.35-2.06c0,2.32-2.25,4.46.59,5.88-.54-1.24,1.82-4.94,2.36-2.64.34,1.45-1.69,3.98-.58,4.99s2.3-3.09,3.52-2.94l-1.76,4.99c1.18,1.87,2.63-1.4,4.11-1.46l-2.06,4.71c1.3,2.09,3.37-2.86,5-2.35.71,1.39-4.45,5.4-2.94,6.18,2.17,1.12,5.44-4.86,6.47-3.82-.24,2.3-3.44,4.22-4.03,5.67-1.54,3.79,4.98-2.09,5.79-1.56.82.79-5.06,5.15-4.11,7.05l6.35-4.65,2.46.24c-2.3.66-6.15,4.88-7.05,7.06-1.24,3.02,4.01-2.09,4.27-2.23.99-.56,2.2-1.08,3.37-1l-5.28,6.77c.07,2.38,2.16-.63,2.97-1.15,1.29-.82,2.74-1.37,4.07-2.09.87.92-8.11,7.72-4.41,7.63.23,0,2.94-2.37,3.65-2.83.62-.4,3.08-2.4,3.7-1.86l-5.88,8.23c.44.45,5.67-4.24,6.65-4.82,1.84-1.08,4.14-2.32,6.29-2.24-12.87-12.4-23.32-27.91-38.98-37.07-.39-.23-.48-.92-.58-.97ZM378.25,52.14c-1.3-2.68-4.5-2.89-7.05-3.52l1.73,3.84,5.33-.32ZM378.83,53.91c-.96.1-5.12-1.69-4.71.29,3.23,7.43,5.73,15.25,6.48,23.22,1.59-.11,2.1-1.45,3.85-1.73,1.92-.3,4.17.14,6.14-.04.23-1.34-.12-1.15-1.15-1.46-2.48-.74-5.65-.91-8.25-.9,1.84-2.54,5.75-.33,8.23-1.46l-1.47-1.5-6.76-.56c-.29-1.77.44-.94,1.43-1.19.61-.15,5.85-.43,4.45-1.74l-7.65-1.19c.83-2.66,5.91.74,5.88-2.34l-6.47-1.19,4.12-2.05-5.29-1.49c-.63-2.27,3.08.15,4.11-1.17-.92-2.28-3.24-1.79-5.29-1.76l2.35-1.75ZM258.85,71.55c1.43-1.31-6.64-4.37-7.64-4.11-.6.51,1.69,2.45,1.9,2.53,1.76.69,3.98.7,5.74,1.58ZM275.9,78.03l-12.93-5.89c-.36,1.39.9,1.45,1.84,1.95,3.43,1.83,7.59,2.62,10.81,5.1l.28-1.16ZM238.26,78.6l.03-5.02c-4.6-1.19-7.23.02-7.09,5.02h7.05ZM222.29,74.01l-6.99.18-.3,5.03c.72,1.01,6.43.77,7.58.03,1.51-.97.53-4.73-.29-5.24ZM205.8,80.84c.23-.31.79-3.68.72-4.25-.43-3.51-6.18-1.58-7.98-.33-.53,2.73.06,6.15,3.48,5.87.57-.05,3.57-1.02,3.78-1.29ZM189.95,77.52c-2.62-1.65-3.92.32-6.29,1.18-.94,5.9,2.36,3.89,6.37,4.03l-.09-5.21ZM380.6,87.44c-6.19-2.03-11.13-6.47-16.46-10.01l-1.18,4.11c1.02-.42,2.16-3.39,3.51-1.47l-3.52,4.99c.35.33,3.62-2.15,3.94-2.48.09-.09-.51-1.9,1.05-1.63s.27,1.34.06,1.81c-.75,1.65-2.82,4.61-.36,6.16,1.85,1.17,3.26-2.4,5.31-2.09.83.81-3.93,3.79-1.45,4.12.93.12,3.48-1.92,4.82-2.22,1.54-.34,4.75.71,4.28-1.3ZM174.06,83.23c1.69-6.2-7.27-6.49-6.29-1.52.71,3.6,3.8,3.04,6.29,1.52ZM412.87,100.87l-2.01-.47c-3.23-3.83-7.13-6.98-10.56-10.61-4.17-4.4-6.72-10.98-14.31-10.52l-3.62,6.99,5.88-4.11-3.53,5.28,3.53-1.17-1.17,2.34,4.11-1.17-1.17,3.52,3.53.6c-1.98,3.5,1.67,3.59,3.83,5.87.98,1.03,6.06,7.66,6.17,8.54.42,3.26-3.3-1.54-3.56-1.75-2.94-2.32-5.33-2.02-8.8-1.48,1.99,3.05,4.34,5.46,8.23,4.11.71,1.67-1.07,1.73-1.16,2.16-.44,2.12.06,5.66-.91,7.83-.59,1.31-3.66,3.73-4.4,5.3l8.19,1.25.33,1.7,9.11-4.7-4.11,3.83c-.16.87,0,1.05.88.88.33-.06,3.54-1.93,4.53-2.41.45-.22.46-1.01.88-1.11,1.13-.26,2.52.11,3.7-.03-1.52-2.27-8.24-6.07-10.57-5-.58.27-6.9,7.57-8.25,4.12,2.43-.85,3.35-3.42,4.98-5.01,1.79-1.73,1.69-1.2,3.42-3.39.3-.38,1.28-.45,1.86-1.32,1.52-2.28.96-6.28.32-8.8,1.6,1.45,3.17,3.04,4.06,5.06.63,1.43,1.62,6.34,2.55,7.16.12.11,2.94,1.15,3.1,1.14,1.84-.11,3.5-5.74,3.22-7.48-3.77,1.5-1.22-1.73-2.04-3.51-.19-.42-4.39-5.23-4.74-5.31l-1.53,1.67ZM237.09,203.88l-.26-119.43c-.49-.71-1.11-.45-1.74-.52-5.03-.55-16.67.78-22.39,1.15-9.77.62-19.34,1.62-28.99,3.35-1.54.28-10.31.98-10.69,1.37-.04,6.54-1.57,13.25-.56,19.68l-.37,28.54c4.34.68,8.62.78,12.57,3.02.78,3.34-1.06,14.44.95,16.41.76.74,2.19.94,2.98,1.73,2-2.19-.06-14.58.96-15.21,2.86-1.02,13.8,3.21,14.5,5.63l.13,57.22c1.18-.26,1-1.09,1.1-1.98.29-2.41-.48-6.18-.43-8.86.12-5.88.12-15.06,1.11-20.6.24-1.37,1.67-2.86,2.63-3.84,2.24-.18.64,3.88.88,4.11l4.71.3c-.36,3.01-4.36,1.04-4.71,3.52v26.77s2.32-.03,2.32-.03c1.87-5.5-1.73-20.12,1.16-24.27,1.1-1.58,2.21-.96,2.43,1.04.64,5.89.11,14.99-.09,21.15-.02.56-.66,1.41-.53,1.52h3.53c-.21-1.65-1.19-9.5.89-9.99,3.53,1.4.81,6.52,2.94,8.82.07-8.79,3.46-7.02,2.65.59,4.09-2.23,7.89-.96,12.35-1.18ZM353.54,152.72c-.42.47-2.79,1.97-2.09,2.95,4.22,2.5,9.14,2.88,13.55,4.11,1.79-.84-1.21-3.88,1.47-3.53l1.19,5.29,2.34-1.18-1.17-1.16h1.76s-.58,4.11-.58,4.11l2.33-1.76,1.18,2.04-1.75-.28c-.45,1.71,2.31,4.35,4.11,2.94.6.65-1.74,4.24.59,4.7-.48-1.76,1.33-3,2.35-1.44l-.59,3.21-1.16.28,3.53,6.77c2.94-1.57-2.19-2.92.29-4.69,2.48,1.34,1.39,5.66,4.33,5.33l.07,4.66-1.76-.3,3.23,5,.3-1.76,1.75,1.48-1.76.89c2.04,5.76-.21,8.97-2.34,14.1,3.09-.97,3.35-3.37,4.41-5.88l.88,3.53,1.77-2.94c.69-.17,1.5.31,1.75.89.53,1.23-1.9.79-1.17,1.45.06.06.9.12,1.41.64,6.44,6.66,6.92,12,3.87,20.83,6.57,1.22,8.16-8.36,7.07-13.22,3.87.21,4.98,5.14,5.58,8.23,2.5-1.23,3.31-4.87,4.59-6.29.6-.67,1.93-.88,2.78-1.8.58-.62,2.85-4.24,2.34-4.84-7.81-1.55-12.9-.89-19.53-5.92-8.89-6.74-10.74-15.14-15.66-24.48-2.43-4.61-5.35-8.99-7.94-13.27-2.1-3.46-6.65-14.44-11.27-13.99l-.34,1.71-3.5.06c5.78-4.61.84-3.1-2.51-4.25-2.61-.9-3.98-3.94-7.17.16-1.81,2.33-.69,6-4.43,5.27.16-3.61,3.32-5.87,5.87-7.94l-1.17-1.21c-.79-.48-3.14,1.19-3.56,1.77-.81,1.13-.25,3.46-2.31,3.27-2.5-5.24,3.34-3.31,2.93-7.64-3.02-.19-3.67,3.5-6.17,4.69-2.09-1.56.16-1.91.61-2.96s-.77-3.31,1.46-3.19l-.3,1.46h2.06c.27-1.72-.96-2.36-1.01-2.51-.27-.76.66-1.56-.47-2.2l-.65,1.79-3.74-.32c.35-2.18,3.23-2.46,3.81-3.21.49-.62-1-3.78,3.23-3.56.89,4.64,5.59,8.31,10.1,9.61,9.94,2.85,19.05,1.24,30.04,5.25,6.02,2.2,12.78,5.51,17.49,8.96,1.51,1.11,4.61,1.86,6.27,3.18,1.43-.91.7-1.18,3.14-.52l-1.76,1.16,21.7,6.8,1.23,1.15-1.17.58c2.63,2.58,4.84,5.67,6.17,9.12,2.73-.93,2.02-4.02,2.69-6.03.19-.58,1.06-.49,1.31-1.17,3.22-8.56-.14-13.66-.2-21.3-.04-5.81.8-12.14,1.19-17.96-2.76,2.99-4.1,6.67-8.82,7.06l.59,2.34-2.42-.86.07-2.08c-3.72.95-5.93-3.05-8.83-2.36l.6-1.17c-2.84.55-6.43-.35-9.12.13-1.24.22-3.59,1.48-6.45,1.67-3.3.22-4.93-.93-8.4.99-2.53,1.4-.82,6.47-4.85,5.43,1.55-3.29,3.02-6.44,5.88-8.81-3.2-.74-3.73,3.1-6.47,3.52-.41-1.74,1.39-1.12,2.06-2.37.14-.27.64-2.71-.56-2.31-3.02,1-5.49,3.84-7.09,6.44-1.6-2.06,5.37-6.72,4.41-7.64l-7.05,4.11c-1.24-1.16,6.48-4.48,6.47-5.87-5.68.23-7.92,3.7-11.17,7.64l.55-2.68,5.91-6.14c-5.88,2.81-9.54,5.88-16.54,4.95-.49-.06-4.95-1.01-5.19-1.12-.33-.14-4.91-4.69-5.04-5.02-.35-.86.56-4.77-.89-6.43-3.02-.43-2.93,2.86-5.85,2.32,1.16-2.81,4.05-2.48,5.88-4.41-2.37-2.07-3.96.46-6.47.3,1.08,2.76-1.96,5.15-.58,8.23l-5.29-3.23c.58-1.17,2.78-.23,2.9-.33.17-.14.2-1.37.62-1.91,1.2-1.56,1.23-2.35,2.02-3.35,1.06-1.34,2.1-1.98,3.87-1.77-.25-1.23-2.73-1.11-3.37-1.91-.48-.59-.55-2.53-1.33-3.37,3.36.31,6.19,2.02,9.7,2.02,5.98,0,7.95-3.7,13.54.9,2.36,1.94,6.21,7.74,8.81,7.68,5.64-.13,4.06-6.27,2.69-9.77-.77-1.98-2.86-3.06-3.27-3.8-.38-.67.41-1.6-.26-2.04s-9.68-4.39-10.33-4.44c-1.33-.11-4.44.29-5.73.66-.55.16-.29,1.18-1.3,1.2-1.13.03-2.15-.62-3.06-.64-.99-.03-2.84,1.57-3.73.57-.8-.91.52-1.29,1.15-1.47,2.34-.65,4.71.13,6.67-.31.44-.1.46-.95.87-1.11.95-.38,2.91-.19,3.07-1.21-3.28-.15-4.12-2.44-5.9-3.81-.55-.42-6.87-4.13-7.78-4.59-2.02-1.03-6.07-1.82-8.32-1.55-3.5.41-12.09,6.44-9.47,10.54l2.34-2.97,5.02-4.08c.45.44-4.43,5.82-4.85,6.61-.26.5-1.04,2.32.14,2.2l.86-1.79,7.38-4.67c.52.47-1.52,2.31-1.81,2.58-.65.6-1.52.63-2.13,1.12-1.22.98-2.19,3.66-4.88,3.36,1.15,1.52,3.34,1.95,4.97,2.98.85.54,2.41,1.08,2.08,2.31-4.46-.57-8.05-2.18-12.05-4.13-.68-.33-1.33-.79-1.48.32-.12.87,3.78,6.1,4.43,7.91.28.79.89,2-.6,1.78-7.72-7.75-15.33-18.34-26.77-19.99,4.98,3.88,9.53,6.36,13.83,11.16,3,3.36,6.88,10.43,10.33,12.58.93.58,5.26,1.77,5.23,2.43-1.95,1-5.19,4.84-7.02,5.34-1.7.46-6.35-1.13-9.08-.87-4.69.44-8.29,3.01-12.71,4.06-.04-2.09,1.56-1.96,2.93-1.17-.14-3.19,6.17-3.85,8.83-4.72l-8.99-4.84-2.36-.46-.41-1.75c4.12,1.94,9.59,4.18,14.11,3.83-1.11-1.22-2.8-1.49-4.11-2.37-7.23-4.9-10-5.35-18.39-7.48-.71-.18-3.09-.89-3.37-1.62,4.77-.57,10.7.08,15.42,1.33,3.3.87,6.69,3.3,9.86,3.08-1.95-2.42-4.64-5.06-7.1-7.01-2.03-1.61-5.33-1.8-5.25-5.05-4.28,6.53-12.03,5.28-18.82,6.47-.28,1.65.29.89.89,1.16,3.36,1.54,10.47,6.08,12.54,9.22,2.18,3.31,2.95,7.49,1.4,11.2-1.4,3.35-4.2,5.35-6.02,8.1-.39.59-2.18,3.43-1.75,3.83,2.19.11,3.98-1.64,5.59-2.93,1.65,3.36,7.51,1.4,10.61,3.49,4.18,2.83.51,10.17.86,10.61,3.08-2.6,11.36-9.56,15.48-8.15,2.04.7,2.73,5.48,3.46,7.14,1.03,2.33,5.57,7.71,7.83,8.65.27.11.96.15.87-.28-3.36-2.19,3.6-9.21,5.3-7.94-1.02,1.72-2.71,3.83-2.94,5.88,1.42-1.59,2.81-3.78,5.29-3.53.39.34-3.15,4.81-3.51,5.02-.58.34-1.14.32-1.78.27.03-.58-.07-1.19,0-1.76ZM387.29,93.78c-.17-.31.28-.91-.19-1.33-2.78-2.53-11.23-4.49-12.37.57.98,1.36,2.63.83,4.1.89l-.59,1.76,1.48.6c.75-1.65,1.32-2.04,3.23-1.77l-2.35,1.77c-.43,2.3,4.05,2.31,4.7.87l-1.76-1.46,4.7-.6c.66-1.37-.82-1.05-.95-1.29ZM395.89,100.37c-2.62-4.18-6.1-4.56-9.99-1.75l.36,1.16c3.33,1.1,6.22.81,9.64.58ZM262.38,127.43v-22.06c0-.27-1.63-2.17-1.18-3.24-3.32.24-2.54,6.39-2.57,9.08-.06,4.84.44,9.8.3,14.66l3.45,1.55ZM373.54,113.9c-3.4-.15-5.64,1.2-5.18,4.84.34,2.66,3.55,5.53,6.16,6.11,1.19.26,3.89.32,5.09.1,1.53-.27,1.35-1.16,1.73-1.42.32-.21,2.88-.14,1.93-2.55-.12-.29-3.48-4.7-3.83-5.04-.87-.83-2.12-1.81-2.36,0-.28,2.08.02,4.56-.63,6.74h-2.27s-.63-8.79-.63-8.79ZM425.89,129.19c-5.28-5.56-8.98-8.39-16.47-4.1l2.35,1.75c-1.28-.54-4.09.13-4.94,0-.43-.07-.28-2.5-2.1-.29,0,.44,7.39,3.69,7.95,3.8,4.03.77,8.92-2.27,13.21-1.16ZM297.67,126.25l-1.37,1.25-4.51,9.33,5.43-7.21.44-3.38ZM298.42,133.24l-4.67,10.48.94.42,4.67-10.48-.94-.42ZM142.4,161.25v-14.41l-8.14.68-1.36,15.4c-.37,1.09-3.7,1.44-4.92,1.55-1.98.18-9.94.44-10.93-.82-1.88-2.34,1.18-13.26-.62-14.38l-9.93.79-.57,29.13c7.97-1.05,15.97-2.43,23.96-3.29,9.17-.99,18.8-1.57,28.09-2.6,4.45-.49,9.08-1.99,13.55-.72,1.71-.14.2-9.62.22-11.35s.64-3.13.66-4.67c.04-3.83-.44-7.86-.02-11.49l-11.73.61-.77,15.71c-.77.64-14.99,1.63-16.32,1.01-.27-.13-1.13-.97-1.18-1.17ZM387.65,148.61c-3.18.24.11,1.44.44,1.86.2.26.51,5.56,1.62,6.36l1.47-6.46c-1.28-.52-3.74-.02-3.54-1.76ZM265.91,168.3c-.15-3.81.11-7.66,0-11.47l-11.18.59v25.88c5.56-.18,11.19.25,16.76,0,9.44-.43,18.83-2.32,28.24-2.93,2.24-.15,11.02.45,12.08-.27,1.26-.85.01-2.91-.03-4.16-.27-8.18,1.29-16.28-.06-24.34-1.03-.86-11.07-.21-12.44.53-2.38,1.28.02,12.61-1.31,15.3-1.12,2.25-12.39,2.55-12.68,1.37-.57-2.51,2.23-13.73.58-14.89l-8.42.66-.82.77.17,15.05c-.86,1.3-8.54,1.56-9.94,1.08-1.64-.57-.93-2.31-.96-3.16ZM328.84,168.59c-1.43-2.31.98-14.71-2.05-15.14-.33-.05-1.3.46-1.53.83-.89,1.42.11,13.85.72,14.23l2.86.08ZM398.83,153.9h-2.94s.59,6.46.59,6.46c1.77.28.95-.43,1.19-1.43.41-1.67.41-3.45,1.16-5.04ZM389.41,158.61l-1.16.86c1.62,2.99,4.92,7.48,5.99,10.5.32.9.67.71-.42,1.57l-7.92-9.72c-.7-.61-1.48-.45-1.19.59.37,1.29,4.09,5.42,5.17,7.19,1.58,2.57,2.88,5.65,4.3,8.34l5.82-1.7c-1.98-3.75-3.7-8.46-5.99-11.95-1.31-1.99-3.53-3.62-4.61-5.68ZM405.29,166.24l2.89-6.06c-.88-1.94-2.83-1.66-4.65-1.59-.03,1.43-.09,2.85.14,4.28.08.48.96,3.2,1.62,3.37ZM341.78,172.71v-10.29c0-.32-1.88-2.92-2.94-2.06-.17,4.04-1.37,7.8.28,11.78l2.66.58ZM400.6,169.77c1.32-2.02-1.29-8.54-2.84-3.93,2.25,6.01,5.7,12.21,3.69,18.65,3.88,8.02,10.58,15.03,20.06,14.65,4.46-.18,4.71-1.38,4.97-5.84-1.41-.06-1.96,1.32-3.35,1.64-2.46.56-7.95-.54-9.62-2.51-.41-.48-.13-1.28-.54-1.78-1.31-1.59-3.26-3.32-4.36-5.06-3.54-5.57-3.37-11.6-5.66-17.58l-2.34,1.76ZM421.19,172.13c1.07.81,3.2-3.19,2.88-4.32-.35-1.24-2.9-1.73-4.06-1.56l1.18,5.88ZM184.74,177.42c.65-3.13-2.77-4.13-5.29-4.11.63,2.5,3.5,2.72,5.29,4.11ZM187.1,176.25c-.64,1.87,3.04,4.37,4.28,4.05l1.58-1.4c-1.41-1.7-3.68-2.54-5.87-2.64ZM157.1,185.05c1.55.62,8.15.76,8.75-.95,1.86-5.35-6.93-5.42-8.03-2.73-.38.95-.32,2.59-.72,3.68ZM317.67,181.53c1-.15,10.05,3.96,9.98,1.48-.05-1.95-12.32-4.61-9.98-1.48ZM141.87,187.35c4.04.58,7.59-1.89,5.88-6.13-5.37-1-7.93.56-5.88,6.13ZM398.83,180.95h-4.7c-.01,2.27-.47,4.81,1.46,6.46.94,0,3.5-6.15,3.23-6.46ZM124.75,189.19c8.37,1.56,10.6-8.58,1.14-6.8l-1.14,6.8ZM112.8,183.46c-.67.02-2.52.66-2.7,1.36.54,2.34,1.12,4.6,3.92,4.84,5.5.46,2.17-6.28-1.22-6.2ZM344.72,189.19l-12.35-4.71c-2,1.86,10.38,5.72,11.51,5.84s.85-.11.84-1.13ZM175.92,185.07c-1.27,2.34,3.11,4.45,3.52,2.64.43-1.91-2.06-2.78-3.52-2.64ZM295.32,192.13c.62-4.88-.75-7.28-5.8-5.21l.47,4.95,5.33.26ZM309.43,186.24l-5.33.26-.55,5.04,5.33-.26.55-5.04ZM274.73,193.3l6.22-.55c.97-4.91-1.62-6.62-6.14-4.66l-.09,5.21ZM265.14,189.94c-2.44-3.04-7.13-.1-4.25,3.37,1.35,1.23,3.47.43,4.96-.07.2-1.09-.01-2.43-.71-3.3ZM200.03,208.59c.13-2.14,1.56-19.46-.29-19.41-.39,5.13-.61,10.44-.55,15.59,0,.77-.05,3.65.84,3.82ZM112.99,306.23c-1.04,5.41-3.8,12.38-5.25,17.98-1.28,4.94-2.34,10-3.57,14.95l11.53-1.11,7.28.52c.24-3.45.2-7.49.6-10.88.12-1,.68-6.2,1.47-6.17l1.47,2.06-.9,13.86c.62,1.16,12.94-1.86,14.41,1.42-.02,1.24-9.49,2.33-10.58,1.46l-.58-1.17-.32,1.8-24.95,1.46c-1.39.85-2.4,4.83-1.82,6.46.94.54,7.06.35,8.48.07,1.27-.25,4.45-2.28,5.88-2.18.76.05,3.04,3.58.23,4.89-3.38,1.57-5.48.25-8.39.39-2.34.11-4.58.68-6.94.62l-1.58,3.54,21.97-1.26c2.29-.76-.01-4.65.42-6.01.72-2.27,8.44-.45,6.72,2.57l-3.18.05-.03,4.04,6.36-.05c1.11-1.61.02-7.06,2.74-6.86,1.07.08,1.56,3.81,1.99,4.96.33.85-.56,1.71,1.22,1.39.47-2,.07-11.3,2.07-11.76l1.44,1.49,1.78,10.27.6-8.82h2.35v9.41h8.82v-2.36s1.18.29,1.18.29c-1.92-4,.05-4.91.59-8.53h2.93s.02,1.78.02,1.78c1.06-.8,1.97,0,2.64,0h10.29c-3.37-18.3-4.87-36.94-4.73-55.6.12-16.74.61-33.78.64-50.53.03-16.57-.09-33.18-.03-49.72-6.09.84-12.38.14-18.52.59-5.52.41-10.99,1.74-16.48,2.34-2.64.29-16.92.4-17.86,1.85-.31,2.59.14,5.26-.08,7.85-2.29,26.85-.65,53.71-1.17,80.58-.14,7.28.24,14.69-1.18,22.06,2.43-1.69,4.27-.47,6.15-.65,1.45-.14,8.42-1.85,8.53-.23.16,2.35-9.64,3.36-11.52,3.19-.78-.07-4.2-1.19-3.17-2.3ZM309.43,197.42c-15.19-1.9-30.16,1.57-45.23,2.4-1.18,10.62-.42,21.34-.62,32.03-.57,30.91,1.59,63.43-4.88,93.93-1.36,6.39-3.1,13.12-5.14,19.26,3.93,2.05,10.14-.82,13.26-.34,1.51.23,2.46,3.43-.03,3.87-4,.71-9.67.2-13.82.6.54,1.56-1.87,5.57.27,5.88,5.18.75,10.8.07,15.88.61l21.71-.1c3.08-1.07-.95-10.35,3.01-11.69,1.57,3.18,2.35,7.54,2.66,11.18,6.61-1.09,13.42.98,19.99-.01l-3.53-20.58c-10.19,2.23-20.73.48-31.04,1.57l-.71.65-.57,7.98-1.78.99-1.21-10c-1.78.15-17.07.38-17.02-1.47.68-.78,1.62-1.37,2.67-1.44,4.43-.3,9.76.66,14.08.61,2.67-.03,5.25-1.86,7.63-.04,1.72-.28.36-6.77,1.15-8.28.29-.41,6.01-1.64,7.07-1.75.62-.06,3.28-.4,3.26.61-3.14-.07-4.83,1.9-7.6,1.81l-.03,7.61c2.86-.76,5.39.85,7.93-1.2l1.17,1.19c1.45-3.61,13.74.09,14.42-.58l-1.18-9.41c-1.47-.03-1.65,1.69-1.77,1.76-.2.12-1.07-.93-2.02-1.09-2.57-.43-6.48,1.96-8.55.2-.54-2.56,10.54-2.69,12.35-1.46l-2.03-16.17.27-99.4-.86-1.32-12.86,1.64c-2.53-2.05,1.48-2.66,3.48-2.9,1.22-.15,8.67-.65,9.07-.38.58.4.22,1.67,1.16,1.49v-8.23ZM222.97,225.35c-.44-1.56,0-7.25,0-9.41,0-.32-.91-1.31-.59-2.06h-12.06c-.12,0-2.06,1.06-2.06,1.18v11.47c0,2.02-11.05,3.24-12.37,2.37-2.03-1.33-.52-11.21-2.01-13.86-.82-1.16-4.98-.11-6.48,0s-5.06-1.43-5.59,1.51l.61,23.19c12.69.43,25.4-.32,37.94-2.34l3.5.61,33.17-2.41.39-11.15-6.76-.59-.04-13.49-12.32,1.21-.58,14.4c-2.75.09-13.9,2.41-14.75-.61ZM329.91,215.19c-.5-.29-1.12-.07-1.65-.13-.51,10.32-.94,20.87.31,31.19,4.65.84,2.6-6.41,2.7-9.13.12-3.74,1.7-20.17-1.35-21.93ZM194.15,242.71h-2.34s.87,2.38.87,2.38c.76,2.25-3.91.34-4.71.3-1.65-.1-3.34.22-4.99.27l.62,6.44,7.03.33v2.05c-1.67.33-6.97-.86-7.57.97l-.08,6.09c1.29.09,2.38-.46,3.67-.43.53.01,2.6.23,2.22,1.32-.35,2.74-3.96,2.02-5.9,2.05,1.16,2.16-.38,4.51-.39,5.59-.01.89,1.33,1.7,1.37,2.35.03.51-.88,1.46-.95,2.38-.18,2.43.06,4.9-.03,7.32,3.95.23,10.22-1.65,5.5,4.05l-4.82-.43-1.85,7.55,6.42-.04c.59-.92-.04-2.23.21-3.01,1.62-5,8.41-15.31,12.18-19,2.04-1.99,11.3-8.53,13.81-9.71,3.35-1.58,7.02-2.34,10.64-1.2s15.6,9.79,18.28,12.59c3.54,3.7,5.98,9.22,8.44,13.66l5.88-.34-.25-7.09c-.86-1.23-5.3.21-5.62-1.44-.47-2.41,5.52-1.1,5.88-1.46l-.59-17.06c-1.68-.34-7.66,1.08-7.66-1.47,0-2.94,6.85-.4,7.98-2.02l-.39-5.86-10.53.52c1.91-3.49,7.11-3.16,10.56-2.94l.61-4.11c-4.27-.25-13.3-1.23-17.03.91-2.58,1.48.25,5.76-2.66,7.17l-1.51-.82.05-6.28c-.23-.94-9.31-1.07-10.91-1.03-2.82.07-6.49.98-9.41,1.1-1.34.06-7.2-1.31-7.95.53-.71,1.75-.21,4.69.13,6.52,1.16,1.66,9.05-.8,6.96,2.79l-20.93.89-1.77-.58-.26-1.79,12.35-.59-.65-7-10.52.52.58-2.93ZM356.48,253.88c.17-4.07-5.08-2.47-7.64-2.34.08.65,2.31,1.45,2.82,1.59,1.52.41,3.29.16,4.82.76ZM371.19,255.65c-3.05-.02-5.75-2.37-8.82-1.17l6.81,2.9,2.01.03v-1.76ZM388.24,260.94l-11.17-2.94c.96,2.69,3.92,2.1,5.17,2.53.09.03.08.85,1.36,1.2,1.45.4,3.92,1.03,4.65-.8ZM392.95,264.46c2.96.77,5.93,1.99,8.96,2.52,1.01.18,1.3.89,2.2-.46-.05-.69-5.36-2.63-6.38-2.87-.6-.14-6.58-.98-4.78.8ZM229.06,270.55c.28-.38,1.34-.53,1.52-1.12.22-.83.03-1.17-.56-1.73-1.09-1.03-8.12-3.86-9.65-3.79-2,.08-12.92,5.75-13.26,7.38.77,1.68,4.59,6.31,6.12,6.14,1.7-.19,4.94-4.12,6.48-5.12l6.7,2.69c.67-1.58,1.63-3.08,2.64-4.46ZM239.8,275.29c-.9-.86-6.46-5.43-7.13-5.39l-4.98,6.03c2.88,2.97,6.84,5.63,9.39,8.84,1.98,2.49,2.71,5.29,4.2,7.57,1.28,1.97,6.13-1.45,7.39-2.86-1.85-5.31-4.82-10.31-8.86-14.19ZM332.8,272.86c-1.62-1.29-8.04-.47-10.42-1.33-.44,1.26,2.11,1.93,2.84,2.15,1.09.33,8.02,1.66,8.33,1.37.07-.63-.28-1.82-.75-2.19ZM206.75,282.37c.78-.78,2.73-1.51,2.61-2.8l-4.91-6.86c-2.52,1.15-8.93,11.43-10.4,14.31-1.31,2.56-3.08,5.05-2,8.08l6.21,1.72c1.55-5.49,4.55-10.49,8.48-14.45ZM371.77,306.23c-.08-4.04.75-8.7.62-12.67-.07-2.28-.31-7.38-.65-9.37-.12-.7-.35-1.39-1.14-1.49-2.54,3.46-1.36,5.18-1.26,8.6.07,2.71-.39,13.21.61,14.58l1.81.35ZM381.91,307.25c3.35,3.65,1.95-5.32,1.96-6.03.03-4.09.97-10.94.24-14.69-.19-.99-.74-1.46-1.46-2.07-.9,1.77-1.35,4.17-1.49,6.15-.21,2.96-.29,11.39.02,14.15.09.8.18,1.9.73,2.49ZM213.56,291.82c-.68,3.24.5,8.55,0,12.06l-6.5-.89c-2.91,3.2,2.3,3.61,4.88,3.69,4.83.15,9.66-1.02,14.32-1.57,2.47-.29,9.77.74,10.25-2.69.15-1.91-2.9.03-3.49-1.85-.33-1.06.6-2.36.55-3.45-.07-1.59-.96-3.25-.59-5-1.36-.08-1.05-.21-1.18.87-.66,5.62,1.32,11.54-6.97,8.46-.51-5.32,1.27-10.85-1.56-15.79l-.95,16.39-6.98.04c.79-4.2.62-8.1-.02-12.32-.66.11-1.66,1.6-1.76,2.06ZM332.37,308.58v-20.29c0-1.11-2.94-1.11-2.94,0v18.23c0,.87,1.8,2.63,2.94,2.06ZM257.68,288.58c-1.1.04-3.67-.45-4.07.96-.3,1.03,1.62,8.39,3.79,5.53l.28-6.49ZM242.98,339.16c2.28-1.99,4.01-.4,6.5-.83,1.83-3.29.82-7.1,1.15-10.63.41-4.36,1.57-9.2,1.73-13.55.09-2.61-1.48-20.61-2.33-21.45-1.76,1.31-5.2.3-6.52,2.01-1.73,2.24.95,10.67.06,13.87,2.31-.09,5.39-1.67,6.47,1.46l-5.84.94-1.22,28.18ZM187.09,296.23c-1.7,1.06-2.95.37-4.7,0l.54,1.5-1.12,1.13,4.7,2.07.59-4.71ZM197.61,298.66l-6.11-2.41c-.63.4-.73.78-.86,1.47-1.53,7.99-1.5,19.4-1.22,27.65.08,2.27.54,4.99.62,7.32l.89-1.8c1.92.39,6.84-.73,5.19,2.39h-6.09c-.38,6.58.22,12.91.59,19.41,2.88-1.11,3.63-1.03,6.47,0l.51-54.03ZM231.21,352.1c1.13-.21,1.01-1.23,1.22-2.07,1.86-7.4,1.93-29.68,1.12-37.62-.15-1.44-.39-4.6-2.34-4.42v44.11ZM212.98,309.75v40.88c0,.53,2.26,1.98,2.94,1.46-.45-.89-.61-1.63-.64-2.64-.36-11.6,1.67-23.75.67-35.32-.16-1.8-.65-5.03-2.97-4.38ZM359.43,354.45l-11.76-44.69c1.39,15.19,6.18,29.81,9.49,44.61l2.27.08ZM224.15,310.93c-1.57-.13-.97-.05-1.15.89-.45,2.34,0,3.93-.11,5.82-.35,5.82-1.53,26.4.24,30.48.3.68.83,1.46,1.6,1.63-.55-12.95,1.87-26-.59-38.82ZM403.68,327.3c-.34-.48-.92-9.18-1.76-11.51-.1-.27-.97-1.83-1.32-1.03l1.39,9.29c1.79,3.25,5.33,26.81,6.83,27.77.72.46,1.59.25,2.37.27-1.21-4.15-2.63-8.25-3.73-12.44-1.29-4.96-.79-8.18-3.78-12.36ZM339.43,330.35c-2.96-.1-5.31-3-8.23-.89-.29.72,5.88,1.61,6.6,1.68.85.08,1.28.51,1.63-.79ZM392.95,335.64l-12.35-1.76c.22.98,1.48,1.31,2.32,1.5,1.36.31,6.98,1.39,8.05,1.42.92.02,1.74-.12,1.98-1.15ZM322.37,338.57l-.29-1.17c-1.34.89-.58,1.66-.29,2.93l.89-1.2,5.57,1.2-1-2.36-3.46-.52c-.45.94,0,1.39-1.42,1.12ZM346.49,339.76c-2.22-.38-4.49-.9-6.78-.59-.8.11-1.83.4-.87,1.17,2.35-.09,6.05,1.96,7.65-.58ZM249.44,340.93l-5.29.59c2.75,2.85.86,6.69,0,9.99,2.13.08,2.1-2.61,2.81-3.94,1.14-2.13,2.91-3.6,2.47-6.64ZM342.37,350.35c-2.15-.57-4.15-1.54-6.47-1.18-.22,1.3.54,1.4,1.5,1.73.54.18,6.87,1.34,4.97-.55ZM172.94,350.97c-5.02-1.16-10.15.12-15.26.26l.6,3.23,14.7-1.18-.04-2.31Z"/>
    <path class="st0" d="M112.99,306.23c1.42-7.37,1.04-14.78,1.18-22.06.52-26.87-1.12-53.73,1.17-80.58.22-2.6-.22-5.26.08-7.85.93-1.45,15.22-1.56,17.86-1.85,5.49-.6,10.96-1.93,16.48-2.34,6.13-.45,12.42.25,18.52-.59-.07,16.54.05,33.15.03,49.72-.03,16.75-.52,33.79-.64,50.53-.14,18.67,1.36,37.3,4.73,55.6h-10.29c-.67,0-1.58-.79-2.64,0l-.02-1.77h-2.93c-.54,3.62-2.51,4.53-.59,8.52l-1.18-.29v2.36h-8.83v-9.41h-2.35s-.6,8.82-.6,8.82l-1.78-10.27-1.44-1.49c-2,.46-1.6,9.76-2.07,11.76-1.79.32-.9-.54-1.22-1.39-.44-1.15-.92-4.88-1.99-4.96-2.72-.2-1.63,5.25-2.74,6.86l-6.36.05.03-4.04,3.18-.05c1.73-3.02-5.99-4.84-6.72-2.57-.43,1.36,1.87,5.25-.42,6.01l-21.97,1.26,1.58-3.54c2.35.06,4.6-.51,6.94-.62,2.91-.14,5.01,1.18,8.39-.39,2.8-1.3.53-4.84-.23-4.89-1.43-.1-4.62,1.93-5.88,2.18-1.41.28-7.54.47-8.48-.07-.58-1.63.42-5.61,1.82-6.46l24.95-1.46.32-1.8.58,1.17c1.09.87,10.56-.22,10.58-1.46-1.47-3.28-13.79-.25-14.41-1.42l.9-13.86-1.47-2.06c-.79-.03-1.35,5.16-1.47,6.17-.39,3.39-.36,7.42-.6,10.88l-7.28-.52-11.53,1.11c1.23-4.95,2.29-10.01,3.57-14.95,1.45-5.6,4.2-12.57,5.25-17.98-1.03,1.12,2.39,2.23,3.17,2.3,1.88.17,11.68-.84,11.52-3.19-.11-1.62-7.08.1-8.53.23-1.89.18-3.73-1.04-6.15.65ZM165.07,195.3c-1.36-.21-11.09,1.19-12.82,1.67-.77.22-2.44.81-2.21,1.9.54.85,1.15.81,2.03.92,2.13.25,11.4-.66,13.45-1.31,1.8-.57.87-2.98-.45-3.18ZM129.46,200.95c-1.38-.05-10.98-.36-10.59,2.05l8.48.24,1.76-.47.35-1.81ZM125.34,210.95c1.62,1.64,9.28-5.1.03-2.91l-.03,2.91ZM135.38,241.49c1.69.32,10.64-.08,10.94-1.98-2.25-8.5,2.09-19.57-2.13-27.7-3.2-6.16-8.69-1.68-8.46,3.94l-.35,25.75ZM158.86,212.71c-1.43-.18-.93,0-1.24.82-.76,2.04-1.51,8.04,1.84,6.53l-.6-7.35ZM127.69,216.83c-1.89.23-4.43-.76-5.87.88,1.54,2.3,5.61,2.16,5.87-.88ZM160.63,231.52l-1-1.66c-10.25-.82-7.56,5.18,1,1.66ZM127.58,234.39l1.17-1.98c-2.39-3.28-7.03-.13-10.47-.87-.95,4.96,6.26,1.62,9.31,2.86ZM154.16,246.82c1.47.25,10.41-.46,10-2.64-.39-2.07-8.56.76-10,.88v1.75ZM129.37,248.08c-1.52-.3-9.91,1.18-9.9,2.57,0,2.36,8.79.13,10.58-.3l-.67-2.27ZM160.6,251.53l-7.07.84-.55,2.68c2.63.02,9.3.27,7.62-3.52ZM142.98,256.24c-2.89.42-10.52-2.21-10.58,2.35.94.17,12.84-.47,10.58-2.35ZM118.29,259.15c9.52,2.06,13.36-4.18.34-1.8l-.34,1.8ZM159.5,269.71c2.5,1.75,4.18-3.42,2-4.07s-3.06,3.32-2,4.07ZM126.51,266.82c-.44-.58-2.79,1.97-2.85,2.14-.6,1.68.67,3.76.5,5.5l1.79-.26.46-.71.09-6.67ZM143.44,296.09c.53-.74.63-1.62.72-2.5.47-4.42.62-14.71.32-19.15-.49-7.11-6.58-8.54-7.38-1.45-.81,7.28.55,15.53,0,22.93l.56,1.23,5.77-1.07ZM151.81,279.76l.28,1.78,1.13.54c1.25-.93,11.04.14,10.35-2.61-.67-2.66-9.48.77-11.76.29ZM124.16,283.28c1.36-2.91-4.82-2.6-5.29-1.46-1.05,2.57,4.09,1.12,5.29,1.46ZM130.56,288.51c2.65-10.23-3.19-9.66-2.28.08l2.28-.08ZM160.63,289.75l-1.98-.02c-.64.15-2.39,7.6-.59,8.19l1.98.08.59-8.24ZM130.63,296.82c1.5-5.1-5.23-.73-8.24-1.76v1.76h8.24ZM152.39,305.63c.51.71,7.84.22,9.12,0,.78-.13,1.66-.57,1.47-1.46-.3-1.44-10.59-1.66-10.58,1.45ZM142.98,305.06c-.94.08-7.66-1.24-7.63.29.01.66,1.74,1.47,2.61,1.5.95.03,4.46-.72,5.03-1.79ZM138.87,317.99h12.65c1.83,2.12.47,5.79.92,8.48l-3.56.93c-.14.78.08,1.3.89,1.53.56.16,10.5-.26,11.7-.43,2.22-.3,4.01-1.61,6.24-1.39l.29-1.49c-.87-1.24-6.45.45-8.24.58-1.66.12-3.34-.05-5,.01l-.6-7.36.99-1.38,11.62-1.2.35-2.41c-.61-.64-11.41,1.61-13.28,1.78-4.21.38-8.98-.23-13.48.58-1.03.19-1.65.61-1.48,1.76ZM133.87,315.05h-11.76c-.21,0-.9.75-1.47.6l.26,1.79c2.09.36,6.04.86,8.26.82s7.32-.41,4.71-3.21ZM119.46,325.05l-5.88,1.46c1.62,1.83,3.79.88,5.87.87v-2.33ZM128.87,327.98c3.74-.02,7.75.64,11.46,0,1.97-.34,2.38-2.64-.15-2.56-2.77.09-7.33.58-9.96,1.31-1,.28-1.63-.42-1.36,1.25ZM166.51,335.05c-1.52-.11-1.7,1.45-3.24,1.74-2.84.54-9.63.1-12.83.24-4.5.19-7.93,1.91-1.6,3.33.54,2.42-.95,6.75.31,8.81.56.91,1.15.34,1.38-.41.61-2.07.16-6.79,1.9-8.1,1.8-1.36,11.13-1.41,13.76-.94,2.1-1.33-1.03-2.78.32-4.67Z"/>
    <path class="st0" d="M309.43,197.42v8.23c-.93.18-.57-1.09-1.16-1.49-.41-.28-7.85.23-9.07.38-2,.24-6.01.85-3.48,2.9l12.86-1.64.86,1.32-.27,99.4,2.03,16.17c-1.8-1.23-12.88-1.09-12.35,1.46,2.07,1.76,5.98-.64,8.55-.2.95.16,1.82,1.21,2.02,1.09.12-.07.3-1.79,1.77-1.76l1.18,9.41c-.68.67-12.97-3.02-14.42.58l-1.17-1.19c-2.55,2.05-5.07.44-7.93,1.2l.03-7.61c2.77.09,4.46-1.88,7.6-1.81.03-1.01-2.64-.67-3.26-.61-1.06.11-6.78,1.34-7.07,1.75-.79,1.51.57,8-1.15,8.28-2.38-1.82-4.97,0-7.63.04-4.32.05-9.65-.91-14.08-.61-1.05.07-1.99.66-2.67,1.44-.05,1.85,15.24,1.62,17.02,1.47l1.21,10,1.78-.99.57-7.98.71-.65c10.32-1.08,20.85.67,31.04-1.57l3.53,20.58c-6.58.99-13.38-1.08-19.99.01-.3-3.64-1.08-8-2.66-11.18-3.96,1.34.07,10.62-3.01,11.69l-21.71.1c-5.08-.54-10.69.14-15.88-.61-2.14-.31.27-4.32-.27-5.88,4.15-.39,9.82.11,13.82-.6,2.49-.44,1.54-3.64.03-3.87-3.12-.48-9.33,2.39-13.26.34,2.05-6.14,3.79-12.87,5.14-19.26,6.47-30.5,4.31-63.02,4.88-93.93.2-10.68-.56-21.41.62-32.03,15.07-.84,30.04-4.31,45.23-2.4ZM274.14,206.24c-7.14-1.63-9.91,5.27-.68,2.85l.68-2.85ZM288.26,206.83l-3.73-.53-.71.49-.27,1.79c2.1-.05,4.47,1.31,4.71-1.76ZM291.74,245.02c-1.83-7.57.96-17.06-.01-24.32-1.28-9.61-8.17-9.63-10.2-.43,1.38,7.13-1,17.14.28,23.89.76,4.03,7.19,1.08,9.94.86ZM305.32,221.54c-2.38-.96-4.75-.57-6.46,1.46,1.33,1.57,3.69.71,5.47.9l.99-2.37ZM274.67,224.53l-4.84-.08c-3.79,4.57,5.44,2.53,5.47,1.49l-.64-1.42ZM298.26,234.47c2.47-.2,5.41.9,7.04-1.47.02-1.25-5.05-.97-6.07-.79l-.71.46-.26,1.79ZM265.91,239.76c.27.43,9.87,1.71,8.81-1.46-.42-1.35-7.89-1.24-8.56-.33l-.26,1.79ZM297.66,249.17c.7-.66.83-4.45-.28-5.29-1.96.7-1.39,6.85.28,5.29ZM273.4,251.68c-1.24-.02-3.24.78-4.75.53-4.17,4.24,7.43,4.02,6.59.88-.2-.74-1.01-1.41-1.84-1.42ZM306.49,255.05c.16-.8-.21-1.42-.99-1.67-1.39-.45-14.02,1.89-16.07,2.58-1.01.34-1.41.03-1.17,1.44l18.23-2.35ZM306.49,261.53c-1.17-.4-5.67-1.03-4.7,1.46.69,1.77,5.66-.16,4.7-1.46ZM298.78,262.17c-7.3.31-15.35-.02-22.57.54-1.52.12-9.15,1.23-9.11,2.64.06,2.52,6.62-.07,7.94-.03,3.11.1,6.87.78,10.36.55,4.35-.28,8.69-1.47,13.08-1.49l.31-2.23ZM276.4,272.2c-2.1-1.3-2.96,1.64-4.81,1.09-2.04,3.05,4.96,2.81,5.41.8-.05-.45-.39-1.76-.6-1.9ZM296.5,276.22c1.43,1.5,10,.5,9.98-.87-1.38-2.26-2.61-.78-4.4-.83-2.11-.06-5.16-1.52-5.58,1.7ZM286.93,277.57c-3.41-2.45-5.34,2.06-5.54,4.92-.07.98.45,2.21.43,3.42-.09,4-.76,12.11-.24,15.53.71,4.68,6.14,4.53,6.68,1.56-.86-4.79,1.77-22.48-1.33-25.43ZM268.32,302.04c1.52.95,2.37-.22,3.79-.49,2.16-.42,3.88.88,4.96-2.09-.07-1.53-7.38-.66-8.81-.88l.06,3.47ZM308.26,313.28l-.87-3.43c-1.99,1.65-9.22.18-9.72,2.56-.59,2.79,9.21.25,10.59.87ZM291.79,312.11c-6.84-.48-14.1-1.4-20.83.53l-.35,1.81,20.45-1.02.73-1.32ZM262.67,324.46h8.82l.59-1.18c-.79-1.11-8.45-.89-10.3-.58-.19.63.39,1.62.88,1.76ZM288.85,345.63c0-4.18-7.39-3.9-7.05.59l7.05-.59ZM312.96,343.28h-9.7c-2.6,0-3.97,1.71-.91,2.67,1.42.45,9.73.63,10.36-.28l.26-2.39ZM285.84,349.81c-7.93-1.14-3.98,5.16.64,1.41l-.64-1.41ZM307.67,350.93l-7.85-.5-.71.46-.26,1.8c1.8-.45,3.89.61,5.48.47.65-.06,2.59-1.75,3.34-2.23Z"/>
    <path class="st0" d="M237.09,203.88c-4.46.22-8.25-1.05-12.35,1.18.81-7.61-2.58-9.38-2.65-.59-2.12-2.3.6-7.41-2.94-8.82-2.08.49-1.1,8.34-.89,9.99h-3.53c-.13-.11.51-.96.53-1.52.2-6.16.73-15.26.09-21.15-.22-2-1.33-2.61-2.43-1.04-2.89,4.15.7,18.78-1.16,24.27l-2.32.03v-26.77c.35-2.48,4.35-.51,4.71-3.52l-4.71-.3c-.23-.23,1.36-4.29-.88-4.11-.96.98-2.38,2.48-2.63,3.84-.99,5.53-.99,14.72-1.11,20.6-.05,2.69.72,6.45.43,8.86-.11.89.08,1.72-1.1,1.98l-.13-57.22c-.71-2.42-11.64-6.65-14.5-5.63-1.02.63,1.05,13.02-.96,15.21-.79-.78-2.22-.99-2.98-1.73-2.01-1.96-.17-13.06-.95-16.41-3.96-2.24-8.23-2.34-12.57-3.02l.37-28.54c-1.01-6.43.52-13.13.56-19.68.38-.39,9.15-1.09,10.69-1.37,9.66-1.74,19.22-2.73,28.99-3.35,5.72-.36,17.36-1.7,22.39-1.15.63.07,1.25-.2,1.74.52l.26,119.43ZM231.2,89.8c-1.02-1.46-7.36,1.2-7.05,2.63.44,2.08,8.61-.38,7.05-2.63ZM193.56,89.79c-1.73-.16-12.81.64-12.92,2.05,2.08,4.45,8.46-.28,12.35.01l.58-2.07ZM211.21,95.09c-3.91-1.15-8.17-.75-12,.53l-.34,1.82,12.34-2.34ZM224.74,100.37c-.26,1.42-1.55,5.39,1.37,4.63,2.2-.57,1.73-5.37-1.37-4.63ZM186.95,101.08c-1.42-.03-10.29,1.06-9.85,3.11.42,1.96,10.85-.19,11.17-1.76.16-.79-.52-1.33-1.32-1.35ZM206.89,102.34c-3.92-3.81-7.51,1.95-8.48,5.53s-.03,8.48-.11,12.24c-.1,4.36-.3,8.7-.5,13.05l.84,1.29,9.8-.53c.42-.09,1.37-1.84,1.46-2.25.69-3.08.42-22.97-.6-25.55-.26-.67-1.92-3.3-2.4-3.77ZM227.09,110.95c1.99-2.99-5.11-1.94-6.17-1.75-1.8.32-1.9,2.26-1.18,2.35,1.26,0,6.85.15,7.35-.6ZM185.32,123.31c1.12-4.5,1.83-9.56,1.18-14.11-1.76-1.44-5,12.77-1.18,14.11ZM225.33,123.9h-5.88s0,1.76,0,1.76c2.2-.05,4.86.71,5.88-1.76ZM185.92,124.49c-3.12.79-8.02-.46-9.99,2.34,2.64-.08,10.5,1.49,9.99-2.34ZM222.97,130.96c-4.38.84-1.9,4.48-2.35,7.64-.79-.53-10.6,1.38-8.82,2.94l12.35-1.18v-1.76s-1.81-.32-1.81-.32l.62-7.32ZM220.04,152.13c1.83-.59,11.77.1,11.17-2.63-.38-1.74-8.43-.05-9.82.76-.81.48-1.58.72-1.35,1.88ZM221.8,164.48c1.63.4,5.34-.16,4.7-2.63-.54-2.09-5.37.45-4.7,2.63ZM212.92,163.35l-5.86.8-.56,2.68c2.5,0,8.53.51,6.41-3.48ZM220.99,168.06c-.95.32-1.16,1.89-1.38,2.77-.65,2.62-1.29,9.06-1.07,11.62.19,2.28,2.85,3.46,4.77,2.07s.97-8.83.85-11.48c-.11-2.38,1.17-5.08-3.17-4.99ZM231.15,190.31c.44-.64.06-2.54-.91-2.84-.33-.1-6.1.48-6.91.61-2.58.41-4.95.78-4.47,4.05,2.22.36,4.37-1.21,6.27-1.53,1.42-.24,5.4.62,6.02-.28ZM224.84,198.45c.31.11,6.25-.43,6.56-.54.77-.26,1.62-1.73,1.47-2.47-.58-2.8-2.59-.19-3.84.09-1.47.33-3.2-.18-4.49.22-1.89.58-.19,2.52.3,2.7Z"/>
    <path class="st0" d="M353.54,152.72c.23-2.04,1.92-4.15,2.94-5.88-1.7-1.27-8.66,5.75-5.3,7.94.09.44-.6.39-.87.28-2.26-.94-6.8-6.32-7.83-8.65-.73-1.66-1.42-6.44-3.46-7.14-4.12-1.41-12.4,5.54-15.48,8.15-.35-.44,3.31-7.78-.86-10.61-3.1-2.1-8.96-.14-10.61-3.49-1.61,1.29-3.4,3.04-5.59,2.93-.43-.4,1.36-3.24,1.75-3.83,1.82-2.75,4.62-4.74,6.02-8.1,1.55-3.72.78-7.89-1.4-11.2s-9.18-7.68-12.54-9.22c-.6-.28-1.17.49-.89-1.16,6.78-1.2,14.54.05,18.82-6.47-.08,3.25,3.22,3.44,5.25,5.05,2.46,1.95,5.15,4.59,7.1,7.01-3.17.22-6.56-2.21-9.86-3.08-4.72-1.24-10.65-1.9-15.42-1.33.28.73,2.66,1.43,3.37,1.62,8.39,2.12,11.16,2.57,18.39,7.48,1.31.89,3,1.15,4.11,2.37-4.52.36-9.99-1.88-14.11-3.83l.41,1.75,2.36.46,8.99,4.84c-2.66.87-8.97,1.53-8.83,4.72-1.37-.79-2.97-.92-2.93,1.17,4.41-1.05,8.01-3.62,12.71-4.06,2.73-.26,7.38,1.33,9.08.87,1.83-.5,5.07-4.34,7.02-5.34.02-.66-4.3-1.85-5.23-2.43-3.46-2.15-7.33-9.23-10.33-12.58-4.3-4.8-8.85-7.28-13.83-11.16,11.44,1.65,19.04,12.23,26.77,19.99,1.49.22.88-.98.6-1.78-.65-1.81-4.55-7.04-4.43-7.91.15-1.11.8-.66,1.48-.32,3.99,1.96,7.59,3.56,12.05,4.13.33-1.23-1.23-1.77-2.08-2.31-1.63-1.03-3.82-1.46-4.97-2.98,2.68.31,3.66-2.38,4.88-3.36.61-.49,1.48-.52,2.13-1.12.29-.27,2.33-2.12,1.81-2.58l-7.38,4.67-.86,1.79c-1.18.12-.4-1.7-.14-2.2.42-.79,5.3-6.17,4.85-6.61l-5.02,4.08-2.34,2.97c-2.62-4.09,5.98-10.13,9.47-10.54,2.24-.26,6.3.53,8.32,1.55.91.46,7.24,4.17,7.78,4.59,1.77,1.38,2.62,3.67,5.9,3.81-.16,1.03-2.12.83-3.07,1.21-.4.16-.43,1.01-.87,1.11-1.95.45-4.33-.34-6.67.31-.63.17-1.95.56-1.15,1.47.89,1.01,2.74-.6,3.73-.57.91.03,1.93.67,3.06.64,1.01-.03.75-1.05,1.3-1.2,1.29-.37,4.4-.77,5.73-.66.66.05,9.64,3.99,10.33,4.44s-.12,1.37.26,2.04c.42.74,2.5,1.82,3.27,3.8,1.37,3.5,2.95,9.64-2.69,9.77-2.6.06-6.45-5.74-8.81-7.68-5.59-4.6-7.56-.91-13.54-.9-3.51,0-6.35-1.71-9.7-2.02.78.83.85,2.78,1.33,3.37.65.8,3.12.68,3.37,1.91-1.77-.21-2.82.43-3.87,1.77-.79,1-.82,1.8-2.02,3.35-.41.53-.44,1.77-.62,1.91-.12.1-2.32-.84-2.9.33l5.29,3.23c-1.37-3.08,1.66-5.47.58-8.23,2.52.16,4.1-2.37,6.47-.3-1.83,1.93-4.72,1.59-5.88,4.41,2.92.54,2.83-2.75,5.85-2.32,1.45,1.66.55,5.57.89,6.43.13.33,4.72,4.87,5.04,5.02.25.11,4.71,1.06,5.19,1.12,7,.93,10.66-2.14,16.54-4.95l-5.91,6.14-.55,2.68c3.25-3.94,5.49-7.41,11.17-7.64.02,1.4-7.71,4.72-6.47,5.87l7.05-4.11c.96.92-6.01,5.58-4.41,7.64,1.6-2.61,4.07-5.44,7.09-6.44,1.2-.4.7,2.05.56,2.31-.67,1.25-2.46.63-2.06,2.37,2.73-.42,3.27-4.26,6.47-3.52-2.86,2.37-4.33,5.52-5.88,8.81,4.04,1.04,2.33-4.03,4.85-5.43,3.47-1.92,5.11-.78,8.4-.99,2.86-.19,5.21-1.45,6.45-1.67,2.69-.48,6.28.42,9.12-.13l-.6,1.17c2.9-.7,5.11,3.3,8.83,2.36l-.07,2.08,2.42.86-.59-2.34c4.73-.4,6.06-4.08,8.82-7.06-.39,5.82-1.23,12.15-1.19,17.96.05,7.64,3.42,12.75.2,21.3-.25.68-1.12.59-1.31,1.17-.67,2.01.05,5.1-2.69,6.03-1.33-3.44-3.54-6.53-6.17-9.12l1.17-.58-1.23-1.15-21.7-6.8,1.76-1.16c-2.44-.66-1.71-.38-3.14.52-1.66-1.32-4.76-2.08-6.27-3.18-4.71-3.45-11.47-6.76-17.49-8.96-10.99-4.01-20.1-2.39-30.04-5.25-4.51-1.3-9.21-4.97-10.1-9.61-4.23-.22-2.74,2.94-3.23,3.56-.58.74-3.46,1.03-3.81,3.21l3.74.32.65-1.79c1.13.64.2,1.43.47,2.2.05.14,1.28.79,1.01,2.5h-2.06s.3-1.46.3-1.46c-2.23-.12-1,2.15-1.46,3.19s-2.7,1.41-.61,2.96c2.5-1.19,3.15-4.88,6.17-4.69.41,4.33-5.43,2.4-2.93,7.64,2.06.2,1.5-2.14,2.31-3.27.42-.58,2.76-2.25,3.56-1.77l1.17,1.21c-2.55,2.07-5.71,4.33-5.87,7.94,3.74.74,2.62-2.93,4.43-5.27,3.19-4.11,4.56-1.06,7.17-.16,3.35,1.15,8.29-.36,2.51,4.25l3.5-.06.34-1.71c4.62-.44,9.17,10.53,11.27,13.99,2.59,4.28,5.51,8.65,7.94,13.27,4.92,9.33,6.77,17.74,15.66,24.48,6.63,5.03,11.72,4.37,19.53,5.92.51.6-1.76,4.22-2.34,4.84-.85.91-2.18,1.13-2.78,1.8-1.28,1.42-2.09,5.07-4.59,6.29-.6-3.09-1.71-8.02-5.58-8.23,1.09,4.86-.5,14.44-7.07,13.22,3.05-8.82,2.56-14.16-3.87-20.83-.51-.52-1.34-.58-1.41-.64-.74-.66,1.7-.22,1.17-1.45-.25-.58-1.06-1.06-1.75-.89l-1.77,2.94-.88-3.53c-1.06,2.51-1.32,4.91-4.41,5.88,2.14-5.12,4.38-8.34,2.34-14.1l1.76-.89-1.75-1.48-.3,1.76-3.23-5,1.76.3-.07-4.66c-2.94.34-1.85-3.99-4.33-5.33-2.48,1.77,2.65,3.11-.29,4.69l-3.53-6.77,1.16-.28.59-3.21c-1.02-1.56-2.83-.32-2.35,1.44-2.33-.47.01-4.05-.59-4.7-1.79,1.41-4.55-1.23-4.11-2.94l1.75.28-1.18-2.04-2.33,1.76.58-4.12h-1.76s1.17,1.17,1.17,1.17l-2.34,1.18-1.19-5.29c-2.68-.35.32,2.69-1.47,3.53-4.41-1.22-9.33-1.6-13.55-4.11-.7-.99,1.67-2.48,2.09-2.95-.07.57.04,1.18,0,1.76.64.05,1.2.06,1.78-.27.36-.2,3.89-4.67,3.51-5.02-2.48-.25-3.87,1.93-5.29,3.53ZM357.66,93.91c-2.51-1.1-2.01.59-3.15,1.55-1.46,1.23-4.27,2.01-3.91,4.32l7.05-5.88ZM358.68,99.08c.24-.16,3-4.55,2.22-5.17l-7.42,6.75.07,2.07.87-1.19h1.17s1.47,1.78,1.47,1.78c1.18-2.22.86-1.94,0-4.11.48-.01,1.23.14,1.6-.12ZM336.91,126.41c-1.28-1.31-7.4-2-9.38-1.79-4.07.41-10.18,3.01-13.79,5.07-.69.39-2.84,1.24-2.55,2.14.48,1.46,1.39.32,1.93.19,4.33-1.06,14.78-4.69,18.65-2.54,1.76.98-1.03.72-.59,1.47,4.43-.2,3.37,3.28-.88,1.76-1.16,1.63.86,2.65,2.28,2.91l.36,1.2-6.46,4.43c1.64,1.29,2.72-1.09,3.39-1.44.84-.43,2.02-.36,3.04-.96.35-.21,5.01-4.21,5.19-4.51,1.02-1.77.22-6.48-1.19-7.93ZM422.95,143.9c.74.2,1.93-1.23,3.23-1.24,2.41-.02,5.95,4.07,6.88,6.13.9,1.98.29,4.33,2.55,5.11l1.49-1.57c-1.08-5.98-3.69-10.33-8.26-14.31,3.44-.52,6.23.88,9.41,1.77l-1.76,1.75c1.96,1.11,4.63,1.14,3.77,3.53l2.14,2.06-1.21,2.06,3.52,1.77c-.58-1.32.02-3.98-.18-4.9-.3-1.4-2.44-3.36-3-4.56-.6-1.27-.68-4.35-.93-5.83h-1.75s.32,2.36.32,2.36c-2,1.79-1.99-.3-2.49-.6-3.26-1.9-6.41.37-8.14.39-.37,0-5.11-3.25-6.75-2.75l3.52-.58-1.47-1.76h-4.41s.6,1.17.6,1.17c-8.93-2.09-13.73,8.03-6.48,13.53-.81-3.91-1.92-10.86,4.05-9.91l.97,2.26c1.19.43.68-1.04,1.26-1.18,1.94-.47,4.26.6,5.8,1.77.36.96-1.98,1.41-2.63,2.1-.52.55-.59,1.28-.03,1.43-.18-.13-3.92-1.58-4.12-1.49-.43.18-1.48,1.41-1.64,1.91-1.43,4.66,4.76,5.15,6.95,7.51,1.19,1.28.31.55-.61,1.18l1.15,1.79,4.1-.95c1.4-2-3.93-7.53-5.45-8.84-.35-.3-.3-1.05-.39-1.11ZM360.01,156.25l2.35-5.88c-1.11.92-6.52,3.93-4.12,5.6.42.29,1.53.48,1.77.28ZM365.3,153.31c-1.99-.09-4.46,1.19-4.11,3.52,2.73,1.4,2.14-.73,4.11-1.18l-1.18-1.46,1.18-.88Z"/>
    <path class="st0" d="M194.15,242.71l-.58,2.93,10.52-.52.65,7-12.35.59.26,1.79,1.77.58,20.93-.89c2.09-3.59-5.8-1.13-6.96-2.79-.33-1.83-.84-4.78-.13-6.52.75-1.84,6.61-.48,7.95-.53,2.91-.12,6.59-1.03,9.41-1.1,1.6-.04,10.68.08,10.91,1.03l-.05,6.28,1.51.82c2.91-1.41.08-5.69,2.66-7.17,3.73-2.13,12.76-1.16,17.03-.91l-.61,4.11c-3.45-.22-8.65-.55-10.56,2.94l10.53-.52.39,5.86c-1.13,1.62-7.98-.93-7.98,2.02,0,2.54,5.97,1.13,7.66,1.47l.59,17.06c-.36.36-6.35-.96-5.88,1.46.32,1.65,4.76.21,5.62,1.44l.25,7.09-5.88.34c-2.46-4.44-4.9-9.95-8.44-13.66-2.69-2.81-14.81-11.5-18.28-12.59s-7.29-.38-10.64,1.2c-2.51,1.18-11.77,7.72-13.81,9.71-3.77,3.69-10.56,14-12.18,19-.25.79.38,2.1-.21,3.01l-6.42.04,1.85-7.55,4.82.43c4.72-5.7-1.55-3.82-5.5-4.05.1-2.43-.15-4.89.03-7.32.07-.92.98-1.87.95-2.38-.04-.65-1.38-1.47-1.37-2.35.01-1.08,1.55-3.43.39-5.59,1.94-.03,5.54.69,5.9-2.05.38-1.09-1.7-1.31-2.22-1.32-1.3-.03-2.39.52-3.67.43l.08-6.09c.6-1.83,5.9-.64,7.57-.97v-2.05s-7.03-.33-7.03-.33l-.62-6.44c1.65-.05,3.34-.36,4.99-.27.8.05,5.48,1.96,4.71-.3l-.87-2.38h2.34ZM245.91,259.75l-.26-1.79-7.37-.54.94,2.89,6.69-.56ZM203.57,266.23c2.97.75,2.59-4.1,2.68-6.47.1-2.73-2.05-1.87-2.56-.16-.56,1.85.13,4.64-.12,6.64ZM251.21,264.47c-.42-.55-8.97-.15-7.65,2.93,2.68.67,4.38-.41,6.97-.68l.68-2.26ZM184.75,273.87c1.42-.26,8.73.95,8.23-1.46-.31-1.46-8.51-1.67-8.23,1.46Z"/>
    <path class="st0" d="M161.22,42.14c3.71-.31,7.87-.96,11.55-1.15.69-.04,1.25-.1,1.72.53l-.34,16.06c.94,2.38,15.99-.27,18.29-1.57,1.32-1.66.43-14.51-.06-17.41l10.6-.93c1.84,1.51-.5,13.71.51,16.46,2.57.83,5.31,1.05,8,.92,2.49-.12,13.02-1.44,14.44-2.65,1.51-5.56-1.45-11.6.7-17.2l12.53-1.75c1.46.25.79,8.36.83,10.17.14,5.87-.13,11.69.01,17.65.03,1.41.34,3,.6,4.38-8.58.3-17.05,1.59-25.59,2.35-9.95.89-20.03,1.26-29.99,2.36-7.94.88-15.86,2.26-23.82,2.94v-31.17ZM232.4,56.85c-.41,3.32-6.29.74-7.07,4.4.8,1.26,1.2.48,2.12.4,3.3-.29,10.09-.47,4.95-4.8ZM206.5,62.74c-2.96-.88-6.27-.91-9.22-.09-1,.28-1.64-.43-1.36,1.25l2.35.32,8.23-1.48ZM178.86,65.08c-.23-1.08-1.15-1.08-2.03-1.19-2.61-.32-10.05-.89-9.73,2.96l11.76-1.77Z"/>
    <path class="st0" d="M222.97,225.35c.85,3.02,12,.7,14.75.61l.58-14.4,12.32-1.21.04,13.49,6.76.59-.39,11.15-33.17,2.41-3.5-.61c-12.53,2.03-25.25,2.77-37.94,2.34l-.61-23.19c.53-2.94,4.04-1.39,5.59-1.51s5.66-1.16,6.48,0c1.49,2.66-.02,12.53,2.01,13.86,1.33.87,12.37-.35,12.37-2.37v-11.47c0-.12,1.94-1.18,2.06-1.18h12.06c-.32.75.59,1.74.59,2.06,0,2.16-.44,7.85,0,9.41ZM244.15,232.11c2.33-.12,4.94.78,6.46-1.46-1.89-1.97-5.4-.71-6.46,1.46Z"/>
    <path class="st0" d="M142.4,161.25c.05.19.91,1.04,1.18,1.17,1.33.62,15.54-.37,16.32-1.01l.77-15.71,11.73-.61c-.41,3.63.07,7.65.02,11.49-.02,1.54-.64,3-.66,4.67s1.49,11.21-.22,11.35c-4.47-1.27-9.1.23-13.55.72-9.29,1.02-18.91,1.61-28.09,2.6-7.99.86-16,2.24-23.96,3.29l.57-29.13,9.93-.79c1.8,1.13-1.27,12.04.62,14.38.99,1.26,8.95,1,10.93.82,1.22-.11,4.54-.47,4.92-1.55l1.36-15.4,8.14-.68v14.41ZM164.15,154.48c-1.45-1.5-2.56,5.32-.88,5.28,2.28-1.49,1.18-3.11.88-5.28ZM114.16,163.31c-3.38-.5-2.82,8.4-1.46,8.82,3.87,1.18,1.5-7.19,1.46-8.82ZM154.16,169.18c2.94-.25,6.56.94,8.81-1.46-2.08-2.14-5.23.3-7.82-.32l-.99,1.78ZM139.46,168.01c-1.84.17-5.28-.93-5.29,1.76h5.3s0-1.76,0-1.76Z"/>
    <path class="st0" d="M265.91,168.3c.03.85-.68,2.59.96,3.16,1.4.48,9.08.22,9.94-1.08l-.17-15.05.82-.77,8.42-.66c1.65,1.16-1.15,12.38-.58,14.89.29,1.18,11.56.89,12.68-1.37,1.33-2.69-1.07-14.02,1.31-15.3,1.38-.74,11.41-1.39,12.44-.53,1.35,8.06-.21,16.17.06,24.34.04,1.25,1.29,3.31.03,4.16-1.06.72-9.84.12-12.08.27-9.41.61-18.8,2.5-28.24,2.93-5.56.25-11.2-.18-16.76,0v-25.88s11.18-.59,11.18-.59c.11,3.81-.15,7.66,0,11.47ZM261.2,166.25l-1.43,1.11c.72,1.26-1.25,7.07.55,7.11,3.02.07.09-6.42.88-8.22ZM289.43,175.65c-.63-2.85-9.36-.24-7.64,1.18l7.64-1.18Z"/>
    <path class="st0" d="M412.87,100.87l1.53-1.67c.35.08,4.54,4.88,4.74,5.31.81,1.78-1.73,5.01,2.04,3.51.28,1.73-1.38,7.36-3.22,7.48-.17.01-2.98-1.03-3.1-1.14-.93-.82-1.92-5.73-2.55-7.16-.89-2.01-2.46-3.6-4.06-5.06.64,2.53,1.2,6.52-.32,8.8-.58.87-1.56.94-1.86,1.32-1.73,2.19-1.64,1.66-3.42,3.39-1.64,1.59-2.55,4.16-4.98,5.01,1.35,3.45,7.67-3.86,8.25-4.12,2.33-1.07,9.05,2.73,10.57,5-1.18.13-2.57-.23-3.7.03-.42.09-.43.89-.88,1.11-.99.48-4.2,2.35-4.53,2.41-.88.16-1.04-.01-.88-.88l4.11-3.83-9.11,4.7-.33-1.7-8.19-1.25c.74-1.58,3.81-3.99,4.4-5.3.97-2.16.47-5.71.91-7.83.09-.43,1.87-.48,1.16-2.16-3.88,1.35-6.24-1.07-8.23-4.11,3.48-.54,5.86-.84,8.8,1.48.26.2,3.97,5.01,3.56,1.75-.11-.88-5.2-7.51-6.17-8.54-2.16-2.28-5.81-2.36-3.83-5.87l-3.53-.6,1.17-3.52-4.11,1.17,1.17-2.34-3.53,1.17,3.53-5.28-5.88,4.11,3.62-6.99c7.59-.46,10.14,6.12,14.31,10.52,3.44,3.63,7.34,6.77,10.56,10.61l2.01.47Z"/>
    <path class="st0" d="M197.61,298.66l-.51,54.03c-2.84-1.02-3.59-1.11-6.47,0-.37-6.49-.97-12.83-.59-19.4h6.09c1.65-3.12-3.28-2-5.19-2.39l-.89,1.8c-.08-2.34-.54-5.06-.62-7.32-.28-8.25-.31-19.66,1.22-27.65.13-.69.23-1.06.86-1.47l6.11,2.41Z"/>
    <path class="st0" d="M242.98,339.16l1.22-28.18,5.84-.94c-1.08-3.14-4.16-1.56-6.47-1.46.89-3.2-1.79-11.64-.06-13.87,1.32-1.71,4.76-.7,6.52-2.01.85.84,2.42,18.84,2.33,21.45-.16,4.35-1.32,9.2-1.73,13.55-.33,3.53.68,7.34-1.15,10.63-2.49.44-4.22-1.16-6.5.83ZM246.95,324.04c-.54-.27-1.06-.17-1.62-.16l-.6,2.94h4.11c.38-.33-1.75-2.7-1.9-2.77Z"/>
    <path class="st0" d="M312.81,44.09c.1.05.19.74.58.97,15.66,9.16,26.11,24.67,38.98,37.07-2.15-.08-4.44,1.16-6.29,2.24-.98.58-6.2,5.26-6.65,4.82l5.88-8.23c-.62-.55-3.08,1.46-3.7,1.86-.71.46-3.42,2.83-3.65,2.83-3.7.09,5.27-6.71,4.41-7.63-1.34.72-2.79,1.27-4.07,2.09-.81.52-2.9,3.53-2.97,1.15l5.28-6.77c-1.17-.08-2.38.44-3.37,1-.25.14-5.51,5.25-4.27,2.23.9-2.19,4.75-6.4,7.05-7.06l-2.46-.24-6.35,4.65c-.95-1.91,4.92-6.27,4.11-7.05-.81-.53-7.33,5.35-5.79,1.56.59-1.46,3.79-3.37,4.03-5.67-1.03-1.04-4.3,4.94-6.47,3.82-1.51-.78,3.65-4.79,2.94-6.18-1.63-.51-3.7,4.44-5,2.35l2.06-4.71c-1.49.06-2.93,3.32-4.11,1.46l1.76-4.99c-1.22-.15-2.45,3.9-3.52,2.94s.92-3.53.58-4.99c-.54-2.3-2.9,1.4-2.36,2.64-2.83-1.42-.59-3.56-.59-5.88l-2.35,2.06c-1.47-1.98-2.57-2.9-.59-5-3.1,1.21-4.37-.57-4.7-3.53.56,0,1.07-.1,1.61.18Z"/>
    <path class="st0" d="M400.6,169.77l2.34-1.76c2.29,5.98,2.12,12.01,5.66,17.58,1.11,1.74,3.05,3.48,4.36,5.06.41.5.13,1.3.54,1.78,1.67,1.97,7.16,3.07,9.62,2.51,1.39-.32,1.95-1.7,3.35-1.64-.26,4.46-.5,5.67-4.97,5.84-9.48.38-16.17-6.63-20.06-14.65,2.01-6.44-1.44-12.64-3.69-18.65,1.55-4.62,4.17,1.91,2.84,3.93Z"/>
    <path class="st0" d="M239.8,275.29c4.04,3.87,7.01,8.88,8.86,14.19-1.26,1.41-6.11,4.83-7.39,2.86-1.49-2.28-2.22-5.07-4.2-7.57-2.54-3.21-6.51-5.87-9.39-8.84l4.98-6.03c.67-.05,6.23,4.52,7.13,5.39Z"/>
    <path class="st0" d="M206.75,282.37c-3.93,3.96-6.93,8.96-8.48,14.45l-6.21-1.72c-1.09-3.03.69-5.52,2-8.08,1.47-2.88,7.87-13.16,10.4-14.31l4.91,6.86c.12,1.29-1.83,2.02-2.61,2.8Z"/>
    <path class="st0" d="M229.06,270.55c-1,1.38-1.96,2.88-2.64,4.46l-6.7-2.69c-1.54,1-4.78,4.94-6.48,5.12-1.53.17-5.35-4.47-6.12-6.14.34-1.63,11.26-7.3,13.26-7.38,1.53-.06,8.56,2.76,9.65,3.79.59.56.78.9.56,1.73-.18.58-1.24.73-1.52,1.12Z"/>
    <path class="st0" d="M213.56,291.82c.1-.46,1.1-1.95,1.76-2.06.64,4.22.81,8.12.02,12.32l6.98-.04.95-16.39c2.83,4.94,1.04,10.48,1.56,15.79,8.29,3.09,6.31-2.83,6.97-8.46.13-1.08-.18-.95,1.18-.87-.36,1.74.52,3.41.59,5,.05,1.09-.88,2.39-.55,3.45.59,1.88,3.64-.06,3.49,1.85-.49,3.43-7.78,2.39-10.25,2.69-4.66.55-9.48,1.72-14.32,1.57-2.58-.08-7.78-.49-4.88-3.69l6.5.89c.5-3.5-.68-8.82,0-12.06Z"/>
    <path class="st0" d="M378.83,53.91l-2.35,1.75c2.05-.03,4.37-.52,5.29,1.76-1.03,1.32-4.74-1.1-4.11,1.17l5.29,1.49-4.12,2.05,6.47,1.19c.03,3.08-5.05-.32-5.88,2.34l7.65,1.19c1.39,1.31-3.84,1.59-4.45,1.74-.99.25-1.71-.59-1.43,1.19l6.76.56,1.47,1.5c-2.48,1.14-6.39-1.08-8.23,1.46,2.6-.02,5.77.16,8.25.9,1.04.31,1.38.11,1.15,1.46-1.97.18-4.22-.27-6.14.04-1.75.28-2.26,1.61-3.85,1.73-.76-7.97-3.26-15.8-6.48-23.22-.41-1.98,3.76-.2,4.71-.29Z"/>
    <path class="st0" d="M212.98,309.75c2.32-.65,2.82,2.58,2.97,4.38,1,11.58-1.03,23.72-.67,35.32.03,1.01.19,1.75.64,2.64-.69.51-2.94-.93-2.94-1.46v-40.88Z"/>
    <path class="st0" d="M329.91,215.19c3.06,1.76,1.48,18.19,1.35,21.93-.09,2.72,1.95,9.97-2.7,9.13-1.25-10.32-.82-20.87-.31-31.19.53.06,1.16-.16,1.65.13Z"/>
    <path class="st0" d="M373.54,113.9l.63,8.79h2.27c.65-2.18.35-4.66.63-6.74.24-1.8,1.49-.82,2.36,0,.36.34,3.72,4.74,3.83,5.04.95,2.41-1.61,2.33-1.93,2.55-.38.25-.19,1.14-1.73,1.42-1.2.21-3.9.16-5.09-.1-2.6-.57-5.82-3.44-6.16-6.11-.46-3.64,1.78-5,5.18-4.84Z"/>
    <path class="st0" d="M231.21,352.1v-44.11c1.95-.18,2.2,2.98,2.34,4.42.81,7.94.73,30.23-1.12,37.62-.21.83-.09,1.86-1.22,2.07Z"/>
    <path class="st0" d="M224.15,310.93c2.46,12.82.04,25.87.59,38.82-.77-.17-1.3-.94-1.6-1.63-1.78-4.08-.59-24.66-.24-30.48.11-1.89-.34-3.48.11-5.82.18-.94-.42-1.02,1.15-.89Z"/>
    <path class="st0" d="M389.41,158.61c1.08,2.06,3.3,3.69,4.61,5.68,2.29,3.49,4.01,8.2,5.99,11.95l-5.82,1.7c-1.42-2.69-2.72-5.76-4.3-8.34-1.08-1.76-4.8-5.9-5.17-7.19-.3-1.04.48-1.2,1.19-.59l7.92,9.72c1.08-.86.74-.67.42-1.57-1.07-3.01-4.38-7.51-5.99-10.5l1.16-.86Z"/>
    <path class="st0" d="M425.89,129.19c-4.29-1.12-9.17,1.92-13.21,1.16-.56-.11-7.95-3.36-7.95-3.8,1.82-2.21,1.68.22,2.1.29.85.13,3.66-.53,4.94,0l-2.35-1.75c7.48-4.29,11.19-1.46,16.47,4.1Z"/>
    <path class="st0" d="M262.38,127.43l-3.45-1.55c.13-4.86-.36-9.82-.3-14.66.03-2.69-.74-8.84,2.57-9.08-.45,1.06,1.18,2.97,1.18,3.24v22.06Z"/>
    <path class="st0" d="M359.43,354.45l-2.27-.08c-3.31-14.8-8.1-29.43-9.49-44.61l11.76,44.69Z"/>
    <path class="st0" d="M380.6,87.44c.47,2.01-2.73.96-4.28,1.3-1.34.3-3.9,2.35-4.82,2.22-2.47-.33,2.29-3.3,1.45-4.12-2.05-.31-3.46,3.25-5.31,2.09-2.46-1.55-.39-4.51.36-6.16.21-.47,1.46-1.55-.06-1.81s-.96,1.54-1.05,1.63c-.31.33-3.58,2.8-3.94,2.48l3.52-4.99c-1.35-1.92-2.49,1.05-3.51,1.47l1.18-4.11c5.32,3.54,10.26,7.97,16.46,10.01Z"/>
    <path class="st0" d="M403.68,327.3c2.98,4.18,2.48,7.4,3.78,12.36,1.09,4.19,2.51,8.29,3.73,12.44-.78-.02-1.66.19-2.37-.27-1.5-.96-5.04-24.52-6.83-27.77l-1.39-9.29c.35-.8,1.23.76,1.32,1.03.84,2.32,1.42,11.03,1.76,11.51Z"/>
    <path class="st0" d="M381.91,307.25c-.55-.6-.64-1.69-.73-2.49-.31-2.76-.23-11.19-.02-14.15.14-1.98.59-4.38,1.49-6.15.72.61,1.27,1.08,1.46,2.07.72,3.75-.21,10.59-.24,14.69,0,.71,1.39,9.68-1.96,6.03Z"/>
    <path class="st0" d="M387.29,93.78c.14.25,1.62-.08.95,1.29l-4.7.6,1.76,1.46c-.65,1.44-5.13,1.43-4.7-.87l2.35-1.77c-1.91-.27-2.48.12-3.23,1.77l-1.48-.6.59-1.76c-1.47-.06-3.13.47-4.1-.89,1.14-5.05,9.59-3.1,12.37-.57.46.42.02,1.02.19,1.33Z"/>
    <path class="st0" d="M371.77,306.23l-1.81-.35c-1.01-1.37-.54-11.86-.61-14.58-.09-3.42-1.28-5.14,1.26-8.6.8.1,1.03.8,1.14,1.49.34,1.99.58,7.09.65,9.37.12,3.97-.7,8.63-.62,12.67Z"/>
    <path class="st0" d="M332.37,308.58c-1.14.57-2.94-1.18-2.94-2.06v-18.23c0-1.11,2.94-1.11,2.94,0v20.29Z"/>
    <path class="st0" d="M205.8,80.84c-.2.27-3.21,1.24-3.78,1.29-3.43.28-4.02-3.14-3.48-5.87,1.8-1.25,7.55-3.18,7.98.33.07.57-.49,3.94-.72,4.25Z"/>
    <path class="st0" d="M328.84,168.59l-2.86-.08c-.61-.38-1.62-12.81-.72-14.23.23-.36,1.19-.87,1.53-.83,3.03.42.62,12.83,2.05,15.14Z"/>
    <path class="st0" d="M222.29,74.01c.82.51,1.8,4.27.29,5.24-1.15.74-6.86.98-7.58-.03l.3-5.03,6.99-.18Z"/>
    <path class="st0" d="M157.1,185.05c.41-1.09.34-2.74.72-3.68,1.09-2.69,9.89-2.62,8.03,2.73-.6,1.71-7.19,1.57-8.75.95Z"/>
    <path class="st0" d="M124.75,189.19l1.14-6.8c9.46-1.77,7.23,8.37-1.14,6.8Z"/>
    <path class="st0" d="M172.94,350.97l.04,2.31-14.7,1.18-.6-3.23c5.11-.14,10.24-1.43,15.26-.26Z"/>
    <path class="st0" d="M341.78,172.71l-2.66-.58c-1.65-3.97-.45-7.74-.28-11.78,1.06-.86,2.94,1.74,2.94,2.06v10.29Z"/>
    <path class="st0" d="M141.87,187.35c-2.05-5.56.5-7.13,5.88-6.13,1.72,4.23-1.84,6.71-5.88,6.13Z"/>
    <path class="st0" d="M238.26,78.6h-7.05c-.14-5,2.49-6.21,7.09-5.02l-.03,5.02Z"/>
    <path class="st0" d="M274.73,193.3l.09-5.21c4.52-1.96,7.11-.25,6.14,4.66l-6.22.55Z"/>
    <path class="st0" d="M189.95,77.52l.09,5.21c-4.01-.14-7.31,1.87-6.37-4.03,2.36-.85,3.66-2.83,6.29-1.18Z"/>
    <path class="st0" d="M295.32,192.13l-5.33-.26-.47-4.95c5.05-2.07,6.42.33,5.8,5.21Z"/>
    <path class="st0" d="M174.06,83.23c-2.48,1.52-5.57,2.07-6.29-1.52-.98-4.96,7.98-4.68,6.29,1.52Z"/>
    <path class="st0" d="M112.8,183.46c3.39-.08,6.72,6.67,1.22,6.2-2.81-.24-3.38-2.49-3.92-4.84.18-.7,2.03-1.35,2.7-1.36Z"/>
    <polygon class="st0" points="309.43 186.24 308.88 191.28 303.55 191.54 304.1 186.5 309.43 186.24"/>
    <path class="st0" d="M249.44,340.93c.44,3.04-1.33,4.51-2.47,6.64-.72,1.34-.68,4.03-2.81,3.94.85-3.3,2.75-7.14,0-9.99l5.29-.59Z"/>
    <path class="st0" d="M395.89,100.37c-3.42.22-6.3.52-9.64-.58l-.36-1.16c3.89-2.81,7.38-2.43,9.99,1.75Z"/>
    <path class="st0" d="M265.14,189.94c.7.87.91,2.21.71,3.3-1.49.5-3.61,1.3-4.96.07-2.88-3.47,1.8-6.41,4.25-3.37Z"/>
    <path class="st0" d="M405.29,166.24c-.66-.17-1.54-2.89-1.62-3.37-.23-1.43-.17-2.84-.14-4.28,1.82-.07,3.77-.35,4.65,1.59l-2.89,6.06Z"/>
    <path class="st0" d="M257.68,288.58l-.28,6.49c-2.18,2.86-4.09-4.5-3.79-5.53.4-1.4,2.98-.91,4.07-.96Z"/>
    <path class="st0" d="M332.8,272.86c.46.37.81,1.57.75,2.19-.31.29-7.24-1.05-8.33-1.37-.73-.22-3.28-.89-2.84-2.15,2.38.85,8.8.04,10.42,1.33Z"/>
    <path class="st0" d="M317.67,181.53c-2.34-3.13,9.94-.47,9.98,1.48.06,2.49-8.98-1.62-9.98-1.48Z"/>
    <path class="st0" d="M344.72,189.19c.02,1.02.33,1.26-.84,1.13s-13.52-3.98-11.51-5.84l12.35,4.71Z"/>
    <path class="st0" d="M398.83,180.95c.26.3-2.29,6.46-3.23,6.46-1.93-1.65-1.48-4.19-1.46-6.46h4.7Z"/>
    <path class="st0" d="M392.95,264.46c-1.8-1.78,4.18-.95,4.78-.8,1.03.24,6.34,2.18,6.38,2.87-.9,1.34-1.19.63-2.2.46-3.03-.53-6-1.75-8.96-2.52Z"/>
    <path class="st0" d="M200.03,208.59c-.89-.17-.83-3.05-.84-3.82-.06-5.15.16-10.46.55-15.59,1.84-.04.42,17.27.29,19.41Z"/>
    <path class="st0" d="M388.24,260.94c-.72,1.83-3.2,1.2-4.65.8-1.28-.35-1.28-1.17-1.36-1.2-1.25-.43-4.21.16-5.17-2.53l11.17,2.94Z"/>
    <path class="st0" d="M187.09,296.23l-.59,4.71-4.7-2.07,1.12-1.13-.54-1.5c1.75.37,3,1.06,4.7,0Z"/>
    <path class="st0" d="M421.19,172.13l-1.18-5.88c1.16-.17,3.71.32,4.06,1.56.32,1.13-1.81,5.13-2.88,4.32Z"/>
    <path class="st0" d="M275.9,78.03l-.28,1.16c-3.22-2.48-7.38-3.27-10.81-5.1-.94-.5-2.2-.56-1.84-1.95l12.93,5.89Z"/>
    <path class="st0" d="M378.25,52.14l-5.33.32-1.73-3.84c2.55.63,5.75.84,7.05,3.52Z"/>
    <path class="st0" d="M371.19,255.65v1.76s-2.02-.03-2.02-.03l-6.81-2.9c3.08-1.2,5.78,1.15,8.82,1.17Z"/>
    <path class="st0" d="M392.95,335.64c-.24,1.03-1.06,1.17-1.98,1.15-1.07-.02-6.69-1.11-8.05-1.42-.84-.19-2.1-.52-2.32-1.5l12.35,1.76Z"/>
    <path class="st0" d="M387.65,148.61c-.2,1.74,2.26,1.24,3.54,1.76l-1.47,6.46c-1.11-.8-1.42-6.1-1.62-6.36-.33-.42-3.62-1.62-.44-1.86Z"/>
    <path class="st0" d="M187.1,176.25c2.19.1,4.45.94,5.87,2.64l-1.58,1.4c-1.24.32-4.92-2.18-4.28-4.05Z"/>
    <path class="st0" d="M322.37,338.57c1.43.27.97-.17,1.42-1.12l3.46.52,1,2.36-5.57-1.2-.89,1.2c-.29-1.28-1.05-2.04.29-2.93l.29,1.17Z"/>
    <path class="st0" d="M356.48,253.88c-1.53-.6-3.31-.35-4.82-.76-.5-.14-2.73-.94-2.82-1.59,2.55-.12,7.81-1.73,7.64,2.34Z"/>
    <polygon class="st0" points="297.67 126.25 297.22 129.63 291.79 136.83 296.3 127.51 297.67 126.25"/>
    <path class="st0" d="M258.85,71.55c-1.76-.88-3.98-.89-5.74-1.58-.21-.08-2.5-2.02-1.9-2.53,1-.25,9.06,2.8,7.64,4.11Z"/>
    <path class="st0" d="M398.83,153.9c-.75,1.58-.75,3.37-1.16,5.04-.24,1,.58,1.71-1.19,1.43l-.59-6.47h2.94Z"/>
    <path class="st0" d="M346.49,339.76c-1.6,2.54-5.3.49-7.65.58-.96-.78.07-1.06.87-1.17,2.28-.31,4.56.22,6.78.59Z"/>
    <path class="st0" d="M339.43,330.35c-.35,1.3-.78.87-1.63.79-.72-.06-6.88-.96-6.6-1.68,2.92-2.12,5.27.79,8.23.89Z"/>
    <path class="st0" d="M342.37,350.35c1.9,1.89-4.43.73-4.97.55-.96-.33-1.71-.43-1.5-1.73,2.31-.36,4.31.61,6.47,1.18Z"/>
    <path class="st0" d="M184.74,177.42c-1.79-1.39-4.66-1.62-5.29-4.11,2.52-.02,5.93.98,5.29,4.11Z"/>
    <rect class="st0" x="290.82" y="138.18" width="11.47" height="1.03" transform="translate(49.22 353.18) rotate(-66)"/>
    <path class="st0" d="M175.92,185.07c1.46-.14,3.96.73,3.52,2.64-.41,1.81-4.79-.3-3.52-2.64Z"/>
    <path d="M135.38,241.49l.35-25.75c-.23-5.62,5.26-10.1,8.46-3.94,4.22,8.13-.12,19.2,2.13,27.7-.3,1.9-9.25,2.3-10.94,1.98Z"/>
    <path d="M143.44,296.09l-5.77,1.07-.56-1.23c.55-7.4-.82-15.65,0-22.93.79-7.09,6.89-5.66,7.38,1.45.31,4.44.16,14.73-.32,19.15-.09.88-.19,1.76-.72,2.5Z"/>
    <path d="M138.87,317.99c-.17-1.14.45-1.57,1.48-1.76,4.5-.81,9.27-.2,13.48-.58,1.87-.17,12.67-2.42,13.28-1.78l-.35,2.41-11.62,1.2-.99,1.38.6,7.36c1.65-.06,3.34.11,5-.01,1.79-.13,7.37-1.83,8.24-.58l-.29,1.49c-2.23-.22-4.02,1.09-6.24,1.39-1.2.16-11.13.59-11.7.43-.81-.24-1.03-.75-.89-1.53l3.56-.93c-.45-2.7.91-6.37-.92-8.48h-12.65Z"/>
    <path d="M166.51,335.05c-1.36,1.89,1.78,3.34-.32,4.67-2.63-.47-11.96-.41-13.76.94-1.74,1.31-1.29,6.03-1.9,8.1-.22.75-.82,1.32-1.38.41-1.26-2.06.23-6.39-.31-8.81-6.34-1.42-2.91-3.14,1.6-3.33,3.2-.14,9.99.3,12.83-.24,1.55-.29,1.72-1.86,3.24-1.74Z"/>
    <path d="M165.07,195.3c1.32.2,2.25,2.61.45,3.18-2.04.65-11.32,1.56-13.45,1.31-.88-.1-1.48-.06-2.03-.92-.24-1.09,1.43-1.68,2.21-1.9,1.72-.49,11.45-1.88,12.82-1.67Z"/>
    <path d="M133.87,315.05c2.6,2.8-2.46,3.17-4.71,3.21s-6.17-.46-8.26-.82l-.26-1.79c.57.15,1.25-.6,1.47-.6h11.76Z"/>
    <path d="M127.58,234.39c-3.04-1.24-10.25,2.11-9.31-2.86,3.45.74,8.09-2.41,10.47.87l-1.17,1.98Z"/>
    <path d="M151.81,279.76c2.28.48,11.09-2.95,11.76-.29.69,2.75-9.1,1.68-10.35,2.61l-1.13-.54-.28-1.78Z"/>
    <path d="M128.87,327.98c-.28-1.68.35-.98,1.36-1.25,2.64-.72,7.19-1.22,9.96-1.31,2.53-.08,2.11,2.22.15,2.56-3.72.64-7.73-.01-11.46,0Z"/>
    <path d="M129.37,248.08l.67,2.27c-1.78.43-10.57,2.66-10.58.3,0-1.39,8.38-2.87,9.9-2.57Z"/>
    <path d="M152.39,305.63c0-3.11,10.28-2.9,10.58-1.45.19.89-.69,1.33-1.47,1.46-1.28.22-8.6.7-9.12,0Z"/>
    <path d="M160.63,289.75l-.59,8.24-1.98-.08c-1.79-.58-.05-8.04.59-8.19l1.98.02Z"/>
    <path d="M154.16,246.82v-1.75c1.43-.13,9.61-2.95,10-.88.41,2.18-8.53,2.89-10,2.64Z"/>
    <path d="M129.46,200.95l-.35,1.81-1.76.47-8.48-.24c-.39-2.41,9.21-2.09,10.59-2.05Z"/>
    <path d="M142.98,256.24c2.26,1.88-9.64,2.52-10.58,2.35.06-4.56,7.69-1.93,10.58-2.35Z"/>
    <path d="M160.6,251.53c1.68,3.79-5,3.54-7.62,3.52l.55-2.68,7.07-.84Z"/>
    <path d="M118.29,259.15l.34-1.8c13.02-2.38,9.19,3.86-.34,1.8Z"/>
    <path d="M130.56,288.51l-2.28.08c-.91-9.74,4.93-10.3,2.28-.08Z"/>
    <path d="M126.51,266.82l-.09,6.67-.46.71-1.79.26c.17-1.74-1.11-3.82-.5-5.5.06-.17,2.41-2.73,2.85-2.14Z"/>
    <path d="M160.63,231.52c-8.56,3.53-11.25-2.48-1-1.66l1,1.66Z"/>
    <path d="M130.63,296.82h-8.23v-1.76c3,1.03,9.73-3.34,8.23,1.76Z"/>
    <path d="M158.86,212.71l.6,7.35c-3.35,1.52-2.6-4.49-1.84-6.53.3-.81-.19-1,1.24-.82Z"/>
    <path d="M125.34,210.95l.03-2.91c9.25-2.18,1.59,4.55-.03,2.91Z"/>
    <path d="M159.5,269.71c-1.06-.74-.27-4.74,2-4.07s.5,5.81-2,4.07Z"/>
    <path d="M142.98,305.06c-.57,1.07-4.08,1.82-5.03,1.79-.87-.03-2.59-.85-2.61-1.5-.03-1.53,6.69-.2,7.63-.29Z"/>
    <path d="M127.69,216.83c-.25,3.04-4.33,3.18-5.87.88,1.44-1.64,3.98-.65,5.87-.88Z"/>
    <path d="M124.16,283.28c-1.19-.34-6.33,1.11-5.29-1.46.46-1.14,6.65-1.45,5.29,1.46Z"/>
    <path d="M119.46,325.05v2.33c-2.09.01-4.26.96-5.88-.87l5.88-1.46Z"/>
    <path d="M291.74,245.02c-2.75.22-9.18,3.17-9.94-.86-1.28-6.76,1.11-16.77-.28-23.89,2.03-9.19,8.93-9.17,10.2.43.97,7.26-1.82,16.75.01,24.32Z"/>
    <path d="M286.93,277.57c3.1,2.94.47,20.64,1.33,25.43-.54,2.97-5.96,3.12-6.68-1.56-.52-3.42.15-11.53.24-15.53.03-1.22-.5-2.44-.43-3.42.2-2.86,2.13-7.36,5.54-4.92Z"/>
    <path d="M298.78,262.17l-.31,2.23c-4.4.01-8.73,1.21-13.08,1.49-3.49.22-7.25-.46-10.36-.55-1.31-.04-7.87,2.55-7.94.03-.04-1.4,7.59-2.52,9.11-2.64,7.22-.56,15.28-.24,22.57-.54Z"/>
    <path d="M291.79,312.11l-.73,1.32-20.45,1.02.35-1.81c6.73-1.94,13.99-1.02,20.83-.53Z"/>
    <path d="M306.49,255.05l-18.23,2.35c-.24-1.41.16-1.11,1.17-1.44,2.06-.68,14.68-3.03,16.07-2.58.77.25,1.14.87.99,1.67Z"/>
    <path d="M312.96,343.28l-.26,2.39c-.63.92-8.94.73-10.36.28-3.06-.96-1.69-2.67.91-2.67h9.7Z"/>
    <path d="M308.26,313.28c-1.38-.62-11.17,1.91-10.59-.87.5-2.38,7.73-.91,9.72-2.56l.87,3.43Z"/>
    <path d="M268.32,302.04l-.06-3.47c1.43.22,8.74-.65,8.81.88-1.07,2.98-2.79,1.68-4.96,2.09-1.42.27-2.27,1.44-3.79.49Z"/>
    <path d="M265.91,239.76l.26-1.79c.66-.9,8.13-1.02,8.56.33,1.06,3.17-8.54,1.88-8.81,1.46Z"/>
    <path d="M273.4,251.68c.83.01,1.64.68,1.84,1.42.84,3.14-10.76,3.35-6.59-.88,1.51.24,3.51-.55,4.75-.53Z"/>
    <path d="M296.5,276.22c.42-3.22,3.47-1.76,5.58-1.7,1.79.05,3.02-1.43,4.4.83.02,1.38-8.56,2.37-9.98.87Z"/>
    <path d="M307.67,350.93c-.76.47-2.69,2.17-3.34,2.23-1.59.14-3.67-.93-5.48-.47l.26-1.8.71-.46,7.85.5Z"/>
    <path d="M274.14,206.24l-.68,2.85c-9.22,2.43-6.46-4.48.68-2.85Z"/>
    <path d="M262.67,324.46c-.49-.14-1.07-1.13-.88-1.76,1.85-.31,9.51-.53,10.3.58l-.59,1.18h-8.82Z"/>
    <path d="M288.85,345.63l-7.05.59c-.33-4.49,7.06-4.77,7.05-.59Z"/>
    <path d="M276.4,272.2c.22.14.56,1.44.6,1.9-.45,2.01-7.45,2.24-5.41-.8,1.85.55,2.7-2.4,4.81-1.09Z"/>
    <path d="M298.26,234.47l.26-1.79.71-.46c1.02-.18,6.09-.46,6.07.79-1.63,2.37-4.57,1.27-7.04,1.47Z"/>
    <path d="M274.67,224.53l.64,1.42c-.04,1.04-9.26,3.07-5.47-1.49l4.84.08Z"/>
    <path d="M305.32,221.54l-.99,2.37c-1.78-.2-4.14.66-5.47-.9,1.71-2.04,4.08-2.42,6.46-1.46Z"/>
    <path d="M285.84,349.81l.64,1.41c-4.62,3.74-8.58-2.55-.64-1.41Z"/>
    <path d="M288.26,206.83c-.24,3.07-2.61,1.7-4.71,1.76l.27-1.79.71-.49,3.73.53Z"/>
    <path d="M306.49,261.53c.97,1.3-4,3.23-4.7,1.46-.97-2.49,3.53-1.86,4.7-1.46Z"/>
    <path d="M297.66,249.17c-1.67,1.57-2.25-4.59-.28-5.29,1.11.84.98,4.63.28,5.29Z"/>
    <path d="M206.89,102.34c.48.47,2.14,3.11,2.4,3.77,1.02,2.58,1.29,22.46.6,25.55-.09.41-1.04,2.17-1.46,2.25l-9.8.53-.84-1.29c.2-4.35.4-8.69.5-13.05.09-3.76-.81-8.79.11-12.24s4.55-9.33,8.48-5.53Z"/>
    <path d="M220.99,168.06c4.34-.1,3.06,2.6,3.17,4.99.12,2.65,1.15,10.03-.85,11.48s-4.59.21-4.77-2.07c-.21-2.56.43-9,1.07-11.62.22-.87.42-2.45,1.38-2.77Z"/>
    <path d="M222.97,130.96l-.62,7.32,1.8.32v1.76s-12.35,1.18-12.35,1.18c-1.78-1.55,8.03-3.47,8.82-2.94.45-3.16-2.03-6.81,2.35-7.64Z"/>
    <path d="M231.15,190.31c-.62.91-4.6.04-6.02.28-1.9.32-4.05,1.89-6.27,1.53-.48-3.27,1.9-3.64,4.47-4.05.81-.13,6.58-.71,6.91-.61.97.3,1.35,2.2.91,2.84Z"/>
    <path d="M193.56,89.79l-.58,2.07c-3.88-.3-10.26,4.44-12.35-.01.11-1.41,11.2-2.22,12.92-2.05Z"/>
    <path d="M185.32,123.31c-3.82-1.34-.58-15.55,1.18-14.11.65,4.55-.06,9.61-1.18,14.11Z"/>
    <path d="M186.95,101.08c.8.02,1.48.55,1.32,1.35-.32,1.57-10.75,3.72-11.17,1.76-.44-2.05,8.43-3.14,9.85-3.11Z"/>
    <path d="M220.04,152.13c-.23-1.16.54-1.4,1.35-1.88,1.38-.81,9.43-2.5,9.82-.76.6,2.74-9.34,2.05-11.17,2.63Z"/>
    <path d="M224.84,198.45c-.49-.18-2.19-2.11-.3-2.7,1.28-.39,3.02.11,4.49-.22,1.26-.28,3.26-2.89,3.84-.09.15.74-.7,2.2-1.47,2.47-.31.11-6.25.65-6.56.54Z"/>
    <path d="M211.21,95.09l-12.34,2.34.34-1.82c3.84-1.28,8.09-1.68,12-.53Z"/>
    <path d="M212.92,163.35c2.12,3.99-3.92,3.49-6.41,3.48l.56-2.68,5.86-.8Z"/>
    <path d="M185.92,124.49c.51,3.83-7.35,2.27-9.99,2.34,1.97-2.8,6.88-1.55,9.99-2.34Z"/>
    <path d="M227.09,110.95c-.5.75-6.09.61-7.35.6-.72-.09-.63-2.03,1.18-2.35,1.06-.19,8.16-1.24,6.17,1.75Z"/>
    <path d="M231.2,89.8c1.56,2.25-6.61,4.71-7.05,2.63-.3-1.43,6.04-4.09,7.05-2.63Z"/>
    <path d="M224.74,100.37c3.11-.75,3.57,4.06,1.37,4.63-2.92.76-1.63-3.21-1.37-4.63Z"/>
    <path d="M221.8,164.48c-.67-2.19,4.16-4.72,4.7-2.63.64,2.47-3.07,3.03-4.7,2.63Z"/>
    <path d="M225.33,123.9c-1.03,2.47-3.68,1.71-5.88,1.76v-1.76s5.88,0,5.88,0Z"/>
    <path d="M422.95,143.9c-.56-.15-.49-.89.03-1.43.65-.68,2.99-1.14,2.63-2.1-1.54-1.16-3.86-2.24-5.8-1.77-.58.14-.07,1.61-1.26,1.18l-.97-2.26c-5.97-.95-4.86,6-4.05,9.91-7.25-5.5-2.46-15.62,6.48-13.53l-.6-1.17h4.41s1.47,1.76,1.47,1.76l-3.52.58c1.64-.5,6.38,2.76,6.75,2.75,1.73-.02,4.88-2.3,8.14-.39.5.29.49,2.38,2.49.6l-.32-2.36h1.75c.25,1.48.34,4.56.93,5.83.56,1.2,2.7,3.15,3,4.56.2.92-.4,3.58.18,4.9l-3.52-1.77,1.21-2.06-2.14-2.06c.86-2.38-1.81-2.42-3.77-3.53l1.76-1.75c-3.18-.88-5.96-2.29-9.41-1.77,4.57,3.98,7.18,8.33,8.26,14.31l-1.49,1.57c-2.26-.78-1.65-3.13-2.55-5.11-.93-2.06-4.47-6.14-6.88-6.13-1.3,0-2.49,1.44-3.23,1.24.09.06.04.81.39,1.11,1.51,1.31,6.85,6.83,5.45,8.84l-4.1.95-1.15-1.79c.91-.62,1.8.1.61-1.18-2.19-2.35-8.38-2.85-6.95-7.51.15-.5,1.21-1.73,1.64-1.91.2-.09,3.95,1.37,4.12,1.49Z"/>
    <path d="M336.91,126.41c1.41,1.45,2.22,6.16,1.19,7.93-.17.3-4.84,4.3-5.19,4.51-1.02.6-2.2.53-3.04.96-.67.34-1.75,2.73-3.39,1.44l6.46-4.43-.36-1.2c-1.41-.26-3.44-1.28-2.28-2.91,4.25,1.52,5.3-1.96.88-1.76-.44-.75,2.35-.49.59-1.47-3.87-2.15-14.33,1.48-18.65,2.54-.54.13-1.45,1.27-1.93-.19-.3-.91,1.85-1.75,2.55-2.14,3.61-2.06,9.71-4.65,13.79-5.07,1.98-.2,8.09.48,9.38,1.79Z"/>
    <path d="M358.68,99.08c-.38.26-1.12.11-1.6.12.85,2.17,1.17,1.9,0,4.11l-1.47-1.78h-1.17s-.87,1.19-.87,1.19l-.07-2.07,7.42-6.75c.78.62-1.99,5.01-2.22,5.17Z"/>
    <path d="M357.66,93.91l-7.05,5.88c-.37-2.31,2.45-3.09,3.91-4.32,1.13-.96.63-2.65,3.15-1.55Z"/>
    <path d="M360.01,156.25c-.24.2-1.34,0-1.77-.28-2.4-1.66,3.01-4.68,4.12-5.6l-2.35,5.88Z"/>
    <path d="M365.3,153.31l-1.18.88,1.18,1.46c-1.97.45-1.38,2.58-4.11,1.18-.35-2.32,2.12-3.61,4.11-3.52Z"/>
    <polygon points="245.91 259.75 239.22 260.31 238.28 257.42 245.65 257.96 245.91 259.75"/>
    <path d="M203.57,266.23c.25-2-.44-4.78.12-6.64.51-1.7,2.66-2.57,2.56.16-.09,2.37.29,7.22-2.68,6.47Z"/>
    <path d="M251.21,264.47l-.68,2.26c-2.59.26-4.3,1.34-6.97.68-1.32-3.08,7.23-3.48,7.65-2.93Z"/>
    <path d="M184.75,273.87c-.29-3.12,7.92-2.92,8.23-1.46.51,2.4-6.8,1.19-8.23,1.46Z"/>
    <path d="M178.86,65.08l-11.76,1.77c-.32-3.85,7.12-3.28,9.73-2.96.88.11,1.81.1,2.03,1.19Z"/>
    <path d="M232.4,56.85c5.14,4.33-1.64,4.51-4.95,4.8-.92.08-1.33.86-2.12-.4.78-3.66,6.66-1.09,7.07-4.4Z"/>
    <path d="M206.5,62.74l-8.23,1.48-2.35-.32c-.28-1.68.36-.97,1.36-1.25,2.95-.82,6.26-.79,9.22.09Z"/>
    <path d="M244.15,232.11c1.06-2.17,4.56-3.43,6.46-1.46-1.52,2.25-4.13,1.34-6.46,1.46Z"/>
    <path d="M114.16,163.31c.04,1.63,2.41,10-1.46,8.82-1.36-.41-1.92-9.31,1.46-8.82Z"/>
    <path d="M154.16,169.18l.99-1.78c2.6.62,5.74-1.82,7.82.32-2.25,2.41-5.87,1.22-8.81,1.46Z"/>
    <path d="M139.46,168.01v1.76s-5.29,0-5.29,0c0-2.68,3.45-1.59,5.29-1.76Z"/>
    <path d="M164.15,154.48c.3,2.17,1.4,3.79-.88,5.28-1.68.04-.58-6.79.88-5.28Z"/>
    <path d="M261.2,166.25c-.79,1.8,2.14,8.29-.88,8.22-1.8-.04.17-5.85-.55-7.11l1.43-1.11Z"/>
    <path d="M289.43,175.65l-7.64,1.18c-1.72-1.42,7.01-4.03,7.64-1.18Z"/>
    <path d="M246.95,324.04c.15.08,2.28,2.44,1.9,2.77h-4.11s.6-2.94.6-2.94c.56,0,1.08-.1,1.62.16Z"/>
  </g>
</svg>