<?xml version="1.0" encoding="UTF-8"?>
<svg id="Layer_1" xmlns="http://www.w3.org/2000/svg" version="1.1" viewBox="0 0 1024 1024">
  <!-- Generator: Adobe Illustrator 29.3.1, SVG Export Plug-In . SVG Version: 2.1.0 Build 151)  -->
  <defs>
    <style>
      .st0 {
        fill: #fff;
      }
    </style>
  </defs>
  <path d="M519.5,220l-1.07-2.04c3.56-7.91,10.64-13.48,18.77-16.27,3.95-1.36,23.28-4.65,24.64-6.85,3.19-5.16-13.36-15.71-7.84-20.37,6.14-5.18,33.59,9.99,37,7.51-2.9-8.51-4.91-17.51-8.82-25.67-5.03-10.48-17.3-28.06-24.75-37.24-11.5-14.18-26.14-21.47-38.4-34.58,1.27-1.52,2.24-2.64,4.39-2.51,1.15.07,12.53,4.4,14.85,5.25,44.85,16.43,62.31,43.94,95.64,73.36,1.09.96,1.5,2.45,2.61,3.4,5.75-1.67.31-16.68,6.93-16.02,5.63.56,19.88,19.09,27.07,20.99,2.14-1.35.83-1.72.8-2.75-.52-14.9-17.21-52.49-26.07-64.96-2.71-3.81-18.93-17.25-16.2-21.22,6.57-2.6,14.92.36,20.9,3.51,15.64,8.24,39.66,43.94,47.92,60.08,5.87,11.47,7.26,15.94,14.98,27.02,1.46,2.1,6.18,13.82,9.15,11.34,1.91-1.59,3.03-21.39,6.53-24,2.6-.62,7.03,11.72,7.77,14.22,1.84,6.21,3.53,24.06,8.73,27.28,3.52,2.18,7.15-2.3,10.95-1.46.3,12.91,2.66,25.08-1.87,37.59-.1,1.52.24,2.9,1.22,4.08,1.22,1.48,11.56,9.77,13.56,10.92,3.85,2.22,6.99,4.63,11.5,2.24,7.24-3.84,12.25-17.82,18.82-2.56,5.63,13.08,1.39,19.56,2.37,30.84.34,3.95,2.84,8.3,3.33,12.46,1.47,12.46-5.3,31.13-12.45,41.33-15.06,21.49-14.53,2.61-21.98-8.9-1.98-3.06-6.31-6.57-10.04-7.02-2.96-.13-1.87,5.94-3.36,8.54-1.14,2-10.54,9.85-12.52,9.44-6.25-8.8.88-21.82-11.04-26.98-1.02.07-5.48,11.5-5.5,13.46-.01,1.69,2.92,16.54,3.55,17.47,3.54,5.25,8.74-1.89,10.49-.49,3.54,3.24,2.08,14.34,4.95,16.05,4.25,2.52,14.7-4.06,16.03-8.5,7.44,2.25,2.24,15.48,1.97,21.52-.37,8.25,7.39,13.77,11.04,20.94,9.77,19.2,5.52,38.94,12.94,57.06,3.11,7.59,8.73,13.04,17.03,14.48-1.91,8.82-17.43.82-21.49-3.02-14.8-13.96-11.46-38.81-18.47-56.53-1.9-4.81-5.2-8.67-7.06-13.46-8.19.48-.8,17.04-3.99,19.99-4.73.77-2.88-12.05-5.49-11.98-3.29,3.78-15.36,19.09-20.01,18.69-1.15-.1-3.98-4.45-6.4-3.65.35,7.07-22.45,17.87-24.96,13.81-.97-6.62,4.12-11.65,4.88-18.36.78-6.88.53-16.22-5.04-21.02-4.41-3.22-15.66,9.92-18.51,5.56-.78-2.37-.62-5.07-.44-7.53.52-7.09,3.78-14.23,3.01-21.96-.78-7.76-5.75-16.58-10.2-22.89-3.62-5.12-21.13-27.04-28.36-19.7-5.5,5.58-1.81,34.37-4.15,43.84-2.03,8.23-12.8,16.54-14.26,24.74-1.16,6.51.92,13.82.98,19.9.04,4.23-1.5,17.94-.44,20.7,1.31,3.41,4.17,2.76,7.4,2.85v-16.5c0-.27,1.56-2.74,2-3.01,2.51-1.55,23.27,4.59,25.09,6.92,2.47,3.16-2.62,20.58.89,24.12,1.67,1.69,7.79,2.62,8.88-.16,2.04-6.19-4.32-15.43,1.82-20.25,2.56-.79,19.71,6.24,22.67,8.04,9.81,5.96-4.16,26.2,11.05,26.68,4.75-1.13-1.75-17.75,4.27-20.7,2.57-.84,19.98,4.75,21.79,6.91,3.78,4.51.47,21.23.47,27.46,0,6.63,2.16,14.07,1.01,20.95-.82,4.93-7.79,10.66-9.27,15.72-2.48,8.46,1.7,31.79,3.6,41.06,2.32,11.35,8.74,25.74,10.29,35.73.25,1.58-.91,4.6-.54,5,.16.17,2.24-.1,3.46,1.03.98.91,1.98,4.3,3.09,5.94,15.15,22.34,27.28,31.67,53.17,40.83,8.76,3.1,18.62,4.24,26.63,7.37,4.11,1.61,11.03,4.36,7.47,9.74l-679.14.94-2.57-2.5c-1.19-4.85,12.29-13.28,15.89-16.77,23.58-22.89,36.6-62.01,44.69-93.31,12.51-48.36,6.65-92.46,7.23-141.76.08-7.18,2.99-32.73.13-37.03-.97-1.45-3.25-1.87-4.12-3.13-1.07-1.56-8.26-14.62-8.69-16.05-1.72-5.79-.2-8.77-.22-13.7-.03-11.45-1.85-33.79.18-43.81,2.45-12.07,22.63-8.25,31.82-10.18,9.15,6.41,6.71,14.56,7.09,24.31l6.86,1.14v-18.5c0-.33,1.33-6.18,1.49-6.51,2.03-4.22,20.06-2.92,24.96-5.02,6.4-.64,10.55,5.78,10.55,11.53v14.5l8.98-.02c1.17-1.1-2.21-20.05.95-24.55,2.33-3.32,14-3.47,18.07-3.42l.91-77.42c-2.63-10.59-9.21-19.62-16.7-27.3-2.31-20.52-1.03-41.46-.56-62.04,1.64-5.45,5.05-8.59,10.84-9.24s18.68-1.65,23.91-.91c2.8.4,8.59,3.53,8.59,6.41v21.5h9v-23.5c0-.75,1.69-4.81,2.43-5.57,3.85-3.95,27.18-4.28,33.34-3.27l1.3,1.02c2.19,5.92,4.57,10.76,5.33,17.18.23,1.96-.74,8.02.04,9.15,1.28,1.86,10.72-1.1,13.56-.01v-28.5c0-5.39,13.7-4.16,17.45-4.55,6.28-.66,13.58-3.02,19.83-1.72,1.91.4,11.77,5.79,12.79,7.2,2.93,4.07-.68,22.72,1.13,28.87.87,2.96,4.27,2.91,6.8,2.7v-26.5c0-.62,1.49-1.39,2.41-1.46,2.51-.18,18.43,7.82,20.07,9.98,3.92,5.17,1.19,13.08,1.48,19.52.32,7.04.09,13.68,8.93,11.34,3.58-5.33-3.31-21.04,3.06-23.32,3.92-1.4,7.69,3.05,10.65,4.34,3.24,1.4,12.85,3.69,14.18,6.82,2.03,4.77.19,12.54.17,17.74-.05,13.65.7,27.32-1.15,40.85-7.05,7.33-16.34,14.37-17.68,25.32-2.42,19.7,2.45,42.38.9,62.39,5.32-5.51,9.3-12.37,14.48-18.01,8.17-8.91,18.65-16.38,28.51-23.01l-.61-2.05c-1.2-.94-13.47-4.93-14.89-4.93h-16ZM307,106v53c13.55-1.15,27-3.5,40.51-4.99,16.93-1.88,34.06-2.5,50.98-4.02,14.52-1.3,28.92-3.49,43.51-4-.44-2.35-.96-5.05-1.02-7.44-.24-10.13.22-20.03-.02-30-.07-3.07,1.07-16.86-1.42-17.29l-21.31,2.98c-3.67,9.52,1.37,19.8-1.2,29.24-2.42,2.05-20.31,4.31-24.55,4.51-4.58.22-9.24-.15-13.6-1.57-1.72-4.67,2.25-25.43-.87-27.99l-18.02,1.58c.84,4.93,2.35,26.78.11,29.6-3.92,2.21-29.51,6.71-31.1,2.66l.57-27.31c-.8-1.07-1.75-.96-2.93-.9-6.26.32-13.33,1.42-19.64,1.95ZM564.74,109.31c-.92-.48-1.78-.32-2.74-.3.57,5.04,2.72,8.06,7.99,6-3.38,3.58-1.51,5.14.99,8.5l4-3.51c-.01,3.94-3.82,7.59,1,10-.92-2.1,3.09-8.39,4.01-4.48.58,2.47-2.88,6.76-.99,8.48,1.81,1.64,3.91-5.25,5.98-4.99l-2.99,8.48c2.01,3.17,4.46-2.37,6.99-2.48l-3.5,8c2.21,3.55,5.72-4.86,8.5-4,1.2,2.36-7.56,9.17-5,10.5,3.69,1.91,9.25-8.27,11-6.5-.41,3.91-5.84,7.17-6.85,9.64-2.62,6.45,8.47-3.56,9.84-2.65,1.39,1.34-8.61,8.75-6.98,11.99l10.8-7.91,4.18.41c-3.91,1.12-10.45,8.29-11.98,12.01-2.11,5.13,6.83-3.55,7.26-3.8,1.69-.96,3.74-1.84,5.73-1.71l-8.99,11.51c.11,4.05,3.67-1.07,5.05-1.96,2.19-1.4,4.66-2.33,6.93-3.56,1.48,1.57-13.79,13.13-7.49,12.98.39,0,4.99-4.04,6.2-4.82,1.06-.68,5.24-4.08,6.3-3.15l-9.99,13.98c.76.76,9.63-7.21,11.3-8.19,3.14-1.84,7.04-3.95,10.69-3.82-21.88-21.09-39.65-47.45-66.27-63.03-.66-.39-.82-1.56-.99-1.65ZM676,122.99c-2.22-4.56-7.65-4.91-11.99-5.99l2.94,6.53,9.06-.54ZM676.99,126.01c-1.62.16-8.7-2.87-8.01.5,5.49,12.63,9.74,25.93,11.02,39.49,2.7-.19,3.58-2.47,6.55-2.94,3.26-.52,7.09.24,10.44-.06.39-2.29-.2-1.96-1.96-2.48-4.22-1.26-9.61-1.55-14.03-1.52,3.12-4.32,9.78-.55,13.99-2.48l-2.5-2.56-11.49-.96c-.49-3.02.74-1.6,2.43-2.02,1.04-.26,9.94-.74,7.57-2.97l-13-2.02c1.42-4.52,10.05,1.26,10-3.98l-11-2.02,7.01-3.48-9-2.53c-1.07-3.86,5.24.25,6.99-2-1.56-3.88-5.51-3.04-8.99-2.99l3.99-2.98ZM472.99,155.99c2.42-2.23-11.29-7.42-12.99-6.99-1.03.87,2.87,4.17,3.22,4.3,2.99,1.17,6.77,1.19,9.77,2.69ZM501.99,167.02l-21.99-10.01c-.61,2.37,1.53,2.47,3.13,3.32,5.83,3.11,12.9,4.45,18.38,8.66l.48-1.97ZM437.99,167.99l.06-8.53c-7.82-2.02-12.29.03-12.05,8.54h11.99ZM410.83,160.17l-11.89.3-.51,8.55c1.22,1.72,10.93,1.31,12.89.06,2.57-1.64.91-8.04-.49-8.91ZM382.79,171.78c.39-.53,1.35-6.26,1.23-7.23-.73-5.96-10.51-2.69-13.57-.56-.91,4.64.1,10.45,5.92,9.98.96-.08,6.08-1.73,6.42-2.19ZM355.86,166.15c-4.46-2.8-6.67.55-10.69,2-1.59,10.04,4.02,6.62,10.84,6.85l-.15-8.85ZM680,183.02c-10.53-3.46-18.93-11-27.98-17.02l-2.01,7c1.74-.72,3.68-5.76,5.97-2.5l-5.98,8.49c.6.55,6.16-3.65,6.69-4.21.15-.16-.87-3.22,1.79-2.77s.47,2.27.1,3.07c-1.27,2.8-4.8,7.84-.62,10.47,3.14,1.98,5.55-4.08,9.02-3.55,1.42,1.38-6.68,6.44-2.47,7,1.58.21,5.92-3.27,8.2-3.78,2.62-.58,8.07,1.2,7.27-2.21ZM328.84,175.85c2.87-10.54-12.36-11.03-10.69-2.59,1.21,6.11,6.46,5.17,10.69,2.59ZM734.87,205.85l-3.42-.81c-5.49-6.52-12.12-11.87-17.96-18.03-7.08-7.48-11.42-18.67-24.33-17.89l-6.15,11.88,9.99-6.99-5.99,8.99,5.99-1.98-2,3.98,6.99-1.99-1.99,5.99,6.01,1.02c-3.37,5.95,2.85,6.1,6.51,9.97,1.66,1.75,10.31,13.03,10.5,14.52.71,5.54-5.61-2.62-6.05-2.97-5-3.94-9.06-3.44-14.97-2.52,3.38,5.18,7.38,9.29,13.99,6.99,1.2,2.84-1.82,2.93-1.98,3.67-.75,3.6.11,9.63-1.54,13.31-1,2.23-6.22,6.34-7.47,9.02l13.93,2.12.57,2.89,15.5-8-6.98,6.51c-.27,1.48,0,1.78,1.5,1.5.57-.11,6.02-3.29,7.7-4.1.76-.37.78-1.72,1.49-1.88,1.92-.43,4.28.18,6.29-.04-2.58-3.87-14-10.32-17.97-8.51-.99.45-11.73,12.88-14.03,7.01,4.14-1.45,5.7-5.82,8.48-8.52,3.04-2.95,2.87-2.04,5.82-5.77.51-.64,2.17-.76,3.16-2.24,2.58-3.88,1.63-10.67.55-14.97,2.71,2.47,5.38,5.17,6.9,8.6,1.07,2.42,2.75,10.78,4.33,12.17.21.19,5,1.96,5.28,1.94,3.13-.2,5.95-9.76,5.48-12.71-6.4,2.56-2.08-2.94-3.47-5.96-.33-.72-7.46-8.9-8.05-9.02l-2.6,2.84ZM436,381l-.44-203.05c-.84-1.21-1.89-.76-2.97-.88-8.55-.94-28.35,1.33-38.08,1.95-16.61,1.06-32.88,2.75-49.3,5.7-2.61.47-17.53,1.67-18.17,2.33-.07,11.13-2.68,22.52-.96,33.46l-.64,48.52c7.38,1.16,14.65,1.33,21.38,5.14,1.33,5.69-1.81,24.55,1.61,27.89,1.29,1.26,3.72,1.6,5.07,2.93,3.41-3.72-.11-24.79,1.62-25.86,4.87-1.73,23.46,5.46,24.66,9.58l.22,97.29c2.01-.44,1.69-1.86,1.87-3.36.49-4.1-.82-10.5-.72-15.07.2-10,.2-25.61,1.88-35.02.42-2.32,2.84-4.86,4.47-6.54,3.8-.31,1.09,6.59,1.49,6.99l8.01.52c-.61,5.12-7.42,1.77-8.02,5.98v45.51s3.95-.05,3.95-.05c3.18-9.35-2.94-34.22,1.98-41.27,1.87-2.68,3.76-1.64,4.13,1.77,1.09,10.02.18,25.48-.16,35.96-.03.96-1.12,2.4-.89,2.58h6c-.36-2.81-2.01-16.14,1.51-16.99,6.01,2.39,1.38,11.08,4.99,14.99.12-14.95,5.89-11.94,4.5,1,6.96-3.79,13.41-1.64,20.99-2ZM634,294c-.72.81-4.75,3.34-3.55,5.02,7.18,4.26,15.54,4.9,23.03,6.98,3.05-1.43-2.05-6.6,2.51-6l2.03,8.99,3.98-2.01-1.99-1.98h2.99s-.99,6.99-.99,6.99l3.97-2.99,2.01,3.47-2.98-.48c-.76,2.9,3.93,7.4,6.98,5,1.02,1.11-2.96,7.2,1,8-.81-2.99,2.25-5.1,4-2.45l-1.01,5.46-1.97.48,6,11.51c4.99-2.68-3.72-4.96.49-7.97,4.22,2.28,2.37,9.63,7.37,9.06l.12,7.92-2.98-.51,5.5,8.5.51-3,2.98,2.51-3,1.52c3.46,9.79-.35,15.25-3.98,23.97,5.26-1.65,5.7-5.73,7.51-9.99l1.49,5.99,3-5c1.17-.28,2.55.52,2.98,1.51.9,2.09-3.24,1.34-1.98,2.47.11.1,1.54.2,2.4,1.09,10.94,11.33,11.77,20.41,6.58,35.41,11.17,2.07,13.87-14.22,12.02-22.48,6.58.36,8.46,8.74,9.49,13.99,4.25-2.09,5.63-8.28,7.8-10.7,1.02-1.14,3.28-1.5,4.73-3.06.99-1.06,4.85-7.22,3.98-8.23-13.28-2.64-21.93-1.52-33.21-10.07-15.12-11.46-18.26-25.75-26.62-41.62-4.14-7.85-9.1-15.28-13.5-22.55-3.56-5.89-11.3-24.54-19.16-23.79l-.57,2.91-5.94.1c9.83-7.83,1.43-5.26-4.27-7.23-4.44-1.53-6.77-6.7-12.19.28-3.08,3.97-1.17,10.21-7.53,8.95.27-6.14,5.64-9.98,9.98-13.5l-1.99-2.06c-1.35-.81-5.34,2.02-6.05,3-1.38,1.91-.43,5.89-3.93,5.55-4.25-8.92,5.67-5.64,4.98-12.99-5.14-.32-6.24,5.95-10.5,7.98-3.55-2.65.27-3.26,1.04-5.04s-1.31-5.63,2.48-5.43l-.51,2.49h3.5c.46-2.92-1.63-4.02-1.72-4.26-.45-1.3,1.13-2.65-.79-3.74l-1.11,3.05-6.36-.55c.59-3.7,5.49-4.19,6.48-5.45.83-1.06-1.7-6.43,5.49-6.06,1.52,7.89,9.51,14.14,17.18,16.34,16.9,4.85,32.4,2.11,51.08,8.92,10.24,3.74,21.73,9.36,29.74,15.23,2.57,1.88,7.84,3.16,10.67,5.41,2.44-1.54,1.19-2.01,5.34-.89l-2.99,1.98,36.9,11.56,2.09,1.96-1.99.99c4.47,4.39,8.23,9.64,10.49,15.5,4.64-1.58,3.43-6.83,4.57-10.24.33-.99,1.8-.83,2.24-1.98,5.48-14.55-.24-23.23-.33-36.22-.07-9.88,1.36-20.64,2.03-30.54-4.7,5.08-6.96,11.34-15,12.01l1,3.98-4.11-1.46.12-3.54c-6.33,1.61-10.09-5.19-15.01-4.01l1.02-1.99c-4.83.94-10.93-.6-15.51.22-2.1.38-6.1,2.51-10.96,2.83-5.61.37-8.38-1.58-14.29,1.69-4.3,2.38-1.39,11-8.25,9.24,2.64-5.59,5.14-10.95,10-14.98-5.43-1.25-6.35,5.27-10.99,5.98-.69-2.95,2.36-1.9,3.5-4.02.24-.45,1.09-4.6-.95-3.93-5.14,1.7-9.34,6.52-12.06,10.95-2.73-3.5,9.13-11.43,7.5-12.99l-11.99,6.99c-2.11-1.96,11.02-7.61,10.99-9.99-9.65.39-13.47,6.29-18.99,12.99l.93-4.56,10.05-10.44c-10,4.77-16.23,9.99-28.13,8.41-.83-.11-8.41-1.72-8.83-1.91-.55-.24-8.35-7.97-8.57-8.53-.59-1.46.96-8.11-1.52-10.94-5.13-.73-4.98,4.87-9.95,3.95,1.97-4.79,6.88-4.22,9.99-7.5-4.03-3.51-6.73.78-11.01.51,1.83,4.69-3.33,8.75-.99,13.99l-8.99-5.5c.98-1.98,4.72-.39,4.93-.55.3-.24.35-2.34,1.05-3.24,2.05-2.65,2.09-3.99,3.43-5.7,1.8-2.28,3.57-3.37,6.58-3.01-.42-2.1-4.63-1.89-5.73-3.25-.81-1-.94-4.31-2.26-5.73,5.71.53,10.53,3.43,16.5,3.43,10.17,0,13.52-6.29,23.02,1.54,4.01,3.3,10.56,13.16,14.98,13.06,9.58-.22,6.9-10.66,4.57-16.61-1.32-3.37-4.86-5.2-5.57-6.46-.64-1.14.7-2.72-.44-3.46s-16.46-7.46-17.57-7.56c-2.26-.19-7.55.5-9.75,1.12-.93.26-.49,2-2.21,2.05-1.92.05-3.65-1.05-5.2-1.09-1.68-.05-4.83,2.68-6.34.97-1.36-1.54.88-2.19,1.95-2.49,3.98-1.11,8.02.22,11.34-.54.74-.17.79-1.62,1.47-1.89,1.62-.64,4.96-.31,5.23-2.06-5.58-.25-7.01-4.14-10.02-6.48-.93-.72-11.68-7.03-13.23-7.81-3.44-1.75-10.33-3.09-14.14-2.64-5.94.7-20.56,10.96-16.1,17.92l3.97-5.05,8.53-6.93c.76.76-7.54,9.9-8.25,11.25-.45.85-1.77,3.94.23,3.74l1.46-3.04,12.55-7.95c.89.79-2.58,3.94-3.08,4.39-1.11,1.02-2.59,1.07-3.63,1.9-2.07,1.67-3.73,6.23-8.29,5.71,1.95,2.58,5.68,3.32,8.46,5.06,1.45.91,4.1,1.84,3.54,3.93-7.58-.97-13.69-3.7-20.48-7.03-1.15-.57-2.26-1.34-2.51.55-.2,1.48,6.43,10.38,7.53,13.45.48,1.35,1.51,3.4-1.02,3.02-13.13-13.18-26.06-31.18-45.51-33.98,8.47,6.59,16.2,10.81,23.51,18.98,5.1,5.7,11.69,17.73,17.57,21.39,1.58.98,8.94,3.01,8.9,4.12-3.31,1.71-8.82,8.23-11.93,9.08-2.89.78-10.8-1.92-15.43-1.48-7.98.75-14.1,5.12-21.6,6.9-.06-3.55,2.65-3.33,4.98-1.98-.25-5.42,10.49-6.54,15.01-8.03l-15.28-8.22-4.02-.79-.69-2.98c7,3.3,16.3,7.11,23.99,6.5-1.89-2.07-4.76-2.53-6.99-4.04-12.3-8.34-17-9.1-31.26-12.71-1.21-.31-5.26-1.51-5.74-2.75,8.11-.96,18.19.14,26.22,2.26,5.62,1.48,11.38,5.6,16.77,5.23-3.32-4.12-7.89-8.6-12.08-11.92-3.45-2.74-9.06-3.06-8.93-8.58-7.27,11.1-20.45,8.98-31.99,11.01-.47,2.8.49,1.51,1.52,1.98,5.71,2.62,17.8,10.33,21.32,15.68,3.7,5.63,5.02,12.73,2.38,19.04-2.38,5.7-7.14,9.1-10.23,13.76-.67,1.01-3.71,5.84-2.97,6.52,3.72.18,6.76-2.79,9.5-4.98,2.81,5.71,12.77,2.37,18.04,5.94,7.1,4.81.87,17.29,1.47,18.04,5.23-4.42,19.31-16.25,26.32-13.85,3.47,1.19,4.63,9.32,5.88,12.14,1.75,3.96,9.47,13.11,13.31,14.7.45.19,1.64.26,1.48-.48-5.71-3.72,6.12-15.66,9.01-13.5-1.73,2.93-4.6,6.52-5,9.99,2.41-2.71,4.78-6.42,9-5.99.66.58-5.36,8.18-5.96,8.53-.99.57-1.95.55-3.03.46.06-.98-.12-2.02,0-2.99ZM691.37,193.79c-.29-.52.47-1.54-.32-2.26-4.73-4.3-19.09-7.63-21.03.97,1.66,2.32,4.48,1.4,6.97,1.51l-1.01,2.98,2.52,1.02c1.27-2.8,2.24-3.46,5.49-3l-3.99,3.01c-.73,3.91,6.89,3.92,7.99,1.48l-2.99-2.49,7.99-1.02c1.13-2.33-1.39-1.78-1.62-2.2ZM706,204.99c-4.45-7.1-10.37-7.75-16.99-2.97l.61,1.98c5.67,1.87,10.58,1.38,16.38.99ZM479,251v-37.5c0-.45-2.77-3.69-2.01-5.5-5.64.4-4.32,10.87-4.38,15.44-.1,8.23.75,16.66.52,24.93l5.87,2.63ZM668,228c-5.78-.26-9.59,2.04-8.8,8.23.58,4.53,6.04,9.41,10.47,10.38,2.02.44,6.62.54,8.65.18,2.61-.46,2.29-1.98,2.94-2.41.55-.36,4.9-.23,3.28-4.33-.2-.5-5.91-7.98-6.52-8.56-1.48-1.41-3.61-3.07-4.02,0-.47,3.54.04,7.75-1.07,11.46h-3.86s-1.07-14.94-1.07-14.94ZM757,253.99c-8.98-9.45-15.27-14.27-28-6.98l3.99,2.98c-2.18-.91-6.95.22-8.4,0-.73-.11-.48-4.26-3.58-.49,0,.75,12.56,6.27,13.52,6.46,6.86,1.3,15.16-3.86,22.46-1.96ZM538.99,249l-2.32,2.13-7.66,15.86,9.23-12.25.75-5.74ZM540.28,260.89l-7.93,17.81,1.6.71,7.93-17.81-1.6-.71ZM275,308.5v-24.5l-13.84,1.16-2.32,26.18c-.64,1.85-6.29,2.45-8.36,2.64-3.36.31-16.9.75-18.58-1.39-3.2-3.99,2.01-22.54-1.05-24.46l-16.89,1.34-.97,49.53c13.54-1.79,27.15-4.13,40.74-5.6,15.6-1.68,31.96-2.68,47.75-4.41,7.57-.83,15.44-3.38,23.05-1.22,2.91-.24.34-16.35.38-19.29s1.09-5.32,1.12-7.94c.07-6.52-.74-13.36-.04-19.53l-19.95,1.04-1.3,26.71c-1.32,1.09-25.48,2.78-27.74,1.72-.46-.21-1.92-1.65-2.01-1.98ZM691.98,287.02c-5.41.4.18,2.44.75,3.16.34.44.87,9.46,2.76,10.81l2.5-10.98c-2.17-.89-6.35-.04-6.01-2.99ZM485,320.5c-.26-6.48.19-13.03,0-19.5l-19.01,1v44.01c9.46-.31,19.03.42,28.5-.01,16.05-.73,32.01-3.94,48.02-4.98,3.82-.25,18.74.76,20.54-.46,2.14-1.45.02-4.95-.05-7.07-.46-13.9,2.2-27.68-.1-41.39-1.75-1.46-18.82-.36-21.16.9-4.05,2.18.04,21.45-2.23,26.02-1.9,3.83-21.06,4.34-21.56,2.33-.96-4.26,3.8-23.34.99-25.31l-14.31,1.12-1.39,1.31.28,25.58c-1.46,2.2-14.53,2.65-16.9,1.83-2.79-.97-1.58-3.92-1.64-5.37ZM592,320.99c-2.43-3.92,1.66-25.02-3.49-25.73-.57-.08-2.21.79-2.6,1.41-1.52,2.42.19,23.56,1.23,24.2l4.86.13ZM711,296.01h-4.99s1,10.99,1,10.99c3.01.48,1.61-.73,2.02-2.43.69-2.83.7-5.87,1.97-8.56ZM694.98,304.02l-1.97,1.46c2.75,5.08,8.36,12.72,10.19,17.84.55,1.54,1.13,1.21-.71,2.67l-13.47-16.53c-1.19-1.03-2.52-.76-2.01,1.01.62,2.19,6.95,9.22,8.79,12.22,2.68,4.38,4.89,9.61,7.31,14.18l9.89-2.89c-3.36-6.37-6.29-14.38-10.18-20.31-2.22-3.39-6.01-6.16-7.84-9.66ZM721.99,316.99l4.91-10.3c-1.49-3.29-4.81-2.82-7.9-2.7-.04,2.44-.15,4.84.24,7.27.13.81,1.63,5.44,2.75,5.73ZM614,328v-17.5c0-.55-3.19-4.97-5-3.51-.29,6.87-2.33,13.27.48,20.02l4.52.98ZM714,322.99c2.25-3.43-2.2-14.52-4.83-6.68,3.83,10.22,9.69,20.76,6.28,31.71,6.6,13.64,17.98,25.55,34.1,24.91,7.59-.3,8-2.35,8.45-9.94-2.39-.11-3.34,2.24-5.7,2.78-4.18.96-13.51-.91-16.35-4.27-.7-.82-.21-2.18-.91-3.03-2.23-2.7-5.54-5.65-7.42-8.61-6.02-9.47-5.73-19.72-9.63-29.88l-3.99,2.99ZM749.01,327c1.83,1.38,5.45-5.42,4.9-7.34-.6-2.1-4.93-2.95-6.91-2.65l2.01,9.99ZM346.99,336c1.1-5.32-4.71-7.02-8.99-6.99,1.06,4.24,5.95,4.62,8.99,6.99ZM351.01,334c-1.09,3.18,5.17,7.43,7.29,6.88l2.69-2.39c-2.4-2.89-6.26-4.32-9.98-4.5ZM300,348.98c2.64,1.05,13.86,1.29,14.87-1.62,3.17-9.1-11.79-9.21-13.65-4.64-.65,1.61-.54,4.41-1.23,6.26ZM573,342.99c1.71-.25,17.08,6.74,16.98,2.51-.08-3.31-20.95-7.84-16.98-2.51ZM274.1,352.89c6.86.99,12.91-3.22,9.99-10.42-9.14-1.7-13.49.96-9.99,10.42ZM710.99,342h-7.98c-.02,3.85-.79,8.17,2.49,10.98,1.61.02,5.94-10.46,5.49-10.98ZM245,356c14.23,2.66,18.02-14.58,1.93-11.57l-1.93,11.57ZM224.68,346.26c-1.15.03-4.28,1.12-4.59,2.32.92,3.98,1.9,7.82,6.67,8.22,9.36.79,3.69-10.68-2.07-10.54ZM619,356.01l-21-8.01c-3.41,3.16,17.65,9.73,19.58,9.93s1.45-.19,1.42-1.93ZM332.01,349.01c-2.15,3.98,5.29,7.56,5.99,4.48.74-3.25-3.5-4.73-5.99-4.48ZM535,361c1.05-8.3-1.28-12.38-9.86-8.86l.79,8.42,9.07.44ZM559,351l-9.07.44-.94,8.57,9.07-.44.94-8.57ZM499.99,363.01l10.58-.94c1.65-8.34-2.75-11.26-10.43-7.93l-.14,8.86ZM483.7,357.29c-4.15-5.16-12.12-.18-7.22,5.73,2.29,2.09,5.9.74,8.43-.11.34-1.85-.02-4.14-1.21-5.61ZM372.99,388.99c.22-3.64,2.65-33.08-.49-33.01-.66,8.73-1.04,17.75-.94,26.51.01,1.31-.08,6.21,1.43,6.5ZM225,555c-1.77,9.2-6.45,21.05-8.92,30.58-2.18,8.4-3.98,17-6.07,25.42l19.6-1.88,12.38.88c.41-5.87.35-12.73,1.01-18.49.2-1.7,1.15-10.53,2.49-10.49l2.5,3.5-1.52,23.57c1.05,1.98,22.01-3.16,24.5,2.41-.04,2.1-16.13,3.97-17.98,2.48l-.99-1.98-.55,3.07-42.42,2.48c-2.37,1.45-4.08,8.22-3.09,10.99,1.6.93,12.01.6,14.41.13,2.15-.43,7.57-3.87,10-3.71,1.29.09,5.17,6.09.4,8.31-5.74,2.67-9.32.42-14.27.67-3.98.2-7.79,1.16-11.79,1.06l-2.69,6.02,37.35-2.14c3.89-1.29-.02-7.9.72-10.21,1.23-3.86,14.36-.77,11.42,4.36l-5.4.09-.05,6.86,10.82-.09c1.88-2.73.03-12,4.66-11.66,1.83.13,2.64,6.48,3.39,8.43.55,1.45-.96,2.91,2.08,2.36.8-3.4.12-19.21,3.52-19.99l2.45,2.53,3.02,17.46,1.01-15h4v16h15v-4.01s2.01.5,2.01.5c-3.27-6.79.08-8.34,1-14.5h4.98s.03,3.02.03,3.02c1.8-1.36,3.35,0,4.49,0h17.5c-5.73-31.12-8.28-62.81-8.04-94.54.21-28.46,1.04-57.44,1.08-85.92.05-28.17-.16-56.42-.05-84.54-10.36,1.43-21.06.24-31.49,1-9.39.69-18.68,2.96-28.02,3.98-4.49.49-28.78.68-30.36,3.14-.52,4.41.23,8.94-.14,13.35-3.89,45.66-1.1,91.32-1.99,137.01-.24,12.37.41,24.98-2,37.5,4.13-2.87,7.26-.81,10.46-1.11,2.47-.23,14.32-3.14,14.51-.4.28,4-16.38,5.72-19.58,5.42-1.33-.12-7.14-2.02-5.39-3.92ZM559,370c-25.82-3.24-51.27,2.66-76.9,4.08-2,18.05-.72,36.29-1.06,54.46-.97,52.56,2.7,107.84-8.3,159.71-2.3,10.87-5.27,22.31-8.75,32.74,6.68,3.48,17.25-1.4,22.55-.58,2.57.4,4.18,5.83-.05,6.58-6.8,1.21-16.44.35-23.49,1.02.91,2.66-3.18,9.48.46,10,8.82,1.28,18.36.12,26.99,1.03l36.91-.17c5.23-1.81-1.62-17.6,5.11-19.87,2.68,5.4,4,12.82,4.52,19,11.24-1.86,22.81,1.67,33.99-.02l-6-34.99c-17.33,3.8-35.24.82-52.78,2.66l-1.2,1.1-.98,13.56-3.02,1.68-2.06-17c-3.03.25-29.02.65-28.94-2.5,1.15-1.32,2.76-2.33,4.54-2.45,7.54-.52,16.6,1.12,23.94,1.03,4.53-.06,8.93-3.16,12.98-.07,2.93-.47.62-11.5,1.96-14.08.5-.69,10.22-2.79,12.03-2.97,1.05-.11,5.58-.69,5.53,1.03-5.34-.11-8.21,3.23-12.93,3.08l-.06,12.94c4.86-1.29,9.16,1.44,13.49-2.04l1.99,2.03c2.46-6.13,23.36.15,24.51-.99l-2.01-16c-2.49-.05-2.81,2.87-3.01,2.99-.34.21-1.81-1.58-3.44-1.85-4.37-.74-11.01,3.34-14.54.34-.91-4.35,17.93-4.57,20.99-2.49l-3.45-27.49.46-169.01-1.46-2.24-21.87,2.78c-4.3-3.49,2.52-4.52,5.92-4.93,2.07-.25,14.73-1.11,15.43-.64.99.67.38,2.84,1.97,2.53v-14ZM412,417.5c-.74-2.65,0-12.32,0-16,0-.54-1.55-2.22-1-3.5h-20.5c-.2,0-3.5,1.8-3.5,2v19.5c0,3.43-18.78,5.52-21.04,4.03-3.45-2.27-.88-19.05-3.42-23.57-1.4-1.98-8.46-.19-11.02,0s-8.6-2.43-9.51,2.56l1.04,39.43c21.58.72,43.19-.54,64.5-3.99l5.95,1.04,56.39-4.11.67-18.96-11.49-1.01-.07-22.93-20.95,2.05-.98,24.48c-4.67.16-23.63,4.11-25.07-1.03ZM593.81,400.21c-.85-.49-1.9-.12-2.81-.22-.86,17.55-1.6,35.49.53,53.03,7.9,1.43,4.43-10.9,4.58-15.53.21-6.36,2.9-34.3-2.3-37.29ZM362.99,447h-3.98s1.48,4.04,1.48,4.04c1.3,3.83-6.65.59-8.01.51-2.8-.16-5.68.37-8.48.45l1.06,10.95,11.95.56v3.49c-2.83.56-11.85-1.47-12.87,1.64l-.13,10.36c2.19.16,4.04-.78,6.24-.73.89.02,4.42.38,3.78,2.24-.6,4.66-6.73,3.44-10.02,3.49,1.97,3.67-.64,7.67-.67,9.5-.02,1.51,2.26,2.9,2.33,4,.05.87-1.5,2.49-1.61,4.04-.3,4.13.11,8.32-.05,12.45,6.71.4,17.37-2.81,9.35,6.89l-8.2-.72-3.15,12.83,10.92-.07c1.01-1.56-.07-3.79.36-5.13,2.76-8.51,14.29-26.04,20.7-32.31,3.47-3.39,19.21-14.51,23.48-16.52,5.7-2.68,11.93-3.97,18.09-2.03,5.9,1.85,26.52,16.64,31.09,21.41,6.02,6.3,10.16,15.67,14.35,23.22l10-.57-.43-12.06c-1.46-2.1-9.02.35-9.56-2.45-.79-4.1,9.39-1.86,10-2.48l-1-29.01c-2.86-.58-13.02,1.83-13.02-2.49,0-5.01,11.65-.67,13.57-3.43l-.66-9.96-17.9.88c3.24-5.93,12.1-5.37,17.96-4.99l1.04-6.99c-7.25-.43-22.61-2.09-28.95,1.54-4.39,2.51.43,9.8-4.52,12.19l-2.57-1.4.09-10.67c-.39-1.6-15.82-1.81-18.55-1.74-4.79.12-11.04,1.66-15.99,1.87-2.28.1-12.25-2.22-13.52.91-1.21,2.97-.35,7.97.21,11.09,1.97,2.81,15.39-1.37,11.84,4.74l-35.59,1.52-3-.99-.44-3.05,21-1-1.11-11.9-17.89.88.99-4.99ZM638.99,466c.29-6.92-8.64-4.19-12.99-3.99.14,1.1,3.93,2.46,4.79,2.7,2.58.7,5.6.28,8.2,1.29ZM664.01,469.01c-5.18-.04-9.77-4.03-15-1.99l11.58,4.92,3.42.06v-2.99ZM693,478.01l-19-5c1.63,4.58,6.66,3.57,8.78,4.31.15.05.14,1.44,2.31,2.05,2.47.68,6.67,1.75,7.9-1.35ZM701,483.99c5.04,1.31,10.09,3.39,15.24,4.29,1.72.3,2.21,1.51,3.74-.77-.08-1.18-9.11-4.47-10.86-4.88-1.02-.24-11.18-1.67-8.12,1.37ZM422.36,494.34c.47-.65,2.28-.9,2.59-1.9.37-1.41.04-1.99-.95-2.94-1.86-1.76-13.81-6.56-16.41-6.45-3.4.14-21.98,9.78-22.55,12.55,1.32,2.85,7.8,10.73,10.41,10.45,2.89-.32,8.4-7.01,11.02-8.71l11.4,4.58c1.14-2.68,2.78-5.24,4.49-7.58ZM440.62,502.41c-1.53-1.47-10.98-9.24-12.13-9.16l-8.47,10.25c4.89,5.04,11.64,9.57,15.96,15.03,3.36,4.24,4.61,8.99,7.14,12.87,2.18,3.35,10.43-2.47,12.57-4.86-3.14-9.02-8.2-17.54-15.06-24.12ZM598.73,498.27c-2.75-2.19-13.67-.81-17.72-2.26-.75,2.14,3.58,3.28,4.83,3.66,1.85.55,13.64,2.83,14.16,2.33.11-1.06-.48-3.1-1.27-3.73ZM384.41,514.44c1.32-1.33,4.64-2.57,4.44-4.76l-8.35-11.67c-4.29,1.96-15.18,19.44-17.68,24.32-2.23,4.35-5.24,8.59-3.39,13.74l10.55,2.93c2.64-9.33,7.74-17.83,14.42-24.57ZM665,555.01c-.14-6.87,1.27-14.8,1.06-21.54-.12-3.87-.53-12.54-1.1-15.93-.2-1.18-.59-2.37-1.94-2.54-4.32,5.89-2.3,8.81-2.15,14.63.13,4.61-.66,22.46,1.05,24.78l3.08.6ZM682.24,556.75c5.7,6.21,3.32-9.05,3.33-10.25.06-6.96,1.64-18.6.41-24.97-.33-1.69-1.26-2.48-2.48-3.52-1.53,3-2.29,7.09-2.53,10.46-.35,5.03-.49,19.36.03,24.05.15,1.36.3,3.22,1.23,4.23ZM396,530.5c-1.16,5.51.85,14.54,0,20.5l-11.06-1.52c-4.94,5.43,3.91,6.14,8.29,6.27,8.22.25,16.42-1.73,24.34-2.67,4.21-.5,16.61,1.26,17.43-4.57.25-3.25-4.94.05-5.94-3.15-.57-1.8,1.02-4.01.93-5.86-.12-2.7-1.63-5.53-1.01-8.5-2.31-.13-1.78-.35-2,1.48-1.12,9.56,2.24,19.63-11.86,14.38-.87-9.04,2.16-18.45-2.64-26.85l-1.61,27.87-11.86.07c1.35-7.14,1.06-13.77-.03-20.94-1.11.18-2.82,2.71-2.99,3.5ZM598,559v-34.5c0-1.88-5-1.88-5,0v31c0,1.49,3.07,4.47,5,3.5ZM471,525c-1.87.08-6.24-.76-6.92,1.63-.5,1.76,2.75,14.27,6.45,9.4l.48-11.03ZM446.01,611c3.88-3.38,6.82-.68,11.05-1.42,3.11-5.6,1.39-12.08,1.95-18.07.7-7.41,2.67-15.64,2.94-23.04.16-4.44-2.52-35.03-3.96-36.47-2.99,2.23-8.85.51-11.09,3.41-2.94,3.81,1.61,18.14.1,23.59,3.93-.16,9.17-2.85,11.01,2.49l-9.92,1.6-2.08,47.91ZM350.99,538c-2.89,1.81-5.02.63-7.99,0l.91,2.56-1.91,1.92,7.98,3.52,1-8ZM368.87,542.13l-10.39-4.1c-1.06.69-1.24,1.32-1.46,2.5-2.6,13.59-2.55,32.99-2.07,47.01.13,3.86.92,8.48,1.06,12.45l1.52-3.06c3.26.67,11.64-1.24,8.83,4.06h-10.35c-.64,11.18.37,21.96,1,33,4.89-1.89,6.17-1.75,10.99,0l.88-91.86ZM426,633c1.92-.36,1.72-2.1,2.08-3.52,3.16-12.58,3.28-50.46,1.91-63.97-.25-2.46-.67-7.83-3.99-7.51v75ZM395,561v69.5c0,.91,3.83,3.36,5,2.49-.76-1.51-1.03-2.77-1.08-4.49-.61-19.72,2.84-40.37,1.14-60.05-.26-3.06-1.1-8.55-5.05-7.45ZM644,636.99l-19.99-75.99c2.36,25.82,10.5,50.69,16.13,75.85l3.86.13ZM413.99,563c-2.66-.22-1.64-.08-1.95,1.52-.77,3.98,0,6.69-.19,9.89-.59,9.9-2.61,44.89.42,51.82.51,1.16,1.42,2.48,2.72,2.77-.93-22.02,3.19-44.2-1-66ZM719.24,590.83c-.58-.81-1.56-15.62-3-19.57-.17-.46-1.65-3.11-2.25-1.75l2.36,15.8c3.04,5.53,9.07,45.59,11.62,47.22,1.22.78,2.71.42,4.03.46-2.07-7.05-4.48-14.02-6.34-21.15-2.2-8.44-1.35-13.91-6.42-21.01ZM610,596.01c-5.03-.16-9.02-5.1-13.99-1.51-.49,1.22,10,2.74,11.21,2.85,1.45.13,2.18.86,2.78-1.34ZM701,605.01l-21-3c.37,1.66,2.52,2.22,3.94,2.55,2.31.52,11.86,2.37,13.69,2.41,1.57.04,2.96-.2,3.37-1.96ZM581,609.99l-.5-1.99c-2.27,1.52-.98,2.81-.49,4.99l1.51-2.04,9.48,2.04-1.7-4.01-5.88-.89c-.76,1.6.01,2.36-2.41,1.9ZM622,612.01c-3.77-.64-7.64-1.53-11.52-1.01-1.36.18-3.11.67-1.48,1.99,3.99-.15,10.28,3.34,13-.98ZM457,614.01l-9,1.01c4.68,4.85,1.45,11.38,0,16.98,3.63.14,3.57-4.43,4.79-6.7,1.94-3.62,4.95-6.12,4.21-11.29ZM615,630.01c-3.66-.96-7.06-2.62-10.99-2.01-.37,2.21.92,2.38,2.55,2.94.91.31,11.68,2.29,8.44-.93ZM326.93,631.07c-8.54-1.98-17.26.2-25.95.45l1.03,5.49,24.99-2.01-.07-3.93Z"/>
  <path d="M199.99,798l-27.04,19.51c-35.64-8.11-59.22-35.7-57.99-73.05,1.09-33.01,28.03-68.88,61.8-73.2,16.57-2.12,24.42,6.99,39.66,5.66,3.67-.32,7.25-4.15,10.5.74.47,1.63-1.02,3.59-1.74,5.02-2.25,4.45-21.89,32.26-24.89,33.15-2.24.66-5.42.06-6.14-2.54-1.21-4.41,5.45-6.68,1.9-12.84-4.46-7.75-18.21-10.87-26.42-10.31-7.21.49-13.73.93-17.82,7.17-15.09,23.04-13.54,63.14,6.15,83.24,2.34,2.39,17.08,12.66,19.77,13.22,7.53,1.57,18.88-6.52,19.35-14.28.22-3.58-.56-14.31-1.19-17.87-3.02-17.13-15.6-5.43-23.36-6.57-2.98-.44-4.18-4.43-3.02-7,.57-1.26,10.84-14.79,12.07-15.97,4.2-4.03,9.96-.34,14.95-.09,4.95.24,32.73-.9,34.06.95,3.35,4.64-7.54,8.82-8.49,15.66-2.48,17.96,1.03,38.74-1.07,55.93-.97,7.91-13.08,19.79-20.47,22.46-3.5-1.02.35-16.01.49-19.45.13-3.3,0-6.4-1.05-9.54Z"/>
  <path d="M890.9,682.09c2.21,3.19-7.24,9.04-9.42,11.88-4.77,6.21-5.79,12.9-6.46,20.54-1.54,17.39-1.54,44.95.89,61.99.66,4.65,4.12,12.7,2.15,16.05-1.83,3.12-12.48,11.18-16.01,12.04l-1.56-.5-52.47-84.1-1.09,36.48c1.49,11.83.73,22.04,11.14,29.95,1.64,1.25,5.69,2.3,6.45,3.55,1.26,2.07.6,8.21-1.52,9.5-3.37,2.05-24.29,0-29.66-.1-3.94-.07-14.76,3.12-15.35-2.92-.54-5.52,7.05-6.77,10.04-10.23,9.53-11.03,6.67-51.37,6.94-66.78.07-3.94,1.42-7.44,1.08-12-.43-5.7-3.65-12.36-8.68-15.31-3.79-2.22-14.55-2.63-8.93-9.23,3.65-4.28,14.05-.86,19.06-.83,3.66.02,15.23-2.27,17.28.16.64.75.96,4.15,1.73,5.76,10.34,21.57,29,51.34,42.67,71.33.48.7,2.34,3.16,2.82,2.66.39-3.61,1.74-6.88,2.06-10.53.8-9.24.6-24.62,0-34.01-.29-4.58-1.79-16.37-4.02-19.98-3.06-4.97-13.99-4.42-12.81-10.73,1.9-10.23,24.31-6.07,31.29-5.66,4.2.25,7.78-2.04,12.4,1Z"/>
  <path d="M397.66,730.66c-2.38,2.19-12.72,6.55-12.53,8.66,8.37,11.25,14.48,29.42,23.45,39.61,7.37,8.37,15.82,5.78,1.95,18.1-3.21,2.85-12.66,10.4-16.51,6.46l-28.52-56.6c-2.17-.3-7.13,2.33-8,4.11-2.68,5.46-.99,26.93,1.72,32.28,2.68,5.3,18.32,10.18,6.77,15.22-4.43,1.93-29.38,1.26-35.55.56-9.11-1.04,2.68-11.2,3.9-15.21,3.3-10.85,1.8-35.15,1.7-47.31-.07-9.92,2.02-32.11-3.61-39.48-3.43-4.49-9.74-3.44-12.06-9.04-.59-1.14-.15-1.67.52-2.56,4-5.28,23.01-1.2,29.53-1.44,16.39-.6,27.61-7.33,44.27,1.77,17.46,9.54,16.55,32.33,2.95,44.86ZM357.01,737c5.59-.64,12.65-1.98,17.33-5.17,11.83-8.05,12.24-32.91-2.36-38.3-4.26-1.57-11.71-3.21-13.53,2.41-1.93,5.95-.12,23.96-.4,31.6-.11,3.16-1.58,6.21-1.04,9.46Z"/>
  <path d="M452.34,699.34c-7.88,7.92-10.66,29.36-10.39,40.21.38,15.38,8.09,32.58,22.15,39.93,11.06,5.78,17.8-7.52,17.93-17.03.02-1.65-.88-10.5-1.23-11.76-1.98-6.99-15.83,2.09-20.38-1.62-2.27-3.12,7.53-14.51,10.28-17.08,7.37-.01,15.62,2.15,22.8,2.09,2.94-.02,12.14-3.17,13.39.55,1.42,4.23-2.67,5.61-3.66,9.09-1.78,6.22-1.23,28.89-.17,35.72.59,3.8,3.97,4.56,3.84,7.86-.23.88-8.29,8.57-9.69,9.69-17.02,13.65-9.5.66-15.22-11.99-1.05-.78-14.71,16.18-19.71,16.79-8.55,1.04-24.71-9.96-30.25-16.32-23.95-27.54-15.49-71.09,12.05-92.89,9.48-7.5,18.46-15,31.19-12.35,4.04.84,9.42,4.53,13.3,4.7,3.26.15,8.29-1.78,11.8-1.85,5.21,1.47-4.36,16.65-5.86,19.93-1.65,3.61-3.04,15.32-9.54,13.58-4.23-1.13-2.17-5.52-4.53-8.54-2-2.57-15.97-10.26-19.22-10.86-2.39-.44-7.11.36-8.89,2.14Z"/>
  <path d="M728.75,679.21c3.52-.57,12.97.96,16.52,2.02,40.13,12,40.45,74.99,14.22,100.77-3.57,3.51-22.08,19.64-25.46,20.53-18.17,4.79-40.74-17.54-46.51-33.55-6.32-17.54-3.05-50.72,7.65-66.31,3.36-4.9,28.11-22.57,33.58-23.46ZM747.73,778.73c1.51-1.52,5.78-13.18,6.55-15.95,6.94-24.78.89-60.77-29.22-65.32-7.4-1.12-8.83.39-12.23,6.87-10.32,19.69-10.08,50.03,5.2,67.14,5.88,6.59,22.31,14.72,29.7,7.26Z"/>
  <path d="M292.5,683c5.11,5.26-2.12,11.09-1.49,17.41.21,2.09,2.28,5.43,2.91,8.17,4.74,20.49,9.38,43.71,15.36,63.64,2.95,9.82,6.24,13.43,13.51,20.42-1.61,10.4-8.63,6.46-15.25,6.33-9.45-.18-18.95.35-28.39-.1-4.58-7.68,5.13-8.81,6.61-14.6,1.01-3.98.28-18.94-3.18-21.34-3.52-2.45-22.96-2.66-26.57-.41-3.28,6.09-7.78,16.78-2.88,22.86,3.37,4.18,10.44,2.06,9.82,10.04-.54,6.98-11.24,3.6-16.4,3.56-3.81-.03-19.83,1.38-21.39-1.13-1.39-5.17,4.14-8.41,6.66-12.52,12.69-20.73,16.74-56.91,25.94-80.09,1.36-13.01-12.2-9.81-14.12-14.48-1.52-3.69,1.78-7.74,4.86-7.74h44ZM269.99,710c-2.56-.4-1.55.23-2.09,1.41-2.24,4.94-4.93,15.22-6.23,20.77-.64,2.75-4.26,16.07-1.01,16.86,2.88-.23,17.36.11,18.26-2.67l-8.93-36.36Z"/>
  <path d="M562.01,750c1.42-.12,1.57-1.47,2.03-2.46,3.65-7.91,13.72-37.32,13.99-45.09.35-9.89-6.67-9.69-8.54-13.44-5.4-10.82,19.54-6.19,24.91-6.1,1.6.03,7.07-1.99,8.47.22,2.18,3.44-3.3,8.01-4.69,10.55-12.43,22.68-17.51,49.6-30.01,72.99-2.35,4.4-8.11,8.94-5.65,14.32,3.23,7.05,20.45,3.31,21.43,6.62,1.43,4.83-11.62,14.01-16.47,14.44-4.85.44-13.95-1.99-19.09-1.95-2.92.02-20.7,3.95-21.39.37,4.79-12.53,21.45-15.78,19.89-31.85-1.12-11.54-15.2-38.62-20.38-50.63-3.01-6.96-5.07-17.28-9.98-23.02-2.39-2.79-10.47-6.03-9.47-9.34,4.65-6.07,12.08-2.5,18.44-2.62,11.73-.22,25.89-6.47,17.9,11.98,3.4,18.89,12.9,36.62,18.61,55.01Z"/>
  <path d="M301.69,918.7c-3.11,3.77-16.85,11.33-21.25,8.38-6.9-4.64-14.71-32.17-20.6-40.42-1.74-2.44-4.14-3.9-6.6-1.41-1.87,1.89-1.55,17.64-1.13,21.14.85,7.2,4.1,10.57,10.42,13.58l.02,4.08c-5.75,3.95-13.19,1.05-19.05,1.15-3.46.06-17.21,2-19.36.67-3.51-6.56,5.44-8.01,7.73-12.49,1.05-2.06,1.79-6.61,1.99-9,1.12-13.29,1.29-36.76.17-49.91-.22-2.59-.85-6.66-2.16-8.84-2.64-4.4-11.73-4.63-11.49-8.12.48-6.89,15.3-3.8,19.73-4.1,15.33-1.07,31.36-7,45.57,2.41,13.77,9.13,11.31,28.32-.79,37.6-3.26,2.5-7.05,3.15-9.67,6.08,8.14,11.66,13.53,28.69,27.33,34.48.97,1.38.07,3.58-.89,4.74ZM253.01,876c14.5-.71,26.92-10.66,20.73-26.23-2.48-6.24-13.54-12.41-19.33-7.85-2.42,1.9-1.33,13.73-1.41,17.58-.03,1.69-1.03,3.42-1.03,5.06,0,3.59,1.86,7.54,1.04,11.45Z"/>
  <path d="M584.94,885.04c-1.9-.07-6.22.76-6.81,2.6-.78,2.41-1.3,12.95-1.17,15.91.33,7.28,1.69,15.09,9.9,16.57.45,10.07-13.99,5.89-20.32,5.84-6.54-.05-12.21,1.53-18.5,0-1.7-6.76,4.46-5.74,7.41-10,1.51-2.18,2.59-6.26,3.1-8.9,1.72-8.95.52-22.28.4-31.52-.18-13.71,5.2-33.12-12.51-36.48-.84-1.22-.82-3.69.51-4.61,1.92-1.32,19.27-.1,23.53-.47,4.89-.43,10.15-2.55,15.03-2.97,39.29-3.33,48.33,32.5,14.51,48.55-.45,1.99,14.48,24.12,17,26.91,2.72,3,10.3,7.16,10.02,9.98-.38,3.77-16.29,14.14-21.07,11.06l-21.04-42.48ZM578,846.5c-1.31,8.56.97,20.08,0,29,0,2.06,6.78.65,8.24.23,19.56-5.61,17.9-34.94-2.11-35.19-4.17-.05-5.51,1.91-6.13,5.95Z"/>
  <path d="M633.16,839.85c-1.46-2.35.52-6.51,3.56-6.63,18.94.25,38.15-3.86,56.26,3.29,30.02,11.86,30.33,53.67,9.57,74.53-18.35,18.44-35.45,14.99-59.06,14.88-2.21-.01-17.97,2.67-12.56-4.49,3.19-4.22,9.84-2,11.83-12.17,2.14-10.94,2.72-46.42.8-57.25-.39-2.21-1.26-5.75-2.54-7.55-1.91-2.69-7.61-4.21-7.87-4.62ZM665.75,841.17c-1.08.2-2.5.92-3.17,1.8-1.69,4.98.4,9.91.46,14.48.12,8.63-1.55,52.43,1.93,56.07,4.25,4.45,16.88-.44,20.97-4.09,11.23-10.04,12.12-39.63,5.27-52.14-4.03-7.36-16.57-17.75-25.45-16.12Z"/>
  <path d="M606.15,799.85c-2.21-6.97,3.92-9.52,6.7-14.51,3.07-5.51,3.56-11.79,3.78-18.01.61-16.82.93-43.4-.64-59.82-.28-2.88-.96-8.61-1.91-11.09-1.91-4.96-8.31-4.87-7.13-10.76.27-1.11,5.15-2.54,6.53-2.69,7.61-.81,15.58-.1,23.02-.17,3.57-.04,16.54-3.59,14.1,4.23-1.49,4.77-10.37,6.01-11.63,16.45-1.79,14.89-.05,32.07.07,46.99.08,10.3-.27,20.61.1,30.9.85,2.61,11.41,1.95,13.91,1.19,3.49-1.06,7.15-7.91,8.83-11.17,1.95-3.8,6.1-18.38,8.82-19.22,3.29-1.01,5.65.63,6.78,3.71-.53,7.34-1.18,15.32-.52,22.67.47,5.19,4.92,16.44.61,19.53-2.86,2.05-38.2.69-45.11.88-4.03.11-24.92,3.11-26.31.89Z"/>
  <path d="M498.47,830.57c35.75-5.13,49.57,39.21,37.71,67.11-4.6,10.83-18.81,24.54-29.23,29.77-12.54,6.29-32.18-4.64-40.46-14.44-23.69-28.04-3.1-77.41,31.98-82.44ZM487.71,845.21c-8.96,2.04-12.19,27.01-11.2,34.8,1.97,15.42,14.97,38.27,33.55,32.53,12.47-3.85,12.98-36.39,9.67-46.78-3.86-12.08-19.06-23.51-32.01-20.56Z"/>
  <path d="M745.31,849.29c-1.25,1.56-1.69,4.09-1.14,5.99,2.03,7.1,22.21,11.77,28.51,14.54,36.16,15.93,7.49,61.41-24.07,58.07-4.55-.48-12.39-3.99-16.12-3.94-2.7.03-12.62,5.49-11.29-3.21.44-2.89,12.89-27.13,14.46-27.64,5.38-1.76,6.47,7.05,8.5,10.24,5.35,8.37,19.36,14.36,26.27,4.59,12.24-17.3-22.51-21.09-32.36-28.5-20.19-15.2-.51-52.78,23.33-50.32,4.55.47,11.28,3.93,15.1,3.92,3.66-.01,6.54-3.47,10.44-.47,4.7,3.62-1.81,9.61-3.44,13.44-1.9,4.5-2.12,11.26-6.46,13.6-1.61.38-8.87-9.74-11.53-11.61-5.8-4.07-15.51-4.57-20.2,1.3Z"/>
  <path d="M336,844v24.5c0,3.08.14,4.32,3.5,4.59,1.67.14,10.88-1.19,12.28-1.82,2.07-.95,10.23-13.89,11.28-1.82.31,3.58-.55,17.32-1.12,20.98-.53,3.46-3.11,6.48-6.53,3.66-2.32-1.91-.58-6.66-5.68-9.31-4.64-2.41-8.83-.52-13.72-.79v27.5c0,.42,1.14,3.17,1.71,3.52,7.48,2.54,17.59-.38,23.23-5.58,3.56-3.28,7.89-15.07,13.11-6.91-2.22,5.52-.18,22.61-6.78,24.33-2.03.53-5.1-1.04-7.77-.94-14.61.55-32.39,1.63-47.02,1.16-1.67-.05-4.57-.26-5.55-1.75-3.53-5.33,3.22-6.06,5.59-8.29s4-10.16,4.35-13.65c1.18-11.84,1.26-38.08.16-49.92-.93-10-6.39-8.68-11.96-15.1-.3-1.74,3.45-4.73,5.37-4.41,18.91,1.31,37.88,1.75,56.59-1.52,6.39,1.66.98,18.55,1.76,23.87-5.54,7.99-11.04-5.27-14.76-8.84-5.68-5.45-10.8-3.03-18.04-3.46Z"/>
  <path d="M395.4,918.56c-18.02-15.12-16.9-50.75-4.24-68.89,3.34-4.78,20.13-17.04,25.77-18.22,8.98-1.88,11.95,2.18,18.7,2.5,3.76.18,15.87-4.7,14.19,3.32-.43,2.04-5.69,13.87-6.95,16.12-1.11,1.98-5.89,9.53-8.39,5.63-.77-1.19-.27-3.53-1.43-5.57-3.15-5.54-17.75-11.12-23-6.89-2.15,1.73-5.42,8.83-6.33,11.66-8.11,25.19,3.18,62.31,35.66,48.66,3.57-1.5,7.83-6.81,11.55-2.26.36,1.22.09,2.25-.43,3.37-.48,1.03-13.27,13.63-15.02,14.99-12.02,9.34-29.2,4.71-40.07-4.41Z"/>
  <path class="st0" d="M225,555c2.41-12.52,1.76-25.12,2-37.5.89-45.69-1.91-91.36,1.99-137.01.38-4.42-.38-8.95.14-13.35,1.58-2.46,25.87-2.65,30.36-3.14,9.34-1.02,18.63-3.29,28.02-3.98,10.43-.77,21.12.43,31.49-1-.11,28.12.09,56.37.05,84.54-.05,28.48-.88,57.46-1.08,85.92-.23,31.74,2.31,63.42,8.04,94.54h-17.5c-1.14,0-2.68-1.35-4.49,0l-.03-3.01h-4.98c-.92,6.15-4.26,7.7-1,14.49l-2-.5v4.01h-15.01v-16h-4s-1.01,15-1.01,15l-3.02-17.46-2.45-2.53c-3.39.78-2.72,16.6-3.52,19.99-3.04.55-1.53-.91-2.08-2.36-.75-1.95-1.57-8.3-3.39-8.43-4.63-.33-2.78,8.93-4.66,11.66l-10.82.09.05-6.86,5.4-.09c2.94-5.13-10.19-8.22-11.42-4.36-.74,2.32,3.17,8.93-.72,10.21l-37.35,2.14,2.69-6.02c4,.1,7.82-.86,11.79-1.06,4.94-.24,8.52,2,14.27-.67,4.77-2.22.89-8.22-.4-8.31-2.43-.16-7.85,3.28-10,3.71-2.4.48-12.81.8-14.41-.13-.99-2.77.72-9.54,3.09-10.99l42.42-2.48.55-3.07.99,1.98c1.85,1.49,17.95-.38,17.98-2.48-2.49-5.57-23.45-.43-24.5-2.41l1.52-23.57-2.5-3.5c-1.34-.05-2.3,8.78-2.49,10.49-.67,5.76-.6,12.62-1.01,18.49l-12.38-.88-19.6,1.88c2.09-8.42,3.89-17.02,6.07-25.42,2.47-9.53,7.15-21.37,8.92-30.58-1.75,1.9,4.07,3.8,5.39,3.92,3.2.29,19.86-1.43,19.58-5.42-.19-2.75-12.04.16-14.51.4-3.21.3-6.34-1.76-10.46,1.11ZM313.54,366.41c-2.32-.35-18.86,2.02-21.79,2.85-1.31.37-4.15,1.38-3.75,3.23.92,1.45,1.95,1.38,3.44,1.56,3.62.42,19.39-1.13,22.86-2.23,3.06-.97,1.49-5.06-.77-5.4ZM253.01,376c-2.34-.08-18.66-.62-18,3.48l14.42.41,2.99-.81.59-3.08ZM246,393c2.75,2.79,15.78-8.66.05-4.95l-.05,4.95ZM263.07,444.93c2.88.54,18.09-.14,18.6-3.37-3.83-14.46,3.55-33.28-3.63-47.1-5.44-10.47-14.77-2.85-14.39,6.7l-.59,43.78ZM302.99,396c-2.43-.31-1.59,0-2.1,1.39-1.29,3.46-2.57,13.68,3.12,11.1l-1.02-12.49ZM249.99,403.01c-3.21.39-7.52-1.29-9.97,1.49,2.61,3.91,9.54,3.67,9.97-1.49ZM306,427.99l-1.7-2.82c-17.42-1.4-12.85,8.81,1.7,2.82ZM249.82,432.86l1.98-3.37c-4.06-5.58-11.95-.22-17.8-1.48-1.61,8.44,10.64,2.75,15.82,4.86ZM294.99,454c2.49.43,17.7-.78,17-4.48-.66-3.51-14.56,1.29-16.99,1.5v2.98ZM252.86,456.14c-2.59-.51-16.84,2-16.84,4.36,0,4.01,14.95.22,17.98-.51l-1.14-3.85ZM305.95,462.01l-12.02,1.43-.94,4.56c4.46.03,15.82.46,12.96-5.98ZM276,470.01c-4.91.71-17.89-3.76-17.99,3.99,1.6.29,21.83-.8,17.99-3.99ZM234.01,474.97c16.19,3.51,22.71-7.11.57-3.05l-.57,3.05ZM304.08,492.92c4.26,2.97,7.11-5.81,3.4-6.91s-5.21,5.65-3.4,6.91ZM247.99,488.01c-.75-.99-4.74,3.36-4.84,3.64-1.03,2.86,1.14,6.4.86,9.36l3.05-.45.79-1.21.15-11.34ZM276.77,537.77c.9-1.25,1.07-2.76,1.23-4.25.8-7.51,1.06-25.01.54-32.56-.83-12.09-11.2-14.52-12.54-2.46-1.38,12.38.94,26.41,0,38.99l.95,2.09,9.82-1.81ZM291,510.01l.47,3.02,1.93.92c2.13-1.58,18.77.23,17.6-4.44-1.14-4.52-16.12,1.31-20,.5ZM244,515.99c2.31-4.95-8.2-4.43-8.99-2.48-1.78,4.37,6.96,1.9,8.99,2.48ZM254.88,524.87c4.51-17.39-5.43-16.43-3.88.13l3.88-.13ZM306,526.99l-3.36-.04c-1.08.25-4.06,12.93-1.01,13.92l3.37.13,1-14.01ZM255,539c2.54-8.67-8.9-1.24-14.01-3v3h14.01ZM292,553.98c.87,1.2,13.33.38,15.5.01,1.33-.22,2.82-.96,2.5-2.48-.52-2.45-18-2.82-18,2.47ZM275.99,553.01c-1.59.14-13.02-2.11-12.97.49.02,1.11,2.96,2.51,4.43,2.55,1.61.05,7.58-1.23,8.54-3.04ZM269,575h21.5c3.11,3.6.79,9.84,1.56,14.42l-6.06,1.59c-.24,1.32.13,2.21,1.51,2.61.95.28,17.85-.45,19.89-.73,3.77-.51,6.82-2.74,10.61-2.37l.5-2.53c-1.48-2.11-10.97.77-14.02.99-2.82.2-5.68-.09-8.49.02l-1.03-12.51,1.68-2.35,19.76-2.04.59-4.1c-1.03-1.09-19.39,2.74-22.57,3.02-7.15.65-15.27-.39-22.92.99-1.75.32-2.8,1.04-2.52,2.98ZM260.5,570h-20c-.36,0-1.53,1.28-2.49,1.01l.44,3.04c3.56.61,10.27,1.46,14.05,1.4s12.44-.69,8.01-5.45ZM235.99,587.01l-9.99,2.49c2.76,3.11,6.44,1.49,9.98,1.48v-3.97ZM252.01,591.99c6.35-.03,13.17,1.09,19.49,0,3.35-.58,4.05-4.49-.25-4.35-4.71.15-12.46.99-16.94,2.22-1.71.47-2.78-.72-2.31,2.13ZM316,604.01c-2.59-.19-2.89,2.47-5.51,2.97-4.83.92-16.37.17-21.82.4-7.66.33-13.49,3.24-2.71,5.66.92,4.12-1.62,11.48.53,14.98.95,1.55,1.96.58,2.34-.7,1.04-3.51.27-11.54,3.23-13.77,3.06-2.31,18.92-2.4,23.4-1.61,3.57-2.27-1.76-4.73.55-7.94Z"/>
  <path class="st0" d="M559,370v14c-1.59.31-.98-1.86-1.97-2.53-.69-.47-13.35.39-15.43.64-3.4.41-10.22,1.44-5.92,4.93l21.87-2.78,1.46,2.24-.46,169.01,3.45,27.49c-3.06-2.08-21.9-1.86-20.99,2.49,3.52,2.99,10.17-1.08,14.54-.34,1.62.27,3.1,2.06,3.44,1.85.2-.12.52-3.04,3.01-2.99l2.01,16c-1.15,1.14-22.05-5.14-24.51.99l-1.99-2.03c-4.33,3.49-8.63.75-13.49,2.04l.06-12.94c4.71.14,7.58-3.2,12.93-3.08.05-1.72-4.48-1.14-5.53-1.03-1.8.18-11.52,2.28-12.03,2.97-1.34,2.57.97,13.61-1.96,14.08-4.05-3.09-8.44.02-12.98.07-7.34.09-16.4-1.55-23.94-1.03-1.78.12-3.39,1.13-4.54,2.45-.08,3.15,25.91,2.75,28.94,2.5l2.06,17,3.02-1.68.98-13.56,1.2-1.1c17.54-1.84,35.45,1.14,52.78-2.66l6,34.99c-11.18,1.68-22.75-1.84-33.99.02-.52-6.18-1.84-13.6-4.52-19-6.73,2.27.12,18.06-5.11,19.87l-36.91.17c-8.64-.91-18.18.24-26.99-1.03-3.63-.53.46-7.34-.46-10,7.05-.67,16.69.19,23.49-1.02,4.23-.75,2.62-6.18.05-6.58-5.3-.82-15.87,4.06-22.55.58,3.48-10.44,6.44-21.88,8.75-32.74,11-51.86,7.32-107.15,8.3-159.71.34-18.16-.94-36.4,1.06-54.46,25.63-1.42,51.08-7.32,76.9-4.08ZM499,385.01c-12.15-2.78-16.84,8.97-1.16,4.84l1.16-4.84ZM523,386.01l-6.34-.9-1.21.84-.45,3.05c3.57-.09,7.6,2.23,8-2.99ZM528.93,450.93c-3.11-12.87,1.62-29-.02-41.35-2.17-16.33-13.9-16.37-17.35-.74,2.35,12.12-1.71,29.14.47,40.62,1.3,6.85,12.22,1.83,16.9,1.46ZM552,411.01c-4.05-1.63-8.08-.98-10.98,2.49,2.27,2.67,6.28,1.2,9.31,1.54l1.68-4.03ZM499.89,416.09l-8.22-.13c-6.44,7.76,9.25,4.31,9.31,2.54l-1.08-2.41ZM540,432.99c4.21-.34,9.2,1.54,11.98-2.5.04-2.12-8.58-1.64-10.32-1.34l-1.21.79-.44,3.05ZM485,441.98c.46.73,16.78,2.91,14.99-2.48-.72-2.3-13.42-2.1-14.55-.56l-.44,3.04ZM538.99,458c1.19-1.12,1.41-7.57-.48-8.99-3.34,1.18-2.37,11.65.48,8.99ZM497.73,462.25c-2.12-.03-5.5,1.32-8.08.91-7.08,7.21,12.64,6.84,11.21,1.5-.34-1.26-1.72-2.39-3.13-2.41ZM554,467.99c.27-1.37-.37-2.42-1.68-2.84-2.37-.76-23.83,3.22-27.33,4.38-1.72.57-2.39.05-1.99,2.45l30.99-4ZM553.99,479.01c-1.99-.68-9.63-1.75-7.98,2.48,1.18,3.02,9.63-.27,7.98-2.48ZM540.89,480.09c-12.4.52-26.1-.03-38.38.93-2.59.2-15.56,2.1-15.5,4.48.11,4.29,11.26-.11,13.49-.04,5.29.17,11.67,1.32,17.61.94,7.4-.47,14.77-2.5,22.25-2.53l.52-3.78ZM502.84,497.15c-3.58-2.21-5.03,2.79-8.17,1.86-3.47,5.18,8.43,4.79,9.2,1.37-.08-.77-.66-3-1.03-3.23ZM537.01,503.98c2.42,2.55,17,.86,16.97-1.48-2.35-3.84-4.43-1.32-7.48-1.4-3.59-.1-8.78-2.58-9.49,2.89ZM520.74,506.27c-5.8-4.16-9.08,3.5-9.42,8.36-.12,1.67.77,3.75.73,5.82-.15,6.8-1.29,20.59-.4,26.4,1.21,7.96,10.44,7.7,11.35,2.65-1.46-8.14,3.01-38.23-2.26-43.23ZM489.1,547.89c2.59,1.61,4.03-.37,6.45-.84,3.68-.71,6.6,1.5,8.43-3.56-.11-2.6-12.55-1.13-14.98-1.5l.1,5.9ZM557,567l-1.47-5.84c-3.38,2.8-15.68.31-16.53,4.36-1,4.74,15.65.43,18,1.48ZM529,565.01c-11.63-.82-23.97-2.39-35.41.9l-.6,3.08,34.76-1.74,1.25-2.25ZM479.5,586h15l1.01-2c-1.34-1.89-14.37-1.51-17.51-.99-.33,1.07.66,2.76,1.5,2.99ZM524,622c.01-7.11-12.56-6.63-11.99,1l11.99-1ZM565,618h-16.5c-4.43,0-6.74,2.91-1.55,4.55,2.41.76,16.54,1.07,17.61-.48l.44-4.06ZM518.89,629.1c-13.49-1.93-6.76,8.77,1.1,2.4l-1.1-2.4ZM556,631.01l-13.34-.86-1.21.79-.44,3.05c3.07-.77,6.62,1.04,9.31.8,1.11-.1,4.4-2.98,5.68-3.79Z"/>
  <path class="st0" d="M436,381c-7.58.37-14.03-1.78-20.99,2,1.38-12.94-4.39-15.95-4.5-1-3.61-3.91,1.02-12.6-4.99-14.99-3.53.84-1.88,14.18-1.51,16.99h-6c-.23-.19.86-1.63.89-2.58.34-10.48,1.24-25.94.16-35.96-.37-3.41-2.26-4.45-4.13-1.77-4.92,7.05,1.2,31.92-1.98,41.27l-3.94.05v-45.51c.59-4.22,7.39-.87,8.01-5.98l-8.01-.52c-.4-.39,2.31-7.3-1.49-6.99-1.63,1.67-4.05,4.21-4.47,6.54-1.68,9.41-1.68,25.02-1.88,35.02-.09,4.57,1.22,10.97.72,15.07-.18,1.51.13,2.93-1.87,3.36l-.22-97.29c-1.2-4.12-19.79-11.31-24.66-9.58-1.73,1.07,1.78,22.14-1.62,25.86-1.35-1.33-3.78-1.68-5.07-2.93-3.42-3.34-.29-22.21-1.61-27.89-6.73-3.82-13.99-3.98-21.38-5.14l.64-48.52c-1.72-10.93.89-22.33.96-33.46.64-.66,15.56-1.86,18.17-2.33,16.42-2.96,32.69-4.65,49.3-5.7,9.73-.62,29.52-2.89,38.08-1.95,1.07.12,2.13-.33,2.97.88l.44,203.05ZM426,187.02c-1.73-2.48-12.51,2.04-11.99,4.47.75,3.54,14.65-.65,11.99-4.47ZM362,187c-2.94-.28-21.78,1.09-21.97,3.49,3.54,7.57,14.39-.48,20.99.02l.98-3.51ZM391.99,196.01c-6.66-1.96-13.89-1.28-20.41.9l-.58,3.09,20.99-3.98ZM415.01,205c-.44,2.41-2.64,9.16,2.33,7.87,3.73-.97,2.95-9.14-2.33-7.87ZM350.76,206.2c-2.42-.05-17.5,1.81-16.75,5.29.72,3.33,18.44-.33,18.99-3,.28-1.35-.88-2.26-2.24-2.29ZM384.66,208.34c-6.67-6.47-12.77,3.31-14.41,9.39-1.58,5.86-.05,14.42-.19,20.81-.17,7.41-.51,14.79-.84,22.19l1.42,2.19,16.66-.91c.71-.15,2.32-3.13,2.48-3.83,1.17-5.24.71-39.05-1.03-43.44-.45-1.13-3.26-5.62-4.09-6.42ZM419,222.99c3.39-5.08-8.69-3.3-10.49-2.98-3.07.55-3.22,3.85-2,4,2.14.01,11.64.25,12.49-1.02ZM347.99,244c1.9-7.65,3.11-16.26,2-24-2.99-2.45-8.5,21.71-2,24ZM416,245.01h-10.01s0,2.99,0,2.99c3.74-.08,8.26,1.21,10.01-2.99ZM349,246.01c-5.3,1.34-13.64-.78-16.99,3.98,4.49-.13,17.85,2.53,16.99-3.98ZM411.99,257c-7.44,1.42-3.23,7.62-3.99,13-1.34-.91-18.03,2.35-15,4.99l21-2v-2.99s-3.07-.55-3.07-.55l1.06-12.45ZM407,292.99c3.11-1,20.02.17,18.99-4.48-.65-2.96-14.34-.09-16.69,1.29-1.38.81-2.68,1.22-2.3,3.19ZM410,313.99c2.78.68,9.09-.28,7.99-4.48-.92-3.55-9.12.76-7.99,4.48ZM394.9,312.08l-9.96,1.36-.95,4.55c4.24.01,14.51.87,10.9-5.92ZM408.63,320.08c-1.62.55-1.97,3.22-2.34,4.71-1.1,4.46-2.19,15.41-1.83,19.76.32,3.88,4.85,5.89,8.12,3.53,3.4-2.46,1.66-15.01,1.45-19.51-.19-4.05,1.99-8.64-5.39-8.48ZM425.91,357.91c.75-1.09.1-4.32-1.55-4.83-.56-.18-10.37.81-11.75,1.03-4.38.7-8.42,1.32-7.6,6.89,3.78.61,7.43-2.06,10.67-2.6,2.42-.41,9.18,1.06,10.24-.48ZM415.18,371.75c.53.19,10.63-.73,11.16-.91,1.3-.45,2.75-2.94,2.49-4.2-.98-4.76-4.4-.32-6.53.15-2.5.56-5.45-.3-7.63.37-3.21.99-.32,4.28.51,4.58Z"/>
  <path class="st0" d="M634,294c.4-3.47,3.27-7.06,5-9.99-2.89-2.16-14.72,9.77-9.01,13.5.16.74-1.02.67-1.48.48-3.84-1.59-11.56-10.74-13.31-14.7-1.25-2.82-2.41-10.95-5.88-12.14-7.01-2.4-21.09,9.43-26.32,13.85-.6-.75,5.63-13.24-1.47-18.04-5.27-3.57-15.23-.24-18.04-5.94-2.74,2.19-5.77,5.16-9.5,4.98-.74-.68,2.3-5.51,2.97-6.52,3.09-4.67,7.85-8.06,10.23-13.76,2.64-6.32,1.33-13.42-2.38-19.04s-15.6-13.06-21.32-15.68c-1.03-.47-1.99.83-1.52-1.98,11.54-2.03,24.72.09,31.99-11.01-.13,5.52,5.48,5.85,8.93,8.58,4.19,3.32,8.76,7.8,12.08,11.92-5.39.37-11.15-3.75-16.77-5.23-8.03-2.12-18.11-3.22-26.22-2.26.48,1.23,4.52,2.44,5.74,2.75,14.26,3.61,18.97,4.37,31.26,12.71,2.23,1.51,5.09,1.96,6.99,4.04-7.68.6-16.99-3.2-23.99-6.5l.69,2.98,4.02.79,15.28,8.22c-4.52,1.48-15.25,2.61-15.01,8.03-2.33-1.34-5.05-1.56-4.98,1.98,7.5-1.79,13.62-6.15,21.6-6.9,4.64-.44,12.55,2.27,15.43,1.48,3.11-.84,8.62-7.37,11.93-9.08.04-1.11-7.32-3.14-8.9-4.12-5.88-3.66-12.46-15.69-17.57-21.39-7.31-8.17-15.04-12.39-23.51-18.98,19.45,2.81,32.38,20.8,45.51,33.98,2.53.37,1.5-1.67,1.02-3.02-1.1-3.07-7.73-11.97-7.53-13.45.26-1.9,1.36-1.12,2.51-.55,6.79,3.33,12.9,6.06,20.48,7.03.57-2.09-2.09-3.01-3.54-3.93-2.77-1.74-6.5-2.48-8.46-5.06,4.56.52,6.22-4.04,8.29-5.71,1.04-.84,2.52-.89,3.63-1.9.5-.46,3.97-3.6,3.08-4.39l-12.55,7.95-1.46,3.04c-2,.2-.68-2.89-.23-3.74.71-1.35,9.01-10.49,8.25-11.25l-8.53,6.93-3.97,5.05c-4.46-6.96,10.16-17.22,16.1-17.92,3.82-.45,10.71.89,14.14,2.64,1.55.79,12.3,7.09,13.23,7.81,3.02,2.34,4.45,6.23,10.02,6.48-.27,1.75-3.61,1.42-5.23,2.06-.69.27-.73,1.72-1.47,1.89-3.32.76-7.36-.58-11.34.54-1.06.3-3.31.95-1.95,2.49,1.51,1.71,4.66-1.01,6.34-.97,1.55.04,3.28,1.14,5.2,1.09,1.72-.05,1.28-1.78,2.21-2.05,2.19-.62,7.49-1.31,9.75-1.12,1.12.09,16.39,6.78,17.57,7.56s-.2,2.32.44,3.46c.71,1.26,4.25,3.09,5.57,6.46,2.32,5.95,5.01,16.39-4.57,16.61-4.42.1-10.97-9.76-14.98-13.06-9.5-7.83-12.85-1.55-23.02-1.54-5.97,0-10.79-2.9-16.5-3.43,1.33,1.42,1.45,4.72,2.26,5.73,1.1,1.36,5.31,1.16,5.73,3.25-3.02-.36-4.79.74-6.58,3.01-1.34,1.7-1.39,3.05-3.43,5.7-.7.91-.75,3.01-1.05,3.24-.2.16-3.94-1.43-4.93.55l8.99,5.5c-2.34-5.24,2.82-9.3.99-13.99,4.28.27,6.97-4.02,11.01-.51-3.11,3.27-8.02,2.71-9.99,7.5,4.97.92,4.81-4.68,9.95-3.95,2.47,2.83.93,9.48,1.52,10.94.23.56,8.02,8.29,8.57,8.53.42.18,8,1.79,8.83,1.91,11.9,1.58,18.13-3.63,28.13-8.41l-10.05,10.44-.93,4.56c5.52-6.7,9.34-12.6,18.99-12.99.03,2.37-13.1,8.02-10.99,9.99l11.99-6.99c1.63,1.56-10.23,9.49-7.5,12.99,2.71-4.43,6.92-9.26,12.06-10.95,2.04-.67,1.19,3.48.95,3.93-1.14,2.12-4.19,1.07-3.5,4.02,4.65-.72,5.56-7.24,10.99-5.98-4.86,4.03-7.36,9.39-10,14.98,6.86,1.77,3.96-6.86,8.25-9.24,5.91-3.27,8.68-1.32,14.29-1.69,4.86-.32,8.86-2.46,10.96-2.83,4.58-.82,10.69.72,15.51-.22l-1.02,1.99c4.93-1.18,8.68,5.62,15.01,4.01l-.12,3.54,4.11,1.46-1-3.98c8.04-.67,10.3-6.93,15-12.01-.67,9.9-2.09,20.66-2.03,30.54.09,12.99,5.81,21.67.33,36.22-.43,1.15-1.91,1-2.24,1.98-1.13,3.41.08,8.66-4.57,10.24-2.26-5.86-6.02-11.11-10.49-15.5l1.99-.99-2.09-1.96-36.9-11.56,2.99-1.98c-4.14-1.12-2.9-.65-5.34.89-2.83-2.25-8.1-3.53-10.67-5.41-8.01-5.87-19.5-11.5-29.74-15.23-18.68-6.81-34.18-4.07-51.08-8.92-7.67-2.2-15.66-8.45-17.18-16.34-7.19-.37-4.67,5-5.49,6.06-.99,1.27-5.88,1.75-6.48,5.45l6.36.55,1.11-3.05c1.92,1.09.34,2.44.79,3.74.08.24,2.18,1.34,1.72,4.25h-3.5s.51-2.47.51-2.47c-3.79-.21-1.71,3.66-2.48,5.43s-4.59,2.39-1.04,5.04c4.26-2.02,5.35-8.3,10.5-7.98.69,7.35-9.23,4.07-4.98,12.99,3.5.33,2.55-3.64,3.93-5.55.71-.98,4.69-3.82,6.05-3l1.99,2.06c-4.33,3.52-9.71,7.36-9.98,13.5,6.36,1.26,4.45-4.98,7.53-8.95,5.42-6.98,7.75-1.81,12.19-.28,5.7,1.96,14.1-.61,4.27,7.23l5.94-.1.57-2.91c7.86-.75,15.6,17.9,19.16,23.79,4.4,7.27,9.36,14.71,13.5,22.55,8.36,15.87,11.51,30.16,26.62,41.62,11.28,8.55,19.93,7.42,33.21,10.07.87,1.01-2.99,7.17-3.98,8.23-1.45,1.55-3.7,1.92-4.73,3.06-2.17,2.41-3.55,8.61-7.8,10.7-1.03-5.25-2.91-13.63-9.49-13.99,1.86,8.26-.85,24.55-12.02,22.48,5.19-15,4.36-24.08-6.58-35.41-.86-.89-2.29-.99-2.4-1.09-1.25-1.13,2.88-.38,1.98-2.47-.43-.99-1.8-1.8-2.98-1.51l-3,5-1.49-5.99c-1.81,4.26-2.24,8.34-7.51,9.99,3.63-8.71,7.45-14.17,3.98-23.97l3-1.52-2.98-2.51-.51,3-5.5-8.5,2.98.51-.12-7.92c-5,.57-3.15-6.78-7.37-9.06-4.21,3.01,4.51,5.29-.49,7.97l-6-11.51,1.97-.48,1.01-5.46c-1.74-2.65-4.8-.54-4,2.45-3.96-.79.02-6.89-1-8-3.05,2.4-7.74-2.1-6.98-5l2.98.48-2.01-3.47-3.97,2.99.99-7h-2.99s1.99,1.99,1.99,1.99l-3.98,2.01-2.03-8.99c-4.56-.6.55,4.57-2.51,6-7.5-2.08-15.85-2.73-23.03-6.98-1.2-1.68,2.84-4.21,3.55-5.02-.11.97.06,2.01,0,2.99,1.08.08,2.04.11,3.03-.46.6-.35,6.62-7.95,5.96-8.53-4.21-.43-6.59,3.28-9,5.99ZM641,194.01c-4.27-1.87-3.42,1.01-5.35,2.64-2.48,2.1-7.26,3.41-6.64,7.35l11.99-9.99ZM642.73,202.8c.4-.28,5.11-7.74,3.78-8.8l-12.62,11.47.13,3.52,1.48-2.03h1.99s2.5,3.03,2.5,3.03c2-3.77,1.46-3.31.01-6.99.82-.02,2.09.24,2.73-.2ZM605.72,249.28c-2.18-2.23-12.58-3.39-15.95-3.05-6.93.71-17.31,5.12-23.44,8.61-1.18.67-4.84,2.1-4.33,3.64.82,2.48,2.36.55,3.28.32,7.36-1.8,25.13-7.98,31.72-4.32,2.99,1.66-1.74,1.22-1,2.5,7.53-.34,5.73,5.58-1.49,2.99-1.98,2.78,1.47,4.51,3.87,4.95l.6,2.05-10.99,7.52c2.79,2.2,4.63-1.86,5.76-2.44,1.42-.73,3.44-.61,5.16-1.63.59-.35,8.53-7.16,8.82-7.67,1.74-3.01.38-11.02-2.03-13.48ZM752,279c1.26.34,3.28-2.09,5.49-2.1,4.1-.03,10.11,6.92,11.69,10.41,1.52,3.36.5,7.36,4.33,8.69l2.53-2.66c-1.84-10.17-6.27-17.57-14.05-24.33,5.86-.89,10.59,1.5,16,3l-2.99,2.97c3.34,1.88,7.88,1.94,6.42,6l3.64,3.5-2.06,3.5,5.99,3.01c-.99-2.25.03-6.76-.31-8.33-.52-2.39-4.15-5.71-5.11-7.75-1.02-2.16-1.16-7.39-1.59-9.92h-2.98s.55,4.01.55,4.01c-3.4,3.04-3.38-.52-4.23-1.01-5.54-3.24-10.89.64-13.84.67-.63,0-8.69-5.52-11.48-4.68l5.99-.99-2.5-2.99h-7.5s1.01,1.99,1.01,1.99c-15.19-3.55-23.34,13.66-11.02,23.01-1.38-6.64-3.26-18.46,6.88-16.85l1.64,3.84c2.02.73,1.15-1.76,2.14-2,3.3-.8,7.24,1.03,9.86,3.01.62,1.63-3.36,2.4-4.46,3.57-.89.93-1,2.18-.05,2.44-.3-.22-6.67-2.69-7.01-2.54-.72.31-2.52,2.4-2.79,3.25-2.43,7.93,8.09,8.76,11.82,12.77,2.02,2.17.52.94-1.03,2l1.96,3.05,6.98-1.61c2.38-3.4-6.69-12.8-9.26-15.03-.6-.52-.51-1.78-.66-1.89ZM644.99,300l4-10c-1.88,1.56-11.08,6.69-7,9.51.72.5,2.6.82,3,.48ZM653.99,295.01c-3.38-.16-7.58,2.03-6.99,5.98,4.64,2.38,3.64-1.25,6.99-2.01l-2-2.48,2-1.5Z"/>
  <path class="st0" d="M362.99,447l-.99,4.99,17.89-.88,1.11,11.9-21,1,.44,3.05,3,.99,35.59-1.52c3.55-6.1-9.86-1.92-11.84-4.74-.56-3.12-1.42-8.12-.21-11.09,1.27-3.13,11.24-.81,13.52-.91,4.95-.21,11.2-1.75,15.99-1.87,2.73-.07,18.16.14,18.55,1.74l-.09,10.67,2.57,1.4c4.96-2.4.14-9.68,4.52-12.19,6.34-3.63,21.7-1.97,28.95-1.54l-1.04,6.99c-5.86-.38-14.72-.94-17.96,4.99l17.9-.88.66,9.96c-1.92,2.76-13.57-1.57-13.57,3.43,0,4.33,10.15,1.92,13.02,2.49l1,29.01c-.61.62-10.79-1.62-10,2.48.54,2.8,8.1.36,9.56,2.45l.43,12.06-10,.57c-4.19-7.55-8.32-16.92-14.35-23.22-4.57-4.77-25.19-19.56-31.09-21.41-6.15-1.94-12.39-.64-18.09,2.03-4.28,2.01-20.02,13.13-23.48,16.52-6.41,6.27-17.95,23.8-20.7,32.31-.43,1.34.64,3.57-.36,5.13l-10.92.07,3.15-12.83,8.2.72c8.03-9.69-2.64-6.49-9.35-6.89.16-4.13-.25-8.32.05-12.45.11-1.56,1.67-3.18,1.61-4.04-.07-1.11-2.35-2.49-2.33-4,.02-1.83,2.63-5.83.67-9.5,3.3-.05,9.42,1.17,10.02-3.49.64-1.86-2.88-2.22-3.78-2.24-2.2-.05-4.06.89-6.24.73l.13-10.36c1.02-3.11,10.03-1.08,12.86-1.64v-3.49s-11.95-.56-11.95-.56l-1.06-10.95c2.81-.08,5.68-.62,8.48-.45,1.36.08,9.31,3.33,8.01-.51l-1.48-4.04h3.98ZM451,475.99l-.44-3.04-12.53-.92,1.6,4.91,11.38-.95ZM379.01,487c5.04,1.27,4.4-6.98,4.56-11.01.18-4.64-3.48-3.18-4.35-.28-.94,3.15.22,7.89-.2,11.29ZM460.01,484.01c-.71-.94-15.25-.26-13.01,4.99,4.55,1.13,7.45-.7,11.86-1.15l1.16-3.84ZM347.01,499.99c2.42-.45,14.85,1.61,13.99-2.48-.52-2.48-14.48-2.83-13.99,2.48Z"/>
  <path class="st0" d="M307,106c6.31-.53,13.38-1.63,19.64-1.95,1.18-.06,2.13-.16,2.93.9l-.57,27.31c1.59,4.05,27.19-.45,31.1-2.66,2.24-2.82.74-24.67-.11-29.6l18.02-1.58c3.12,2.56-.85,23.31.87,27.99,4.36,1.41,9.02,1.78,13.6,1.57,4.24-.2,22.13-2.45,24.55-4.51,2.56-9.44-2.47-19.73,1.2-29.24l21.31-2.98c2.48.43,1.34,14.22,1.42,17.29.24,9.98-.21,19.87.02,30,.06,2.4.58,5.1,1.02,7.44-14.59.51-28.99,2.7-43.51,4-16.92,1.52-34.05,2.14-50.98,4.02-13.51,1.5-26.96,3.84-40.51,4.99v-53ZM428.02,131c-.7,5.64-10.69,1.25-12.02,7.49,1.35,2.15,2.04.82,3.61.68,5.62-.5,17.15-.8,8.41-8.16ZM383.99,141.01c-5.03-1.49-10.66-1.54-15.68-.15-1.7.47-2.79-.73-2.31,2.12l3.99.55,14-2.52ZM337,144.99c-.38-1.84-1.96-1.84-3.46-2.02-4.44-.55-17.08-1.51-16.54,5.03l19.99-3.01Z"/>
  <path class="st0" d="M412,417.5c1.44,5.14,20.4,1.19,25.07,1.03l.98-24.48,20.95-2.05.07,22.93,11.49,1.01-.67,18.96-56.39,4.11-5.95-1.04c-21.31,3.45-42.92,4.71-64.5,3.99l-1.04-39.43c.91-4.99,6.87-2.37,9.51-2.56s9.62-1.97,11.02,0c2.54,4.52-.03,21.3,3.42,23.57,2.25,1.48,21.04-.6,21.04-4.03v-19.5c0-.2,3.3-2,3.5-2h20.5c-.55,1.28,1,2.96,1,3.5,0,3.68-.74,13.35,0,16ZM448,428.99c3.96-.2,8.4,1.33,10.98-2.49-3.22-3.34-9.18-1.2-10.98,2.49Z"/>
  <path class="st0" d="M275,308.5c.09.33,1.55,1.77,2.01,1.98,2.26,1.05,26.42-.64,27.74-1.72l1.3-26.71,19.95-1.04c-.7,6.17.12,13.01.04,19.53-.03,2.62-1.09,5.11-1.12,7.94s2.54,19.05-.38,19.29c-7.61-2.16-15.47.39-23.05,1.22-15.79,1.74-32.16,2.73-47.75,4.41-13.59,1.47-27.2,3.8-40.74,5.6l.97-49.53,16.89-1.34c3.05,1.91-2.15,20.47,1.05,24.46,1.68,2.13,15.22,1.7,18.58,1.39,2.07-.19,7.72-.79,8.36-2.64l2.32-26.18,13.84-1.16v24.5ZM311.99,297c-2.47-2.56-4.35,9.05-1.49,8.98,3.87-2.54,2.01-5.3,1.49-8.98ZM226.99,312c-5.75-.85-4.79,14.28-2.48,14.99,6.58,2.01,2.56-12.22,2.48-14.99ZM295,321.99c4.99-.42,11.15,1.61,14.98-2.49-3.54-3.64-8.89.52-13.3-.54l-1.68,3.03ZM270.01,320c-3.13.28-8.99-1.58-9,2.99h9s0-2.99,0-2.99Z"/>
  <path class="st0" d="M485,320.5c.06,1.45-1.15,4.4,1.64,5.37,2.37.82,15.44.38,16.9-1.83l-.28-25.58,1.39-1.31,14.31-1.12c2.8,1.97-1.95,21.05-.99,25.31.49,2.01,19.66,1.51,21.56-2.33,2.26-4.57-1.82-23.84,2.23-26.02,2.34-1.26,19.41-2.36,21.16-.9,2.3,13.71-.36,27.49.1,41.39.07,2.12,2.19,5.62.05,7.07-1.81,1.22-16.73.21-20.54.46-16.01,1.04-31.97,4.25-48.02,4.98-9.46.43-19.03-.3-28.49.01v-44.01s19-1,19-1c.19,6.47-.26,13.02,0,19.5ZM476.99,317.01l-2.43,1.88c1.22,2.15-2.13,12.02.94,12.09,5.13.12.16-10.92,1.5-13.97ZM525,332.99c-1.07-4.85-15.91-.41-12.99,2.01l12.99-2.01Z"/>
  <path class="st0" d="M734.87,205.85l2.6-2.84c.59.13,7.72,8.31,8.05,9.02,1.38,3.03-2.94,8.52,3.47,5.96.47,2.95-2.35,12.52-5.48,12.71-.28.02-5.07-1.76-5.28-1.94-1.58-1.39-3.26-9.74-4.33-12.17-1.51-3.42-4.18-6.13-6.9-8.6,1.08,4.29,2.03,11.09-.55,14.97-.99,1.48-2.65,1.6-3.16,2.24-2.95,3.73-2.79,2.82-5.82,5.77-2.78,2.7-4.34,7.07-8.48,8.52,2.3,5.87,13.04-6.56,14.03-7.01,3.97-1.82,15.39,4.64,17.97,8.51-2.01.23-4.38-.39-6.29.04-.71.16-.73,1.51-1.49,1.88-1.69.82-7.14,4-7.7,4.1-1.5.28-1.77-.03-1.5-1.5l6.98-6.51-15.5,8-.57-2.89-13.93-2.12c1.25-2.68,6.47-6.78,7.47-9.02,1.65-3.68.79-9.7,1.54-13.31.15-.73,3.18-.82,1.98-3.67-6.61,2.3-10.61-1.81-13.99-6.99,5.91-.91,9.96-1.42,14.97,2.52.44.35,6.75,8.51,6.05,2.97-.19-1.49-8.84-12.76-10.5-14.52-3.67-3.87-9.88-4.02-6.51-9.97l-6.01-1.02,1.99-5.99-6.99,1.99,2-3.98-5.99,1.98,5.99-8.99-9.99,6.99,6.15-11.88c12.9-.78,17.24,10.41,24.33,17.89,5.84,6.17,12.48,11.51,17.96,18.03l3.42.81Z"/>
  <path class="st0" d="M368.87,542.13l-.88,91.86c-4.82-1.74-6.1-1.89-10.99,0-.63-11.04-1.64-21.82-1-32.99h10.35c2.81-5.3-5.57-3.4-8.83-4.06l-1.52,3.06c-.14-3.97-.93-8.6-1.06-12.45-.48-14.02-.53-33.43,2.07-47.01.22-1.17.4-1.81,1.46-2.5l10.39,4.1Z"/>
  <path class="st0" d="M446.01,611l2.08-47.91,9.92-1.6c-1.83-5.33-7.07-2.65-11.01-2.49,1.51-5.45-3.04-19.78-.1-23.59,2.24-2.9,8.1-1.18,11.09-3.41,1.44,1.43,4.12,32.02,3.96,36.47-.27,7.4-2.24,15.64-2.94,23.04-.56,6,1.16,12.48-1.95,18.07-4.23.74-7.18-1.97-11.05,1.42ZM452.77,585.28c-.91-.46-1.8-.29-2.75-.28l-1.02,4.99h6.99c.65-.56-2.97-4.58-3.23-4.71Z"/>
  <path class="st0" d="M564.74,109.31c.17.09.33,1.27.99,1.65,26.62,15.58,44.39,41.94,66.27,63.03-3.66-.13-7.56,1.97-10.69,3.82-1.67.98-10.54,8.95-11.3,8.19l9.99-13.98c-1.05-.93-5.24,2.47-6.3,3.15-1.21.78-5.81,4.81-6.2,4.82-6.3.15,8.97-11.41,7.49-12.98-2.27,1.23-4.74,2.16-6.93,3.56-1.38.88-4.93,6-5.05,1.96l8.99-11.51c-1.99-.13-4.05.75-5.73,1.71-.43.25-9.37,8.93-7.26,3.8,1.53-3.72,8.08-10.89,11.98-12.01l-4.18-.41-10.8,7.91c-1.62-3.25,8.37-10.66,6.98-11.99-1.37-.91-12.47,9.09-9.84,2.65,1.01-2.47,6.44-5.73,6.85-9.64-1.75-1.77-7.31,8.41-11,6.5-2.57-1.33,6.2-8.14,5-10.5-2.78-.86-6.29,7.55-8.5,4l3.5-8c-2.53.1-4.98,5.65-6.99,2.48l2.99-8.48c-2.07-.26-4.17,6.63-5.98,4.99-1.89-1.72,1.57-6,.99-8.48-.92-3.91-4.93,2.38-4.01,4.48-4.82-2.41-1.01-6.06-1-10l-4,3.51c-2.5-3.36-4.37-4.92-.99-8.5-5.27,2.05-7.42-.96-7.99-6,.95-.01,1.82-.18,2.74.3Z"/>
  <path class="st0" d="M714,322.99l3.99-2.99c3.9,10.16,3.61,20.41,9.63,29.88,1.88,2.96,5.18,5.91,7.42,8.61.7.84.22,2.2.91,3.03,2.84,3.36,12.17,5.23,16.35,4.27,2.36-.54,3.31-2.89,5.7-2.78-.44,7.59-.86,9.63-8.45,9.94-16.12.64-27.5-11.28-34.1-24.91,3.42-10.95-2.45-21.49-6.28-31.71,2.63-7.85,7.08,3.25,4.83,6.68Z"/>
  <path class="st0" d="M440.62,502.41c6.86,6.58,11.92,15.1,15.06,24.12-2.14,2.39-10.39,8.21-12.57,4.86-2.53-3.88-3.78-8.62-7.14-12.87-4.32-5.45-11.07-9.98-15.96-15.03l8.47-10.25c1.15-.08,10.6,7.69,12.13,9.16Z"/>
  <path class="st0" d="M384.41,514.44c-6.68,6.74-11.78,15.23-14.42,24.57l-10.55-2.93c-1.85-5.15,1.17-9.39,3.39-13.74,2.5-4.89,13.39-22.37,17.68-24.32l8.35,11.67c.2,2.2-3.12,3.43-4.44,4.76Z"/>
  <path class="st0" d="M422.36,494.34c-1.71,2.34-3.34,4.9-4.49,7.58l-11.4-4.58c-2.63,1.7-8.13,8.39-11.02,8.71-2.61.29-9.1-7.59-10.41-10.45.57-2.78,19.15-12.41,22.55-12.55,2.6-.11,14.55,4.69,16.41,6.45,1,.94,1.32,1.53.95,2.94-.31.99-2.12,1.25-2.59,1.9Z"/>
  <path class="st0" d="M396,530.5c.17-.79,1.88-3.32,2.99-3.5,1.09,7.18,1.38,13.81.03,20.94l11.86-.07,1.61-27.87c4.8,8.4,1.77,17.81,2.64,26.85,14.1,5.25,10.74-4.82,11.86-14.38.22-1.83-.31-1.61,2-1.48-.62,2.97.89,5.79,1.01,8.5.08,1.85-1.5,4.06-.93,5.86,1,3.2,6.19-.1,5.94,3.15-.83,5.83-13.23,4.07-17.43,4.57-7.92.94-16.12,2.92-24.34,2.67-4.39-.13-13.23-.84-8.29-6.27l11.06,1.52c.85-5.96-1.16-14.99,0-20.5Z"/>
  <path class="st0" d="M676.99,126.01l-3.99,2.98c3.48-.04,7.43-.89,8.99,2.99-1.76,2.25-8.06-1.86-6.99,2l9,2.53-7.01,3.48,11,2.02c.05,5.24-8.58-.55-10,3.98l13,2.02c2.37,2.23-6.53,2.71-7.57,2.97-1.68.42-2.92-1-2.43,2.02l11.49.96,2.5,2.56c-4.22,1.93-10.87-1.83-13.99,2.48,4.42-.03,9.81.27,14.03,1.52,1.77.53,2.35.2,1.96,2.48-3.35.3-7.18-.46-10.44.06-2.97.47-3.85,2.75-6.55,2.94-1.29-13.55-5.54-26.86-11.02-39.49-.69-3.36,6.39-.33,8.01-.5Z"/>
  <path class="st0" d="M395,561c3.95-1.11,4.79,4.39,5.05,7.45,1.7,19.68-1.75,40.33-1.14,60.05.05,1.72.33,2.98,1.08,4.49-1.17.87-5-1.58-5-2.49v-69.5Z"/>
  <path class="st0" d="M593.81,400.21c5.2,2.99,2.52,30.93,2.3,37.29-.15,4.63,3.32,16.96-4.58,15.53-2.13-17.54-1.39-35.48-.53-53.03.91.09,1.96-.27,2.81.22Z"/>
  <path class="st0" d="M668,228l1.07,14.94h3.86c1.1-3.7.59-7.92,1.07-11.46.41-3.07,2.54-1.4,4.02,0,.61.58,6.32,8.06,6.52,8.56,1.62,4.1-2.73,3.97-3.28,4.33-.65.43-.33,1.94-2.94,2.41-2.03.36-6.62.27-8.65-.18-4.43-.97-9.89-5.85-10.47-10.38-.79-6.19,3.02-8.5,8.8-8.23Z"/>
  <path class="st0" d="M426,633v-75c3.32-.31,3.74,5.06,3.99,7.51,1.37,13.51,1.25,51.39-1.91,63.97-.36,1.42-.16,3.16-2.08,3.52Z"/>
  <path class="st0" d="M413.99,563c4.19,21.8.07,43.98,1,66-1.3-.29-2.22-1.61-2.72-2.77-3.02-6.93-1-41.93-.42-51.82.19-3.21-.58-5.92.19-9.89.31-1.6-.71-1.74,1.95-1.52Z"/>
  <path class="st0" d="M694.98,304.02c1.83,3.5,5.62,6.27,7.84,9.66,3.89,5.93,6.82,13.94,10.18,20.31l-9.89,2.89c-2.42-4.57-4.63-9.8-7.31-14.18-1.84-3-8.16-10.03-8.79-12.22-.51-1.77.82-2.04,2.01-1.01l13.47,16.53c1.84-1.46,1.25-1.13.71-2.67-1.83-5.13-7.44-12.76-10.19-17.84l1.97-1.46Z"/>
  <path class="st0" d="M757,253.99c-7.3-1.9-15.6,3.27-22.46,1.96-.96-.18-13.51-5.71-13.52-6.46,3.1-3.77,2.85.38,3.58.49,1.45.23,6.22-.91,8.4,0l-3.99-2.98c12.72-7.29,19.02-2.48,28,6.98Z"/>
  <path class="st0" d="M479,251l-5.87-2.63c.23-8.27-.62-16.7-.52-24.93.06-4.57-1.27-15.04,4.38-15.44-.76,1.81,2.01,5.05,2.01,5.5v37.5Z"/>
  <path class="st0" d="M644,636.99l-3.86-.13c-5.63-25.17-13.77-50.03-16.13-75.85l19.99,75.99Z"/>
  <path class="st0" d="M680,183.02c.8,3.41-4.65,1.63-7.27,2.21-2.29.51-6.63,3.99-8.2,3.78-4.2-.56,3.89-5.62,2.47-7-3.48-.53-5.88,5.53-9.02,3.55-4.18-2.64-.66-7.67.62-10.47.36-.8,2.49-2.64-.1-3.07s-1.64,2.62-1.79,2.77c-.54.56-6.09,4.77-6.69,4.21l5.98-8.49c-2.29-3.26-4.23,1.78-5.97,2.5l2.01-7c9.05,6.02,17.45,13.56,27.98,17.02Z"/>
  <path class="st0" d="M719.24,590.83c5.07,7.1,4.22,12.58,6.42,21.01,1.86,7.13,4.27,14.1,6.34,21.15-1.32-.03-2.82.32-4.03-.46-2.55-1.63-8.58-41.7-11.62-47.22l-2.36-15.8c.6-1.36,2.08,1.29,2.25,1.75,1.44,3.95,2.42,18.76,3,19.57Z"/>
  <path class="st0" d="M682.24,556.75c-.93-1.01-1.08-2.88-1.23-4.23-.52-4.69-.39-19.02-.03-24.05.24-3.36,1-7.45,2.53-10.46,1.22,1.04,2.16,1.83,2.48,3.52,1.23,6.37-.35,18.01-.41,24.97-.01,1.21,2.37,16.46-3.33,10.25Z"/>
  <path class="st0" d="M691.37,193.79c.23.42,2.75-.14,1.62,2.2l-7.99,1.02,2.99,2.49c-1.1,2.44-8.72,2.44-7.99-1.48l3.99-3.01c-3.24-.46-4.22.2-5.49,3l-2.52-1.02,1.01-2.98c-2.5-.11-5.31.81-6.97-1.51,1.94-8.59,16.3-5.27,21.03-.97.79.72.03,1.74.32,2.26Z"/>
  <path class="st0" d="M665,555.01l-3.08-.6c-1.71-2.33-.92-20.17-1.05-24.78-.16-5.82-2.17-8.74,2.15-14.63,1.35.17,1.75,1.36,1.94,2.54.57,3.38.98,12.05,1.1,15.93.21,6.74-1.2,14.67-1.06,21.54Z"/>
  <path class="st0" d="M598,559c-1.93.97-5-2.01-5-3.5v-31c0-1.88,5-1.88,5,0v34.5Z"/>
  <path class="st0" d="M382.79,171.78c-.34.46-5.46,2.12-6.42,2.19-5.82.47-6.83-5.34-5.92-9.98,3.06-2.13,12.84-5.4,13.57.56.12.97-.84,6.7-1.23,7.23Z"/>
  <path class="st0" d="M592,320.99l-4.86-.13c-1.04-.64-2.75-21.78-1.23-24.2.39-.62,2.03-1.49,2.6-1.41,5.15.71,1.06,21.81,3.49,25.73Z"/>
  <path class="st0" d="M410.83,160.17c1.4.87,3.06,7.27.49,8.91-1.96,1.26-11.67,1.66-12.89-.06l.51-8.55,11.89-.3Z"/>
  <path class="st0" d="M300,348.98c.69-1.85.57-4.65,1.23-6.26,1.86-4.57,16.81-4.45,13.65,4.64-1.01,2.91-12.23,2.67-14.87,1.62Z"/>
  <path class="st0" d="M245,356l1.93-11.57c16.09-3.01,12.3,14.23-1.93,11.57Z"/>
  <path class="st0" d="M326.93,631.07l.07,3.93-24.99,2.01-1.03-5.49c8.68-.25,17.41-2.42,25.95-.45Z"/>
  <path class="st0" d="M614,328l-4.52-.98c-2.81-6.76-.77-13.15-.48-20.02,1.8-1.46,5,2.96,5,3.51v17.5Z"/>
  <path class="st0" d="M274.1,352.89c-3.49-9.46.85-12.12,9.99-10.42,2.92,7.2-3.13,11.41-9.99,10.42Z"/>
  <path class="st0" d="M437.99,167.99h-11.99c-.25-8.5,4.23-10.56,12.05-8.53l-.06,8.53Z"/>
  <path class="st0" d="M499.99,363.01l.14-8.86c7.68-3.34,12.09-.42,10.43,7.93l-10.58.94Z"/>
  <path class="st0" d="M355.86,166.15l.15,8.85c-6.82-.23-12.43,3.19-10.84-6.85,4.01-1.45,6.23-4.8,10.69-2Z"/>
  <path class="st0" d="M535,361l-9.07-.44-.79-8.42c8.58-3.52,10.91.56,9.86,8.86Z"/>
  <path class="st0" d="M328.84,175.85c-4.22,2.58-9.47,3.53-10.69-2.59-1.67-8.44,13.56-7.96,10.69,2.59Z"/>
  <path class="st0" d="M224.68,346.26c5.76-.14,11.43,11.33,2.07,10.54-4.77-.4-5.75-4.24-6.67-8.22.31-1.2,3.45-2.29,4.59-2.32Z"/>
  <polygon class="st0" points="559 351 558.06 359.56 549 360 549.94 351.44 559 351"/>
  <path class="st0" d="M457,614.01c.75,5.17-2.27,7.67-4.21,11.29-1.22,2.27-1.16,6.85-4.79,6.7,1.45-5.61,4.68-12.13,0-16.98l9-1.01Z"/>
  <path class="st0" d="M706,204.99c-5.81.38-10.72.88-16.38-.99l-.61-1.98c6.62-4.78,12.54-4.13,16.99,2.97Z"/>
  <path class="st0" d="M483.7,357.29c1.19,1.48,1.55,3.77,1.21,5.61-2.53.85-6.14,2.21-8.43.11-4.9-5.9,3.07-10.89,7.22-5.73Z"/>
  <path class="st0" d="M721.99,316.99c-1.12-.29-2.62-4.92-2.75-5.73-.39-2.43-.28-4.83-.24-7.27,3.1-.12,6.41-.59,7.9,2.7l-4.91,10.3Z"/>
  <path class="st0" d="M471,525l-.48,11.03c-3.7,4.87-6.95-7.64-6.45-9.4.68-2.39,5.06-1.55,6.92-1.63Z"/>
  <path class="st0" d="M598.73,498.27c.79.63,1.38,2.67,1.27,3.73-.52.49-12.31-1.78-14.16-2.33-1.25-.37-5.58-1.51-4.83-3.66,4.05,1.45,14.97.07,17.72,2.26Z"/>
  <path class="st0" d="M573,342.99c-3.98-5.33,16.89-.8,16.98,2.51.11,4.23-15.27-2.76-16.98-2.51Z"/>
  <path class="st0" d="M619,356.01c.03,1.74.56,2.14-1.42,1.93s-22.98-6.77-19.58-9.93l21,8.01Z"/>
  <path class="st0" d="M710.99,342c.45.52-3.89,10.99-5.49,10.98-3.28-2.8-2.51-7.12-2.49-10.99h7.98Z"/>
  <path class="st0" d="M701,483.99c-3.06-3.03,7.1-1.61,8.12-1.37,1.74.41,10.77,3.7,10.86,4.88-1.53,2.29-2.02,1.07-3.74.77-5.15-.9-10.2-2.98-15.24-4.29Z"/>
  <path class="st0" d="M372.99,388.99c-1.51-.29-1.41-5.19-1.43-6.5-.1-8.75.28-17.78.94-26.51,3.14-.07.71,29.37.49,33.01Z"/>
  <path class="st0" d="M693,478.01c-1.23,3.11-5.44,2.04-7.9,1.35-2.17-.6-2.17-2-2.31-2.05-2.12-.74-7.16.27-8.78-4.31l19,5Z"/>
  <path class="st0" d="M350.99,538l-1,8-7.98-3.52,1.91-1.92-.91-2.56c2.97.63,5.1,1.8,7.99,0Z"/>
  <path class="st0" d="M749.01,327l-2.01-9.99c1.98-.29,6.31.55,6.91,2.65.54,1.92-3.08,8.72-4.9,7.34Z"/>
  <path class="st0" d="M501.99,167.02l-.48,1.97c-5.48-4.21-12.55-5.55-18.38-8.66-1.59-.85-3.74-.96-3.13-3.32l21.99,10.01Z"/>
  <path class="st0" d="M676,122.99l-9.06.54-2.94-6.53c4.34,1.08,9.78,1.42,11.99,5.99Z"/>
  <path class="st0" d="M664.01,469.01v2.99s-3.43-.06-3.43-.06l-11.58-4.92c5.24-2.04,9.82,1.95,15,1.99Z"/>
  <path class="st0" d="M701,605.01c-.4,1.75-1.8,1.99-3.37,1.96-1.82-.04-11.38-1.89-13.69-2.41-1.43-.32-3.57-.88-3.94-2.55l21,3Z"/>
  <path class="st0" d="M691.98,287.02c-.34,2.95,3.84,2.1,6.01,2.99l-2.5,10.98c-1.89-1.35-2.42-10.37-2.76-10.81-.57-.72-6.16-2.76-.75-3.16Z"/>
  <path class="st0" d="M351.01,334c3.72.17,7.57,1.6,9.98,4.5l-2.69,2.39c-2.12.55-8.37-3.7-7.29-6.88Z"/>
  <path class="st0" d="M581,609.99c2.43.46,1.65-.3,2.41-1.9l5.88.89,1.7,4.01-9.48-2.04-1.51,2.04c-.49-2.18-1.78-3.47.49-4.99l.5,1.99Z"/>
  <path class="st0" d="M638.99,466c-2.6-1.01-5.62-.59-8.2-1.29-.86-.23-4.65-1.59-4.79-2.7,4.34-.21,13.28-2.94,12.99,3.99Z"/>
  <polygon class="st0" points="538.99 249 538.24 254.74 529.01 266.99 536.67 251.13 538.99 249"/>
  <path class="st0" d="M472.99,155.99c-2.99-1.5-6.78-1.51-9.77-2.69-.35-.14-4.25-3.43-3.22-4.3,1.7-.43,15.41,4.76,12.99,6.99Z"/>
  <path class="st0" d="M711,296.01c-1.27,2.69-1.28,5.73-1.97,8.56-.41,1.7.98,2.91-2.02,2.43l-1-11h4.99Z"/>
  <path class="st0" d="M622,612.01c-2.72,4.32-9.02.83-13,.98-1.63-1.32.12-1.81,1.48-1.99,3.88-.52,7.75.37,11.52,1.01Z"/>
  <path class="st0" d="M610,596.01c-.6,2.2-1.33,1.48-2.78,1.34-1.22-.11-11.7-1.63-11.21-2.85,4.97-3.6,8.96,1.34,13.99,1.51Z"/>
  <path class="st0" d="M615,630.01c3.24,3.22-7.53,1.25-8.44.93-1.63-.56-2.92-.73-2.55-2.94,3.93-.61,7.33,1.04,10.99,2.01Z"/>
  <path class="st0" d="M346.99,336c-3.04-2.36-7.93-2.75-8.99-6.99,4.28-.03,10.09,1.67,8.99,6.99Z"/>
  <rect class="st0" x="527.36" y="269.28" width="19.5" height="1.75" transform="translate(71.82 650.91) rotate(-66)"/>
  <path class="st0" d="M332.01,349.01c2.48-.25,6.73,1.23,5.99,4.48-.7,3.08-8.14-.5-5.99-4.48Z"/>
  <path class="st0" d="M357.01,737c-.54-3.25.92-6.3,1.04-9.46.28-7.64-1.53-25.65.4-31.6,1.82-5.63,9.27-3.99,13.53-2.41,14.6,5.39,14.18,30.25,2.36,38.3-4.68,3.18-11.73,4.53-17.33,5.17Z"/>
  <path class="st0" d="M747.73,778.73c-7.39,7.46-23.81-.67-29.7-7.26-15.28-17.11-15.53-47.46-5.2-67.14,3.4-6.49,4.83-7.99,12.23-6.87,30.11,4.55,36.17,40.54,29.22,65.32-.78,2.77-5.04,14.42-6.55,15.95Z"/>
  <path class="st0" d="M269.99,710l8.93,36.36c-.89,2.78-15.38,2.44-18.26,2.67-3.25-.79.37-14.11,1.01-16.86,1.3-5.55,3.99-15.83,6.23-20.77.53-1.18-.48-1.81,2.09-1.41Z"/>
  <path class="st0" d="M253.01,876c.82-3.91-1.05-7.86-1.04-11.45,0-1.64,1-3.37,1.03-5.06.08-3.85-1.01-15.68,1.41-17.58,5.79-4.56,16.85,1.62,19.33,7.85,6.19,15.57-6.23,25.52-20.73,26.23Z"/>
  <path class="st0" d="M578,846.5c.62-4.04,1.97-6,6.13-5.95,20.01.24,21.67,29.58,2.11,35.19-1.46.42-8.24,1.82-8.24-.23.97-8.92-1.31-20.44,0-29Z"/>
  <path class="st0" d="M665.75,841.17c8.88-1.63,21.42,8.76,25.45,16.12,6.86,12.52,5.96,42.11-5.27,52.14-4.09,3.65-16.72,8.54-20.97,4.09-3.48-3.64-1.81-47.45-1.93-56.07-.06-4.57-2.15-9.5-.46-14.48.67-.88,2.1-1.6,3.17-1.8Z"/>
  <path class="st0" d="M487.71,845.21c12.95-2.95,28.16,8.48,32.01,20.56,3.32,10.39,2.8,42.92-9.67,46.78-18.57,5.74-31.58-17.12-33.55-32.53-.99-7.8,2.24-32.77,11.2-34.8Z"/>
  <path d="M263.07,444.93l.59-43.78c-.38-9.55,8.94-17.17,14.39-6.7,7.18,13.82-.2,32.64,3.63,47.1-.52,3.23-15.73,3.91-18.6,3.37Z"/>
  <path d="M276.77,537.77l-9.82,1.81-.95-2.09c.94-12.58-1.39-26.61,0-38.99,1.35-12.06,11.71-9.63,12.54,2.46.52,7.54.26,25.05-.54,32.56-.16,1.5-.33,3-1.23,4.25Z"/>
  <path d="M269,575c-.29-1.95.77-2.67,2.52-2.98,7.64-1.38,15.77-.34,22.92-.99,3.18-.29,21.54-4.11,22.57-3.02l-.59,4.1-19.76,2.04-1.68,2.35,1.03,12.51c2.81-.11,5.68.19,8.49-.02,3.05-.22,12.53-3.1,14.02-.99l-.5,2.53c-3.79-.37-6.84,1.85-10.61,2.37-2.04.28-18.93,1.01-19.89.73-1.37-.4-1.74-1.28-1.51-2.61l6.06-1.59c-.76-4.58,1.55-10.83-1.56-14.42h-21.5Z"/>
  <path d="M316,604.01c-2.31,3.21,3.02,5.67-.55,7.94-4.48-.79-20.33-.7-23.4,1.61-2.96,2.23-2.19,10.26-3.23,13.77-.38,1.28-1.39,2.25-2.34.7-2.14-3.49.4-10.86-.53-14.98-10.78-2.42-4.94-5.34,2.71-5.66,5.44-.23,16.99.51,21.82-.4,2.63-.5,2.93-3.16,5.51-2.97Z"/>
  <path d="M313.54,366.41c2.25.34,3.83,4.43.77,5.4-3.47,1.1-19.24,2.65-22.86,2.23-1.49-.17-2.52-.1-3.44-1.56-.4-1.85,2.44-2.86,3.75-3.23,2.93-.83,19.47-3.2,21.79-2.85Z"/>
  <path d="M260.5,570c4.43,4.76-4.18,5.38-8.01,5.45s-10.49-.79-14.05-1.4l-.44-3.04c.96.26,2.13-1.01,2.49-1.01h20Z"/>
  <path d="M249.82,432.86c-5.18-2.11-17.43,3.58-15.82-4.86,5.86,1.26,13.75-4.1,17.8,1.48l-1.98,3.37Z"/>
  <path d="M291,510.01c3.88.81,18.86-5.01,20-.5,1.18,4.67-15.47,2.86-17.6,4.44l-1.93-.92-.47-3.02Z"/>
  <path d="M252.01,591.99c-.47-2.85.6-1.66,2.31-2.13,4.48-1.23,12.23-2.07,16.94-2.22,4.3-.13,3.59,3.77.25,4.35-6.32,1.09-13.14-.03-19.49,0Z"/>
  <path d="M252.86,456.14l1.14,3.85c-3.03.73-17.98,4.52-17.98.51,0-2.36,14.25-4.87,16.84-4.36Z"/>
  <path d="M292,553.98c0-5.29,17.48-4.92,18-2.47.32,1.52-1.17,2.26-2.5,2.48-2.17.37-14.63,1.19-15.5-.01Z"/>
  <path d="M306,526.99l-1,14.01-3.37-.13c-3.05-.99-.08-13.67,1.01-13.92l3.36.04Z"/>
  <path d="M294.99,454v-2.98c2.44-.21,16.34-5.02,17-1.5.7,3.7-14.51,4.91-17,4.48Z"/>
  <path d="M253.01,376l-.59,3.08-2.99.81-14.42-.41c-.66-4.1,15.66-3.56,18-3.48Z"/>
  <path d="M276,470.01c3.84,3.19-16.39,4.28-17.99,3.99.1-7.75,13.08-3.28,17.99-3.99Z"/>
  <path d="M305.95,462.01c2.86,6.45-8.49,6.01-12.96,5.98l.94-4.56,12.02-1.43Z"/>
  <path d="M234.01,474.97l.57-3.05c22.13-4.05,15.62,6.56-.57,3.05Z"/>
  <path d="M254.88,524.87l-3.88.13c-1.55-16.56,8.38-17.52,3.88-.13Z"/>
  <path d="M247.99,488.01l-.15,11.34-.79,1.21-3.05.45c.28-2.96-1.88-6.5-.86-9.36.1-.29,4.1-4.63,4.84-3.64Z"/>
  <path d="M306,427.99c-14.55,6-19.12-4.21-1.7-2.82l1.7,2.82Z"/>
  <path d="M255,539h-14v-3c5.1,1.75,16.54-5.67,14,3Z"/>
  <path d="M302.99,396l1.02,12.49c-5.69,2.58-4.41-7.64-3.12-11.1.52-1.39-.32-1.7,2.1-1.39Z"/>
  <path d="M246,393l.05-4.95c15.73-3.71,2.7,7.74-.05,4.95Z"/>
  <path d="M304.08,492.92c-1.81-1.26-.46-8.06,3.4-6.91s.85,9.89-3.4,6.91Z"/>
  <path d="M275.99,553.01c-.96,1.81-6.93,3.09-8.54,3.04-1.47-.05-4.41-1.44-4.43-2.55-.05-2.6,11.38-.35,12.97-.49Z"/>
  <path d="M249.99,403.01c-.43,5.17-7.36,5.41-9.97,1.49,2.45-2.78,6.76-1.1,9.97-1.49Z"/>
  <path d="M244,515.99c-2.03-.59-10.77,1.89-8.99-2.48.79-1.94,11.3-2.46,8.99,2.48Z"/>
  <path d="M235.99,587.01v3.97c-3.55.02-7.23,1.64-9.99-1.48l9.99-2.49Z"/>
  <path d="M528.93,450.93c-4.68.37-15.6,5.4-16.9-1.46-2.17-11.49,1.89-28.51-.47-40.62,3.45-15.63,15.18-15.6,17.35.74,1.64,12.35-3.1,28.48.02,41.35Z"/>
  <path d="M520.74,506.27c5.27,5,.8,35.09,2.26,43.23-.92,5.04-10.14,5.3-11.35-2.65-.88-5.81.26-19.6.4-26.4.04-2.07-.84-4.15-.73-5.82.34-4.86,3.62-12.52,9.42-8.36Z"/>
  <path d="M540.89,480.09l-.52,3.78c-7.48.02-14.85,2.05-22.25,2.53-5.94.38-12.32-.78-17.61-.94-2.23-.07-13.39,4.33-13.49.04-.06-2.39,12.91-4.28,15.5-4.48,12.27-.96,25.97-.4,38.38-.93Z"/>
  <path d="M529,565.01l-1.25,2.25-34.76,1.74.6-3.08c11.44-3.29,23.78-1.73,35.41-.9Z"/>
  <path d="M554,467.99l-30.99,4c-.41-2.4.27-1.88,1.99-2.45,3.5-1.16,24.96-5.15,27.33-4.38,1.31.42,1.95,1.47,1.68,2.84Z"/>
  <path d="M565,618l-.44,4.06c-1.07,1.56-15.2,1.24-17.61.48-5.2-1.64-2.88-4.55,1.55-4.55h16.5Z"/>
  <path d="M557,567c-2.35-1.06-19,3.25-18-1.48.85-4.04,13.15-1.55,16.53-4.36l1.47,5.84Z"/>
  <path d="M489.1,547.89l-.1-5.9c2.43.37,14.86-1.1,14.98,1.5-1.82,5.06-4.75,2.85-8.43,3.56-2.42.47-3.86,2.45-6.45.84Z"/>
  <path d="M485,441.98l.44-3.04c1.13-1.54,13.83-1.74,14.55.56,1.8,5.39-14.53,3.2-14.99,2.48Z"/>
  <path d="M497.73,462.25c1.41.02,2.79,1.15,3.13,2.41,1.43,5.33-18.29,5.7-11.21-1.5,2.57.42,5.96-.93,8.08-.91Z"/>
  <path d="M537.01,503.98c.72-5.47,5.9-2.99,9.49-2.89,3.05.09,5.13-2.44,7.48,1.4.03,2.34-14.55,4.03-16.97,1.48Z"/>
  <path d="M556,631.01c-1.29.8-4.57,3.69-5.68,3.79-2.7.24-6.25-1.57-9.31-.8l.44-3.05,1.21-.79,13.34.86Z"/>
  <path d="M499,385.01l-1.16,4.84c-15.68,4.13-10.99-7.62,1.16-4.84Z"/>
  <path d="M479.5,586c-.83-.24-1.83-1.92-1.5-2.99,3.14-.52,16.17-.89,17.51.99l-1.01,2h-15Z"/>
  <path d="M524,622l-11.99,1c-.56-7.63,12.01-8.12,11.99-1Z"/>
  <path d="M502.84,497.15c.37.23.95,2.45,1.03,3.23-.77,3.42-12.67,3.82-9.2-1.37,3.14.93,4.6-4.07,8.17-1.86Z"/>
  <path d="M540,432.99l.44-3.05,1.21-.79c1.74-.3,10.36-.78,10.32,1.34-2.78,4.03-7.77,2.15-11.98,2.5Z"/>
  <path d="M499.89,416.09l1.08,2.41c-.06,1.77-15.75,5.22-9.31-2.54l8.22.13Z"/>
  <path d="M552,411.01l-1.68,4.03c-3.03-.34-7.04,1.13-9.31-1.54,2.91-3.47,6.94-4.12,10.98-2.49Z"/>
  <path d="M518.89,629.1l1.1,2.4c-7.86,6.36-14.58-4.33-1.1-2.4Z"/>
  <path d="M523,386.01c-.4,5.22-4.44,2.9-8,2.99l.45-3.05,1.21-.84,6.34.9Z"/>
  <path d="M553.99,479.01c1.65,2.21-6.81,5.5-7.98,2.48-1.65-4.23,6-3.17,7.98-2.48Z"/>
  <path d="M538.99,458c-2.85,2.66-3.82-7.81-.48-8.99,1.89,1.42,1.67,7.88.48,8.99Z"/>
  <path d="M384.66,208.34c.82.8,3.64,5.28,4.09,6.42,1.74,4.39,2.2,38.19,1.03,43.44-.16.7-1.77,3.68-2.48,3.83l-16.66.91-1.42-2.19c.33-7.4.67-14.78.84-22.19.15-6.39-1.38-14.95.19-20.81,1.64-6.09,7.74-15.86,14.41-9.39Z"/>
  <path d="M408.63,320.08c7.38-.16,5.2,4.43,5.39,8.48.21,4.5,1.95,17.06-1.45,19.51-3.27,2.36-7.8.35-8.12-3.53-.36-4.36.72-15.31,1.83-19.76.37-1.49.72-4.16,2.34-4.71Z"/>
  <path d="M411.99,257l-1.06,12.45,3.06.55v2.99s-20.99,2-20.99,2c-3.03-2.64,13.66-5.9,15-4.99.76-5.38-3.45-11.58,3.99-13Z"/>
  <path d="M425.91,357.91c-1.06,1.54-7.81.07-10.24.48-3.23.55-6.88,3.22-10.67,2.6-.82-5.57,3.23-6.19,7.6-6.89,1.38-.22,11.19-1.21,11.75-1.03,1.65.52,2.3,3.74,1.55,4.83Z"/>
  <path d="M362,187l-.98,3.51c-6.6-.5-17.45,7.54-20.99-.02.19-2.4,19.04-3.77,21.97-3.49Z"/>
  <path d="M347.99,244c-6.5-2.28-.99-26.44,2-24,1.11,7.74-.1,16.35-2,24Z"/>
  <path d="M350.76,206.2c1.36.03,2.51.94,2.24,2.29-.55,2.67-18.27,6.33-18.99,3-.75-3.48,14.34-5.34,16.75-5.29Z"/>
  <path d="M407,292.99c-.39-1.97.92-2.38,2.3-3.19,2.35-1.38,16.04-4.25,16.69-1.29,1.03,4.65-15.88,3.48-18.99,4.48Z"/>
  <path d="M415.18,371.75c-.84-.3-3.72-3.6-.51-4.58,2.18-.67,5.13.19,7.63-.37,2.13-.48,5.55-4.92,6.53-.15.26,1.26-1.19,3.75-2.49,4.2-.53.18-10.63,1.1-11.16.91Z"/>
  <path d="M391.99,196.01l-20.99,3.98.58-3.09c6.52-2.18,13.75-2.86,20.41-.9Z"/>
  <path d="M394.9,312.08c3.61,6.79-6.66,5.93-10.9,5.92l.95-4.55,9.96-1.36Z"/>
  <path d="M349,246.01c.86,6.51-12.5,3.85-16.99,3.98,3.35-4.76,11.69-2.64,16.99-3.98Z"/>
  <path d="M419,222.99c-.85,1.27-10.35,1.03-12.49,1.02-1.22-.15-1.07-3.45,2-4,1.79-.32,13.88-2.11,10.49,2.98Z"/>
  <path d="M426,187.02c2.66,3.82-11.24,8-11.99,4.47-.52-2.43,10.26-6.95,11.99-4.47Z"/>
  <path d="M415.01,205c5.28-1.27,6.07,6.9,2.33,7.87-4.97,1.29-2.78-5.46-2.33-7.87Z"/>
  <path d="M410,313.99c-1.13-3.72,7.07-8.03,7.99-4.48,1.09,4.2-5.21,5.15-7.99,4.48Z"/>
  <path d="M416,245.01c-1.75,4.2-6.27,2.9-10.01,2.99v-2.99s10.01,0,10.01,0Z"/>
  <path d="M752,279c-.95-.26-.84-1.51.05-2.44,1.11-1.16,5.08-1.94,4.46-3.57-2.62-1.98-6.56-3.81-9.86-3.01-.98.24-.12,2.74-2.14,2l-1.64-3.84c-10.15-1.61-8.27,10.21-6.88,16.85-12.32-9.35-4.17-26.56,11.02-23.01l-1.01-1.98h7.5s2.5,2.99,2.5,2.99l-5.99.99c2.79-.84,10.85,4.68,11.48,4.68,2.94-.03,8.3-3.9,13.84-.67.86.5.83,4.05,4.23,1.01l-.55-4.01h2.98c.43,2.52.57,7.75,1.59,9.91.96,2.04,4.59,5.36,5.11,7.75.34,1.57-.68,6.08.31,8.33l-5.99-3.01,2.06-3.5-3.64-3.5c1.46-4.05-3.08-4.12-6.42-6l2.99-2.97c-5.41-1.5-10.14-3.89-16-3,7.77,6.76,12.2,14.16,14.05,24.33l-2.53,2.66c-3.84-1.33-2.81-5.33-4.33-8.69-1.58-3.5-7.59-10.44-11.69-10.41-2.22.02-4.23,2.45-5.49,2.1.15.11.06,1.38.66,1.89,2.57,2.22,11.64,11.62,9.26,15.03l-6.98,1.61-1.96-3.05c1.55-1.06,3.05.17,1.03-2-3.73-4-14.25-4.84-11.82-12.77.26-.85,2.06-2.94,2.79-3.25.34-.15,6.71,2.32,7.01,2.54Z"/>
  <path d="M605.72,249.28c2.4,2.46,3.77,10.47,2.03,13.48-.29.51-8.23,7.32-8.82,7.67-1.73,1.03-3.74.9-5.16,1.63-1.13.58-2.97,4.64-5.76,2.44l10.99-7.52-.6-2.05c-2.41-.44-5.85-2.17-3.87-4.95,7.22,2.59,9.02-3.33,1.49-2.99-.74-1.28,3.99-.84,1-2.5-6.58-3.66-24.36,2.52-31.72,4.32-.92.22-2.46,2.16-3.28-.32-.51-1.54,3.15-2.97,4.33-3.64,6.13-3.5,16.51-7.91,23.44-8.61,3.37-.34,13.76.82,15.95,3.05Z"/>
  <path d="M642.73,202.8c-.64.44-1.91.18-2.73.2,1.45,3.69,1.99,3.22-.01,6.99l-2.5-3.03h-1.99s-1.48,2.03-1.48,2.03l-.13-3.52,12.62-11.47c1.33,1.05-3.38,8.52-3.78,8.8Z"/>
  <path d="M641,194.01l-11.99,9.99c-.62-3.93,4.16-5.25,6.64-7.35,1.93-1.63,1.08-4.51,5.35-2.64Z"/>
  <path d="M644.99,300c-.4.33-2.28.01-3-.48-4.08-2.83,5.12-7.95,7-9.51l-4,10Z"/>
  <path d="M653.99,295.01l-2,1.5,2,2.48c-3.35.76-2.35,4.38-6.99,2.01-.59-3.95,3.6-6.14,6.99-5.98Z"/>
  <polygon points="451 475.99 439.62 476.93 438.02 472.02 450.55 472.94 451 475.99"/>
  <path d="M379.01,487c.42-3.4-.74-8.13.2-11.29.87-2.9,4.53-4.36,4.35.28-.15,4.03.49,12.28-4.56,11.01Z"/>
  <path d="M460.01,484.01l-1.16,3.84c-4.4.45-7.3,2.28-11.86,1.15-2.24-5.24,12.3-5.92,13.01-4.99Z"/>
  <path d="M347.01,499.99c-.49-5.31,13.47-4.96,13.99-2.48.86,4.09-11.57,2.03-13.99,2.48Z"/>
  <path d="M337,144.99l-19.99,3.01c-.55-6.54,12.1-5.58,16.54-5.03,1.5.19,3.07.18,3.46,2.02Z"/>
  <path d="M428.02,131c8.74,7.36-2.79,7.67-8.41,8.16-1.57.14-2.26,1.47-3.61-.68,1.33-6.23,11.32-1.85,12.02-7.49Z"/>
  <path d="M383.99,141.01l-14,2.52-3.99-.55c-.47-2.85.62-1.65,2.31-2.12,5.02-1.39,10.65-1.34,15.68.15Z"/>
  <path d="M448,428.99c1.8-3.69,7.76-5.83,10.98-2.49-2.58,3.82-7.02,2.29-10.98,2.49Z"/>
  <path d="M226.99,312c.07,2.77,4.09,17-2.48,14.99-2.31-.7-3.27-15.84,2.48-14.99Z"/>
  <path d="M295,321.99l1.68-3.03c4.41,1.05,9.76-3.1,13.3.54-3.83,4.1-9.99,2.07-14.98,2.49Z"/>
  <path d="M270.01,320v2.99s-9,0-9,0c.01-4.56,5.87-2.71,9-2.99Z"/>
  <path d="M311.99,297c.52,3.69,2.38,6.44-1.49,8.98-2.86.07-.98-11.54,1.49-8.98Z"/>
  <path d="M476.99,317.01c-1.34,3.05,3.63,14.1-1.5,13.97-3.06-.07.28-9.94-.94-12.09l2.43-1.88Z"/>
  <path d="M525,332.99l-12.99,2.01c-2.92-2.42,11.92-6.86,12.99-2.01Z"/>
  <path d="M452.77,585.28c.26.13,3.87,4.16,3.23,4.71h-6.99s1.02-4.99,1.02-4.99c.95,0,1.84-.18,2.75.28Z"/>
</svg>