<?xml version="1.0" encoding="UTF-8"?>
<svg id="Layer_1" xmlns="http://www.w3.org/2000/svg" version="1.1" viewBox="0 0 500 500">
  <!-- Generator: Adobe Illustrator 29.3.1, SVG Export Plug-In . SVG Version: 2.1.0 Build 151)  -->
  <defs>
    <style>
      .st0 {
        fill: #fff;
      }
    </style>
  </defs>
  <path class="st0" d="M622.98,262.42l-27.04,19.51c-35.64-8.11-59.22-35.7-57.99-73.05,1.09-33.01,28.03-68.88,61.8-73.2,16.57-2.12,24.42,6.99,39.66,5.66,3.67-.32,7.25-4.15,10.5.74.47,1.63-1.02,3.59-1.74,5.02-2.25,4.45-21.89,32.26-24.89,33.15-2.24.66-5.42.06-6.14-2.54-1.21-4.41,5.45-6.68,1.9-12.84-4.46-7.75-18.21-10.87-26.42-10.31-7.21.49-13.73.93-17.82,7.17-15.09,23.04-13.54,63.14,6.15,83.24,2.34,2.39,17.08,12.66,19.77,13.22,7.53,1.57,18.88-6.52,19.35-14.28.22-3.58-.56-14.31-1.19-17.87-3.02-17.13-15.6-5.43-23.36-6.57-2.98-.44-4.18-4.43-3.02-7,.57-1.26,10.84-14.79,12.07-15.97,4.2-4.03,9.96-.34,14.95-.09,4.95.24,32.73-.9,34.06.95,3.35,4.64-7.54,8.82-8.49,15.66-2.48,17.96,1.03,38.74-1.07,55.93-.97,7.91-13.08,19.79-20.47,22.46-3.5-1.02.35-16.01.49-19.45.13-3.3,0-6.4-1.05-9.54h-.01Z"/>
  <path class="st0" d="M1313.89,146.51c2.21,3.19-7.24,9.04-9.42,11.88-4.77,6.21-5.79,12.9-6.46,20.54-1.54,17.39-1.54,44.95.89,61.99.66,4.65,4.12,12.7,2.15,16.05-1.83,3.12-12.48,11.18-16.01,12.04l-1.56-.5-52.47-84.1-1.09,36.48c1.49,11.83.73,22.04,11.14,29.95,1.64,1.25,5.69,2.3,6.45,3.55,1.26,2.07.6,8.21-1.52,9.5-3.37,2.05-24.29,0-29.66-.1-3.94-.07-14.76,3.12-15.35-2.92-.54-5.52,7.05-6.77,10.04-10.23,9.53-11.03,6.67-51.37,6.94-66.78.07-3.94,1.42-7.44,1.08-12-.43-5.7-3.65-12.36-8.68-15.31-3.79-2.22-14.55-2.63-8.93-9.23,3.65-4.28,14.05-.86,19.06-.83,3.66.02,15.23-2.27,17.28.16.64.75.96,4.15,1.73,5.76,10.34,21.57,29,51.34,42.67,71.33.48.7,2.34,3.16,2.82,2.66.39-3.61,1.74-6.88,2.06-10.53.8-9.24.6-24.62,0-34.01-.29-4.58-1.79-16.37-4.02-19.98-3.06-4.97-13.99-4.42-12.81-10.73,1.9-10.23,24.31-6.07,31.29-5.66,4.2.25,7.78-2.04,12.4,1l-.02.02Z"/>
  <path class="st0" d="M820.65,195.07c-2.38,2.19-12.72,6.55-12.53,8.66,8.37,11.25,14.48,29.42,23.45,39.61,7.37,8.37,15.82,5.78,1.95,18.1-3.21,2.85-12.66,10.4-16.51,6.46l-28.52-56.6c-2.17-.3-7.13,2.33-8,4.11-2.68,5.46-.99,26.93,1.72,32.28,2.68,5.3,18.32,10.18,6.77,15.22-4.43,1.93-29.38,1.26-35.55.56-9.11-1.04,2.68-11.2,3.9-15.21,3.3-10.85,1.8-35.15,1.7-47.31-.07-9.92,2.02-32.11-3.61-39.48-3.43-4.49-9.74-3.44-12.06-9.04-.59-1.14-.15-1.67.52-2.56,4-5.28,23.01-1.2,29.53-1.44,16.39-.6,27.61-7.33,44.27,1.77,17.46,9.54,16.55,32.33,2.95,44.86h.02ZM780,201.42c5.59-.64,12.65-1.98,17.33-5.17,11.83-8.05,12.24-32.91-2.36-38.3-4.26-1.57-11.71-3.21-13.53,2.41-1.93,5.95-.12,23.96-.4,31.6-.11,3.16-1.58,6.21-1.04,9.46h0Z"/>
  <path class="st0" d="M875.34,163.76c-7.88,7.92-10.66,29.36-10.39,40.21.38,15.38,8.09,32.58,22.15,39.93,11.06,5.78,17.8-7.52,17.93-17.03.02-1.65-.88-10.5-1.23-11.76-1.98-6.99-15.83,2.09-20.38-1.62-2.27-3.12,7.53-14.51,10.28-17.08,7.37,0,15.62,2.15,22.8,2.09,2.94-.02,12.14-3.17,13.39.55,1.42,4.23-2.67,5.61-3.66,9.09-1.78,6.22-1.23,28.89-.17,35.72.59,3.8,3.97,4.56,3.84,7.86-.23.88-8.29,8.57-9.69,9.69-17.02,13.65-9.5.66-15.22-11.99-1.05-.78-14.71,16.18-19.71,16.79-8.55,1.04-24.71-9.96-30.25-16.32-23.95-27.54-15.49-71.09,12.05-92.89,9.48-7.5,18.46-15,31.19-12.35,4.04.84,9.42,4.53,13.3,4.7,3.26.15,8.29-1.78,11.8-1.85,5.21,1.47-4.36,16.65-5.86,19.93-1.65,3.61-3.04,15.32-9.54,13.58-4.23-1.13-2.17-5.52-4.53-8.54-2-2.57-15.97-10.26-19.22-10.86-2.39-.44-7.11.36-8.89,2.14h0Z"/>
  <path class="st0" d="M1151.75,143.62c3.52-.57,12.97.96,16.52,2.02,40.13,12,40.45,74.99,14.22,100.77-3.57,3.51-22.08,19.64-25.46,20.53-18.17,4.79-40.74-17.54-46.51-33.55-6.32-17.54-3.05-50.72,7.65-66.31,3.36-4.9,28.11-22.57,33.58-23.46ZM1170.72,243.15c1.51-1.52,5.78-13.18,6.55-15.95,6.94-24.78.89-60.77-29.22-65.32-7.4-1.12-8.83.39-12.23,6.87-10.32,19.69-10.08,50.03,5.2,67.14,5.88,6.59,22.31,14.72,29.7,7.26Z"/>
  <path class="st0" d="M715.5,147.42c5.11,5.26-2.12,11.09-1.49,17.41.21,2.09,2.28,5.43,2.91,8.17,4.74,20.49,9.38,43.71,15.36,63.64,2.95,9.82,6.24,13.43,13.51,20.42-1.61,10.4-8.63,6.46-15.25,6.33-9.45-.18-18.95.35-28.39-.1-4.58-7.68,5.13-8.81,6.61-14.6,1.01-3.98.28-18.94-3.18-21.34-3.52-2.45-22.96-2.66-26.57-.41-3.28,6.09-7.78,16.78-2.88,22.86,3.37,4.18,10.44,2.06,9.82,10.04-.54,6.98-11.24,3.6-16.4,3.56-3.81-.03-19.83,1.38-21.39-1.13-1.39-5.17,4.14-8.41,6.66-12.52,12.69-20.73,16.74-56.91,25.94-80.09,1.36-13.01-12.2-9.81-14.12-14.48-1.52-3.69,1.78-7.74,4.86-7.74h44v-.02ZM692.99,174.42c-2.56-.4-1.55.23-2.09,1.41-2.24,4.94-4.93,15.22-6.23,20.77-.64,2.75-4.26,16.07-1.01,16.86,2.88-.23,17.36.11,18.26-2.67l-8.93-36.36h0Z"/>
  <path class="st0" d="M985.01,214.42c1.42-.12,1.57-1.47,2.03-2.46,3.65-7.91,13.72-37.32,13.99-45.09.35-9.89-6.67-9.69-8.54-13.44-5.4-10.82,19.54-6.19,24.91-6.1,1.6.03,7.07-1.99,8.47.22,2.18,3.44-3.3,8.01-4.69,10.55-12.43,22.68-17.51,49.6-30.01,72.99-2.35,4.4-8.11,8.94-5.65,14.32,3.23,7.05,20.45,3.31,21.43,6.62,1.43,4.83-11.62,14.01-16.47,14.44-4.85.44-13.95-1.99-19.09-1.95-2.92.02-20.7,3.95-21.39.37,4.79-12.53,21.45-15.78,19.89-31.85-1.12-11.54-15.2-38.62-20.38-50.63-3.01-6.96-5.07-17.28-9.98-23.02-2.39-2.79-10.47-6.03-9.47-9.34,4.65-6.07,12.08-2.5,18.44-2.62,11.73-.22,25.89-6.47,17.9,11.98,3.4,18.89,12.9,36.62,18.61,55.01h0Z"/>
  <path class="st0" d="M825.4,381.41c-3.11,3.77-16.85,11.33-21.25,8.38-6.9-4.64-14.71-32.17-20.6-40.42-1.74-2.44-4.14-3.9-6.6-1.41-1.87,1.89-1.55,17.64-1.13,21.14.85,7.2,4.1,10.57,10.42,13.58l.02,4.08c-5.75,3.95-13.19,1.05-19.05,1.15-3.46.06-17.21,2-19.36.67-3.51-6.56,5.44-8.01,7.73-12.49,1.05-2.06,1.79-6.61,1.99-9,1.12-13.29,1.29-36.76.17-49.91-.22-2.59-.85-6.66-2.16-8.84-2.64-4.4-11.73-4.63-11.49-8.12.48-6.89,15.3-3.8,19.73-4.1,15.33-1.07,31.36-7,45.57,2.41,13.77,9.13,11.31,28.32-.79,37.6-3.26,2.5-7.05,3.15-9.67,6.08,8.14,11.66,13.53,28.69,27.33,34.48.97,1.38.07,3.58-.89,4.74l.03-.02ZM776.73,338.7c14.5-.71,26.92-10.66,20.73-26.23-2.48-6.24-13.54-12.41-19.33-7.85-2.42,1.9-1.33,13.73-1.41,17.58-.03,1.69-1.03,3.42-1.03,5.06,0,3.59,1.86,7.54,1.04,11.45h0Z"/>
  <path class="st0" d="M1108.66,347.74c-1.9-.07-6.22.76-6.81,2.6-.78,2.41-1.3,12.95-1.17,15.91.33,7.28,1.69,15.09,9.9,16.57.45,10.07-13.99,5.89-20.32,5.84-6.54-.05-12.21,1.53-18.5,0-1.7-6.76,4.46-5.74,7.41-10,1.51-2.18,2.59-6.26,3.1-8.9,1.72-8.95.52-22.28.4-31.52-.18-13.71,5.2-33.12-12.51-36.48-.84-1.22-.82-3.69.51-4.61,1.92-1.32,19.27-.1,23.53-.47,4.89-.43,10.15-2.55,15.03-2.97,39.29-3.33,48.33,32.5,14.51,48.55-.45,1.99,14.48,24.12,17,26.91,2.72,3,10.3,7.16,10.02,9.98-.38,3.77-16.29,14.14-21.07,11.06l-21.04-42.48h0ZM1101.72,309.21c-1.31,8.56.97,20.08,0,29,0,2.06,6.78.65,8.24.23,19.56-5.61,17.9-34.94-2.11-35.19-4.17-.05-5.51,1.91-6.13,5.95h0Z"/>
  <path class="st0" d="M1156.88,302.56c-1.46-2.35.52-6.51,3.56-6.63,18.94.25,38.15-3.86,56.26,3.29,30.02,11.86,30.33,53.67,9.57,74.53-18.35,18.44-35.45,14.99-59.06,14.88-2.21-.01-17.97,2.67-12.56-4.49,3.19-4.22,9.84-2,11.83-12.17,2.14-10.94,2.72-46.42.8-57.25-.39-2.21-1.26-5.75-2.54-7.55-1.91-2.69-7.61-4.21-7.87-4.62h.01ZM1189.47,303.88c-1.08.2-2.5.92-3.17,1.8-1.69,4.98.4,9.91.46,14.48.12,8.63-1.55,52.43,1.93,56.07,4.25,4.45,16.88-.44,20.97-4.09,11.23-10.04,12.12-39.63,5.27-52.14-4.03-7.36-16.57-17.75-25.45-16.12h-.01Z"/>
  <path class="st0" d="M1029.14,264.27c-2.21-6.97,3.92-9.52,6.7-14.51,3.07-5.51,3.56-11.79,3.78-18.01.61-16.82.93-43.4-.64-59.82-.28-2.88-.96-8.61-1.91-11.09-1.91-4.96-8.31-4.87-7.13-10.76.27-1.11,5.15-2.54,6.53-2.69,7.61-.81,15.58-.1,23.02-.17,3.57-.04,16.54-3.59,14.1,4.23-1.49,4.77-10.37,6.01-11.63,16.45-1.79,14.89-.05,32.07.07,46.99.08,10.3-.27,20.61.1,30.9.85,2.61,11.41,1.95,13.91,1.19,3.49-1.06,7.15-7.91,8.83-11.17,1.95-3.8,6.1-18.38,8.82-19.22,3.29-1.01,5.65.63,6.78,3.71-.53,7.34-1.18,15.32-.52,22.67.47,5.19,4.92,16.44.61,19.53-2.86,2.05-38.2.69-45.11.88-4.03.11-24.92,3.11-26.31.89h0Z"/>
  <path class="st0" d="M1022.19,293.28c35.75-5.13,49.57,39.21,37.71,67.11-4.6,10.83-18.81,24.54-29.23,29.77-12.54,6.29-32.18-4.64-40.46-14.44-23.69-28.04-3.1-77.41,31.98-82.44ZM1011.43,307.92c-8.96,2.04-12.19,27.01-11.2,34.8,1.97,15.42,14.97,38.27,33.55,32.53,12.47-3.85,12.98-36.39,9.67-46.78-3.86-12.08-19.06-23.51-32.01-20.56h-.01Z"/>
  <path class="st0" d="M1269.03,311.99c-1.25,1.56-1.69,4.09-1.14,5.99,2.03,7.1,22.21,11.77,28.51,14.54,36.16,15.93,7.49,61.41-24.07,58.07-4.55-.48-12.39-3.99-16.12-3.94-2.7.03-12.62,5.49-11.29-3.21.44-2.89,12.89-27.13,14.46-27.64,5.38-1.76,6.47,7.05,8.5,10.24,5.35,8.37,19.36,14.36,26.27,4.59,12.24-17.3-22.51-21.09-32.36-28.5-20.19-15.2-.51-52.78,23.33-50.32,4.55.47,11.28,3.93,15.1,3.92,3.66-.01,6.54-3.47,10.44-.47,4.7,3.62-1.81,9.61-3.44,13.44-1.9,4.5-2.12,11.26-6.46,13.6-1.61.38-8.87-9.74-11.53-11.61-5.8-4.07-15.51-4.57-20.2,1.3Z"/>
  <path class="st0" d="M859.72,306.71v24.5c0,3.08.14,4.32,3.5,4.59,1.67.14,10.88-1.19,12.28-1.82,2.07-.95,10.23-13.89,11.28-1.82.31,3.58-.55,17.32-1.12,20.98-.53,3.46-3.11,6.48-6.53,3.66-2.32-1.91-.58-6.66-5.68-9.31-4.64-2.41-8.83-.52-13.72-.79v27.5c0,.42,1.14,3.17,1.71,3.52,7.48,2.54,17.59-.38,23.23-5.58,3.56-3.28,7.89-15.07,13.11-6.91-2.22,5.52-.18,22.61-6.78,24.33-2.03.53-5.1-1.04-7.77-.94-14.61.55-32.39,1.63-47.02,1.16-1.67-.05-4.57-.26-5.55-1.75-3.53-5.33,3.22-6.06,5.59-8.29,2.43-2.29,4-10.16,4.35-13.65,1.18-11.84,1.26-38.08.16-49.92-.93-10-6.39-8.68-11.96-15.1-.3-1.74,3.45-4.73,5.37-4.41,18.91,1.31,37.88,1.75,56.59-1.52,6.39,1.66.98,18.55,1.76,23.87-5.54,7.99-11.04-5.27-14.76-8.84-5.68-5.45-10.8-3.03-18.04-3.46Z"/>
  <path class="st0" d="M919.12,381.27c-18.02-15.12-16.9-50.75-4.24-68.89,3.34-4.78,20.13-17.04,25.77-18.22,8.98-1.88,11.95,2.18,18.7,2.5,3.76.18,15.87-4.7,14.19,3.32-.43,2.04-5.69,13.87-6.95,16.12-1.11,1.98-5.89,9.53-8.39,5.63-.77-1.19-.27-3.53-1.43-5.57-3.15-5.54-17.75-11.12-23-6.89-2.15,1.73-5.42,8.83-6.33,11.66-8.11,25.19,3.18,62.31,35.66,48.66,3.57-1.5,7.83-6.81,11.55-2.26.36,1.22.09,2.25-.43,3.37-.48,1.03-13.27,13.63-15.02,14.99-12.02,9.34-29.2,4.71-40.07-4.41h0Z"/>
  <g>
    <path d="M269.33,154.35l-.75-1.43c2.5-5.53,7.44-9.43,13.12-11.38,2.77-.95,16.28-3.25,17.23-4.79,2.22-3.6-9.33-10.98-5.48-14.24,4.29-3.63,23.49,6.99,25.87,5.25-2.02-5.96-3.44-12.24-6.17-17.95-3.52-7.34-12.1-19.62-17.31-26.05-8.04-9.91-18.27-15.01-26.86-24.18.89-1.07,1.57-1.84,3.07-1.76.81.05,8.76,3.08,10.39,3.67,31.36,11.5,43.57,30.72,66.87,51.3.76.67,1.05,1.71,1.83,2.38,4.02-1.17.21-11.66,4.84-11.2,3.94.39,13.9,13.35,18.93,14.68,1.5-.94.58-1.2.56-1.93-.37-10.41-12.03-36.7-18.24-45.43-1.89-2.66-13.23-12.07-11.33-14.84,4.59-1.82,10.44.25,14.61,2.45,10.94,5.77,27.74,30.72,33.5,42.01,4.1,8.02,5.08,11.14,10.47,18.89,1.02,1.47,4.33,9.67,6.4,7.93,1.33-1.12,2.12-14.96,4.57-16.77,1.82-.43,4.91,8.19,5.43,9.94,1.28,4.34,2.47,16.82,6.1,19.07,2.46,1.52,5-1.6,7.66-1.02.2,9.02,1.87,17.54-1.31,26.28-.07,1.06.17,2.02.84,2.85.86,1.03,8.08,6.84,9.49,7.63,2.7,1.55,4.89,3.23,8.04,1.57,5.06-2.69,8.56-12.46,13.16-1.8,3.94,9.14.97,13.67,1.65,21.57.24,2.76,1.99,5.8,2.33,8.71,1.03,8.71-3.71,21.77-8.7,28.9-10.53,15.03-10.15,1.83-15.37-6.22-1.39-2.14-4.41-4.59-7.01-4.91-2.07-.1-1.31,4.15-2.35,5.97-.8,1.39-7.37,6.88-8.75,6.6-4.37-6.15.62-15.25-7.73-18.87-.71.05-3.83,8.04-3.84,9.42,0,1.18,2.04,11.57,2.48,12.21,2.47,3.67,6.11-1.32,7.34-.34,2.47,2.27,1.45,10.03,3.46,11.22,2.97,1.76,10.28-2.84,11.21-5.94,5.2,1.57,1.57,10.82,1.38,15.05-.26,5.77,5.16,9.63,7.72,14.65,6.84,13.42,3.86,27.22,9.05,39.9,2.18,5.3,6.1,9.12,11.91,10.13-1.33,6.17-12.19.57-15.03-2.1-10.35-9.76-8.01-27.14-12.91-39.53-1.33-3.36-3.64-6.06-4.93-9.4-5.73.33-.56,11.91-2.79,13.98-3.3.53-2.02-8.43-3.84-8.37-2.29,2.64-10.74,13.35-13.99,13.07-.8-.07-2.78-3.11-4.47-2.56.24,4.95-15.7,12.49-17.45,9.65-.68-4.64,2.88-8.14,3.41-12.84.55-4.81.37-11.34-3.52-14.71-3.09-2.26-10.95,6.94-12.95,3.89-.55-1.65-.43-3.54-.31-5.27.36-4.96,2.65-9.95,2.1-15.35-.55-5.42-4.02-11.59-7.13-16-2.53-3.58-14.78-18.9-19.83-13.77-3.84,3.9-1.27,24.03-2.9,30.66-1.41,5.75-8.95,11.57-9.97,17.3-.81,4.55.64,9.67.69,13.91.02,2.96-1.05,12.54-.31,14.47.92,2.39,2.91,1.93,5.18,1.99v-11.53c0-.19,1.09-1.91,1.4-2.1,1.76-1.08,16.28,3.21,17.54,4.84,1.72,2.21-1.83,14.38.62,16.87,1.17,1.19,5.44,1.83,6.21-.12,1.43-4.33-3.02-10.79,1.27-14.16,1.8-.56,13.78,4.36,15.86,5.62,6.86,4.17-2.91,18.32,7.73,18.65,3.32-.78-1.22-12.41,2.98-14.48,1.8-.58,13.97,3.33,15.23,4.83,2.64,3.15.33,14.84.33,19.2,0,4.64,1.51,9.83.7,14.65-.57,3.45-5.44,7.45-6.48,11-1.74,5.92,1.19,22.22,2.52,28.71,1.62,7.93,6.11,18,7.19,24.98.17,1.11-.64,3.22-.38,3.5.11.12,1.57-.07,2.41.71.69.63,1.38,3.01,2.16,4.15,10.59,15.62,19.07,22.15,37.17,28.54,6.12,2.16,13.02,2.96,18.62,5.16,2.88,1.13,7.72,3.04,5.22,6.81l-474.86.65-1.8-1.75c-.83-3.39,8.6-9.28,11.12-11.73,16.49-16,25.58-43.36,31.25-65.24,8.75-33.81,4.65-64.65,5.05-99.12.06-5.02,2.09-22.88.1-25.89-.68-1.02-2.27-1.31-2.88-2.19-.75-1.09-5.78-10.22-6.07-11.22-1.2-4.05-.14-6.13-.15-9.57-.02-8.01-1.3-23.62.13-30.64,1.71-8.44,15.82-5.77,22.25-7.12,6.4,4.48,4.7,10.18,4.96,17l4.8.8v-12.93c0-.24.93-4.33,1.05-4.55,1.43-2.95,14.03-2.04,17.45-3.51,4.47-.44,7.37,4.04,7.37,8.06v10.14h6.28c.82-.78-1.55-14.03.67-17.18,1.63-2.33,9.8-2.43,12.64-2.39l.64-54.14c-1.83-7.41-6.43-13.72-11.67-19.09-1.62-14.35-.73-28.98-.39-43.38,1.14-3.82,3.53-6,7.58-6.47s13.05-1.15,16.71-.64c1.96.27,6,2.46,6,4.48v15.04h6.29v-16.43c0-.52,1.19-3.36,1.7-3.9,2.7-2.76,19.01-3,23.31-2.28l.9.71c1.53,4.14,3.2,7.53,3.73,12.01.17,1.37-.52,5.61.02,6.4.89,1.3,7.5-.77,9.47,0v-19.92c0-3.77,9.58-2.9,12.2-3.19,4.39-.46,9.5-2.12,13.86-1.2,1.34.27,8.23,4.04,8.94,5.04,2.04,2.84-.48,15.88.8,20.19.61,2.07,2.98,2.03,4.76,1.89v-18.53c0-.44,1.05-.97,1.68-1.02,1.75-.13,12.89,5.47,14.04,6.98,2.75,3.61.83,9.14,1.03,13.65.23,4.92.06,9.56,6.24,7.93,2.5-3.73-2.31-14.72,2.14-16.31,2.75-.99,5.37,2.13,7.45,3.03,2.26.99,8.99,2.58,9.91,4.77,1.41,3.34.13,8.76.12,12.4-.04,9.55.49,19.1-.81,28.56-4.93,5.12-11.42,10.05-12.36,17.7-1.7,13.78,1.71,29.64.63,43.62,3.72-3.85,6.5-8.65,10.12-12.59,5.72-6.23,13.04-11.45,19.94-16.08l-.43-1.43c-.83-.65-9.42-3.45-10.41-3.45h-11.19l.04.04ZM120.75,74.64v37.06c9.47-.81,18.88-2.45,28.32-3.5,11.84-1.31,23.81-1.75,35.65-2.81,10.15-.9,20.22-2.44,30.42-2.79-.31-1.64-.68-3.53-.71-5.21-.17-7.09.15-14-.01-20.98-.05-2.15.75-11.79-.99-12.09l-14.9,2.08c-2.57,6.66.95,13.84-.83,20.45-1.69,1.44-14.19,3.01-17.17,3.15-3.21.15-6.46-.11-9.51-1.09-1.2-3.27,1.57-17.78-.61-19.57l-12.6,1.11c.59,3.45,1.64,18.72.07,20.7-2.73,1.55-20.64,4.7-21.74,1.87l.4-19.09c-.56-.75-1.22-.68-2.04-.63-4.37.23-9.32,1-13.73,1.37h-.02ZM300.96,76.96c-.64-.33-1.25-.23-1.91-.21.4,3.52,1.9,5.64,5.59,4.2-2.37,2.5-1.06,3.59.7,5.94l2.79-2.45c0,2.76-2.67,5.3.7,6.99-.64-1.47,2.16-5.87,2.81-3.14.4,1.72-2.01,4.73-.69,5.93s2.73-3.67,4.18-3.5l-2.09,5.93c1.4,2.22,3.13-1.66,4.89-1.74l-2.45,5.6c1.55,2.48,4.01-3.4,5.94-2.79.84,1.65-5.29,6.42-3.5,7.35,2.58,1.33,6.47-5.78,7.69-4.54-.29,2.73-4.09,5.02-4.79,6.74-1.83,4.51,5.92-2.48,6.88-1.85.97.94-6.02,6.12-4.89,8.38l7.55-5.53,2.92.29c-2.73.78-7.31,5.8-8.38,8.39-1.47,3.59,4.77-2.48,5.08-2.65,1.18-.67,2.62-1.28,4.01-1.19l-6.28,8.05c.08,2.83,2.57-.75,3.53-1.37,1.53-.97,3.26-1.63,4.84-2.48,1.03,1.09-9.64,9.18-5.24,9.07.27,0,3.5-2.82,4.34-3.36.74-.48,3.66-2.85,4.4-2.21l-6.99,9.78c.52.53,6.74-5.04,7.91-5.73,2.19-1.28,4.92-2.76,7.48-2.66-15.3-14.74-27.72-33.18-46.34-44.07-.46-.27-.57-1.09-.69-1.15h.01ZM378.76,86.52c-1.55-3.19-5.35-3.44-8.38-4.18l2.06,4.57,6.34-.38h-.01ZM379.45,88.63c-1.14.12-6.09-2.01-5.6.34,3.84,8.83,6.81,18.13,7.7,27.6,1.89-.13,2.5-1.72,4.58-2.06,2.28-.36,4.96.17,7.3-.05.27-1.59-.14-1.37-1.37-1.74-2.95-.88-6.72-1.08-9.81-1.07,2.19-3.02,6.84-.39,9.78-1.74l-1.75-1.78-8.04-.67c-.34-2.1.52-1.12,1.7-1.41.73-.18,6.95-.51,5.29-2.07l-9.09-1.41c.99-3.16,7.03.88,6.99-2.78l-7.69-1.41,4.9-2.44-6.29-1.77c-.75-2.7,3.66.18,4.89-1.39-1.09-2.71-3.85-2.13-6.29-2.09l2.79-2.08h0ZM236.81,109.59c1.7-1.56-7.89-5.2-9.08-4.89-.71.61,2.01,2.91,2.26,3.01,2.09.82,4.73.83,6.82,1.88ZM257.08,117.31l-15.37-7c-.43,1.65,1.07,1.72,2.19,2.32,4.08,2.18,9.02,3.11,12.85,6.06l.33-1.38h0ZM212.33,117.98l.04-5.97c-5.47-1.41-8.6.02-8.43,5.97h8.39ZM193.35,112.52l-8.31.21-.36,5.98c.86,1.2,7.64.92,9.01.04,1.8-1.15.63-5.62-.34-6.23h0ZM173.74,120.64c.27-.37.94-4.37.86-5.05-.51-4.17-7.35-1.88-9.49-.39-.63,3.25.07,7.31,4.14,6.98.68-.06,4.24-1.21,4.49-1.53ZM154.9,116.7c-3.11-1.96-4.66.38-7.48,1.4-1.12,7.01,2.81,4.62,7.57,4.79l-.11-6.19h.01ZM381.55,128.49c-7.36-2.41-13.23-7.69-19.57-11.9l-1.4,4.89c1.21-.5,2.57-4.03,4.17-1.75l-4.18,5.93c.42.39,4.3-2.56,4.68-2.95.11-.11-.61-2.26,1.25-1.94s.32,1.59.07,2.15c-.89,1.96-3.35,5.48-.43,7.32,2.2,1.39,3.88-2.85,6.31-2.48.99.96-4.67,4.51-1.72,4.9,1.11.14,4.14-2.28,5.73-2.64,1.83-.4,5.65.84,5.09-1.55h0ZM136.01,123.48c2.01-7.37-8.64-7.72-7.48-1.81.84,4.28,4.52,3.61,7.48,1.81ZM419.91,144.46l-2.39-.56c-3.84-4.55-8.48-8.3-12.55-12.61-4.96-5.23-7.99-13.05-17.01-12.51l-4.3,8.31,6.99-4.89-4.2,6.28,4.2-1.39-1.39,2.78,4.89-1.39-1.39,4.18,4.2.71c-2.35,4.16,1.99,4.27,4.55,6.98,1.17,1.22,7.2,9.11,7.34,10.15.5,3.88-3.92-1.83-4.23-2.08-3.5-2.76-6.34-2.4-10.46-1.76,2.37,3.63,5.16,6.49,9.78,4.89.84,1.99-1.27,2.06-1.38,2.57-.52,2.52.07,6.73-1.08,9.31-.7,1.56-4.35,4.43-5.23,6.3l9.74,1.49.39,2.02,10.83-5.59-4.89,4.55c-.19,1.03,0,1.25,1.05,1.05.39-.07,4.21-2.29,5.39-2.87.53-.26.55-1.2,1.05-1.32,1.34-.31,3,.13,4.4-.04-1.81-2.7-9.8-7.22-12.57-5.94-.69.32-8.2,9-9.81,4.9,2.89-1.01,3.98-4.07,5.92-5.96,2.13-2.06,2.01-1.43,4.07-4.03.36-.45,1.52-.53,2.21-1.57,1.81-2.71,1.14-7.47.38-10.46,1.9,1.72,3.77,3.61,4.83,6.02.75,1.7,1.93,7.54,3.03,8.51.14.13,3.5,1.37,3.69,1.36,2.19-.13,4.16-6.82,3.83-8.89-4.48,1.78-1.45-2.06-2.43-4.17-.23-.5-5.22-6.22-5.64-6.31l-1.82,1.99h.04ZM210.94,266.92l-.31-141.98c-.58-.84-1.32-.53-2.07-.62-5.98-.65-19.82.93-26.62,1.37-11.61.74-22.99,1.93-34.46,3.98-1.83.33-12.26,1.17-12.71,1.63-.05,7.77-1.87,15.75-.67,23.4l-.44,33.93c5.16.81,10.25.93,14.94,3.59.93,3.97-1.26,17.17,1.13,19.51.9.88,2.6,1.12,3.54,2.06,2.38-2.6-.07-17.33,1.14-18.08,3.4-1.21,16.41,3.82,17.24,6.69l.15,68.02c1.4-.31,1.19-1.3,1.31-2.35.34-2.87-.57-7.35-.51-10.53.14-6.99.14-17.9,1.32-24.49.29-1.63,1.99-3.4,3.13-4.57,2.66-.21.76,4.61,1.05,4.89l5.6.36c-.43,3.58-5.18,1.24-5.6,4.18v31.82l2.76-.04c2.22-6.54-2.06-23.92,1.38-28.85,1.31-1.88,2.63-1.14,2.89,1.24.76,7,.13,17.82-.11,25.14-.02.67-.78,1.68-.63,1.81h4.2c-.25-1.96-1.41-11.29,1.06-11.88,4.2,1.66.96,7.75,3.5,10.49.08-10.45,4.11-8.35,3.15.7,4.86-2.65,9.38-1.14,14.68-1.4h-.04ZM349.38,206.09c-.5.56-3.32,2.34-2.48,3.51,5.02,2.97,10.87,3.42,16.11,4.89,2.13-1-1.44-4.61,1.75-4.2l1.41,6.29,2.78-1.4-1.39-1.38h2.09l-.69,4.89,2.77-2.09,1.4,2.43-2.08-.33c-.53,2.03,2.75,5.17,4.89,3.5.71.77-2.07,5.04.7,5.59-.57-2.09,1.58-3.57,2.79-1.71l-.7,3.82-1.38.33,4.2,8.05c3.5-1.87-2.6-3.47.34-5.58,2.95,1.59,1.65,6.73,5.15,6.34l.08,5.54-2.09-.36,3.84,5.94.36-2.09,2.08,1.76-2.09,1.06c2.43,6.85-.25,10.66-2.78,16.76,3.67-1.15,3.98-4.01,5.24-6.99l1.05,4.2,2.1-3.5c.82-.2,1.78.37,2.08,1.06.63,1.46-2.26.94-1.39,1.72.07.07,1.07.14,1.68.76,7.66,7.92,8.23,14.27,4.6,24.76,7.81,1.45,9.7-9.94,8.41-15.72,4.6.25,5.92,6.11,6.63,9.78,2.97-1.46,3.94-5.79,5.46-7.48.71-.8,2.29-1.05,3.3-2.14.69-.74,3.39-5.04,2.78-5.75-9.28-1.84-15.34-1.06-23.22-7.04-10.57-8.01-12.77-18-18.62-29.1-2.89-5.48-6.36-10.69-9.44-15.78-2.5-4.11-7.91-17.17-13.4-16.63l-.4,2.03-4.16.07c6.87-5.48,1-3.69-2.98-5.05-3.1-1.07-4.73-4.68-8.52.19-2.15,2.77-.82,7.13-5.27,6.27.19-4.29,3.95-6.98,6.98-9.44l-1.39-1.44c-.94-.57-3.73,1.41-4.23,2.1-.96,1.34-.3,4.11-2.75,3.89-2.97-6.23,3.97-3.94,3.48-9.08-3.59-.23-4.36,4.16-7.34,5.58-2.48-1.85.19-2.27.73-3.52s-.92-3.94,1.74-3.79l-.36,1.74h2.45c.32-2.04-1.14-2.81-1.2-2.98-.32-.9.78-1.85-.56-2.62l-.77,2.13-4.45-.38c.42-2.59,3.84-2.92,4.53-3.82.58-.74-1.19-4.49,3.84-4.23,1.06,5.52,6.65,9.88,12.01,11.42,11.82,3.39,22.65,1.47,35.71,6.24,7.16,2.62,15.19,6.55,20.79,10.65,1.8,1.32,5.48,2.21,7.45,3.78,1.7-1.08.83-1.4,3.73-.62l-2.09,1.38,25.8,8.08,1.46,1.37-1.39.69c3.13,3.07,5.75,6.74,7.34,10.84,3.25-1.11,2.4-4.78,3.2-7.17.23-.69,1.26-.58,1.56-1.39,3.83-10.18-.17-16.24-.24-25.32-.05-6.91.95-14.43,1.41-21.35-3.28,3.55-4.87,7.93-10.49,8.39l.7,2.78-2.88-1.02.08-2.47c-4.42,1.13-7.05-3.63-10.5-2.81l.71-1.39c-3.38.65-7.64-.42-10.84.15-1.47.26-4.27,1.76-7.67,1.99-3.92.26-5.86-1.11-9.99,1.18-3.01,1.66-.97,7.69-5.77,6.46,1.84-3.91,3.59-7.66,6.99-10.47-3.8-.88-4.43,3.69-7.69,4.18-.49-2.07,1.65-1.33,2.45-2.82.17-.32.76-3.22-.67-2.75-3.59,1.19-6.53,4.57-8.43,7.66-1.9-2.45,6.38-7.99,5.24-9.08l-8.38,4.89c-1.47-1.38,7.7-5.33,7.69-6.98-6.75.27-9.42,4.4-13.28,9.08l.65-3.19,7.03-7.3c-6.99,3.34-11.34,6.99-19.66,5.88-.58-.07-5.88-1.2-6.17-1.33-.39-.17-5.84-5.58-5.99-5.97-.42-1.02.67-5.67-1.06-7.64-3.59-.51-3.48,3.4-6.95,2.76,1.38-3.34,4.81-2.95,6.99-5.24-2.82-2.46-4.71.55-7.69.36,1.28,3.28-2.33,6.12-.69,9.78l-6.29-3.84c.69-1.39,3.3-.27,3.45-.39.2-.17.24-1.63.74-2.27,1.43-1.85,1.46-2.79,2.4-3.98,1.26-1.59,2.5-2.35,4.6-2.1-.3-1.46-3.25-1.32-4.01-2.27-.57-.7-.65-3.01-1.58-4.01,3.99.37,7.36,2.4,11.53,2.4,7.11,0,9.45-4.4,16.1,1.07,2.81,2.31,7.38,9.2,10.47,9.13,6.7-.15,4.83-7.45,3.2-11.61-.92-2.35-3.4-3.64-3.89-4.52-.45-.8.49-1.9-.31-2.43s-11.51-5.22-12.28-5.28c-1.58-.13-5.28.34-6.81.78-.65.19-.34,1.4-1.55,1.43-1.34.04-2.56-.74-3.64-.76-1.18-.04-3.38,1.87-4.43.68-.95-1.08.62-1.53,1.37-1.75,2.78-.77,5.6.15,7.93-.37.52-.12.55-1.13,1.03-1.32,1.13-.45,3.46-.23,3.65-1.44-3.9-.18-4.9-2.9-7.01-4.53-.65-.5-8.17-4.91-9.25-5.46-2.4-1.22-7.22-2.16-9.89-1.84-4.16.49-14.37,7.66-11.26,12.53l2.78-3.53,5.97-4.85c.53.52-5.27,6.92-5.77,7.86-.31.59-1.24,2.76.17,2.62l1.02-2.13,8.77-5.55c.62.56-1.81,2.75-2.15,3.07-.77.71-1.81.75-2.53,1.33-1.45,1.17-2.6,4.35-5.8,3.99,1.37,1.81,3.97,2.32,5.91,3.54,1.01.64,2.87,1.28,2.47,2.75-5.3-.68-9.57-2.59-14.33-4.91-.81-.39-1.58-.94-1.76.38-.14,1.03,4.49,7.25,5.27,9.4.33.94,1.06,2.38-.71,2.12-9.18-9.21-18.22-21.8-31.82-23.76,5.92,4.61,11.33,7.56,16.44,13.27,3.57,3.99,8.18,12.4,12.28,14.96,1.11.69,6.25,2.1,6.22,2.89-2.32,1.19-6.17,5.75-8.35,6.35-2.02.55-7.55-1.34-10.79-1.03-5.58.52-9.86,3.58-15.11,4.83-.05-2.48,1.85-2.33,3.48-1.39-.17-3.79,7.34-4.58,10.5-5.61l-10.69-5.75-2.81-.55-.49-2.08c4.9,2.31,11.4,4.97,16.77,4.55-1.32-1.45-3.33-1.77-4.89-2.82-8.6-5.83-11.89-6.36-21.86-8.89-.84-.21-3.67-1.06-4.01-1.93,5.67-.68,12.72.1,18.33,1.58,3.92,1.03,7.95,3.92,11.72,3.66-2.32-2.88-5.52-6.02-8.44-8.33-2.41-1.91-6.34-2.14-6.24-6-5.09,7.76-14.3,6.28-22.37,7.69-.33,1.96.34,1.06,1.06,1.38,3.99,1.83,12.45,7.23,14.91,10.96,2.59,3.94,3.51,8.9,1.66,13.31-1.66,3.98-4.99,6.36-7.16,9.63-.46.7-2.59,4.08-2.08,4.55,2.6.13,4.73-1.95,6.65-3.48,1.96,3.99,8.93,1.66,12.61,4.15,4.97,3.36.61,12.09,1.02,12.61,3.66-3.09,13.51-11.37,18.4-9.69,2.43.83,3.25,6.51,4.11,8.49,1.22,2.77,6.62,9.17,9.31,10.28.32.13,1.14.18,1.03-.33-3.99-2.6,4.28-10.95,6.3-9.44-1.21,2.04-3.22,4.55-3.5,6.99,1.69-1.89,3.34-4.49,6.29-4.2.46.4-3.74,5.72-4.17,5.97-.69.4-1.36.38-2.12.32.04-.69-.08-1.41,0-2.09h.01ZM389.5,136.02c-.2-.37.33-1.08-.23-1.58-3.3-3.01-13.35-5.34-14.71.68,1.17,1.62,3.13.99,4.87,1.06l-.7,2.09,1.76.71c.89-1.96,1.57-2.43,3.84-2.1l-2.79,2.1c-.51,2.73,4.81,2.75,5.59,1.03l-2.09-1.74,5.59-.71c.78-1.63-.97-1.25-1.13-1.53h0ZM399.73,143.85c-3.11-4.97-7.25-5.42-11.88-2.08l.43,1.38c3.96,1.31,7.39.96,11.46.69h-.01ZM241.01,176.02v-26.23c0-.32-1.94-2.58-1.4-3.85-3.95.29-3.02,7.6-3.06,10.79-.07,5.75.52,11.65.36,17.43l4.1,1.84h0ZM373.16,159.94c-4.04-.18-6.7,1.43-6.16,5.75.4,3.16,4.22,6.57,7.32,7.26,1.41.31,4.62.38,6.05.12,1.82-.32,1.6-1.38,2.06-1.69.38-.25,3.42-.17,2.29-3.03-.14-.34-4.14-5.59-4.55-5.99-1.03-.99-2.52-2.15-2.81,0-.33,2.47.02,5.42-.75,8.01h-2.7l-.75-10.45h-.01ZM435.39,178.11c-6.28-6.61-10.68-9.97-19.58-4.87l2.79,2.08c-1.52-.64-4.86.15-5.87,0-.51-.08-.33-2.97-2.5-.34,0,.52,8.79,4.39,9.45,4.52,4.79.92,10.6-2.7,15.7-1.38ZM282.96,174.63l-1.63,1.49-5.36,11.09,6.46-8.57.52-4.02h.01ZM283.85,182.94l-5.55,12.46,1.12.5,5.55-12.46-1.12-.5ZM98.37,216.23v-17.13l-9.68.81-1.62,18.31c-.44,1.3-4.4,1.71-5.85,1.84-2.35.21-11.82.52-12.99-.97-2.23-2.78,1.4-15.76-.74-17.1l-11.81.94-.68,34.63c9.47-1.25,18.99-2.89,28.48-3.91,10.9-1.18,22.35-1.87,33.39-3.09,5.29-.58,10.79-2.37,16.11-.86,2.03-.17.24-11.44.26-13.49s.76-3.72.78-5.55c.05-4.55-.52-9.34-.02-13.66l-13.94.73-.92,18.68c-.92.76-17.82,1.94-19.4,1.2-.32-.15-1.34-1.15-1.4-1.39v.02ZM389.93,201.21c-3.78.29.13,1.71.52,2.21.24.31.61,6.61,1.93,7.56l1.75-7.68c-1.52-.62-4.45-.02-4.21-2.09h.01ZM245.2,224.62c-.18-4.53.13-9.11,0-13.64l-13.29.7v30.77c6.61-.21,13.3.3,19.92,0,11.22-.51,22.39-2.76,33.57-3.48,2.66-.18,13.1.53,14.36-.32,1.5-1.01.01-3.46-.04-4.95-.32-9.72,1.53-19.35-.07-28.94-1.22-1.02-13.16-.25-14.79.63-2.83,1.52.02,14.99-1.56,18.19-1.33,2.67-14.73,3.03-15.07,1.63-.68-2.98,2.65-16.32.69-17.7l-10.01.78-.97.92.2,17.89c-1.02,1.55-10.15,1.85-11.82,1.28-1.95-.68-1.11-2.75-1.14-3.76h.01ZM320.02,224.97c-1.7-2.75,1.17-17.49-2.44-18-.39-.06-1.55.55-1.82.99-1.06,1.69.13,16.47.86,16.92l3.4.1ZM403.22,207.49h-3.5l.7,7.68c2.1.33,1.13-.51,1.41-1.7.49-1.99.49-4.1,1.38-5.99h0ZM392.02,213.1l-1.38,1.02c1.93,3.55,5.85,8.89,7.12,12.48.38,1.07.8.84-.5,1.87l-9.42-11.56c-.83-.73-1.76-.53-1.41.7.44,1.53,4.86,6.44,6.15,8.55,1.88,3.06,3.42,6.72,5.11,9.91l6.92-2.02c-2.35-4.46-4.4-10.06-7.12-14.21-1.56-2.37-4.2-4.3-5.48-6.75h.01ZM410.9,222.17l3.44-7.2c-1.05-2.31-3.36-1.97-5.53-1.89-.04,1.7-.11,3.39.17,5.09.1.57,1.14,3.8,1.93,4.01h0ZM335.4,229.86v-12.23c0-.38-2.23-3.47-3.5-2.45-.2,4.8-1.63,9.27.33,14l3.16.69h0ZM405.33,226.36c1.57-2.4-1.53-10.15-3.38-4.67,2.67,7.14,6.78,14.52,4.39,22.17,4.61,9.53,12.58,17.87,23.85,17.42,5.3-.21,5.6-1.64,5.91-6.94-1.68-.07-2.33,1.57-3.98,1.95-2.92.67-9.45-.64-11.44-2.98-.49-.57-.15-1.52-.64-2.12-1.56-1.89-3.88-3.95-5.18-6.02-4.21-6.62-4.01-13.79-6.73-20.9l-2.78,2.09h-.01ZM429.81,229.16c1.27.96,3.8-3.79,3.42-5.14-.42-1.47-3.45-2.06-4.83-1.85l1.4,6.99ZM148.71,235.46c.77-3.72-3.29-4.91-6.29-4.89.75,2.97,4.16,3.23,6.29,4.89ZM151.51,234.06c-.76,2.22,3.61,5.2,5.09,4.81l1.88-1.66c-1.68-2.02-4.37-3.02-6.98-3.14h.01ZM115.85,244.53c1.84.74,9.69.9,10.4-1.13,2.21-6.36-8.24-6.44-9.55-3.25-.45,1.13-.38,3.08-.86,4.37ZM306.74,240.35c1.19-.18,11.95,4.71,11.86,1.76-.06-2.32-14.65-5.48-11.86-1.76ZM97.74,247.27c4.8.69,9.02-2.25,6.99-7.29-6.38-1.19-9.43.67-6.99,7.29ZM403.22,239.66h-5.59c-.01,2.7-.56,5.72,1.74,7.68,1.12,0,4.16-7.31,3.84-7.68h.01ZM77.39,249.44c9.95,1.85,12.6-10.2,1.36-8.08l-1.36,8.08ZM63.18,242.63c-.8.02-3,.78-3.21,1.62.64,2.78,1.33,5.47,4.66,5.75,6.54.55,2.58-7.47-1.45-7.37ZM338.9,249.44l-14.68-5.6c-2.38,2.21,12.34,6.8,13.68,6.94s1.01-.13,1-1.34h0ZM138.23,244.55c-1.51,2.78,3.7,5.29,4.18,3.14.51-2.27-2.45-3.3-4.18-3.14ZM280.17,252.94c.74-5.8-.89-8.65-6.9-6.19l.56,5.88,6.34.31h0ZM296.95,245.95l-6.34.31-.65,5.99,6.34-.31.65-5.99ZM255.69,254.34l7.39-.65c1.15-5.84-1.93-7.87-7.3-5.54l-.11,6.19h.01ZM244.29,250.35c-2.9-3.61-8.48-.12-5.05,4.01,1.6,1.46,4.13.51,5.9-.08.24-1.3-.01-2.89-.84-3.92ZM166.88,272.51c.15-2.54,1.85-23.13-.34-23.08-.46,6.1-.73,12.41-.65,18.53,0,.92-.06,4.34,1,4.54ZM63.41,388.58c-1.24,6.43-4.52,14.72-6.24,21.38-1.52,5.87-2.78,11.89-4.24,17.77l13.71-1.32,8.65.62c.29-4.1.24-8.9.71-12.93.14-1.19.81-7.37,1.75-7.34l1.75,2.45-1.07,16.48c.74,1.38,15.38-2.21,17.13,1.69-.02,1.47-11.28,2.77-12.58,1.74l-.69-1.39-.38,2.14-29.66,1.74c-1.65,1.01-2.85,5.74-2.16,7.68,1.12.64,8.39.42,10.08.08,1.51-.3,5.29-2.71,6.99-2.59.9.06,3.61,4.26.27,5.81-4.02,1.87-6.51.3-9.97.46-2.78.13-5.44.81-8.25.74l-1.88,4.21,26.12-1.5c2.72-.9-.01-5.53.5-7.14.86-2.7,10.03-.53,7.99,3.06l-3.78.06-.04,4.8,7.56-.06c1.32-1.91.02-8.39,3.26-8.16,1.27.1,1.85,4.53,2.37,5.9.39,1.01-.67,2.03,1.45,1.65.56-2.38.08-13.43,2.46-13.98l1.71,1.77,2.12,12.21.71-10.49h2.79v11.19h10.49v-2.81l1.4.34c-2.28-4.76.06-5.84.7-10.14h3.48l.02,2.12c1.26-.95,2.34,0,3.14,0h12.23c-4.01-21.76-5.79-43.92-5.62-66.1.14-19.9.73-40.16.76-60.07.04-19.7-.11-39.45-.04-59.11-7.24,1-14.72.17-22.02.7-6.56.49-13.07,2.07-19.59,2.78-3.14.34-20.11.48-21.23,2.2-.37,3.08.17,6.25-.1,9.33-2.72,31.92-.77,63.85-1.39,95.8-.17,8.65.29,17.46-1.4,26.23,2.89-2.01,5.08-.56,7.31-.77,1.72-.17,10.01-2.2,10.14-.27.19,2.79-11.46,3.99-13.7,3.79-.93-.08-4.99-1.41-3.77-2.73h.04ZM296.94,259.23c-18.06-2.26-35.86,1.87-53.77,2.85-1.4,12.63-.5,25.37-.74,38.08-.68,36.75,1.89,75.41-5.8,111.67-1.62,7.6-3.69,15.6-6.11,22.9,4.67,2.44,12.05-.97,15.76-.4,1.8.27,2.92,4.08-.04,4.6-4.76.84-11.5.24-16.43.71.64,1.85-2.22,6.62.32,6.99,6.16.89,12.84.08,18.88.73l25.81-.12c3.66-1.27-1.13-12.3,3.58-13.9,1.87,3.78,2.79,8.96,3.16,13.29,7.86-1.3,15.95,1.17,23.76-.01l-4.2-24.47c-12.11,2.65-24.64.57-36.9,1.87l-.84.77-.68,9.49-2.12,1.18-1.44-11.89c-2.12.18-20.29.45-20.23-1.75.81-.93,1.93-1.63,3.17-1.71,5.27-.36,11.6.78,16.74.73,3.17-.04,6.24-2.21,9.07-.05,2.04-.33.43-8.05,1.37-9.84.34-.49,7.14-1.95,8.4-2.08.74-.07,3.9-.48,3.88.73-3.73-.08-5.74,2.26-9.04,2.15l-.04,9.05c3.4-.9,6.41,1.01,9.43-1.43l1.39,1.41c1.72-4.29,16.33.11,17.14-.69l-1.4-11.19c-1.75-.04-1.96,2.01-2.1,2.09-.24.14-1.27-1.11-2.4-1.3-3.06-.51-7.7,2.33-10.16.24-.64-3.04,12.53-3.2,14.68-1.74l-2.41-19.22.32-118.17-1.02-1.57-15.29,1.95c-3.01-2.44,1.76-3.16,4.14-3.45,1.45-.18,10.31-.77,10.78-.45.69.48.26,1.99,1.38,1.77v-9.82ZM194.16,292.44c-.52-1.85,0-8.62,0-11.19,0-.38-1.08-1.56-.7-2.45h-14.34c-.14,0-2.45,1.26-2.45,1.4v13.64c0,2.4-13.14,3.85-14.71,2.82-2.41-1.58-.62-13.33-2.39-16.48-.97-1.38-5.92-.13-7.7,0s-6.02-1.7-6.65,1.8l.73,27.57c15.09.51,30.2-.38,45.1-2.78l4.16.73,39.43-2.87.46-13.26-8.04-.7-.05-16.04-14.65,1.44-.69,17.12c-3.27.11-16.52,2.87-17.54-.73v-.02ZM321.29,280.35c-.59-.34-1.33-.08-1.96-.15-.61,12.27-1.12,24.81.37,37.08,5.53,1,3.09-7.62,3.21-10.85.14-4.45,2.02-23.98-1.6-26.07h-.01ZM159.89,313.07h-2.78l1.03,2.83c.9,2.67-4.65.4-5.6.36-1.96-.12-3.97.26-5.93.32l.74,7.66,8.36.39v2.44c-1.99.39-8.29-1.02-9,1.15l-.1,7.24c1.53.11,2.83-.55,4.36-.51.63.01,3.09.27,2.64,1.57-.42,3.26-4.71,2.4-7.01,2.44,1.38,2.57-.45,5.36-.46,6.65-.01,1.06,1.58,2.02,1.63,2.79.04.61-1.05,1.74-1.13,2.83-.21,2.89.07,5.83-.04,8.7,4.7.27,12.15-1.96,6.54,4.81l-5.73-.51-2.2,8.98,7.63-.05c.7-1.09-.05-2.65.25-3.58,1.93-5.94,10-18.2,14.48-22.59,2.43-2.37,13.43-10.14,16.42-11.54,3.98-1.88,8.35-2.78,12.65-1.43s18.55,11.64,21.73,14.97c4.21,4.4,7.11,10.96,10.03,16.24l6.99-.4-.3-8.43c-1.02-1.46-6.3.25-6.68-1.71-.56-2.87,6.56-1.31,6.99-1.74l-.7-20.28c-2-.4-9.11,1.28-9.11-1.75,0-3.5,8.14-.48,9.49-2.4l-.46-6.97-12.52.62c2.27-4.15,8.45-3.76,12.55-3.5l.73-4.89c-5.08-.3-15.81-1.46-20.25,1.08-3.07,1.76.3,6.85-3.16,8.52l-1.8-.97.06-7.47c-.27-1.12-11.07-1.27-12.97-1.22-3.35.08-7.72,1.17-11.19,1.31-1.59.07-8.56-1.56-9.45.63-.84,2.08-.25,5.58.15,7.75,1.38,1.97,10.76-.95,8.27,3.32l-24.88,1.06-2.1-.69-.31-2.13,14.68-.7-.77-8.32-12.51.62.69-3.48h.04ZM352.88,326.35c.2-4.84-6.04-2.94-9.08-2.78.1.77,2.75,1.72,3.35,1.89,1.81.49,3.91.19,5.73.9h0ZM370.36,328.45c-3.63-.02-6.84-2.82-10.49-1.39l8.1,3.45,2.39.04v-2.09h0ZM390.65,334.75l-13.28-3.5c1.14,3.2,4.66,2.5,6.15,3.01.11.04.1,1.01,1.62,1.43,1.72.48,4.66,1.22,5.53-.95h-.01ZM396.23,338.93c3.52.92,7.05,2.37,10.65,3,1.2.21,1.55,1.06,2.62-.55-.06-.82-6.37-3.13-7.58-3.41-.71-.17-7.82-1.17-5.68.95h0ZM201.41,346.17c.33-.45,1.59-.63,1.81-1.33.26-.99.04-1.39-.67-2.06-1.3-1.22-9.65-4.59-11.47-4.51-2.38.1-15.36,6.84-15.76,8.77.92,2,5.46,7.5,7.28,7.3,2.02-.23,5.87-4.9,7.7-6.09l7.97,3.2c.8-1.88,1.94-3.66,3.14-5.3h.01ZM214.18,351.81c-1.07-1.02-7.68-6.46-8.48-6.41l-5.92,7.17c3.42,3.53,8.13,6.69,11.16,10.51,2.35,2.96,3.22,6.29,4.99,9,1.52,2.34,7.29-1.72,8.79-3.4-2.2-6.31-5.73-12.26-10.53-16.87h-.01ZM324.73,348.91c-1.93-1.53-9.56-.56-12.39-1.58-.52,1.5,2.51,2.29,3.38,2.56,1.3.39,9.53,1.97,9.9,1.63.08-.75-.33-2.16-.89-2.6h0ZM174.87,360.22c.93-.93,3.25-1.8,3.1-3.33l-5.84-8.16c-3,1.37-10.62,13.59-12.36,17.01-1.56,3.04-3.66,6-2.38,9.61l7.38,2.04c1.84-6.53,5.41-12.47,10.08-17.18h.01ZM371.07,388.6c-.1-4.8.89-10.34.74-15.06-.08-2.71-.37-8.77-.77-11.14-.14-.83-.42-1.65-1.36-1.77-3.02,4.11-1.62,6.16-1.5,10.22.08,3.22-.46,15.7.73,17.33l2.15.42h.01ZM383.11,389.81c3.98,4.34,2.32-6.32,2.33-7.17.04-4.86,1.15-13.01.29-17.46-.23-1.18-.88-1.74-1.74-2.46-1.07,2.1-1.6,4.96-1.77,7.31-.25,3.52-.34,13.54.02,16.82.11.95.21,2.26.87,2.96h0ZM182.97,371.45c-.81,3.85.59,10.16,0,14.34l-7.73-1.06c-3.46,3.8,2.73,4.29,5.8,4.39,5.74.18,11.48-1.21,17.02-1.87,2.94-.34,11.61.88,12.19-3.2.18-2.27-3.45.04-4.15-2.2-.39-1.26.71-2.81.65-4.1-.08-1.89-1.14-3.86-.7-5.94-1.62-.1-1.25-.25-1.4,1.03-.78,6.68,1.57,13.72-8.29,10.06-.61-6.32,1.51-12.9-1.85-18.77l-1.13,19.48-8.3.05c.94-4.99.74-9.63-.02-14.65-.78.13-1.97,1.9-2.09,2.45h0ZM324.21,391.38v-24.12c0-1.32-3.5-1.32-3.5,0v21.67c0,1.03,2.14,3.13,3.5,2.45ZM235.42,367.6c-1.31.05-4.36-.53-4.84,1.14-.36,1.22,1.93,9.97,4.51,6.57l.33-7.72h0ZM217.94,427.74c2.71-2.37,4.77-.48,7.73-.99,2.18-3.91.97-8.44,1.37-12.64.49-5.18,1.87-10.94,2.06-16.11.11-3.1-1.76-24.5-2.77-25.5-2.09,1.56-6.18.36-7.75,2.39-2.06,2.66,1.13,12.68.07,16.49,2.75-.11,6.41-1.99,7.69,1.74l-6.94,1.12-1.45,33.5h0ZM151.5,376.7c-2.02,1.26-3.51.44-5.59,0l.64,1.78-1.33,1.34,5.59,2.46.7-5.6h-.01ZM164.01,379.59l-7.26-2.87c-.75.48-.87.93-1.02,1.75-1.82,9.5-1.78,23.06-1.45,32.87.1,2.7.64,5.93.74,8.7l1.06-2.14c2.28.46,8.13-.87,6.17,2.84h-7.24c-.45,7.82.26,15.35.7,23.08,3.42-1.32,4.32-1.22,7.69,0l.61-64.23h.01ZM203.95,443.13c1.34-.25,1.2-1.46,1.45-2.46,2.21-8.8,2.29-35.28,1.33-44.72-.18-1.71-.46-5.47-2.78-5.25v52.44h0ZM182.28,392.78v48.6c0,.63,2.69,2.35,3.5,1.74-.53-1.06-.73-1.94-.76-3.14-.43-13.79,1.99-28.23.8-41.99-.19-2.14-.77-5.98-3.53-5.21h0ZM356.38,445.91l-13.98-53.13c1.65,18.06,7.35,35.44,11.28,53.03l2.7.1h0ZM195.56,394.17c-1.87-.15-1.15-.06-1.37,1.06-.53,2.78,0,4.67-.13,6.92-.42,6.92-1.82,31.39.29,36.24.36.81.99,1.74,1.9,1.94-.65-15.4,2.22-30.91-.7-46.15h.01ZM408.99,413.63c-.4-.57-1.09-10.91-2.09-13.68-.12-.32-1.15-2.18-1.57-1.22l1.65,11.04c2.13,3.86,6.34,31.87,8.12,33.01.86.55,1.89.3,2.82.32-1.44-4.93-3.13-9.81-4.43-14.79-1.53-5.9-.94-9.72-4.49-14.69h0ZM332.61,417.26c-3.52-.12-6.31-3.57-9.78-1.06-.34.86,6.99,1.91,7.85,2,1.01.1,1.52.61,1.94-.94h0ZM396.23,423.56l-14.68-2.09c.26,1.17,1.76,1.56,2.76,1.78,1.62.37,8.3,1.65,9.57,1.69,1.09.02,2.07-.14,2.35-1.37h0ZM312.33,427.03l-.34-1.39c-1.59,1.06-.69,1.97-.34,3.48l1.06-1.43,6.62,1.43-1.19-2.81-4.11-.62c-.53,1.12,0,1.65-1.69,1.33ZM341,428.45c-2.64-.45-5.34-1.07-8.06-.7-.95.13-2.18.48-1.03,1.39,2.79-.11,7.19,2.33,9.09-.69h0ZM225.62,429.85l-6.29.7c3.27,3.39,1.02,7.95,0,11.88,2.53.1,2.5-3.1,3.34-4.68,1.36-2.53,3.46-4.28,2.94-7.89h.01ZM336.1,441.04c-2.56-.68-4.93-1.83-7.69-1.4-.26,1.55.64,1.66,1.78,2.06.64.21,8.17,1.59,5.91-.65h0ZM134.68,441.77c-5.97-1.38-12.07.14-18.14.31l.71,3.84,17.48-1.4-.05-2.75h0Z"/>
    <path class="st0" d="M63.41,388.58c1.69-8.76,1.24-17.57,1.4-26.23.62-31.94-1.33-63.88,1.39-95.8.26-3.09-.26-6.25.1-9.33,1.11-1.72,18.09-1.85,21.23-2.2,6.53-.71,13.03-2.29,19.59-2.78,7.29-.53,14.77.3,22.02-.7-.08,19.66.06,39.41.04,59.11-.04,19.91-.62,40.17-.76,60.07-.17,22.2,1.62,44.34,5.62,66.1h-12.23c-.8,0-1.88-.94-3.14,0l-.02-2.1h-3.48c-.64,4.3-2.98,5.39-.7,10.13l-1.4-.34v2.81h-10.5v-11.19h-2.79l-.71,10.49-2.12-12.21-1.71-1.77c-2.38.55-1.9,11.6-2.46,13.98-2.13.38-1.07-.64-1.45-1.65-.52-1.37-1.09-5.8-2.37-5.9-3.23-.24-1.94,6.24-3.26,8.16l-7.56.06.04-4.8,3.78-.06c2.06-3.59-7.12-5.75-7.99-3.06-.51,1.62,2.22,6.24-.5,7.14l-26.12,1.5,1.88-4.21c2.79.07,5.47-.61,8.25-.74,3.46-.17,5.96,1.4,9.97-.46,3.33-1.55.63-5.75-.27-5.81-1.7-.12-5.49,2.29-6.99,2.59-1.68.33-8.96.56-10.08-.08-.69-1.94.5-6.67,2.16-7.68l29.66-1.74.38-2.14.69,1.39c1.3,1.03,12.55-.26,12.58-1.74-1.75-3.9-16.39-.3-17.13-1.69l1.07-16.48-1.75-2.45c-.94-.04-1.6,6.13-1.75,7.34-.46,4.03-.43,8.82-.71,12.93l-8.65-.62-13.71,1.32c1.46-5.88,2.72-11.9,4.24-17.77,1.72-6.66,4.99-14.94,6.24-21.38-1.22,1.33,2.84,2.65,3.77,2.73,2.23.2,13.89-1,13.7-3.79-.13-1.93-8.42.12-10.14.27-2.25.21-4.43-1.24-7.31.77h-.02ZM125.32,256.72c-1.62-.25-13.18,1.41-15.24,1.99-.92.26-2.9.96-2.63,2.26.64,1.01,1.37.96,2.41,1.09,2.53.3,13.55-.78,15.99-1.56,2.14-.68,1.03-3.54-.53-3.78h0ZM82.99,263.42c-1.64-.06-13.05-.43-12.59,2.44l10.08.29,2.09-.56.42-2.15h0ZM78.09,275.31c1.93,1.95,11.03-6.06.04-3.46l-.04,3.46ZM90.03,311.62c2.01.38,12.65-.1,13.01-2.35-2.67-10.11,2.48-23.27-2.53-32.93-3.8-7.32-10.33-2-10.06,4.68l-.42,30.61h0ZM117.94,277.41c-1.7-.21-1.11,0-1.47.97-.9,2.43-1.8,9.56,2.19,7.76l-.71-8.74ZM80.88,282.3c-2.25.27-5.27-.9-6.98,1.05,1.83,2.73,6.67,2.57,6.98-1.05ZM120.04,299.78l-1.19-1.97c-12.19-.97-8.99,6.16,1.19,1.97ZM80.77,303.18l1.39-2.35c-2.84-3.9-8.36-.15-12.45-1.03-1.13,5.9,7.44,1.93,11.07,3.4h-.01ZM112.35,317.97c1.75.3,12.38-.55,11.89-3.14-.46-2.46-10.18.9-11.89,1.05v2.08h0ZM82.89,319.45c-1.81-.36-11.78,1.4-11.77,3.06,0,2.81,10.45.15,12.58-.36l-.8-2.7h-.01ZM120.01,323.57l-8.41,1-.65,3.19c3.13.02,11.06.32,9.06-4.18ZM99.06,329.16c-3.44.5-12.51-2.63-12.58,2.79,1.12.2,15.26-.56,12.58-2.79ZM69.71,332.63c11.32,2.45,15.88-4.97.4-2.14l-.4,2.14ZM118.7,345.18c2.97,2.08,4.97-4.07,2.38-4.84s-3.64,3.95-2.38,4.84ZM79.48,341.74c-.52-.69-3.32,2.34-3.39,2.54-.71,2,.8,4.47.59,6.54l2.13-.31.55-.84.11-7.93h.01ZM99.61,376.54c.63-.88.75-1.93.86-2.97.56-5.25.74-17.49.38-22.77-.58-8.45-7.82-10.15-8.77-1.72-.96,8.65.65,18.46,0,27.26l.67,1.46,6.86-1.27h.01ZM109.56,357.13l.33,2.12,1.34.64c1.49-1.11,13.12.17,12.3-3.1-.8-3.16-11.27.92-13.98.34h0ZM76.69,361.31c1.62-3.46-5.73-3.09-6.29-1.74-1.25,3.06,4.86,1.33,6.29,1.74ZM84.3,367.52c3.15-12.16-3.79-11.48-2.71.1l2.71-.1ZM120.04,369l-2.35-.02c-.76.18-2.84,9.04-.7,9.74l2.35.1.7-9.8h0ZM84.38,377.4c1.78-6.06-6.22-.87-9.8-2.09v2.09h9.8ZM110.26,387.87c.61.84,9.32.26,10.84,0,.93-.15,1.97-.68,1.75-1.74-.36-1.71-12.59-1.97-12.58,1.72h-.01ZM99.06,387.19c-1.12.1-9.11-1.47-9.07.34.01.78,2.07,1.75,3.1,1.78,1.13.04,5.3-.86,5.98-2.13h-.01ZM94.18,402.57h15.04c2.18,2.52.56,6.88,1.09,10.08l-4.23,1.11c-.17.93.1,1.55,1.06,1.82.67.19,12.48-.31,13.91-.51,2.64-.36,4.77-1.91,7.42-1.65l.34-1.77c-1.03-1.47-7.67.53-9.8.69-1.97.14-3.97-.06-5.94.01l-.71-8.75,1.18-1.64,13.81-1.43.42-2.87c-.73-.76-13.56,1.91-15.79,2.12-5,.45-10.68-.27-16.03.69-1.22.23-1.96.73-1.76,2.09h-.01ZM88.23,399.07h-13.98c-.25,0-1.07.89-1.75.71l.31,2.13c2.48.43,7.18,1.02,9.82.97s8.7-.49,5.6-3.82h0ZM71.1,410.97l-6.99,1.74c1.93,2.18,4.51,1.05,6.98,1.03v-2.77h.01ZM82.29,414.45c4.45-.02,9.21.76,13.62,0,2.34-.4,2.83-3.14-.18-3.04-3.29.11-8.71.69-11.84,1.56-1.19.33-1.94-.5-1.62,1.49h.01ZM127.04,422.86c-1.81-.13-2.02,1.72-3.85,2.07-3.38.64-11.45.12-15.25.29-5.35.23-9.43,2.27-1.9,3.96.64,2.88-1.13,8.02.37,10.47.67,1.08,1.37.4,1.64-.49.73-2.46.19-8.07,2.26-9.63,2.14-1.62,13.23-1.68,16.36-1.12,2.5-1.58-1.22-3.3.38-5.55h0Z"/>
    <path class="st0" d="M296.94,259.23v9.78c-1.11.21-.68-1.3-1.38-1.77-.49-.33-9.33.27-10.78.45-2.38.29-7.14,1.01-4.14,3.45l15.29-1.95,1.02,1.57-.32,118.17,2.41,19.22c-2.14-1.46-15.31-1.3-14.68,1.74,2.46,2.09,7.11-.76,10.16-.24,1.13.19,2.16,1.44,2.4,1.3.14-.08.36-2.13,2.1-2.09l1.4,11.19c-.81.8-15.42-3.59-17.14.69l-1.39-1.41c-3.03,2.44-6.03.52-9.43,1.43l.04-9.05c3.29.11,5.3-2.23,9.04-2.15.04-1.2-3.14-.8-3.88-.73-1.26.13-8.06,1.59-8.41,2.08-.94,1.8.68,9.51-1.37,9.84-2.83-2.16-5.91,0-9.07.05-5.14.06-11.47-1.08-16.74-.73-1.25.08-2.37.78-3.17,1.71-.06,2.2,18.12,1.93,20.23,1.75l1.44,11.89,2.12-1.18.68-9.49.84-.77c12.27-1.28,24.79.8,36.9-1.87l4.2,24.47c-7.82,1.18-15.91-1.28-23.76.01-.36-4.33-1.28-9.51-3.16-13.29-4.71,1.59.08,12.63-3.58,13.9l-25.81.12c-6.04-.64-12.71.17-18.88-.73-2.54-.37.32-5.14-.32-6.99,4.93-.46,11.67.13,16.43-.71,2.96-.52,1.83-4.33.04-4.6-3.71-.57-11.09,2.84-15.76.4,2.44-7.3,4.51-15.3,6.11-22.9,7.69-36.26,5.12-74.92,5.8-111.67.24-12.7-.67-25.45.74-38.08,17.92-1,35.71-5.12,53.77-2.85v.04ZM255,269.73c-8.49-1.94-11.78,6.27-.81,3.39l.81-3.39ZM271.77,270.43l-4.43-.63-.84.58-.32,2.13c2.5-.06,5.31,1.56,5.6-2.09h0ZM275.91,315.82c-2.18-9,1.14-20.28-.01-28.91-1.52-11.42-9.71-11.45-12.13-.51,1.64,8.48-1.19,20.38.33,28.4.9,4.79,8.55,1.28,11.82,1.02h-.01ZM292.06,287.9c-2.83-1.14-5.65-.68-7.68,1.74,1.58,1.87,4.39.84,6.5,1.07l1.18-2.82h0ZM255.62,291.46l-5.75-.1c-4.51,5.43,6.47,3.01,6.5,1.77l-.76-1.69h.01ZM283.66,303.27c2.94-.24,6.43,1.07,8.37-1.75.02-1.49-6-1.15-7.22-.94l-.84.55-.31,2.13h0ZM245.2,309.56c.32.51,11.73,2.03,10.47-1.74-.5-1.6-9.38-1.47-10.18-.39l-.31,2.13h.01ZM282.95,320.76c.83-.78.99-5.29-.33-6.29-2.33.83-1.65,8.14.33,6.29ZM254.11,323.73c-1.47-.02-3.85.93-5.65.63-4.96,5.04,8.83,4.78,7.83,1.05-.24-.88-1.2-1.68-2.19-1.69h0ZM293.45,327.75c.19-.95-.25-1.69-1.18-1.99-1.65-.53-16.67,2.25-19.1,3.07-1.2.4-1.68.04-1.39,1.71l21.67-2.79h0ZM293.45,335.46c-1.39-.48-6.74-1.22-5.59,1.74.82,2.1,6.73-.19,5.59-1.74ZM284.28,336.2c-8.68.37-18.25-.02-26.83.64-1.81.14-10.88,1.46-10.83,3.14.07,3,7.87-.08,9.44-.04,3.7.12,8.17.93,12.32.65,5.17-.33,10.33-1.75,15.55-1.77l.37-2.65v.02ZM257.68,348.14c-2.5-1.55-3.52,1.95-5.72,1.3-2.43,3.63,5.9,3.34,6.43.95-.06-.53-.46-2.09-.71-2.26h0ZM281.57,352.91c1.7,1.78,11.89.59,11.86-1.03-1.64-2.69-3.1-.93-5.23-.99-2.51-.07-6.13-1.81-6.63,2.02h0ZM270.19,354.51c-4.05-2.91-6.35,2.45-6.59,5.85-.08,1.17.53,2.63.51,4.07-.11,4.76-.9,14.4-.29,18.46.84,5.56,7.3,5.39,7.94,1.85-1.02-5.69,2.1-26.72-1.58-30.23h0ZM248.07,383.62c1.81,1.13,2.82-.26,4.51-.58,2.57-.5,4.61,1.05,5.9-2.48-.08-1.82-8.77-.78-10.47-1.05l.07,4.13h0ZM295.55,396.98l-1.03-4.08c-2.37,1.96-10.96.21-11.56,3.04-.7,3.32,10.95.3,12.59,1.03ZM275.97,395.59c-8.13-.57-16.76-1.66-24.76.63l-.42,2.15,24.31-1.21.87-1.57ZM241.35,410.26h10.49l.7-1.4c-.94-1.32-10.05-1.06-12.24-.69-.23.75.46,1.93,1.05,2.09h.01ZM272.48,435.42c0-4.97-8.79-4.64-8.38.7l8.38-.7ZM301.14,432.63h-11.53c-3.09,0-4.72,2.03-1.08,3.17,1.69.53,11.57.75,12.32-.33l.31-2.84h-.01ZM268.9,440.39c-9.43-1.36-4.73,6.13.76,1.68l-.76-1.68ZM294.85,441.74l-9.33-.59-.84.55-.31,2.14c2.14-.53,4.62.73,6.51.56.77-.07,3.08-2.08,3.97-2.65h0Z"/>
    <path class="st0" d="M210.94,266.92c-5.3.26-9.81-1.25-14.68,1.4.96-9.05-3.07-11.15-3.15-.7-2.52-2.73.71-8.81-3.5-10.49-2.47.58-1.31,9.91-1.06,11.88h-4.2c-.15-.13.61-1.14.63-1.81.24-7.32.87-18.14.11-25.14-.26-2.38-1.58-3.1-2.89-1.24-3.44,4.93.83,22.33-1.38,28.85l-2.76.04v-31.82c.42-2.95,5.17-.61,5.6-4.18l-5.6-.36c-.27-.27,1.62-5.1-1.05-4.89-1.14,1.17-2.83,2.95-3.13,4.57-1.18,6.57-1.18,17.5-1.32,24.49-.06,3.2.86,7.67.51,10.53-.13,1.06.1,2.04-1.31,2.35l-.15-68.02c-.84-2.88-13.84-7.91-17.24-6.69-1.21.75,1.25,15.48-1.14,18.08-.94-.93-2.64-1.18-3.54-2.06-2.39-2.33-.2-15.53-1.13-19.51-4.71-2.66-9.78-2.78-14.94-3.59l.44-33.93c-1.2-7.64.62-15.61.67-23.4.45-.46,10.88-1.3,12.71-1.63,11.48-2.07,22.85-3.25,34.46-3.98,6.8-.43,20.64-2.02,26.62-1.37.75.08,1.49-.24,2.07.62l.31,141.98h.04ZM203.95,131.29c-1.21-1.74-8.75,1.43-8.38,3.13.52,2.47,10.24-.45,8.38-3.13ZM159.19,131.28c-2.06-.19-15.23.76-15.36,2.44,2.47,5.29,10.06-.33,14.68.01l.69-2.46h-.01ZM180.18,137.58c-4.65-1.37-9.71-.89-14.27.63l-.4,2.16,14.67-2.78h0ZM196.26,143.86c-.31,1.69-1.84,6.41,1.63,5.5,2.62-.68,2.06-6.38-1.63-5.5ZM151.33,144.7c-1.69-.04-12.23,1.26-11.71,3.7.5,2.33,12.9-.23,13.28-2.09.19-.94-.62-1.58-1.57-1.6h0ZM175.04,146.19c-4.66-4.53-8.93,2.32-10.08,6.57s-.04,10.08-.13,14.55c-.12,5.18-.36,10.34-.59,15.51l1,1.53,11.65-.63c.5-.11,1.63-2.19,1.74-2.67.82-3.66.5-27.31-.71-30.37-.31-.8-2.28-3.92-2.85-4.48h-.01ZM199.05,156.44c2.37-3.55-6.07-2.31-7.34-2.08-2.14.38-2.26,2.69-1.4,2.79,1.5,0,8.14.18,8.74-.71h0ZM149.41,171.12c1.33-5.35,2.18-11.37,1.4-16.77-2.09-1.71-5.94,15.18-1.4,16.77ZM196.96,171.84h-6.99v2.09c2.62-.06,5.78.84,6.99-2.09ZM150.11,172.53c-3.71.94-9.53-.55-11.88,2.78,3.14-.1,12.48,1.77,11.88-2.78ZM194.16,180.22c-5.21,1-2.26,5.33-2.79,9.08-.94-.63-12.6,1.64-10.49,3.5l14.68-1.4v-2.09l-2.15-.38.74-8.7h.01ZM190.67,205.39c2.18-.7,13.99.12,13.28-3.13-.45-2.07-10.02-.06-11.67.9-.96.57-1.88.86-1.6,2.23h0ZM192.77,220.07c1.94.48,6.35-.19,5.59-3.13-.64-2.48-6.38.53-5.59,3.13ZM182.21,218.74l-6.97.95-.67,3.19c2.97,0,10.14.61,7.62-4.14h.01ZM191.8,224.32c-1.13.38-1.38,2.25-1.64,3.29-.77,3.11-1.53,10.77-1.27,13.81.23,2.71,3.39,4.11,5.67,2.46s1.15-10.5,1.01-13.65c-.13-2.83,1.39-6.04-3.77-5.93h0ZM203.88,250.78c.52-.76.07-3.02-1.08-3.38-.39-.12-7.25.57-8.21.73-3.07.49-5.88.93-5.31,4.81,2.64.43,5.2-1.44,7.45-1.82,1.69-.29,6.42.74,7.16-.33h0ZM196.39,260.45c.37.13,7.43-.51,7.8-.64.92-.31,1.93-2.06,1.75-2.94-.69-3.33-3.08-.23-4.57.11-1.75.39-3.8-.21-5.34.26-2.25.69-.23,3,.36,3.21Z"/>
    <path class="st0" d="M349.38,206.09c.27-2.43,2.28-4.93,3.5-6.99-2.02-1.51-10.3,6.84-6.3,9.44.11.52-.71.46-1.03.33-2.69-1.12-8.08-7.51-9.31-10.28-.87-1.97-1.69-7.66-4.11-8.49-4.9-1.68-14.74,6.59-18.4,9.69-.42-.52,3.94-9.25-1.02-12.61-3.69-2.5-10.65-.17-12.61-4.15-1.91,1.53-4.04,3.61-6.65,3.48-.51-.48,1.62-3.85,2.08-4.55,2.16-3.27,5.49-5.64,7.16-9.63,1.84-4.42.93-9.38-1.66-13.31s-10.91-9.13-14.91-10.96c-.71-.33-1.39.58-1.06-1.38,8.06-1.43,17.29.06,22.37-7.69-.1,3.86,3.83,4.09,6.24,6,2.92,2.32,6.12,5.46,8.44,8.33-3.77.26-7.8-2.63-11.72-3.66-5.61-1.47-12.66-2.26-18.33-1.58.33.87,3.16,1.7,4.01,1.93,9.97,2.52,13.27,3.06,21.86,8.89,1.56,1.06,3.57,1.37,4.89,2.82-5.37.43-11.88-2.23-16.77-4.55l.49,2.08,2.81.55,10.69,5.75c-3.16,1.03-10.66,1.82-10.5,5.61-1.63-.94-3.53-1.09-3.48,1.39,5.24-1.25,9.52-4.3,15.11-4.83,3.25-.31,8.77,1.58,10.79,1.03,2.18-.59,6.03-5.16,8.35-6.35.02-.78-5.11-2.2-6.22-2.89-4.11-2.56-8.71-10.97-12.28-14.96-5.11-5.71-10.52-8.65-16.44-13.27,13.6,1.96,22.64,14.54,31.82,23.76,1.77.26,1.05-1.17.71-2.12-.77-2.15-5.41-8.37-5.27-9.4.18-1.32.95-.78,1.76-.38,4.74,2.33,9.02,4.23,14.33,4.91.39-1.46-1.46-2.1-2.47-2.75-1.94-1.22-4.54-1.74-5.91-3.54,3.19.37,4.35-2.83,5.8-3.99.73-.58,1.76-.62,2.53-1.33.34-.32,2.77-2.52,2.15-3.07l-8.77,5.55-1.02,2.13c-1.4.14-.48-2.02-.17-2.62.5-.94,6.3-7.34,5.77-7.86l-5.97,4.85-2.78,3.53c-3.11-4.86,7.11-12.04,11.26-12.53,2.66-.31,7.49.63,9.89,1.84,1.08.55,8.61,4.96,9.25,5.46,2.1,1.64,3.11,4.36,7.01,4.53-.19,1.22-2.52.99-3.65,1.44-.48.19-.51,1.2-1.03,1.32-2.32.53-5.15-.4-7.93.37-.75.2-2.32.67-1.37,1.75,1.06,1.2,3.26-.71,4.43-.68,1.08.04,2.29.8,3.64.76,1.2-.04.89-1.25,1.55-1.43,1.53-.44,5.23-.92,6.81-.78.78.06,11.46,4.74,12.28,5.28s-.14,1.63.31,2.43c.5.88,2.97,2.16,3.89,4.52,1.63,4.16,3.51,11.46-3.2,11.61-3.09.07-7.67-6.82-10.47-9.13-6.65-5.47-8.99-1.08-16.1-1.07-4.17,0-7.55-2.03-11.53-2.4.93.99,1.01,3.3,1.58,4.01.77.95,3.71.81,4.01,2.27-2.1-.25-3.35.51-4.6,2.1-.94,1.19-.97,2.14-2.4,3.98-.49.63-.52,2.1-.74,2.27-.14.12-2.76-1-3.45.39l6.29,3.84c-1.63-3.66,1.97-6.5.69-9.78,3,.19,4.87-2.82,7.69-.36-2.18,2.29-5.61,1.89-6.99,5.24,3.47.64,3.36-3.27,6.95-2.76,1.72,1.97.65,6.62,1.06,7.64.15.39,5.61,5.79,5.99,5.97.3.13,5.6,1.26,6.17,1.33,8.32,1.11,12.67-2.54,19.66-5.88l-7.03,7.3-.65,3.19c3.86-4.68,6.53-8.81,13.28-9.08.02,1.66-9.17,5.61-7.69,6.98l8.38-4.89c1.14,1.09-7.14,6.63-5.24,9.08,1.9-3.1,4.84-6.47,8.43-7.66,1.43-.48.83,2.44.67,2.75-.8,1.49-2.92.75-2.45,2.82,3.25-.5,3.89-5.06,7.69-4.18-3.4,2.82-5.15,6.56-6.99,10.47,4.8,1.24,2.77-4.79,5.77-6.46,4.13-2.28,6.07-.93,9.99-1.18,3.4-.23,6.19-1.72,7.67-1.99,3.2-.57,7.47.5,10.84-.15l-.71,1.39c3.45-.83,6.07,3.92,10.5,2.81l-.08,2.47,2.88,1.02-.7-2.78c5.62-.48,7.2-4.85,10.49-8.39-.46,6.92-1.46,14.44-1.41,21.35.06,9.08,4.07,15.16.24,25.32-.3.81-1.33.7-1.56,1.39-.8,2.39.06,6.06-3.2,7.17-1.58-4.09-4.21-7.76-7.34-10.84l1.39-.69-1.46-1.37-25.8-8.08,2.09-1.38c-2.9-.78-2.03-.45-3.73.62-1.97-1.57-5.66-2.47-7.45-3.78-5.6-4.1-13.64-8.04-20.79-10.65-13.07-4.77-23.9-2.84-35.71-6.24-5.36-1.55-10.95-5.91-12.01-11.42-5.03-.26-3.26,3.5-3.84,4.23-.69.88-4.11,1.22-4.53,3.82l4.45.38.77-2.13c1.34.76.24,1.7.56,2.62.06.17,1.52.94,1.2,2.97h-2.45l.36-1.74c-2.65-.14-1.19,2.56-1.74,3.79s-3.21,1.68-.73,3.52c2.97-1.41,3.74-5.8,7.34-5.58.49,5.15-6.46,2.85-3.48,9.08,2.45.24,1.78-2.54,2.75-3.89.5-.69,3.28-2.67,4.23-2.1l1.39,1.44c-3.03,2.46-6.79,5.15-6.98,9.44,4.45.88,3.11-3.48,5.27-6.27,3.79-4.89,5.42-1.26,8.52-.19,3.98,1.37,9.86-.43,2.98,5.05l4.16-.07.4-2.03c5.49-.52,10.9,12.52,13.4,16.63,3.08,5.09,6.55,10.28,9.44,15.78,5.85,11.09,8.05,21.09,18.62,29.1,7.88,5.98,13.93,5.2,23.22,7.04.61.71-2.09,5.02-2.78,5.75-1.01,1.08-2.59,1.34-3.3,2.14-1.52,1.69-2.48,6.03-5.46,7.48-.71-3.67-2.03-9.53-6.63-9.78,1.3,5.78-.59,17.17-8.41,15.72,3.63-10.49,3.04-16.83-4.6-24.76-.61-.62-1.59-.69-1.68-.76-.88-.78,2.02-.26,1.39-1.72-.3-.69-1.26-1.26-2.08-1.06l-2.1,3.5-1.05-4.2c-1.26,2.98-1.57,5.84-5.24,6.99,2.54-6.09,5.21-9.91,2.78-16.76l2.09-1.06-2.08-1.76-.36,2.09-3.84-5.94,2.09.36-.08-5.54c-3.5.4-2.2-4.74-5.15-6.34-2.95,2.1,3.15,3.7-.34,5.58l-4.2-8.05,1.38-.33.7-3.82c-1.21-1.85-3.36-.38-2.79,1.71-2.77-.56.01-4.81-.7-5.59-2.13,1.68-5.41-1.46-4.89-3.5l2.08.33-1.4-2.43-2.77,2.09.69-4.9h-2.09l1.39,1.39-2.78,1.4-1.41-6.29c-3.19-.42.38,3.2-1.75,4.2-5.24-1.45-11.09-1.9-16.11-4.89-.83-1.18,1.99-2.95,2.48-3.51-.08.68.05,1.4,0,2.09.76.06,1.43.07,2.12-.32.43-.24,4.62-5.55,4.17-5.97-2.95-.3-4.6,2.29-6.29,4.2h-.01ZM354.28,136.17c-2.98-1.31-2.39.7-3.74,1.84-1.74,1.46-5.08,2.39-4.65,5.14l8.38-6.99h.01ZM355.49,142.32c.29-.19,3.57-5.41,2.64-6.15l-8.82,8.02.08,2.46,1.03-1.41h1.39l1.75,2.12c1.4-2.64,1.02-2.31,0-4.89.57-.01,1.46.17,1.9-.14h.02ZM329.61,174.82c-1.52-1.56-8.8-2.38-11.15-2.13-4.84.49-12.1,3.58-16.39,6.03-.82.46-3.38,1.47-3.03,2.54.57,1.74,1.65.38,2.29.23,5.15-1.26,17.57-5.58,22.17-3.02,2.09,1.17-1.22.86-.7,1.75,5.27-.24,4.01,3.9-1.05,2.09-1.38,1.94,1.02,3.15,2.71,3.46l.43,1.43-7.68,5.27c1.95,1.53,3.23-1.3,4.03-1.71,1-.51,2.4-.43,3.61-1.14.42-.25,5.96-5,6.17-5.36,1.21-2.1.26-7.7-1.41-9.43h0ZM431.9,195.6c.88.24,2.29-1.46,3.84-1.47,2.87-.02,7.07,4.84,8.18,7.29,1.07,2.35.34,5.15,3.03,6.07l1.77-1.87c-1.28-7.11-4.39-12.28-9.82-17.01,4.09-.62,7.41,1.05,11.19,2.1l-2.09,2.08c2.33,1.32,5.5,1.36,4.48,4.2l2.54,2.45-1.44,2.45,4.18,2.1c-.69-1.57.02-4.73-.21-5.83-.36-1.66-2.9-3.99-3.57-5.42-.71-1.51-.81-5.17-1.11-6.93h-2.08l.38,2.81c-2.38,2.13-2.37-.36-2.96-.71-3.88-2.26-7.62.44-9.68.46-.44,0-6.07-3.86-8.02-3.27l4.18-.69-1.75-2.09h-5.24l.71,1.39c-10.62-2.48-16.32,9.55-7.7,16.08-.96-4.65-2.28-12.91,4.81-11.78l1.15,2.69c1.41.51.81-1.24,1.5-1.4,2.31-.56,5.06.71,6.9,2.1.43,1.14-2.35,1.68-3.13,2.5-.62.65-.7,1.52-.04,1.7-.21-.15-4.66-1.88-4.9-1.77-.51.21-1.76,1.68-1.95,2.27-1.7,5.54,5.66,6.12,8.26,8.93,1.41,1.52.37.65-.73,1.4l1.37,2.13,4.87-1.13c1.66-2.38-4.67-8.95-6.48-10.51-.42-.36-.36-1.25-.46-1.32h-.01ZM357.07,210.28l2.79-6.99c-1.32,1.09-7.75,4.67-4.9,6.66.5.34,1.82.57,2.1.33ZM363.36,206.8c-2.37-.11-5.3,1.41-4.89,4.18,3.25,1.66,2.54-.87,4.89-1.4l-1.4-1.74,1.4-1.05Z"/>
    <path class="st0" d="M159.89,313.07l-.69,3.48,12.51-.62.77,8.32-14.68.7.31,2.13,2.1.69,24.88-1.06c2.48-4.27-6.9-1.34-8.27-3.32-.39-2.18-1-5.68-.15-7.75.89-2.19,7.86-.57,9.45-.63,3.46-.14,7.83-1.22,11.19-1.31,1.9-.05,12.7.1,12.97,1.22l-.06,7.47,1.8.97c3.46-1.68.1-6.76,3.16-8.52,4.43-2.53,15.17-1.38,20.25-1.08l-.73,4.89c-4.1-.26-10.28-.65-12.55,3.5l12.52-.62.46,6.97c-1.34,1.93-9.49-1.11-9.49,2.4,0,3.02,7.1,1.34,9.11,1.75l.7,20.28c-.43.43-7.55-1.14-6.99,1.74.38,1.96,5.66.25,6.68,1.71l.3,8.43-6.99.4c-2.92-5.28-5.83-11.83-10.03-16.24-3.2-3.34-17.61-13.67-21.73-14.97s-8.67-.45-12.65,1.43c-2.98,1.4-13.99,9.18-16.42,11.54-4.48,4.39-12.55,16.64-14.48,22.59-.3.94.45,2.5-.25,3.58l-7.63.05,2.2-8.98,5.73.51c5.61-6.78-1.84-4.54-6.54-4.81.12-2.89-.18-5.81.04-8.7.08-1.09,1.17-2.22,1.13-2.83-.05-.77-1.64-1.75-1.63-2.79.01-1.28,1.84-4.08.46-6.65,2.31-.04,6.59.82,7.01-2.44.45-1.3-2.02-1.56-2.64-1.57-1.55-.04-2.84.62-4.36.51l.1-7.24c.71-2.18,7.01-.76,9-1.15v-2.44l-8.36-.39-.74-7.66c1.96-.06,3.97-.43,5.93-.32.95.06,6.51,2.33,5.6-.36l-1.03-2.83h2.78-.04ZM221.43,333.34l-.31-2.13-8.76-.64,1.12,3.44,7.95-.67h0ZM171.09,341.03c3.53.89,3.08-4.87,3.19-7.69.12-3.25-2.44-2.22-3.04-.19-.67,2.2.15,5.52-.14,7.89h0ZM227.73,338.95c-.5-.65-10.66-.18-9.09,3.48,3.19.8,5.21-.49,8.29-.81l.81-2.69h0ZM148.72,350.13c1.69-.31,10.38,1.13,9.78-1.74-.37-1.74-10.12-1.99-9.78,1.74Z"/>
    <path class="st0" d="M120.75,74.64c4.41-.37,9.36-1.14,13.73-1.37.82-.05,1.49-.12,2.04.63l-.4,19.09c1.12,2.83,19.01-.32,21.74-1.87,1.57-1.97.51-17.25-.07-20.7l12.6-1.11c2.19,1.8-.59,16.3.61,19.57,3.06.99,6.31,1.25,9.51,1.09,2.96-.14,15.48-1.71,17.17-3.15,1.8-6.61-1.72-13.79.83-20.45l14.9-2.08c1.74.3.94,9.94.99,12.09.17,6.98-.15,13.9.01,20.98.04,1.68.4,3.57.71,5.21-10.2.36-20.27,1.89-30.42,2.79-11.83,1.06-23.81,1.5-35.65,2.81-9.44,1.05-18.85,2.69-28.32,3.5v-37.06h.02ZM205.37,92.12c-.49,3.95-7.48.88-8.41,5.23.95,1.5,1.43.57,2.52.48,3.92-.34,12-.56,5.88-5.71h0ZM174.58,99.12c-3.52-1.05-7.45-1.08-10.96-.11-1.19.33-1.95-.51-1.62,1.49l2.79.38,9.78-1.76ZM141.72,101.9c-.27-1.28-1.37-1.28-2.41-1.41-3.1-.38-11.95-1.06-11.57,3.52,0,0,13.98-2.1,13.98-2.1Z"/>
    <path class="st0" d="M194.16,292.44c1.01,3.59,14.27.83,17.54.73l.69-17.12,14.65-1.44.05,16.04,8.04.7-.46,13.26-39.43,2.87-4.16-.73c-14.9,2.41-30.02,3.29-45.1,2.78l-.73-27.57c.63-3.5,4.8-1.65,6.65-1.8s6.73-1.38,7.7,0c1.77,3.16-.02,14.9,2.39,16.48,1.58,1.03,14.71-.42,14.71-2.82v-13.64c0-.14,2.31-1.4,2.45-1.4h14.34c-.38.89.7,2.07.7,2.45,0,2.57-.52,9.33,0,11.19v.02ZM219.34,300.48c2.77-.14,5.87.93,7.68-1.74-2.25-2.34-6.42-.84-7.68,1.74Z"/>
    <path class="st0" d="M98.37,216.23c.06.23,1.08,1.24,1.4,1.39,1.58.74,18.47-.44,19.4-1.2l.92-18.68,13.94-.73c-.49,4.32.08,9.09.02,13.66-.02,1.83-.76,3.57-.78,5.55s1.77,13.33-.26,13.49c-5.31-1.51-10.82.27-16.11.86-11.04,1.21-22.48,1.91-33.39,3.09-9.5,1.02-19.02,2.66-28.48,3.91l.68-34.63,11.81-.94c2.14,1.34-1.51,14.31.74,17.1,1.18,1.5,10.64,1.19,12.99.97,1.45-.13,5.4-.56,5.85-1.84l1.62-18.31,9.68-.81v17.13-.02ZM124.23,208.19c-1.72-1.78-3.04,6.32-1.05,6.28,2.71-1.77,1.4-3.7,1.05-6.28ZM64.8,218.68c-4.02-.59-3.35,9.99-1.74,10.49,4.6,1.4,1.78-8.55,1.74-10.49ZM112.35,225.67c3.5-.3,7.8,1.12,10.47-1.74-2.47-2.54-6.22.36-9.3-.38l-1.18,2.12h0ZM94.88,224.28c-2.19.2-6.28-1.11-6.29,2.09h6.3v-2.09h-.01Z"/>
    <path class="st0" d="M245.2,224.62c.04,1.01-.81,3.08,1.14,3.76,1.66.57,10.79.26,11.82-1.28l-.2-17.89.97-.92,10.01-.78c1.96,1.38-1.37,14.72-.69,17.7.34,1.4,13.74,1.06,15.07-1.63,1.58-3.2-1.27-16.67,1.56-18.19,1.64-.88,13.56-1.65,14.79-.63,1.6,9.58-.25,19.22.07,28.94.05,1.49,1.53,3.94.04,4.95-1.26.86-11.7.14-14.36.32-11.19.73-22.35,2.97-33.57,3.48-6.61.3-13.31-.21-19.92,0v-30.77l13.29-.7c.13,4.53-.18,9.11,0,13.64h-.01ZM239.61,222.17l-1.7,1.32c.86,1.5-1.49,8.41.65,8.45,3.59.08.11-7.63,1.05-9.77h0ZM273.17,233.35c-.75-3.39-11.13-.29-9.08,1.4l9.08-1.4Z"/>
    <path class="st0" d="M419.91,144.46l1.82-1.99c.42.1,5.4,5.8,5.64,6.31.96,2.12-2.06,5.96,2.43,4.17.33,2.06-1.64,8.75-3.83,8.89-.2.01-3.54-1.22-3.69-1.36-1.11-.97-2.28-6.81-3.03-8.51-1.06-2.39-2.92-4.28-4.83-6.02.76,3.01,1.43,7.75-.38,10.46-.69,1.03-1.85,1.12-2.21,1.57-2.06,2.6-1.95,1.97-4.07,4.03-1.95,1.89-3.03,4.95-5.92,5.96,1.6,4.1,9.12-4.59,9.81-4.9,2.77-1.27,10.76,3.25,12.57,5.94-1.4.15-3.06-.27-4.4.04-.5.11-.51,1.06-1.05,1.32-1.18.57-4.99,2.79-5.39,2.87-1.05.19-1.24-.01-1.05-1.05l4.89-4.55-10.83,5.59-.39-2.02-9.74-1.49c.88-1.88,4.53-4.74,5.23-6.3,1.15-2.57.56-6.79,1.08-9.31.11-.51,2.22-.57,1.38-2.57-4.61,1.6-7.42-1.27-9.78-4.89,4.14-.64,6.97-1,10.46,1.76.31.24,4.72,5.96,4.23,2.08-.13-1.05-6.18-8.93-7.34-10.15-2.57-2.71-6.91-2.81-4.55-6.98l-4.2-.71,1.39-4.18-4.89,1.39,1.39-2.78-4.2,1.39,4.2-6.28-6.99,4.89,4.3-8.31c9.02-.55,12.05,7.28,17.01,12.51,4.09,4.32,8.73,8.05,12.55,12.61l2.39.56h-.04Z"/>
    <path class="st0" d="M164.01,379.59l-.61,64.23c-3.38-1.21-4.27-1.32-7.69,0-.44-7.72-1.15-15.25-.7-23.06h7.24c1.96-3.71-3.9-2.38-6.17-2.84l-1.06,2.14c-.1-2.78-.64-6.02-.74-8.7-.33-9.81-.37-23.37,1.45-32.87.15-.82.27-1.26,1.02-1.75l7.26,2.87h-.01Z"/>
    <path class="st0" d="M217.94,427.74l1.45-33.5,6.94-1.12c-1.28-3.73-4.95-1.85-7.69-1.74,1.06-3.8-2.13-13.84-.07-16.49,1.57-2.03,5.66-.83,7.75-2.39,1.01,1,2.88,22.4,2.77,25.5-.19,5.17-1.57,10.94-2.06,16.11-.39,4.2.81,8.73-1.37,12.64-2.96.52-5.02-1.38-7.73.99h0ZM222.66,409.76c-.64-.32-1.26-.2-1.93-.19l-.71,3.5h4.89c.45-.39-2.08-3.21-2.26-3.29h.01Z"/>
    <path class="st0" d="M300.96,76.96c.12.06.23.88.69,1.15,18.62,10.89,31.04,29.33,46.34,44.07-2.56-.1-5.28,1.38-7.48,2.66-1.17.69-7.37,6.25-7.91,5.73l6.99-9.78c-.74-.65-3.66,1.74-4.4,2.21-.84.55-4.07,3.36-4.34,3.36-4.4.11,6.27-7.98,5.24-9.07-1.59.86-3.32,1.51-4.84,2.48-.96.62-3.45,4.2-3.53,1.37l6.28-8.05c-1.39-.1-2.83.52-4.01,1.19-.3.17-6.55,6.24-5.08,2.65,1.07-2.6,5.65-7.61,8.38-8.39l-2.92-.29-7.55,5.53c-1.13-2.27,5.85-7.45,4.89-8.38-.96-.63-8.71,6.36-6.88,1.85.7-1.74,4.51-4.01,4.79-6.74-1.22-1.24-5.11,5.87-7.69,4.54-1.8-.93,4.34-5.69,3.5-7.35-1.94-.61-4.4,5.28-5.94,2.79l2.45-5.6c-1.77.07-3.48,3.95-4.89,1.74l2.09-5.93c-1.45-.18-2.91,4.64-4.18,3.5s1.09-4.2.69-5.93c-.64-2.73-3.45,1.66-2.81,3.14-3.36-1.69-.7-4.23-.7-6.99l-2.79,2.45c-1.75-2.35-3.06-3.45-.7-5.94-3.69,1.44-5.2-.68-5.59-4.2.67,0,1.27-.12,1.91.21h-.01Z"/>
    <path class="st0" d="M405.33,226.36l2.78-2.09c2.72,7.11,2.52,14.28,6.73,20.9,1.32,2.07,3.63,4.14,5.18,6.02.49.59.15,1.55.64,2.12,1.99,2.34,8.51,3.65,11.44,2.98,1.65-.38,2.32-2.02,3.98-1.95-.31,5.3-.59,6.74-5.91,6.94-11.27.45-19.22-7.88-23.85-17.42,2.39-7.66-1.71-15.03-4.39-22.17,1.84-5.49,4.96,2.27,3.38,4.67h.01Z"/>
    <path class="st0" d="M214.18,351.81c4.8,4.6,8.33,10.56,10.53,16.87-1.5,1.68-7.26,5.74-8.79,3.4-1.77-2.71-2.64-6.03-4.99-9-3.02-3.82-7.74-6.98-11.16-10.51l5.92-7.17c.8-.06,7.41,5.37,8.48,6.41h.01Z"/>
    <path class="st0" d="M174.87,360.22c-4.67,4.71-8.24,10.65-10.08,17.18l-7.38-2.04c-1.3-3.6.82-6.56,2.38-9.61,1.75-3.42,9.36-15.64,12.36-17.01l5.84,8.16c.14,1.53-2.18,2.4-3.1,3.33h-.01Z"/>
    <path class="st0" d="M201.41,346.17c-1.19,1.64-2.33,3.42-3.14,5.3l-7.97-3.2c-1.83,1.19-5.68,5.87-7.7,6.09-1.82.2-6.36-5.31-7.28-7.3.4-1.94,13.39-8.68,15.76-8.77,1.82-.07,10.18,3.28,11.47,4.51.7.67.93,1.07.67,2.06-.21.69-1.47.87-1.81,1.33h-.01Z"/>
    <path class="st0" d="M182.97,371.45c.12-.55,1.31-2.32,2.09-2.45.76,5.02.96,9.65.02,14.65l8.3-.05,1.13-19.48c3.36,5.87,1.24,12.46,1.85,18.77,9.86,3.67,7.5-3.36,8.29-10.06.15-1.28-.21-1.13,1.4-1.03-.43,2.07.62,4.05.7,5.94.06,1.3-1.05,2.84-.65,4.1.7,2.23,4.33-.07,4.15,2.2-.58,4.08-9.25,2.84-12.19,3.2-5.54.65-11.27,2.04-17.02,1.87-3.07-.1-9.25-.58-5.8-4.39l7.73,1.06c.59-4.16-.81-10.49,0-14.34h0Z"/>
    <path class="st0" d="M379.45,88.63l-2.79,2.08c2.44-.04,5.2-.62,6.29,2.09-1.22,1.57-5.64-1.31-4.89,1.39l6.29,1.77-4.9,2.44,7.69,1.41c.04,3.66-6-.38-6.99,2.78l9.09,1.41c1.65,1.56-4.57,1.89-5.29,2.07-1.18.3-2.03-.7-1.7,1.41l8.04.67,1.75,1.78c-2.95,1.36-7.6-1.28-9.78,1.74,3.09-.02,6.86.19,9.81,1.07,1.24.37,1.64.13,1.37,1.74-2.34.21-5.02-.32-7.3.05-2.08.33-2.69,1.91-4.58,2.06-.9-9.47-3.88-18.78-7.7-27.6-.49-2.35,4.47-.24,5.6-.34h0Z"/>
    <path class="st0" d="M182.28,392.78c2.76-.77,3.35,3.07,3.53,5.21,1.19,13.77-1.22,28.2-.8,41.99.04,1.2.23,2.08.76,3.14-.82.61-3.5-1.11-3.5-1.74v-48.6h0Z"/>
    <path class="st0" d="M321.29,280.35c3.64,2.09,1.76,21.62,1.6,26.07-.11,3.23,2.32,11.85-3.21,10.85-1.49-12.27-.97-24.81-.37-37.08.63.07,1.38-.19,1.96.15h.01Z"/>
    <path class="st0" d="M373.16,159.94l.75,10.45h2.7c.77-2.59.42-5.54.75-8.01.29-2.14,1.77-.97,2.81,0,.43.4,4.42,5.64,4.55,5.99,1.13,2.87-1.91,2.77-2.29,3.03-.45.3-.23,1.36-2.06,1.69-1.43.25-4.64.19-6.05-.12-3.09-.68-6.92-4.09-7.32-7.26-.55-4.33,2.12-5.94,6.16-5.75h.01Z"/>
    <path class="st0" d="M203.95,443.13v-52.44c2.32-.21,2.62,3.54,2.78,5.25.96,9.44.87,35.94-1.33,44.72-.25.99-.11,2.21-1.45,2.46Z"/>
    <path class="st0" d="M195.56,394.17c2.92,15.24.05,30.75.7,46.15-.92-.2-1.55-1.12-1.9-1.94-2.12-4.85-.7-29.32-.29-36.24.13-2.25-.4-4.14.13-6.92.21-1.12-.5-1.21,1.37-1.06h-.01Z"/>
    <path class="st0" d="M392.02,213.1c1.28,2.45,3.92,4.39,5.48,6.75,2.72,4.15,4.77,9.75,7.12,14.21l-6.92,2.02c-1.69-3.2-3.23-6.85-5.11-9.91-1.28-2.09-5.71-7.01-6.15-8.55-.36-1.24.57-1.43,1.41-.7l9.42,11.56c1.28-1.02.88-.8.5-1.87-1.27-3.58-5.21-8.93-7.12-12.48l1.38-1.02h-.01Z"/>
    <path class="st0" d="M435.39,178.11c-5.1-1.33-10.9,2.28-15.7,1.38-.67-.13-9.45-3.99-9.45-4.52,2.16-2.63,2,.26,2.5.34,1.01.15,4.35-.63,5.87,0l-2.79-2.08c8.89-5.1,13.3-1.74,19.58,4.87Z"/>
    <path class="st0" d="M241.01,176.02l-4.1-1.84c.15-5.78-.43-11.67-.36-17.43.04-3.2-.88-10.51,3.06-10.79-.53,1.26,1.4,3.53,1.4,3.85v26.23h0Z"/>
    <path class="st0" d="M356.38,445.91l-2.7-.1c-3.94-17.59-9.63-34.99-11.28-53.03l13.98,53.13h0Z"/>
    <path class="st0" d="M381.55,128.49c.56,2.39-3.25,1.14-5.09,1.55-1.59.36-4.64,2.79-5.73,2.64-2.94-.39,2.72-3.92,1.72-4.9-2.44-.37-4.11,3.86-6.31,2.48-2.92-1.84-.46-5.36.43-7.32.25-.56,1.74-1.84-.07-2.15s-1.14,1.83-1.25,1.94c-.37.39-4.26,3.33-4.68,2.95l4.18-5.93c-1.6-2.28-2.96,1.25-4.17,1.75l1.4-4.89c6.32,4.21,12.2,9.47,19.57,11.9h0Z"/>
    <path class="st0" d="M408.99,413.63c3.54,4.97,2.95,8.8,4.49,14.69,1.3,4.98,2.98,9.86,4.43,14.79-.93-.02-1.97.23-2.82-.32-1.78-1.14-5.99-29.15-8.12-33.01l-1.65-11.04c.42-.95,1.46.9,1.57,1.22,1,2.76,1.69,13.11,2.09,13.68h0Z"/>
    <path class="st0" d="M383.11,389.81c-.65-.71-.76-2.01-.87-2.96-.37-3.28-.27-13.3-.02-16.82.17-2.35.7-5.21,1.77-7.31.86.73,1.51,1.28,1.74,2.46.86,4.46-.25,12.59-.29,17.46,0,.84,1.65,11.51-2.33,7.17h0Z"/>
    <path class="st0" d="M389.5,136.02c.17.3,1.93-.1,1.13,1.53l-5.59.71,2.09,1.74c-.77,1.71-6.1,1.7-5.59-1.03l2.79-2.1c-2.27-.32-2.95.14-3.84,2.1l-1.76-.71.7-2.09c-1.75-.07-3.72.56-4.87-1.06,1.36-6,11.4-3.69,14.71-.68.55.5.02,1.21.23,1.58h0Z"/>
    <path class="st0" d="M371.07,388.6l-2.15-.42c-1.2-1.63-.64-14.1-.73-17.33-.11-4.07-1.52-6.11,1.5-10.22.95.12,1.22.95,1.36,1.77.4,2.37.69,8.43.77,11.14.14,4.72-.83,10.26-.74,15.06h-.01Z"/>
    <path class="st0" d="M324.21,391.38c-1.36.68-3.5-1.4-3.5-2.45v-21.67c0-1.32,3.5-1.32,3.5,0v24.12Z"/>
    <path class="st0" d="M173.74,120.64c-.24.32-3.82,1.47-4.49,1.53-4.08.33-4.78-3.73-4.14-6.98,2.14-1.49,8.98-3.78,9.49.39.08.68-.58,4.68-.86,5.05Z"/>
    <path class="st0" d="M320.02,224.97l-3.4-.1c-.73-.45-1.93-15.23-.86-16.92.27-.43,1.41-1.03,1.82-.99,3.6.5.74,15.25,2.44,18Z"/>
    <path class="st0" d="M193.35,112.52c.97.61,2.14,5.08.34,6.23-1.37.88-8.16,1.17-9.01-.04l.36-5.98,8.31-.21h0Z"/>
    <path class="st0" d="M115.85,244.53c.49-1.3.4-3.26.86-4.37,1.3-3.2,11.76-3.11,9.55,3.25-.71,2.03-8.55,1.87-10.4,1.13Z"/>
    <path class="st0" d="M77.39,249.44l1.36-8.08c11.25-2.1,8.6,9.95-1.36,8.08Z"/>
    <path class="st0" d="M134.68,441.77l.05,2.75-17.48,1.4-.71-3.84c6.07-.17,12.17-1.7,18.14-.31h0Z"/>
    <path class="st0" d="M335.4,229.86l-3.16-.69c-1.96-4.72-.53-9.2-.33-14,1.26-1.02,3.5,2.07,3.5,2.45v12.23h0Z"/>
    <path class="st0" d="M97.74,247.27c-2.44-6.61.59-8.48,6.99-7.29,2.04,5.03-2.19,7.98-6.99,7.29Z"/>
    <path class="st0" d="M212.33,117.98h-8.38c-.17-5.94,2.96-7.38,8.43-5.97l-.04,5.97h-.01Z"/>
    <path class="st0" d="M255.69,254.34l.11-6.19c5.37-2.33,8.45-.3,7.3,5.54l-7.39.65h-.01Z"/>
    <path class="st0" d="M154.9,116.7l.11,6.19c-4.77-.17-8.69,2.22-7.57-4.79,2.81-1.01,4.35-3.36,7.48-1.4h-.01Z"/>
    <path class="st0" d="M280.17,252.94l-6.34-.31-.56-5.88c6-2.46,7.63.39,6.9,6.19h0Z"/>
    <path class="st0" d="M136.01,123.48c-2.95,1.81-6.62,2.46-7.48-1.81-1.17-5.9,9.49-5.56,7.48,1.81Z"/>
    <path class="st0" d="M63.18,242.63c4.03-.1,7.99,7.93,1.45,7.37-3.34-.29-4.02-2.96-4.66-5.75.21-.83,2.41-1.6,3.21-1.62Z"/>
    <polygon class="st0" points="296.95 245.95 296.29 251.93 289.95 252.24 290.61 246.25 296.95 245.95"/>
    <path class="st0" d="M225.62,429.85c.52,3.61-1.58,5.36-2.94,7.89-.86,1.59-.81,4.79-3.34,4.68,1.01-3.92,3.27-8.49,0-11.88l6.29-.7h-.01Z"/>
    <path class="st0" d="M399.73,143.85c-4.07.26-7.49.62-11.46-.69l-.43-1.38c4.62-3.34,8.77-2.89,11.88,2.08h.01Z"/>
    <path class="st0" d="M244.29,250.35c.83,1.03,1.08,2.63.84,3.92-1.77.59-4.29,1.55-5.9.08-3.42-4.13,2.14-7.62,5.05-4.01h0Z"/>
    <path class="st0" d="M410.9,222.17c-.78-.2-1.83-3.44-1.93-4.01-.27-1.7-.2-3.38-.17-5.09,2.16-.08,4.48-.42,5.53,1.89l-3.44,7.2h0Z"/>
    <path class="st0" d="M235.42,367.6l-.33,7.72c-2.59,3.4-4.86-5.35-4.51-6.57.48-1.66,3.54-1.08,4.84-1.14h0Z"/>
    <path class="st0" d="M324.73,348.91c.55.44.96,1.87.89,2.6-.37.34-8.61-1.25-9.9-1.63-.87-.26-3.9-1.06-3.38-2.56,2.83,1.01,10.46.05,12.39,1.58h0Z"/>
    <path class="st0" d="M306.74,240.35c-2.78-3.72,11.82-.56,11.86,1.76.07,2.96-10.68-1.93-11.86-1.76Z"/>
    <path class="st0" d="M338.9,249.44c.02,1.21.39,1.5-1,1.34s-16.07-4.73-13.68-6.94l14.68,5.6h0Z"/>
    <path class="st0" d="M403.22,239.66c.31.36-2.72,7.68-3.84,7.68-2.29-1.96-1.76-4.98-1.74-7.68h5.59-.01Z"/>
    <path class="st0" d="M396.23,338.93c-2.14-2.12,4.97-1.13,5.68-.95,1.22.29,7.54,2.59,7.58,3.41-1.07,1.59-1.41.75-2.62.55-3.6-.63-7.13-2.08-10.65-3h0Z"/>
    <path class="st0" d="M166.88,272.51c-1.06-.2-.99-3.63-1-4.54-.07-6.12.19-12.44.65-18.53,2.19-.05.5,20.53.34,23.08Z"/>
    <path class="st0" d="M390.65,334.75c-.86,2.18-3.8,1.43-5.53.95-1.52-.42-1.52-1.39-1.62-1.43-1.49-.51-5,.19-6.15-3.01l13.28,3.5h.01Z"/>
    <path class="st0" d="M151.5,376.7l-.7,5.6-5.59-2.46,1.33-1.34-.64-1.78c2.08.44,3.57,1.26,5.59,0h.01Z"/>
    <path class="st0" d="M429.81,229.16l-1.4-6.99c1.38-.2,4.41.38,4.83,1.85.38,1.34-2.15,6.1-3.42,5.14Z"/>
    <path class="st0" d="M257.08,117.31l-.33,1.38c-3.83-2.95-8.77-3.89-12.85-6.06-1.12-.59-2.62-.67-2.19-2.32l15.37,7h0Z"/>
    <path class="st0" d="M378.76,86.52l-6.34.38-2.06-4.57c3.03.75,6.84,1,8.38,4.18h.01Z"/>
    <path class="st0" d="M370.36,328.45v2.09l-2.4-.04-8.1-3.45c3.66-1.43,6.87,1.37,10.49,1.39h.01Z"/>
    <path class="st0" d="M396.23,423.56c-.29,1.22-1.26,1.39-2.35,1.37-1.27-.02-7.95-1.32-9.57-1.69-1-.23-2.5-.62-2.76-1.78l14.68,2.09h0Z"/>
    <path class="st0" d="M389.93,201.21c-.24,2.07,2.69,1.47,4.21,2.09l-1.75,7.68c-1.32-.95-1.69-7.25-1.93-7.56-.39-.5-4.3-1.93-.52-2.21h-.01Z"/>
    <path class="st0" d="M151.51,234.06c2.6.12,5.29,1.12,6.98,3.14l-1.88,1.66c-1.47.38-5.85-2.59-5.09-4.81h-.01Z"/>
    <path class="st0" d="M312.33,427.03c1.7.32,1.15-.2,1.69-1.33l4.11.62,1.19,2.81-6.62-1.43-1.06,1.43c-.34-1.52-1.25-2.43.34-3.48l.34,1.39Z"/>
    <path class="st0" d="M352.88,326.35c-1.82-.71-3.94-.42-5.73-.9-.59-.17-3.25-1.12-3.35-1.89,3.03-.14,9.28-2.06,9.08,2.78h0Z"/>
    <polygon class="st0" points="282.96 174.63 282.43 178.64 275.97 187.21 281.33 176.12 282.96 174.63"/>
    <path class="st0" d="M236.81,109.59c-2.09-1.05-4.73-1.06-6.82-1.88-.25-.1-2.97-2.4-2.26-3.01,1.19-.3,10.77,3.33,9.08,4.89Z"/>
    <path class="st0" d="M403.22,207.49c-.89,1.88-.89,4.01-1.38,5.99-.29,1.19.69,2.03-1.41,1.7l-.7-7.69h3.5Z"/>
    <path class="st0" d="M341,428.45c-1.9,3.02-6.3.58-9.09.69-1.14-.93.08-1.26,1.03-1.39,2.71-.37,5.42.26,8.06.7h0Z"/>
    <path class="st0" d="M332.61,417.26c-.42,1.55-.93,1.03-1.94.94-.86-.07-8.18-1.14-7.85-2,3.47-2.52,6.27.94,9.78,1.06h0Z"/>
    <path class="st0" d="M336.1,441.04c2.26,2.25-5.27.87-5.91.65-1.14-.39-2.03-.51-1.78-2.06,2.75-.43,5.12.73,7.69,1.4h0Z"/>
    <path class="st0" d="M148.71,235.46c-2.13-1.65-5.54-1.93-6.29-4.89,3-.02,7.05,1.17,6.29,4.89Z"/>
    <rect class="st0" x="274.8" y="188.78" width="13.64" height="1.22" transform="translate(-5.94 369.64) rotate(-66)"/>
    <path class="st0" d="M138.23,244.55c1.74-.17,4.71.87,4.18,3.14-.49,2.15-5.69-.36-4.18-3.14Z"/>
    <path d="M90.03,311.62l.42-30.61c-.27-6.68,6.25-12.01,10.06-4.68,5.02,9.67-.14,22.83,2.53,32.93-.36,2.26-11,2.73-13.01,2.35h0Z"/>
    <path d="M99.61,376.54l-6.86,1.27-.67-1.46c.65-8.8-.97-18.61,0-27.26.94-8.43,8.19-6.73,8.77,1.72.37,5.28.19,17.51-.38,22.77-.11,1.05-.23,2.09-.86,2.97h-.01Z"/>
    <path d="M94.18,402.57c-.2-1.36.53-1.87,1.76-2.09,5.35-.96,11.02-.24,16.03-.69,2.22-.2,15.06-2.88,15.79-2.12l-.42,2.87-13.81,1.43-1.18,1.64.71,8.75c1.96-.07,3.97.13,5.94-.01,2.13-.15,8.76-2.18,9.8-.69l-.34,1.77c-2.65-.26-4.78,1.3-7.42,1.65-1.43.19-13.23.7-13.91.51-.96-.29-1.22-.89-1.06-1.82l4.23-1.11c-.53-3.21,1.08-7.57-1.09-10.08h-15.04.01Z"/>
    <path d="M127.04,422.86c-1.62,2.25,2.12,3.97-.38,5.55-3.13-.56-14.22-.49-16.36,1.12-2.07,1.56-1.53,7.17-2.26,9.63-.26.89-.97,1.57-1.64.49-1.5-2.45.27-7.6-.37-10.47-7.54-1.69-3.46-3.73,1.9-3.96,3.8-.17,11.88.36,15.25-.29,1.84-.34,2.04-2.21,3.85-2.07h0Z"/>
    <path d="M125.32,256.72c1.57.24,2.67,3.1.53,3.78-2.43.77-13.46,1.85-15.99,1.56-1.05-.12-1.76-.07-2.41-1.09-.29-1.3,1.7-2,2.63-2.26,2.04-.58,13.61-2.23,15.24-1.99h0Z"/>
    <path d="M88.23,399.07c3.09,3.33-2.92,3.77-5.6,3.82s-7.34-.55-9.82-.97l-.31-2.13c.68.18,1.49-.71,1.75-.71h13.98Z"/>
    <path d="M80.77,303.18c-3.61-1.47-12.19,2.51-11.07-3.4,4.1.88,9.62-2.87,12.45,1.03l-1.39,2.35h.01Z"/>
    <path d="M109.56,357.13c2.71.57,13.18-3.51,13.98-.34.82,3.27-10.82,2-12.3,3.1l-1.34-.64-.33-2.12h0Z"/>
    <path d="M82.29,414.45c-.33-2,.42-1.17,1.62-1.49,3.14-.86,8.55-1.45,11.84-1.56,3.01-.1,2.51,2.64.18,3.04-4.42.76-9.19-.01-13.62,0h-.01Z"/>
    <path d="M82.89,319.45l.8,2.7c-2.12.51-12.57,3.16-12.58.36,0-1.65,9.96-3.41,11.77-3.06h.01Z"/>
    <path d="M110.26,387.87c0-3.7,12.22-3.45,12.58-1.72.23,1.06-.82,1.58-1.75,1.74-1.52.26-10.22.83-10.84,0h.01Z"/>
    <path d="M120.04,369l-.7,9.8-2.35-.1c-2.13-.69-.06-9.56.7-9.74l2.35.02h0Z"/>
    <path d="M112.35,317.97v-2.08c1.7-.15,11.42-3.51,11.89-1.05.49,2.59-10.14,3.44-11.89,3.14h0Z"/>
    <path d="M82.99,263.42l-.42,2.15-2.09.56-10.08-.29c-.46-2.87,10.95-2.48,12.59-2.44h0Z"/>
    <path d="M99.06,329.16c2.69,2.23-11.46,3-12.58,2.79.07-5.42,9.14-2.29,12.58-2.79Z"/>
    <path d="M120.01,323.57c2,4.51-5.94,4.21-9.06,4.18l.65-3.19,8.41-1Z"/>
    <path d="M69.71,332.63l.4-2.14c15.48-2.83,10.93,4.59-.4,2.14Z"/>
    <path d="M84.3,367.52l-2.71.1c-1.08-11.58,5.86-12.24,2.71-.1Z"/>
    <path d="M79.48,341.74l-.11,7.93-.55.84-2.13.31c.2-2.07-1.32-4.54-.59-6.54.07-.2,2.87-3.25,3.39-2.54h-.01Z"/>
    <path d="M120.04,299.78c-10.18,4.2-13.37-2.95-1.19-1.97l1.19,1.97Z"/>
    <path d="M84.38,377.4h-9.78v-2.09c3.57,1.22,11.57-3.97,9.78,2.09Z"/>
    <path d="M117.94,277.41l.71,8.74c-3.98,1.81-3.09-5.34-2.19-7.76.36-.96-.23-1.19,1.47-.97h0Z"/>
    <path d="M78.09,275.31l.04-3.46c11-2.59,1.89,5.41-.04,3.46Z"/>
    <path d="M118.7,345.18c-1.26-.88-.32-5.64,2.38-4.84s.59,6.91-2.38,4.84Z"/>
    <path d="M99.06,387.19c-.68,1.27-4.85,2.16-5.98,2.13-1.03-.04-3.08-1.01-3.1-1.78-.04-1.82,7.95-.24,9.07-.34h.01Z"/>
    <path d="M80.88,282.3c-.3,3.61-5.15,3.78-6.98,1.05,1.71-1.95,4.73-.77,6.98-1.05Z"/>
    <path d="M76.69,361.31c-1.41-.4-7.53,1.32-6.29-1.74.55-1.36,7.91-1.72,6.29,1.74Z"/>
    <path d="M71.1,410.97v2.77c-2.48.01-5.06,1.14-6.99-1.03l6.99-1.74Z"/>
    <path d="M275.91,315.82c-3.27.26-10.91,3.77-11.82-1.02-1.52-8.04,1.32-19.94-.33-28.4,2.41-10.93,10.62-10.9,12.13.51,1.15,8.63-2.16,19.91.01,28.91h.01Z"/>
    <path d="M270.19,354.51c3.69,3.5.56,24.54,1.58,30.23-.64,3.53-7.09,3.71-7.94-1.85-.62-4.07.18-13.71.29-18.46.04-1.45-.59-2.9-.51-4.07.24-3.4,2.53-8.75,6.59-5.85h0Z"/>
    <path d="M284.28,336.2l-.37,2.65c-5.23.01-10.38,1.44-15.55,1.77-4.15.26-8.62-.55-12.32-.65-1.56-.05-9.36,3.03-9.44.04-.05-1.66,9.02-3,10.83-3.14,8.58-.67,18.17-.29,26.83-.64v-.02Z"/>
    <path d="M275.97,395.59l-.87,1.57-24.31,1.21.42-2.15c8-2.31,16.63-1.21,24.76-.63Z"/>
    <path d="M293.45,327.75l-21.67,2.79c-.29-1.68.19-1.32,1.39-1.71,2.45-.81,17.45-3.6,19.1-3.07.92.3,1.36,1.03,1.18,1.99h0Z"/>
    <path d="M301.14,432.63l-.31,2.84c-.75,1.09-10.63.87-12.32.33-3.64-1.14-2.01-3.17,1.08-3.17h11.54Z"/>
    <path d="M295.55,396.98c-1.64-.74-13.28,2.27-12.59-1.03.59-2.83,9.19-1.08,11.56-3.04l1.03,4.08Z"/>
    <path d="M248.07,383.62l-.07-4.13c1.7.26,10.39-.77,10.47,1.05-1.27,3.54-3.32,2-5.9,2.48-1.69.32-2.7,1.71-4.51.58h0Z"/>
    <path d="M245.2,309.56l.31-2.13c.78-1.07,9.67-1.21,10.18.39,1.26,3.77-10.15,2.23-10.47,1.74h-.01Z"/>
    <path d="M254.11,323.73c.99.01,1.95.81,2.19,1.69,1,3.73-12.79,3.98-7.83-1.05,1.8.29,4.17-.65,5.65-.63h0Z"/>
    <path d="M281.57,352.91c.5-3.83,4.13-2.09,6.63-2.02,2.13.06,3.59-1.7,5.23.99.02,1.64-10.18,2.82-11.86,1.03h0Z"/>
    <path d="M294.85,441.74c-.9.56-3.2,2.58-3.97,2.65-1.89.17-4.36-1.11-6.51-.56l.31-2.14.84-.55,9.33.59h0Z"/>
    <path d="M255,269.73l-.81,3.39c-10.96,2.89-7.68-5.33.81-3.39Z"/>
    <path d="M241.35,410.26c-.58-.17-1.27-1.34-1.05-2.09,2.2-.37,11.31-.63,12.24.69l-.7,1.4h-10.5Z"/>
    <path d="M272.48,435.42l-8.38.7c-.39-5.34,8.39-5.67,8.38-.7Z"/>
    <path d="M257.68,348.14c.26.17.67,1.71.71,2.26-.53,2.39-8.86,2.66-6.43-.95,2.2.65,3.21-2.85,5.72-1.3h0Z"/>
    <path d="M283.66,303.27l.31-2.13.84-.55c1.21-.21,7.24-.55,7.22.94-1.94,2.82-5.43,1.51-8.37,1.75h0Z"/>
    <path d="M255.62,291.46l.76,1.69c-.05,1.24-11.01,3.65-6.5-1.77l5.75.1h-.01Z"/>
    <path d="M292.06,287.9l-1.18,2.82c-2.12-.24-4.92.78-6.5-1.07,2.03-2.43,4.85-2.88,7.68-1.74h0Z"/>
    <path d="M268.9,440.39l.76,1.68c-5.49,4.45-10.2-3.03-.76-1.68Z"/>
    <path d="M271.77,270.43c-.29,3.65-3.1,2.02-5.6,2.09l.32-2.13.84-.58,4.43.63h0Z"/>
    <path d="M293.45,335.46c1.15,1.55-4.76,3.84-5.59,1.74-1.15-2.96,4.2-2.21,5.59-1.74Z"/>
    <path d="M282.95,320.76c-1.99,1.87-2.67-5.46-.33-6.29,1.32,1,1.17,5.5.33,6.29Z"/>
    <path d="M175.04,146.19c.57.56,2.54,3.7,2.85,4.48,1.21,3.07,1.53,26.7.71,30.37-.11.49-1.24,2.58-1.74,2.67l-11.65.63-1-1.53c.24-5.17.48-10.33.59-15.51.11-4.47-.96-10.45.13-14.55s5.41-11.09,10.08-6.57h.01Z"/>
    <path d="M191.8,224.32c5.16-.12,3.64,3.09,3.77,5.93.14,3.15,1.37,11.92-1.01,13.65s-5.46.25-5.67-2.46c-.25-3.04.51-10.7,1.27-13.81.26-1.03.5-2.91,1.64-3.29h0Z"/>
    <path d="M194.16,180.22l-.74,8.7,2.14.38v2.09l-14.68,1.4c-2.12-1.84,9.55-4.13,10.49-3.5.53-3.76-2.41-8.1,2.79-9.08Z"/>
    <path d="M203.88,250.78c-.74,1.08-5.47.05-7.16.33-2.26.38-4.81,2.25-7.45,1.82-.57-3.89,2.26-4.33,5.31-4.81.96-.15,7.82-.84,8.21-.73,1.15.36,1.6,2.62,1.08,3.38h0Z"/>
    <path d="M159.19,131.28l-.69,2.46c-4.61-.36-12.2,5.28-14.68-.01.13-1.68,13.31-2.64,15.36-2.44h.01Z"/>
    <path d="M149.41,171.12c-4.54-1.59-.69-18.49,1.4-16.77.77,5.41-.07,11.42-1.4,16.77Z"/>
    <path d="M151.33,144.7c.95.02,1.76.65,1.57,1.6-.38,1.87-12.78,4.42-13.28,2.09-.52-2.44,10.02-3.73,11.71-3.7h0Z"/>
    <path d="M190.67,205.39c-.27-1.38.64-1.66,1.6-2.23,1.64-.96,11.21-2.97,11.67-.9.71,3.26-11.1,2.44-13.28,3.13h0Z"/>
    <path d="M196.39,260.45c-.58-.21-2.6-2.51-.36-3.21,1.52-.46,3.59.13,5.34-.26,1.5-.33,3.88-3.44,4.57-.11.18.88-.83,2.62-1.75,2.94-.37.13-7.43.77-7.8.64Z"/>
    <path d="M180.18,137.58l-14.67,2.78.4-2.16c4.57-1.52,9.62-2,14.27-.63h0Z"/>
    <path d="M182.21,218.74c2.52,4.74-4.66,4.15-7.62,4.14l.67-3.19,6.97-.95h-.01Z"/>
    <path d="M150.11,172.53c.61,4.55-8.74,2.7-11.88,2.78,2.34-3.33,8.18-1.84,11.88-2.78Z"/>
    <path d="M199.05,156.44c-.59.89-7.24.73-8.74.71-.86-.11-.75-2.41,1.4-2.79,1.26-.23,9.7-1.47,7.34,2.08h0Z"/>
    <path d="M203.95,131.29c1.85,2.67-7.86,5.6-8.38,3.13-.36-1.7,7.18-4.86,8.38-3.13Z"/>
    <path d="M196.26,143.86c3.7-.89,4.24,4.83,1.63,5.5-3.47.9-1.94-3.82-1.63-5.5Z"/>
    <path d="M192.77,220.07c-.8-2.6,4.95-5.61,5.59-3.13.76,2.94-3.65,3.6-5.59,3.13Z"/>
    <path d="M196.96,171.84c-1.22,2.94-4.37,2.03-6.99,2.09v-2.09h6.99Z"/>
    <path d="M431.9,195.6c-.67-.18-.58-1.06.04-1.7.77-.81,3.55-1.36,3.13-2.5-1.83-1.38-4.59-2.66-6.9-2.1-.69.17-.08,1.91-1.5,1.4l-1.15-2.69c-7.1-1.13-5.78,7.13-4.81,11.78-8.62-6.54-2.92-18.57,7.7-16.08l-.71-1.39h5.24l1.75,2.09-4.18.69c1.95-.59,7.58,3.28,8.02,3.27,2.06-.02,5.8-2.73,9.68-.46.59.34.58,2.83,2.96.71l-.38-2.81h2.08c.3,1.76.4,5.42,1.11,6.93.67,1.43,3.21,3.74,3.57,5.42.24,1.09-.48,4.26.21,5.83l-4.18-2.1,1.44-2.45-2.54-2.45c1.02-2.83-2.15-2.88-4.48-4.2l2.09-2.08c-3.78-1.05-7.09-2.72-11.19-2.1,5.43,4.73,8.54,9.9,9.82,17.01l-1.77,1.87c-2.69-.93-1.96-3.72-3.03-6.07-1.11-2.45-5.31-7.3-8.18-7.29-1.55,0-2.96,1.71-3.84,1.47.11.07.05.96.46,1.32,1.8,1.56,8.14,8.12,6.48,10.51l-4.87,1.13-1.37-2.13c1.08-.74,2.14.12.73-1.4-2.6-2.79-9.96-3.39-8.26-8.93.18-.59,1.44-2.06,1.95-2.27.24-.11,4.7,1.63,4.9,1.77h.01Z"/>
    <path d="M329.61,174.82c1.68,1.72,2.64,7.32,1.41,9.43-.2.36-5.75,5.11-6.17,5.36-1.21.71-2.62.63-3.61,1.14-.8.4-2.08,3.25-4.03,1.71l7.68-5.27-.43-1.43c-1.68-.31-4.09-1.52-2.71-3.46,5.05,1.81,6.3-2.33,1.05-2.09-.52-.89,2.79-.58.7-1.75-4.6-2.56-17.04,1.76-22.17,3.02-.64.15-1.72,1.51-2.29-.23-.36-1.08,2.2-2.08,3.03-2.54,4.29-2.45,11.54-5.53,16.39-6.03,2.35-.24,9.62.57,11.15,2.13h0Z"/>
    <path d="M355.49,142.32c-.45.31-1.33.13-1.9.14,1.01,2.58,1.39,2.26,0,4.89l-1.75-2.12h-1.39l-1.03,1.41-.08-2.46,8.82-8.02c.93.74-2.37,5.96-2.64,6.15h-.02Z"/>
    <path d="M354.28,136.17l-8.38,6.99c-.44-2.75,2.91-3.67,4.65-5.14,1.34-1.14.75-3.15,3.74-1.84h-.01Z"/>
    <path d="M357.07,210.28c-.29.24-1.59,0-2.1-.33-2.85-1.97,3.58-5.56,4.9-6.66l-2.79,6.99Z"/>
    <path d="M363.36,206.8l-1.4,1.05,1.4,1.74c-2.34.53-1.64,3.07-4.89,1.4-.42-2.76,2.52-4.29,4.89-4.18Z"/>
    <polygon points="221.43 333.34 213.47 334.01 212.36 330.57 221.12 331.21 221.43 333.34"/>
    <path d="M171.09,341.03c.3-2.38-.52-5.68.14-7.89.61-2.02,3.16-3.06,3.04.19-.11,2.82.34,8.58-3.19,7.69h0Z"/>
    <path d="M227.73,338.95l-.81,2.69c-3.08.31-5.11,1.59-8.29.81-1.57-3.66,8.6-4.14,9.09-3.48h0Z"/>
    <path d="M148.72,350.13c-.34-3.71,9.42-3.47,9.78-1.74.61,2.85-8.08,1.41-9.78,1.74Z"/>
    <path d="M141.72,101.9l-13.98,2.1c-.38-4.58,8.46-3.9,11.57-3.52,1.05.13,2.15.12,2.41,1.41Z"/>
    <path d="M205.37,92.12c6.11,5.15-1.95,5.36-5.88,5.71-1.09.1-1.58,1.02-2.52-.48.93-4.35,7.92-1.3,8.41-5.23h0Z"/>
    <path d="M174.58,99.12l-9.78,1.76-2.79-.38c-.33-2,.43-1.15,1.62-1.49,3.51-.97,7.44-.94,10.96.11Z"/>
    <path d="M219.34,300.48c1.26-2.58,5.42-4.08,7.68-1.74-1.81,2.67-4.91,1.59-7.68,1.74Z"/>
    <path d="M64.8,218.68c.05,1.94,2.87,11.89-1.74,10.49-1.62-.49-2.28-11.07,1.74-10.49Z"/>
    <path d="M112.35,225.67l1.18-2.12c3.09.74,6.82-2.16,9.3.38-2.67,2.87-6.98,1.45-10.47,1.74h0Z"/>
    <path d="M94.88,224.28v2.09h-6.29c0-3.19,4.1-1.89,6.29-2.09Z"/>
    <path d="M124.23,208.19c.36,2.58,1.66,4.51-1.05,6.28-2,.05-.69-8.07,1.05-6.28Z"/>
    <path d="M239.61,222.17c-.94,2.14,2.54,9.86-1.05,9.77-2.14-.05.2-6.95-.65-8.45l1.7-1.32h0Z"/>
    <path d="M273.17,233.35l-9.08,1.4c-2.04-1.69,8.33-4.79,9.08-1.4Z"/>
    <path d="M222.66,409.76c.18.1,2.71,2.9,2.26,3.29h-4.89l.71-3.5c.67,0,1.28-.12,1.93.19h-.01Z"/>
  </g>
</svg>